<svg viewBox="0 0 396.561 348.835" xmlns="http://www.w3.org/2000/svg" xmlns:xlink="http://www.w3.org/1999/xlink" overflow="hidden"><path d="M79.0188 55.3507 84.3877 55.5297 85.1035 57.3193 89.2197 57.3193 90.6514 56.0666 95.4835 56.7824 95.6624 59.8248 94.5886 60.3617 94.4097 63.941 97.2731 66.2675 97.2731 68.952 99.0627 68.952 99.4207 67.5203 106.758 68.2361 116.243 70.3837 118.57 72.1733 123.223 71.9944 126.981 68.4151 130.381 66.9834 127.16 66.0886 125.37 64.1199 128.055 61.4355 128.95 57.6772 134.319 53.919 139.509 51.2346 147.741 49.087 154.184 44.7919 159.016 37.9912 160.984 29.9379 160.268 19.7369 162.058 13.8311 166.711 10.9677 172.438 9.71497 180.849 5.24084 183.534 10.7888 182.639 14.547 187.292 18.1263 190.871 20.0948 194.987 16.1577 198.03 19.558 198.567 23.1373 200.893 26.5375 206.083 25.8217 208.768 29.401 209.304 31.7275 215.031 31.3696 218.074 31.0117 220.4 33.1592 219.505 38.3492 221.653 39.9598 220.579 42.6443 222.727 44.2549 229.885 44.076 232.928 41.2126 235.97 35.4857 235.97 43.3602 237.76 48.7291 247.424 52.3083 252.077 57.6772 255.835 57.4983 258.698 54.9928 261.741 58.3931 268.541 57.6772 271.763 55.8876 275.7 57.6772 282.501 66.8044 286.259 67.1624 286.08 65.1937 290.017 64.6569 292.702 67.5203 296.997 66.9834 298.07 65.1937 300.934 65.5517 303.618 68.773 311.672 67.3413 318.651 69.4889 317.399 76.4684 311.672 82.3743 308.629 102.418 309.703 109.398 307.914 115.125 309.524 119.778 310.061 123.894 307.198 127.473 301.65 127.652 301.292 125.147 299.323 125.684 295.028 129.263 295.028 132.126 298.786 131.231 298.07 133.916 290.375 146.264 286.08 146.98 285.543 155.392 278.921 161.655 279.995 163.624 278.206 166.487 278.206 168.993 281.069 170.782 279.458 174.362 275.7 176.151 277.848 179.015 282.501 177.762 284.648 175.435 284.648 173.467 282.68 171.498 285.006 169.53 289.301 169.172 293.954 165.95 298.965 171.498 296.818 176.33 299.323 176.509 304.334 183.489 302.008 187.068 298.965 188.5 299.144 191.9 301.65 193.869 304.513 194.227 304.871 198.701 309.882 202.459 309.882 208.902 303.618 213.376 298.249 213.376 298.428 217.492 301.292 219.103 302.187 222.503 308.808 224.472 308.808 232.883 305.229 235.746 308.987 238.61 306.661 239.505 306.661 242.01 312.388 246.305 316.325 246.305 318.293 247.916 327.242 248.811 329.21 245.231 331 250.063 329.747 254.358 327.063 258.117 328.852 261.517 323.841 264.202 319.546 266.17 317.578 270.823 314.535 272.434 312.209 277.087 307.735 279.592 307.198 286.572 299.86 287.646 296.102 291.404 288.764 292.657 280.532 291.225 270.689 288.541 270.689 284.603 266.752 284.424 264.425 285.856 250.287 285.498 248.14 281.561 244.023 282.814 237.044 282.456 234.18 279.413 220.579 289.793 217.537 290.33 211.989 295.52 208.589 302.858 208.768 312.343 210.557 319.859 208.947 320.754 205.188 321.47 198.746 327.018 193.556 326.66 189.797 324.154 184.965 324.691 184.249 326.839 179.775 326.839 178.702 323.617 173.333 320.933 173.154 317.891 166.711 315.743 164.742 317.891 162.416 313.417 156.868 313.774 155.078 310.911 149.531 310.195 142.372 308.942 143.804 314.669 134.14 315.385 122.507 314.132 122.507 311.448 115.527 309.479 109.085 311.269 103.895 304.468 95.6624 304.468 90.2935 301.068 89.3987 298.921 88.5039 298.742 87.2511 301.605 85.1035 301.247 85.1035 298.921 86.5353 298.026 86.3563 292.299 77.2291 290.867 75.2605 288.004 79.7346 286.572 84.5667 280.845 85.9984 273.329 89.2197 262.77 90.8304 251.316 92.2621 239.862 96.1993 240.757 92.62 236.104 93.5148 222.861 94.4097 210.512 96.9152 209.081 99.7786 211.586 104.432 217.85 107.116 224.651 106.221 213.376 100.315 207.291 92.62 203.175 93.1569 197.448 88.8618 192.974 89.7566 189.574 92.62 192.079 94.5886 195.3 97.2731 193.511 96.9152 188.858 93.5148 185.457 89.0408 185.457 86.3563 187.784 83.3139 185.099 85.6404 181.341 89.2197 183.131 94.0517 183.131 92.4411 180.446 87.0722 177.762 81.7032 175.614 77.4081 172.035 77.0502 166.666 71.3233 161.297 71.8602 157.718 74.5447 153.423 72.934 150.381 69.7127 149.844 68.2809 145.37 63.27 145.727 61.6593 142.506 62.5541 136.421 60.4065 134.632 54.5007 135.705 52.5321 133.558 50.3846 133.558 48.5949 135.705 46.0894 134.632 46.2684 130.516 43.9419 128.01 41.7943 128.547 37.8571 131.231 35.3516 130.694 34.9937 128.01 38.7519 127.652 35.3516 124.252 28.9089 122.462 27.2982 120.673 24.4348 120.852 21.9293 123.715 18.35 123.357 16.0235 119.241 16.0235 115.483 11.1915 114.051 9.40186 113.514 9.75978 111.545 11.5494 110.114 17.4552 109.935 18.8869 111.008 21.2135 110.83 21.3924 107.966 18.708 107.25 15.6656 107.787 13.518 107.25 13.876 104.566 15.8446 104.387 21.0345 104.924 21.0345 102.776 17.6342 101.344 15.3077 102.597 10.8336 102.955 8.686 98.481 10.4756 94.5438 15.8446 92.5752 22.2872 91.1435 28.1931 90.4276 32.6672 92.0383 33.0251 90.2487 39.8257 90.2487 40.8995 85.9536 45.0157 85.7746 51.8163 86.6694 55.3956 91.3224 58.08 95.9755 60.2276 98.481 63.8069 97.7651 66.3123 94.0069 73.113 96.1545 74.3657 94.1859 80.6295 93.1121 82.0612 95.4386 87.0722 95.6176 89.3987 93.1121 87.609 90.2487 86.8932 75.5737 81.5243 67.5203 80.2715 61.7934 80.0926 58.0352 78.8398 55.3507" stroke="#92B7BC" fill="none"/><path d="M380.656 281.417 383.91 281.869 385.085 285.484 384.723 294.16 387.344 297.684 388.7 301.028 389.513 305.185 391.32 310.698 390.778 316.663 388.609 320.729 388.7 326.333 390.055 328.953 389.965 333.111 388.157 338.714 387.344 342.781 384.181 343.594 382.373 341.244 374.601 339.889 372.975 338.172 373.607 334.918 368.727 332.026 370.806 330.128 371.167 325.61 366.016 326.242 365.835 323.079 368.546 319.374 367.01 318.018 363.756 317.386 362.943 313.409 364.479 312.596 364.66 311.331 362.853 309.613 364.479 303.197 368.998 298.407 374.33 296.69 375.595 292.985 380.476 291.719 381.831 288.827 380.476 284.761 380.656 281.417Z" stroke="#92B7BC" fill="none"/><path d="M4.0577 96.011C4.0577 96.882 3.37272 97.5891 2.5288 97.5891 1.68488 97.5891 1 96.882 1 96.011 1 95.14 1.68497 94.4328 2.5288 94.4328 3.37263 94.4328 4.0577 95.1399 4.0577 96.011Z" stroke="#92B7BC" fill="none"/><path d="M44.2023 138.721 44.4982 142.271 49.8246 142.666 48.4437 140.2 46.4709 138.622 44.301 139.312" stroke="#92B7BC" fill="none"/><path d="M41.5392 135.071 41.6378 136.255 43.8078 137.438 45.2873 136.255 43.9064 134.874 41.6378 135.17" stroke="#92B7BC" fill="none"/><path d="M50.0218 138.03 53.1782 141.581 54.7563 141.285 52.0932 137.833 50.1205 138.03" stroke="#92B7BC" fill="none"/><path d="M66.6912 152.727 66.9871 155.39 70.4394 156.376 70.7353 153.417 69.1571 151.839 66.4939 152.529" stroke="#92B7BC" fill="none"/><path d="M63.4362 162.886 63.9294 165.253 67.6776 165.352 66.0994 162.788 63.3376 163.083" stroke="#92B7BC" fill="none"/><path d="M70.439 71.451 70.8335 73.5224 74.3844 76.4815 78.9216 75.4951 77.6394 72.3388 73.7926 69.1824 70.439 70.9578" stroke="#92B7BC" fill="none"/><path d="M61.069 60.8972 61.069 65.3358 62.5485 66.2234 65.8035 66.3221 67.9735 63.1658 63.8308 61.5876 61.2663 60.7985" stroke="#92B7BC" fill="none"/><path d="M73.3984 53.7954 73.0039 58.0367 75.1739 57.7408 74.7793 53.6968 73.4971 53.4995" stroke="#92B7BC" fill="none"/><path d="M62.2526 70.5634C62.2526 71.1078 61.8107 71.5497 61.2663 71.5497 60.7219 71.5497 60.2799 71.1078 60.2799 70.5634 60.2799 70.019 60.7218 69.577 61.2663 69.577 61.8108 69.577 62.2526 70.0189 62.2526 70.5634Z" stroke="#92B7BC" fill="none"/><path d="M75.0247 171.089C75.0247 171.847 74.6008 172.461 74.0784 172.461 73.556 172.461 73.1322 171.847 73.1322 171.089 73.1322 170.331 73.5561 169.717 74.0784 169.717 74.6007 169.717 75.0247 170.332 75.0247 171.089Z" stroke="#92B7BC" fill="none"/></svg>