<svg width="512" height="512" viewBox="0 0 512 512" xmlns="http://www.w3.org/2000/svg" xmlns:xlink="http://www.w3.org/1999/xlink" id="Capa_1" overflow="hidden"><g><path d="M113.338 29.323C81.662 29.323 43.328 43.575 15.678 65.632 5.714 73.581-3.55271e-15 85.567-3.55271e-15 98.519L-3.55271e-15 167.475C-3.55271e-15 180.427 5.714 192.413 15.679 200.362 43.329 222.419 81.661 236.672 113.338 236.672 125.544 236.672 137.369 234.604 148.628 230.513L148.628 319.195C148.628 323.345 151.992 326.71 156.143 326.71 160.294 326.71 163.658 323.346 163.658 319.195L163.658 192.978C163.658 188.828 160.294 185.463 156.143 185.463 151.992 185.463 148.628 188.828 148.628 192.978L148.628 214.329C137.495 219.18 125.647 221.641 113.338 221.641 84.858 221.641 50.203 208.676 25.051 188.612 18.682 183.531 15.03 175.827 15.03 167.474L15.03 98.519C15.03 90.167 18.683 82.462 25.051 77.381 50.203 57.317 84.857 44.353 113.338 44.353 162.217 44.353 201.983 84.119 201.983 132.997L201.983 458.628C201.983 463.602 197.936 467.649 192.962 467.649L172.677 467.649C167.703 467.649 163.657 463.603 163.657 458.628L163.657 349.252C163.657 345.102 160.293 341.737 156.142 341.737 151.991 341.737 148.627 345.102 148.627 349.252L148.627 458.627C148.627 471.888 159.416 482.677 172.677 482.677L192.962 482.677C206.223 482.677 217.012 471.888 217.012 458.627L217.012 132.997C217.012 75.831 170.504 29.323 113.338 29.323Z" stroke-width="1.06647" fill="#E6A9BD"/><path d="M46.898 122.887 46.898 139.452C46.898 143.602 50.262 146.967 54.413 146.967 58.564 146.967 61.928 143.603 61.928 139.452L61.928 122.887C61.928 118.737 58.564 115.372 54.413 115.372 50.262 115.372 46.898 118.737 46.898 122.887Z" stroke-width="1.06647" fill="#E6A9BD"/><path d="M134.719 74.41C130.809 73.016 126.511 75.053 125.115 78.961 123.72 82.87 125.758 87.169 129.666 88.564 129.789 88.608 142.2 93.31 152.316 106.66 158.617 114.391 170.024 105.697 164.295 97.584 151.339 80.485 135.391 74.65 134.719 74.41Z" stroke-width="1.06647" fill="#E6A9BD"/><path d="M496.321 65.632C468.672 43.575 430.339 29.323 398.663 29.323 341.497 29.323 294.989 75.831 294.989 132.997L294.989 177.949C294.989 182.099 298.353 185.464 302.504 185.464 306.655 185.464 310.019 182.099 310.019 177.949L310.019 132.997C310.019 84.118 349.785 44.353 398.664 44.353 427.144 44.353 461.799 57.317 486.95 77.381 493.32 82.462 496.973 90.167 496.973 98.519L496.973 167.475C496.973 175.828 493.32 183.532 486.951 188.613 461.799 208.677 427.145 221.642 398.664 221.642 386.356 221.642 374.507 219.181 363.374 214.33L363.374 192.979C363.374 188.829 360.01 185.464 355.859 185.464 351.708 185.464 348.344 188.829 348.344 192.979L348.344 370.033C348.344 374.183 351.708 377.548 355.859 377.548 360.01 377.548 363.374 374.183 363.374 370.033L363.374 230.513C374.632 234.604 386.457 236.672 398.664 236.672 430.34 236.672 468.673 222.42 496.322 200.363 506.287 192.414 512.001 180.428 512.001 167.476L512.001 98.519C512 85.567 506.286 73.581 496.321 65.632Z" stroke-width="1.06647" fill="#E6A9BD"/><path d="M355.858 392.576C351.707 392.576 348.343 395.941 348.343 400.091L348.343 458.628C348.343 463.602 344.296 467.649 339.322 467.649L319.037 467.649C314.063 467.649 310.016 463.603 310.016 458.628L310.016 208.008C310.016 203.858 306.652 200.493 302.501 200.493 298.35 200.493 294.986 203.857 294.986 208.008L294.986 458.628C294.986 471.889 305.775 482.678 319.036 482.678L339.321 482.678C352.582 482.678 363.371 471.889 363.371 458.628L363.371 400.091C363.373 395.94 360.009 392.576 355.858 392.576Z" stroke-width="1.06647" fill="#E6A9BD"/><path d="M465.102 139.452 465.102 122.887C465.102 118.737 461.738 115.372 457.587 115.372 453.436 115.372 450.072 118.737 450.072 122.887L450.072 139.452C450.072 143.602 453.436 146.967 457.587 146.967 461.738 146.967 465.102 143.603 465.102 139.452Z" stroke-width="1.06647" fill="#E6A9BD"/><path d="M349.157 108.113C352.435 110.605 357.165 109.988 359.684 106.662 369.74 93.391 382.071 88.665 382.366 88.554 386.253 87.147 388.276 82.86 386.885 78.963 385.49 75.054 381.189 73.016 377.281 74.412 376.609 74.652 360.661 80.487 347.706 97.587 345.199 100.892 345.848 105.606 349.157 108.113Z" stroke-width="1.06647" fill="#E6A9BD"/></g></svg>