<svg viewBox="0 0 512.001 512.001" xmlns="http://www.w3.org/2000/svg" xmlns:xlink="http://www.w3.org/1999/xlink" id="Capa_1" overflow="hidden"><g><g><path d="M400.003 152 256.001 152C250.478 152 246.001 156.477 246.001 162 246.001 167.523 250.478 172 256.001 172L400.003 172C405.526 172 410.003 167.523 410.003 162 410.003 156.477 405.526 152 400.003 152Z" stroke-width="1.06647" fill="#E6A9BD"/></g></g><g><g><path d="M365.011 202.931C363.151 201.071 360.571 200.001 357.941 200.001 355.311 200.001 352.731 201.071 350.871 202.931 349.011 204.791 347.941 207.371 347.941 210.001 347.941 212.631 349.011 215.211 350.871 217.071 352.731 218.931 355.311 220.001 357.941 220.001 360.571 220.001 363.151 218.931 365.011 217.071 366.871 215.211 367.941 212.631 367.941 210.001 367.941 207.371 366.871 204.791 365.011 202.931Z" stroke-width="1.06647" fill="#E6A9BD"/></g></g><g><g><path d="M263.061 45.931C261.201 44.071 258.621 43.001 255.991 43.001 253.361 43.001 250.781 44.071 248.921 45.931 247.061 47.791 245.991 50.371 245.991 53.001 245.991 55.631 247.061 58.211 248.921 60.071 250.781 61.931 253.361 63.001 255.991 63.001 258.621 63.001 261.201 61.931 263.061 60.071 264.921 58.211 265.991 55.631 265.991 53.001 265.991 50.371 264.921 47.791 263.061 45.931Z" stroke-width="1.06647" fill="#E6A9BD"/></g></g><g><g><path d="M315.878 200 256.001 200C250.478 200 246.001 204.477 246.001 210 246.001 215.523 250.478 220 256.001 220L315.878 220C321.401 220 325.878 215.523 325.878 210 325.878 204.477 321.401 200 315.878 200Z" stroke-width="1.06647" fill="#E6A9BD"/></g></g><g><g><path d="M400.003 260 256.001 260C250.478 260 246.001 264.477 246.001 270 246.001 275.523 250.478 280 256.001 280L400.003 280C405.526 280 410.003 275.523 410.003 270 410.003 264.477 405.526 260 400.003 260Z" stroke-width="1.06647" fill="#E6A9BD"/></g></g><g><g><path d="M365.011 310.931C363.151 309.071 360.571 308.001 357.941 308.001 355.311 308.001 352.731 309.071 350.871 310.931 349.011 312.791 347.941 315.371 347.941 318.001 347.941 320.631 349.011 323.211 350.871 325.071 352.731 326.931 355.311 328.001 357.941 328.001 360.571 328.001 363.151 326.931 365.011 325.071 366.871 323.211 367.941 320.631 367.941 318.001 367.941 315.371 366.871 312.791 365.011 310.931Z" stroke-width="1.06647" fill="#E6A9BD"/></g></g><g><g><path d="M315.878 308 256.001 308C250.478 308 246.001 312.477 246.001 318 246.001 323.523 250.478 328 256.001 328L315.878 328C321.401 328 325.878 323.523 325.878 318 325.878 312.477 321.401 308 315.878 308Z" stroke-width="1.06647" fill="#E6A9BD"/></g></g><g><g><path d="M400.003 368 256.001 368C250.478 368 246.001 372.477 246.001 378 246.001 383.523 250.478 388 256.001 388L400.003 388C405.526 388 410.003 383.523 410.003 378 410.003 372.477 405.526 368 400.003 368Z" stroke-width="1.06647" fill="#E6A9BD"/></g></g><g><g><path d="M365.011 418.931C363.151 417.071 360.571 416.001 357.941 416.001 355.311 416.001 352.731 417.071 350.871 418.931 349.011 420.791 347.941 423.371 347.941 426.001 347.941 428.631 349.011 431.211 350.871 433.071 352.731 434.931 355.311 436.001 357.941 436.001 360.571 436.001 363.151 434.931 365.011 433.071 366.871 431.211 367.941 428.631 367.941 426.001 367.941 423.371 366.871 420.791 365.011 418.931Z" stroke-width="1.06647" fill="#E6A9BD"/></g></g><g><g><path d="M315.878 416 256.001 416C250.478 416 246.001 420.477 246.001 426 246.001 431.523 250.478 436 256.001 436L315.878 436C321.401 436 325.878 431.523 325.878 426 325.878 420.477 321.401 416 315.878 416Z" stroke-width="1.06647" fill="#E6A9BD"/></g></g><g><g><path d="M419.243 39.001 342.864 39.001C331.823 28.48 316.898 22 300.479 22L291.719 22C285.022 8.742 271.263 0 256 0 240.737 0 226.979 8.742 220.281 22L211.5 22C195.081 22 180.157 28.48 169.116 39.001L92.759 39.001C65.874 39.001 44.001 60.874 44.001 87.759L44.001 463.243C44.001 490.128 65.874 512.001 92.759 512.001L419.242 512.001C446.127 512.001 468 490.128 468 463.243L468 87.759C468.001 60.874 446.128 39.001 419.243 39.001ZM211.501 42 227.087 42C231.585 42 235.529 38.997 236.726 34.662 239.111 26.029 247.037 20 256.001 20 264.965 20 272.891 26.029 275.275 34.662 276.472 38.997 280.417 42 284.914 42L300.479 42C322.184 42 340.05 58.75 341.833 80.001L170.147 80.001C171.93 58.75 189.797 42 211.501 42ZM448.001 463.244C448.001 479.101 435.1 492.002 419.243 492.002L92.759 492.002C76.902 492.002 64.001 479.101 64.001 463.244L64.001 87.759C64.001 71.902 76.902 59.001 92.759 59.001L155.106 59.001C151.83 66.513 150.001 74.795 150.001 83.501L150.001 90.001C150.001 95.524 154.478 100.001 160.001 100.001L351.98 100.001C357.503 100.001 361.98 95.524 361.98 90.001L361.98 83.501C361.98 74.796 360.151 66.513 356.875 59.001L419.243 59.001C435.1 59.001 448.001 71.902 448.001 87.759L448.001 463.244Z" stroke-width="1.06647" fill="#E6A9BD"/></g></g><g><g><path d="M192.41 149.596C188.505 145.691 182.173 145.691 178.268 149.595L135.506 192.358 122.333 179.184C118.428 175.28 112.096 175.28 108.19 179.184 104.285 183.089 104.285 189.421 108.19 193.327L128.435 213.572C130.388 215.525 132.947 216.501 135.506 216.501 138.065 216.501 140.625 215.525 142.577 213.572L192.41 163.739C196.315 159.834 196.315 153.502 192.41 149.596Z" stroke-width="1.06647" fill="#E6A9BD"/></g></g><g><g><path d="M168.001 368 120.001 368C114.478 368 110.001 372.477 110.001 378L110.001 426C110.001 431.523 114.478 436 120.001 436L168.001 436C173.524 436 178.001 431.523 178.001 426L178.001 378C178.001 372.477 173.524 368 168.001 368ZM158.001 416 130.001 416 130.001 388 158.001 388 158.001 416Z" stroke-width="1.06647" fill="#E6A9BD"/></g></g><g><g><path d="M168.001 260 120.001 260C114.478 260 110.001 264.477 110.001 270L110.001 318C110.001 323.523 114.478 328 120.001 328L168.001 328C173.524 328 178.001 323.523 178.001 318L178.001 270C178.001 264.477 173.524 260 168.001 260ZM158.001 308 130.001 308 130.001 280 158.001 280 158.001 308Z" stroke-width="1.06647" fill="#E6A9BD"/></g></g><g></g><g></g><g></g><g></g><g></g><g></g><g></g><g></g><g></g><g></g><g></g><g></g><g></g><g></g><g></g></svg>