<svg width="512" height="512" viewBox="0 0 60 60" xmlns="http://www.w3.org/2000/svg" xmlns:xlink="http://www.w3.org/1999/xlink" overflow="hidden"><g id="Page-1" fill="none" fill-rule="evenodd"><g id="078---Watch-Touchscreen" fill="#000000" fill-rule="nonzero"><path d="M3 26 10.744 26C11.1625 27.1972 12.2918 27.9992 13.56 28L17 28 17 32.765C16.3098 32.2963 15.5017 32.0313 14.668 32 13.4744 31.9588 12.3167 32.4118 11.468 33.252 10.5324 34.1554 10.0027 35.3994 10 36.7L10 49C10.0072 55.0722 14.9278 59.9928 21 60L32 60C38.0722 59.9928 42.9928 55.0722 43 49L43 34C42.9958 33.662 42.9481 33.3259 42.858 33L52 33C54.2091 33 56 31.2091 56 29 55.9961 28.054 55.6538 27.1406 55.035 26.425 56.0522 25.8342 56.7529 24.8205 56.9463 23.6602 57.1396 22.4999 56.8055 21.3138 56.035 20.425 56.984 19.8688 57.6601 18.9443 57.9025 17.8714 58.1448 16.7985 57.9318 15.6731 57.314 14.763 59.1579 14.1256 60.2708 12.2486 59.9452 10.3249 59.6196 8.4013 57.951 6.99503 56 7L51 7C50.995 3.13606 47.8639 0.00495836 44 -8.88178e-16L39 -8.88178e-16C36.2411-0.00556204 33.5816 1.03008 31.553 2.9 29.4859 4.85787 26.7569 5.96477 23.91 6L22.527 6 22.348 5.277C22.0158 3.9391 20.8145 2.9998 19.436 3L13.564 3C12.1852 2.99992 10.9838 3.9397 10.652 5.278L10.473 6 3 6C1.34315 6-2.66454e-15 7.34315-2.66454e-15 9L-2.66454e-15 23C-2.66454e-15 24.6569 1.34315 26 3 26ZM23 15.5C22.9981 15.8381 22.9693 16.1755 22.914 16.509 22.3295 16.1798 21.6708 16.0046 21 16 18.7909 16 17 17.7909 17 20L17 21.975C16.835 21.988 16.67 22 16.5 22 12.9174 21.9825 10.0175 19.0826 10 15.5 10 11.9101 12.9101 9 16.5 9 20.0899 9 23 11.9101 23 15.5ZM13.56 26C13.1018 25.9964 12.7037 25.6841 12.591 25.24L11.955 22.67C13.3118 23.5384 14.889 24 16.5 24 16.669 24 16.834 23.985 17 23.975L17 26ZM41 49C40.9945 53.9683 36.9683 57.9945 32 58L21 58C16.0317 57.9945 12.0055 53.9683 12 49L12 36.7C12.0046 35.9449 12.314 35.2237 12.858 34.7 13.3168 34.2395 13.944 33.9866 14.594 34 15.9336 34.0601 16.9912 35.1591 17 36.5L17 47C17 47.5523 17.4477 48 18 48 18.5523 48 19 47.5523 19 47L19 20C19 18.8954 19.8954 18 21 18 22.1046 18 23 18.8954 23 20L23 41C23 41.5523 23.4477 42 24 42 24.5523 42 25 41.5523 25 41L25 32C25 30.8954 25.8954 30 27 30 28.1046 30 29 30.8954 29 32L29 41C29 41.5523 29.4477 42 30 42 30.5523 42 31 41.5523 31 41L31 33C31 31.8954 31.8954 31 33 31 34.1046 31 35 31.8954 35 33L35 41C35 41.5523 35.4477 42 36 42 36.5523 42 37 41.5523 37 41L37 34C37 32.8954 37.8954 32 39 32 40.1046 32 41 32.8954 41 34ZM23.91 8C27.2593 7.96721 30.473 6.67278 32.91 4.375 34.5688 2.84518 36.7435 1.9971 39 2L44 2C46.7601 2.00331 48.9967 4.23995 49 7L39 7C38.4477 7 38 7.44772 38 8 38 8.55229 38.4477 9 39 9L56 9C57.1046 9 58 9.89543 58 11 58 12.1046 57.1046 13 56 13L45 13C44.4477 13 44 13.4477 44 14 44 14.5523 44.4477 15 45 15L54 15C55.1046 15 56 15.8954 56 17 56 18.1046 55.1046 19 54 19L45 19C44.4477 19 44 19.4477 44 20 44 20.5523 44.4477 21 45 21L53 21C54.1046 21 55 21.8954 55 23 55 24.1046 54.1046 25 53 25L45 25C44.4477 25 44 25.4477 44 26 44 26.5523 44.4477 27 45 27L52 27C53.1046 27 54 27.8954 54 29 54 30.1046 53.1046 31 52 31L41.618 31C40.1436 29.6803 37.9171 29.6653 36.425 30.965 35.8342 29.9478 34.8205 29.2471 33.6602 29.0537 32.4999 28.8604 31.3138 29.1945 30.425 29.965 29.8974 29.0533 29.0266 28.3911 28.0071 28.1263 26.9876 27.8615 25.9045 28.0163 25 28.556L25 20C24.9956 19.3707 24.841 18.7515 24.549 18.194 24.8463 17.3269 24.9987 16.4167 25 15.5 24.9991 13.9832 24.5894 12.4946 23.814 11.191L23.023 8ZM13.564 5 19.436 5C19.8953 5.00024 20.2953 5.31327 20.406 5.759L21.043 8.329C18.2735 6.55692 14.7265 6.55692 11.957 8.329L12.594 5.76C12.7043 5.31388 13.1044 5.00036 13.564 5ZM2 9C2 8.44771 2.44772 8 3 8L9.978 8 9.186 11.191C7.60762 13.8335 7.60455 17.1285 9.178 19.774L10.224 24 3 24C2.44772 24 2 23.5523 2 23Z" id="Shape" fill="#E6A9BD"/></g></g></svg>