<svg viewBox="0 0 567.23 758.92" xmlns="http://www.w3.org/2000/svg" xmlns:xlink="http://www.w3.org/1999/xlink" overflow="hidden"><g fill="#FFAAD4"><path d="M163.84 563.07C163.84 563.07 168.171 576.603 165.464 582.558 162.758 588.515 390.684 585.807 390.684 585.807 390.684 585.807 389.6 570.648 391.766 566.859 393.932 563.07 392.307 564.153 392.307 564.153L163.847 563.07Z" fill="#BDA08C"/><path d="M188.74 540.34C188.74 540.34 230.968 424.48 230.968 420.69 230.968 416.899 236.382 417.442 236.382 417.442L207.689 540.882 188.74 540.341Z" fill="#BDA08C"/><path d="M223.39 409.32 232.59 403.91 329.5 405.53 338.16 408.78 339.24 403.91 330.04 400.66 234.22 399.58 222.3 402.28Z" fill="#BDA08C"/><path d="M238 393.62 249.911 395.243 274.273 90.443 269.401 93.692C269.401 93.692 260.197 211.172 260.197 216.042 260.197 220.914 239.082 391.992 238 393.612Z" fill="#BDA08C"/><path d="M281.32 48.491 289.441 49.032C289.441 49.032 287.818 8.97 287.275 5.18 286.734 1.391 284.57 3.015 284.57 3.015L281.32 48.491Z" fill="#BDA08C"/><path d="M270.49 63.377C269.301 64.484 282.4 39.016 299.183 59.588L299.046 64.733C299.046 64.733 285.921 49.03 270.49 63.377Z" fill="#BDA08C"/><path d="M266.02 71.093 266.291 78.401 272.923 72.717 296.607 72.717 297.42 85.71C297.42 85.71 301.887 78.672 302.971 77.86 304.053 77.047 304.19 71.228 304.19 71.228L298.911 66.086 271.706 66.356 266.02 71.093Z" fill="#BDA08C"/><path d="M282.94 90.449 287.271 89.365C287.271 89.365 284.023 371.965 295.392 393.625L266.158 393.625C266.158 393.625 291.603 95.865 282.94 90.455Z" fill="#BDA08C"/><path d="M229.35 540.88 236.387 541.42C236.387 541.42 258.041 443.972 257.501 445.055 256.96 446.138 252.087 444.515 252.087 444.515 252.087 444.515 230.974 539.797 229.35 540.88Z" fill="#BDA08C"/><path d="M301.35 446.68C302.975 446.68 306.764 447.762 306.764 447.762 306.764 447.762 337.623 532.758 339.248 538.172 340.871 543.587 340.871 541.963 340.871 541.963L325.172 542.504 301.35 446.68Z" fill="#BDA08C"/><path d="M330.04 419.61C330.04 421.233 367.936 540.88 367.936 540.88L359.815 542.504C359.815 542.504 320.294 420.694 318.669 420.694 317.046 420.694 330.04 419.611 330.04 419.611Z" fill="#BDA08C"/><path d="M305.68 393.62 321.92 393.62C321.92 393.62 296.475 103.44 296.475 101.27 296.475 99.106 304.596 391.99 305.68 393.62Z" fill="#BDA08C"/><path d="M227.99 410.95C227.99 410.95 230.157 413.387 229.886 414.74 229.614 416.094 330.856 416.364 330.856 416.364 330.856 416.364 331.938 413.386 332.751 412.846 333.563 412.304 227.991 410.95 227.991 410.95Z" fill="#BDA08C"/><path d="M165.19 542.23C166.001 542.23 392.03 543.855 392.03 543.855 392.03 543.855 389.864 547.374 389.864 549.539 389.864 551.707 171.684 548.999 170.874 550.623 170.061 552.246 165.19 542.23 165.19 542.23Z" fill="#BDA08C"/><path d="M162.46 587.98C162.148 588.916 93.473 687.973 93.473 687.973 93.473 687.973 101.312 695.139 102.253 694.827 103.194 694.515 149.292 620.689 151.487 620.378 153.681 620.066 167.479 594.211 166.539 592.654 165.597 591.096 162.46 587.981 162.46 587.981Z" fill="#BDA08C"/><path d="M172.5 715.49C172.5 714.583 187.388 675.408 213.915 659.782 240.442 644.158 261.828 641.44 264.264 641.216 266.7 640.989 289.439 640.988 299.724 642.8 310.009 644.612 342.765 660.238 345.201 662.955 347.637 665.672 362.256 682.882 365.773 687.185 369.293 691.487 375.789 708.245 377.414 717.303 379.037 726.36 379.85 730.664 379.85 730.664 379.85 730.664 375.248 697.376 378.766 695.79 382.287 694.204 387.159 692.62 387.159 692.62 387.159 692.62 368.481 662.956 335.186 641.218 301.891 619.478 192.806 614.269 170.336 715.265L172.501 715.491Z" fill="#BDA08C"/><path d="M395.8 593.39C395.8 593.39 456.266 686.289 456.853 688.088 457.44 689.886 443.35 696.779 443.35 696.779L392.573 594.289 395.8 593.39Z" fill="#BDA08C"/><path d="M166.61 617.62C165.594 619.043 159.707 628.989 159.707 628.989L154.022 620.057 166.61 617.62Z" fill="#BDA08C"/><path d="M136.97 647.46C137.579 647.257 146.919 647.663 146.919 647.663L153.415 636.497 136.97 647.46Z" fill="#BDA08C"/><path d="M133.11 652.74 143.058 653.553 135.546 663.907 132.703 653.35C132.704 653.35 133.313 652.335 133.11 652.74Z" fill="#BDA08C"/><path d="M173.11 645.64 180.21 635.48 165.19 634.06Z" fill="#BDA08C"/><path d="M169.25 629.4 183.87 630.21 189.55 619.85Z" fill="#BDA08C"/><path d="M172.5 616.2 163.77 627.16 185.29 617.82Z" fill="#BDA08C"/><path d="M168.23 655.58 160.93 666.14 142.66 666.55Z" fill="#BDA08C"/><path d="M157.68 671.42 149.96 682.18 141.44 671.01Z" fill="#BDA08C"/><path d="M136.36 672.64 144.89 684.01 120.12 679.54Z" fill="#BDA08C"/><path d="M127.83 660.46 117.68 674.46 132.5 667.16Z" fill="#BDA08C"/><path d="M160.32 637.31 152.6 647.67 167.83 647.67Z" fill="#BDA08C"/><path d="M239.39 427.29C240.101 428.102 242.944 432.163 242.944 432.163L244.06 423.434 239.39 427.29Z" fill="#BDA08C"/><path d="M234.62 420.49 238.377 425.261 243.757 420.185 234.418 418.459C234.418 418.459 230.56 433.888 230.865 433.991 231.17 434.091 240.305 434.295 240.305 434.295L237.362 428.813 232.591 430.844 234.62 420.49Z" fill="#BDA08C"/><path d="M249.54 419.57 258.58 420.18 253.5 425.26Z" fill="#BDA08C"/><path d="M252.59 428.4 246.8 433.99 255.13 433.99Z" fill="#BDA08C"/><path d="M246.6 422.01 245.58 431.76 250.86 427.29Z" fill="#BDA08C"/><path d="M259.29 423.23C259.29 423.535 258.478 431.554 258.478 431.554L254.824 427.29 259.29 423.23Z" fill="#BDA08C"/><path d="M263.25 422.52 261.52 432.16 268.12 427.59Z" fill="#BDA08C"/><path d="M265.48 420.08 277.36 420.39 271.06 425.87Z" fill="#BDA08C"/><path d="M270.25 428.51C269.844 428.815 263.55 433.89 263.55 433.89L276.339 434.398 270.25 428.208 270.25 428.51Z" fill="#BDA08C"/><path d="M273.09 427.09 278.88 433.08 279.39 421.4Z" fill="#BDA08C"/><path d="M281.62 421.91 281.32 433.58 287.3 428Z" fill="#BDA08C"/><path d="M283.55 434.9 289.94 429.32 297.25 434.8Z" fill="#BDA08C"/><path d="M297.86 423.02 297.86 432.06 292.58 427.49Z" fill="#BDA08C"/><path d="M308.62 446.98 318.67 453.07 318.57 446.58Z" fill="#BDA08C"/><path d="M274.28 75.832 295.66 75.696 285.78 87.876Z" fill="#BDA08C"/><path d="M303.51 80.162C303.104 80.839 297.555 89.907 297.555 89.907L298.231 110.479 299.719 97.622 302.834 93.426 303.51 80.162Z" fill="#BDA08C"/><path d="M266.83 80.162C266.83 80.162 272.514 87.201 272.243 88.418 271.972 89.636 268.455 91.937 268.455 91.937L266.423 91.395 266.83 80.162Z" fill="#BDA08C"/><path d="M260.07 476.86C260.476 476.86 300.269 477.672 300.269 477.672L309.335 539.389 318.538 539.254 300.538 471.581 259.8 474.288 260.07 476.86Z" fill="#BDA08C"/><path d="M258.71 474.42C258.71 474.826 254.377 526.935 248.694 538.98L243.279 539.117 257.355 474.421 258.71 474.421 258.71 474.42Z" fill="#BDA08C"/><path d="M261.15 456.02 259.8 468.33 298.5 469.14 299.72 457.37 298.64 457.24 296.88 465.63 264.4 465.49 263.18 456.56 282.94 456.29 290.65 456.42 261.01 453.58Z" fill="#BDA08C"/><path d="M306.9 450.6C307.982 451.006 319.351 457.502 319.351 457.502 319.351 457.502 312.179 464 311.908 464.405 311.636 464.811 306.9 450.6 306.9 450.6Z" fill="#BDA08C"/><path d="M311.63 469.14 320.84 461.7 322.6 469.96 311.5 469.96Z" fill="#BDA08C"/><path d="M340.19 519.06 351.36 527.28 344.15 530.63Z" fill="#BDA08C"/><path d="M315.02 473.27C315.731 473.472 323.444 473.472 323.444 473.472L325.983 481.289 315.02 473.27Z" fill="#BDA08C"/><path d="M240.61 457.13C240.712 456.825 251.674 450.531 251.674 450.531L248.629 465.251 240.61 457.13Z" fill="#BDA08C"/><path d="M241.83 445.56 240.3 452.97 250.66 446.07Z" fill="#BDA08C"/><path d="M238.07 446.58 228.53 445.15 236.04 452.97Z" fill="#BDA08C"/><path d="M227.01 450.53C227.519 450.936 234.421 456.723 234.421 456.723L223.762 463.524 227.01 450.53Z" fill="#BDA08C"/><path d="M238.88 460.48 236.24 469.01 247.41 469.72Z" fill="#BDA08C"/><path d="M245.58 477.03 232.8 485.45 241.93 493.88Z" fill="#BDA08C"/><path d="M239.7 505.96 224.47 514.59 235.23 525.25Z" fill="#BDA08C"/><path d="M221.93 519.26C221.626 519.665 214.621 539.055 214.621 539.055L229.949 530.527 221.93 519.26Z" fill="#BDA08C"/><path d="M230.26 489.52 224.78 508.8 236.45 502.41 238.17 496.32Z" fill="#BDA08C"/><path d="M233.91 462.51C233.809 462.815 232.184 470.225 232.184 470.225L222.032 468.803 233.91 462.51Z" fill="#BDA08C"/><path d="M212.76 617.55 208.593 610.934C208.013 609.806 206.816 609.022 205.418 609.022 203.457 609.022 201.865 610.552 201.865 612.44 201.865 613.148 202.088 613.805 202.471 614.35 202.578 614.501 202.7 614.64 202.829 614.773L207.21 620.797 212.76 617.55Z" fill="#BDA08C"/><path d="M221.16 613.91 217.667 607.643C217.192 606.582 216.125 605.798 214.826 605.715 213.001 605.6 211.433 606.9 211.324 608.616 211.283 609.261 211.452 609.871 211.779 610.39 211.867 610.533 211.974 610.667 212.087 610.794L215.812 616.537 221.16 613.91Z" fill="#BDA08C"/><path d="M223.86 613.49 230.424 611.46C230.424 611.46 227.718 603.814 224.266 605.843 224.266 605.843 220.678 608.28 223.792 613.355 226.906 618.43 223.86 613.49 223.86 613.49Z" fill="#BDA08C"/><path d="M190.77 629.8C190.762 630.043 195.981 626.551 195.981 626.551 195.981 626.551 190.906 625.874 190.77 629.8Z" fill="#BDA08C"/><path d="M198.42 625.06C198.962 624.587 204.037 621.61 204.037 621.61L202.277 618.767C202.277 618.767 195.781 616.535 196.389 622.218L198.42 625.06Z" fill="#BDA08C"/><path d="M232.8 610.72 239.633 609.501 239.362 607.605C239.362 607.605 234.76 603.681 232.595 608.486L232.8 610.72Z" fill="#BDA08C"/><path d="M242.27 608.62 249.038 607.401C249.038 607.401 245.586 604.086 242.27 608.62Z" fill="#BDA08C"/><path d="M222.58 471.18C223.934 471.586 230.294 472.803 230.294 472.803L228.399 480.112 220.956 473.617 222.58 471.18Z" fill="#BDA08C"/><path d="M220.68 478.08C220.043 479.99 227.042 484.984 227.042 484.984L217.838 489.45C217.838 489.45 220.816 477.675 220.68 478.08Z" fill="#BDA08C"/><path d="M215.54 497.84C216.081 497.84 223.661 498.518 223.661 498.518L225.692 489.45 215.54 495.135 215.675 497.3 222.443 502.037 219.6 510.428 213.781 501.361 217.435 518.415 207.015 531.408 215.54 497.84Z" fill="#BDA08C"/><path d="M304.26 435.11 313.39 434.7 307.91 429.83Z" fill="#BDA08C"/><path d="M162.55 611.73 195.84 612.75 211.48 588.79 192.8 606.45Z" fill="#BDA08C"/><path d="M316.84 609.09 323.541 611.119C323.541 611.119 323.338 603.608 316.84 609.09Z" fill="#BDA08C"/><path d="M365.97 622.49C366.376 623.302 371.249 632.437 371.249 632.437L387.897 631.828 373.684 629.188 365.97 622.49Z" fill="#BDA08C"/><path d="M374.91 637.31C375.721 638.529 381.406 647.664 381.406 647.664L389.527 637.919 381.406 641.98 374.91 637.31Z" fill="#BDA08C"/><path d="M386.28 657.01C386.889 658.025 393.182 668.176 393.182 668.176L402.52 667.973 394.401 664.927 386.28 657.01Z" fill="#BDA08C"/><path d="M326.18 612.54 364.145 632.844C364.145 632.844 333.082 606.654 329.834 606.856 326.586 607.059 325.977 611.323 325.977 611.932" fill="#BDA08C"/><path d="M317.25 480.18 326.79 486.47 320.9 493.37Z" fill="#BDA08C"/><path d="M328.42 490.94 322.53 499.46 331.26 502.91Z" fill="#BDA08C"/><path d="M330.04 515.7 338.36 525.25 334.1 529.31Z" fill="#BDA08C"/><path d="M323.95 429.62 320.29 434.29 326.39 434.9Z" fill="#BDA08C"/><path d="M248.22 386.18C249.641 387.397 253.905 391.255 253.905 391.255L265.07 379.48 259.793 371.969 248.018 380.698 248.22 386.18Z" fill="#BDA08C"/><path d="M251.27 362.83C251.879 363.845 256.143 371.154 256.143 371.154L248.631 376.229 251.27 362.83Z" fill="#BDA08C"/><path d="M250.86 351.87C251.469 353.088 258.575 363.036 258.575 363.036L267.913 353.494 261.011 343.343 250.86 351.87Z" fill="#BDA08C"/><path d="M252.08 347.2 258.17 340.3 252.08 332.38Z" fill="#BDA08C"/><path d="M252.69 323.45 262.23 316.75 254.72 307.61Z" fill="#BDA08C"/><path d="M256.14 286.5 253.91 300.5 264.67 293.2Z" fill="#BDA08C"/><path d="M256.55 278.78 266.9 270.46 258.38 261.73 256.14 279.8Z" fill="#BDA08C"/><path d="M258.78 256.25 258.98 257.26 269.74 248.94 259.8 240.21Z" fill="#BDA08C"/><path d="M262.03 218.48 260.2 235.94 269.74 229.04Z" fill="#BDA08C"/><path d="M262.84 216.25 270.96 209.35 263.25 201.64Z" fill="#BDA08C"/><path d="M264.26 198.39 272.18 192.9 264.87 184.78Z" fill="#BDA08C"/><path d="M265.28 182.35 273.2 176.06 266.09 167.73Z" fill="#BDA08C"/><path d="M266.5 166.11 273.2 161.64 267.51 153.52Z" fill="#BDA08C"/><path d="M268.12 151.29 274.62 146.21 269.34 141.34Z" fill="#BDA08C"/><path d="M269.14 138.29 274.825 134.026C274.825 134.026 270.56 127.53 270.56 128.341 270.559 129.154 269.14 138.29 269.14 138.29Z" fill="#BDA08C"/><path d="M269.74 125.1 276.04 121.85 270.55 115.56Z" fill="#BDA08C"/><path d="M271.57 114.34 276.65 110.48 271.57 105Z" fill="#BDA08C"/><path d="M272.79 102.76 276.44 100.53 273.8 96.065Z" fill="#BDA08C"/><path d="M257.49 332.45C258.303 332.991 261.01 338.675 261.01 338.675L269.672 328.659 262.363 328.118 258.032 322.433 257.49 332.45Z" fill="#BDA08C"/><path d="M259.12 307.54 263.99 313.5 270.49 307.81 265.07 307.27 260.47 299.96 258.58 300.5Z" fill="#BDA08C"/><path d="M260.74 285.08 266.43 290.49 271.84 284.26 265.34 283.72 263.45 276.14 260.74 277.77Z" fill="#BDA08C"/><path d="M262.91 261.8 269.4 268.29 273.2 266.13 267.78 262.34 271.84 251.78 262.64 258.55Z" fill="#BDA08C"/><path d="M270.76 246.37 263.99 241.49 264.26 237.7 272.38 230.94 269.68 237.98Z" fill="#BDA08C"/><path d="M415.07 708.17C274.47 475.11 137.18 708.163 139.2 705.734 279.94 536.714 368.3 652.503 399.04 708.17L415.07 708.17Z" fill="#BDA08C"/></g></svg>