<svg width="512" height="512" viewBox="0 0 74 74" xmlns="http://www.w3.org/2000/svg" xmlns:xlink="http://www.w3.org/1999/xlink" id="line_icons" overflow="hidden"><path d="M50.686 67.919 23.314 67.919C20.6566 67.9168 18.5028 65.7634 18.5 63.106L18.5 26.937C18.5028 24.28 20.656 22.1268 23.313 22.124L50.686 22.124C53.3434 22.1262 55.4972 24.2796 55.5 26.937L55.5 63.106C55.4972 65.7634 53.3434 67.9168 50.686 67.919ZM23.314 24.124C21.7607 24.1251 20.5017 25.3837 20.5 26.937L20.5 63.106C20.5017 64.6589 21.7601 65.9173 23.313 65.919L50.686 65.919C52.2393 65.9179 53.4983 64.6593 53.5 63.106L53.5 26.937C53.4983 25.3841 52.2399 24.1257 50.687 24.124Z" fill="#92B7BC"/><path d="M44.75 24.124 29.25 24.124C28.6977 24.124 28.25 23.6763 28.25 23.124L28.25 8.543C28.25 7.99072 28.6977 7.543 29.25 7.543L44.75 7.543C45.3023 7.543 45.75 7.99072 45.75 8.543L45.75 23.124C45.75 23.6763 45.3023 24.124 44.75 24.124ZM30.25 22.124 43.75 22.124 43.75 9.543 30.25 9.543Z" fill="#92B7BC"/><path d="M45.7 9.543 28.3 9.543C27.2036 9.5419 26.3151 8.65338 26.314 7.557L26.314 3.986C26.3151 2.88962 27.2036 2.0011 28.3 2L45.7 2C46.7964 2.0011 47.6849 2.88962 47.686 3.986L47.686 7.557C47.6849 8.65338 46.7964 9.5419 45.7 9.543ZM45.686 3.986 28.3 4 28.314 7.557 45.686 7.543Z" fill="#92B7BC"/><path d="M27.248 72 24.213 72C23.0054 71.9983 22.0271 71.0196 22.026 69.812L22.026 66.919C22.026 66.3667 22.4737 65.919 23.026 65.919L28.435 65.919C28.9873 65.919 29.435 66.3667 29.435 66.919L29.435 69.812C29.4339 71.0195 28.4556 71.9983 27.248 72ZM24.026 67.919 24.026 69.812C24.026 69.9154 24.1096 69.9994 24.213 70L27.248 70C27.3514 69.9995 27.435 69.9154 27.435 69.812L27.435 67.919Z" fill="#92B7BC"/><path d="M49.787 72 46.752 72C45.5444 71.9983 44.5661 71.0196 44.565 69.812L44.565 66.919C44.565 66.3667 45.0127 65.919 45.565 65.919L50.974 65.919C51.5263 65.919 51.974 66.3667 51.974 66.919L51.974 69.812C51.9729 71.0195 50.9945 71.9983 49.787 72ZM46.565 67.919 46.565 69.812C46.565 69.9154 46.6486 69.9994 46.752 70L49.787 70C49.8904 69.9995 49.974 69.9154 49.974 69.812L49.974 67.919Z" fill="#92B7BC"/><path d="M27.467 60.015C26.9147 60.015 26.467 59.5673 26.467 59.015L26.467 31.028C26.467 30.4757 26.9147 30.028 27.467 30.028 28.0193 30.028 28.467 30.4757 28.467 31.028L28.467 59.015C28.467 59.5673 28.0193 60.015 27.467 60.015Z" fill="#92B7BC"/><path d="M37 60.015C36.4477 60.015 36 59.5673 36 59.015L36 31.028C36 30.4757 36.4477 30.028 37 30.028 37.5523 30.028 38 30.4757 38 31.028L38 59.015C38 59.5673 37.5523 60.015 37 60.015Z" fill="#92B7BC"/><path d="M46.533 60.015C45.9807 60.015 45.533 59.5673 45.533 59.015L45.533 31.028C45.533 30.4757 45.9807 30.028 46.533 30.028 47.0853 30.028 47.533 30.4757 47.533 31.028L47.533 59.015C47.533 59.5673 47.0853 60.015 46.533 60.015Z" fill="#92B7BC"/></svg>