<svg viewBox="0 0 300 300" xmlns="http://www.w3.org/2000/svg" xmlns:xlink="http://www.w3.org/1999/xlink" overflow="hidden"><g id="bg_1_"><rect x="0" y="0.3" width="300" height="300" fill="#FFFFFF"/></g><g id="girl_with_mirror"><path d="M238.1 187.9C238 186.4 236.4 186.3 235.7 186.6 236.6 186.6 238.7 185.4 238.1 184 237.7 183 236.7 183 235.9 183.1 236.5 182.8 236.9 182 236.9 181.7 237.3 180.4 235.7 179.2 234.1 180.2 235.1 179.7 235.5 177.1 232.8 177.1 230.7 177.2 229 178.4 227.8 178.6 224.4 176.6 233.8 168.8 230 167.3 228.7 166.8 227.2 170.9 223.2 174.7 221.6 176.3 219.4 177.8 218.2 179.3 217.5 180.2 215.5 182.7 214.5 184.7 213.7 186.3 211.4 187.4 211.4 187.4L217.7 196.2C221.1 193.5 228.1 193 233.3 190.8 234.6 190.4 238.2 189.1 238.1 187.9Z" fill="#F8B791"/><path d="M101.6 143.2C106.5 142.1 112.5 142.5 119.7 144.8 121.6 144.4 158.9 172.1 155.7 196.3 154.6 204.4 163 226.1 163 251.3 163 266.6 127 262 107.4 262.7 66.8 264.2 57 242.6 58.4 223.3 61 186.1 63 147.7 101.6 143.2Z" fill="#E6A9BD"/><g><path d="M243.2 166.8C239.7 169.6 233.7 170.5 233.6 175.4 233.4 188.8 237 228.7 229.6 228.7 221.1 228.7 227.1 190 224.9 175.9 224.2 171.5 220.2 169.2 217.3 167.8 200.6 159.6 184.4 115.3 203.4 90.7 220.2 68.9 247.8 75.2 258.1 92.6 268 109.2 267 147.6 243.2 166.8Z" fill="#F8E6EC"/><g><defs><path d="M229.2 164.5C251.1 164.5 274.5 92.7 232.4 86.9 188.3 81 200.4 164.5 229.2 164.5Z" id="SVGID_1_"/></defs><clipPath id="SVGID_2_"><use width="100%" height="100%" xlink:href="#SVGID_1_"></use></clipPath><use width="100%" height="100%" xlink:href="#SVGID_1_" fill="#5A6771"></use><path d="M256.8 158.8C255.9 158.2 227.2 150 210.8 155.6 194.4 161.2 212 173 216.4 174.8 220.8 176.6 249.4 180.1 253.8 175.5 258.3 170.9 261.6 162 256.8 158.8Z" fill="#E6A9BD" clip-path="url(#SVGID_2_)"/><g clip-path="url(#SVGID_2_)"><g><g><g><g><g><g><path d="M230.2 151.1C222.3 165.7 196.5 166.9 200.4 151 202.1 144.1 194.5 138.3 194.1 133.2 193.3 121.8 204.1 119.3 207.6 109.3 212.9 94.2 222.4 70.1 262.9 101.2 274.5 110.1 230.2 151.1 230.2 151.1Z" fill="#5A6771"/></g></g></g></g></g></g><g><path d="M249.1 128.9 248.7 155.2C248.6 163 228.2 162.9 228.2 155.8L228.3 141.8 249.1 128.9Z" fill="#F8B791"/></g><g><g><path d="M218 124.9C217.7 126.5 217.3 127.9 217.2 129.5 217.1 131.6 217.3 133.7 217.8 135.8 219.3 141.3 222.8 149.2 228.2 149.9 237.8 151.2 251.6 141.8 251.7 127.6 251.8 115.2 243.6 95.2 239 102 231.9 112.6 225.9 107.5 220.9 113.9 219.9 115.3 218.8 117 218.4 121.2 218.3 122.6 218.2 123.8 218 124.9Z" fill="#F8B791"/></g><g><path d="M234.1 126.8C234.1 126.8 235.9 130.7 243 127.4 243.9 127 240.1 127.7 237.7 127.6 235.4 127.4 233.6 125.9 234.1 126.8Z" fill="#002869"/></g><g><path d="M219.4 122.7C219.8 123.7 224.2 127.9 226.4 124.9 227 124.1 224.9 125.7 222.8 124.6 220.7 123.5 219.1 122.1 219.4 122.7Z" fill="#002869"/></g><g><g><path d="M230 135.1C228.6 135 226.4 134.4 226.2 132.7 226.1 131.9 226.6 131.4 227 130.8 228.1 129.3 229 127.9 229.2 126 229.2 125.7 229.6 125.7 229.6 126 229.4 127.8 228.6 129.2 227.6 130.7 227 131.6 226.3 132.3 226.9 133.4 227.5 134.4 228.9 134.7 229.9 134.8 230.3 134.8 230.3 135.2 230 135.1L230 135.1Z" fill="#F27979"/></g></g><g><path d="M234.9 139.3C235.4 138.5 228 139.7 224.8 137.2 222.9 135.7 226.9 148.3 234.9 139.3Z" fill="#FFFFFF"/></g></g><g><g><g><g><g><g><path d="M230.5 91.9C230.5 91.9 242.6 73.6 268.3 103.5 276.7 113.3 255.7 172.3 247.3 161.9 237.3 149.5 244.1 141.4 247.3 132.3 247.5 131.6 247.8 131 248 130.3L248 130.3C248.8 128 249.2 125.9 248.3 123.7 245.9 117.3 226.8 120.1 231.6 105.6 236.1 91.8 230.5 91.9 230.5 91.9Z" fill="#5A6771"/></g></g></g></g></g><g><g><g><g><path d="M196.1 158.9C196 158.9 195.8 158.8 195.7 158.7 195.5 158.5 195.5 158.1 195.7 157.8 203 150.4 197.9 138.4 197.9 138.2 197.8 137.9 197.9 137.5 198.2 137.4 198.5 137.3 198.9 137.4 199 137.7 199.1 137.8 204.4 150.6 196.6 158.6 196.5 158.9 196.3 158.9 196.1 158.9Z" fill="#5A6771"/></g></g></g></g><g><g><g><g><path d="M208.5 102.7C208.5 102.7 208.4 102.7 208.4 102.7 208.1 102.6 207.9 102.2 208 101.9 212.3 90.2 222.8 88 223.8 88.1 224.1 88.1 224.4 88.4 224.3 88.8 224.3 89.1 224 89.4 223.6 89.4 222.6 89.3 213 91.6 209.1 102.4 209 102.6 208.7 102.7 208.5 102.7Z" fill="#5A6771"/></g></g></g></g></g></g><g clip-path="url(#SVGID_2_)" opacity="0.25"><path d="M282 145C253 116.4 224.1 87.7 195.1 59.1 191.4 55.5 197.4 50 201 53.7 230 82.3 258.9 111 287.9 139.6 291.6 143.3 285.7 148.7 282 145L282 145Z" fill="#FFFFFF"/><path d="M246.7 180.3C217.7 151.7 188.8 123 159.8 94.4 156.1 90.8 162.1 85.3 165.7 89 194.7 117.6 223.6 146.3 252.6 174.9 256.4 178.5 250.4 183.9 246.7 180.3L246.7 180.3Z" fill="#FFFFFF"/><path d="M285.6 158.5C256.6 129.9 227.7 101.2 198.7 72.6 195 69 198.7 67.7 202.3 71.4 231.3 100 260.2 128.7 289.2 157.3 292.9 160.9 286.9 166.4 283.3 162.7L285.6 158.5Z" fill="#FFFFFF"/></g></g></g><path d="M238.4 184.6C240.8 183.3 239.5 181.1 237.9 180.8 237.8 180.8 237.6 180.8 237.8 180.7 239.6 179.6 238.8 177 236.9 177 236.8 177 236.8 176.8 236.8 176.7 237.8 175.4 237 172.1 233.9 173.7 228.3 176.5 224.9 180.2 230 179.4 226.1 181.6 225.4 184 231.1 182.7 227.9 184.2 227.3 186.9 231.7 185.9 230.5 186.7 228.5 189.1 235 189.1 236.6 189.1 237.3 188.6 237.9 188.2 240 187 239.3 185.7 238.9 185.1 238.8 184.9 238.5 184.6 238.4 184.6Z" id="hand_5_" fill="#F8B791"/><path d="M219.1 198.2C210.6 201.7 176.2 249.4 154.8 217.7 129.5 180.1 121 142 121 142 164.6 142.3 169.9 172.9 175.1 179.7 181.2 187.6 196 194.8 212.4 181.5 215 179.3 222 197.1 219.1 198.2Z" fill="#E6A9BD"/><g><g><g><g><g><g><path d="M129.9 145.5C138.2 160.9 165.3 162.1 161.2 145.4 159.4 138.1 167.4 132 167.8 126.7 168.6 114.7 157.3 112.1 153.7 101.6 148.2 85.8 138.1 60.5 95.7 93.1 83.3 102.4 129.9 145.5 129.9 145.5Z" fill="#5A6771"/></g></g></g></g></g></g><g><g><path d="M110 122.2 110.4 149.8C110.5 158 131.9 157.8 131.9 150.5L131.8 135.8 110 122.2Z" fill="#F8B791"/></g><g><g><path d="M142.7 117.9C143 119.6 143.4 121.1 143.5 122.8 143.6 125 143.4 127.2 142.8 129.4 141.2 135.1 137.6 143.4 131.9 144.2 121.8 145.6 107.4 135.7 107.3 120.8 107.2 107.8 115.8 86.8 120.6 93.9 128.1 105 134.4 99.6 139.6 106.4 140.7 107.8 141.8 109.6 142.2 114.1 142.4 115.5 142.5 116.8 142.7 117.9Z" fill="#F8B791"/></g><g><path d="M125.8 119.9C125.8 119.9 124 124 116.4 120.5 115.5 120.1 119.5 120.8 121.9 120.7 124.4 120.6 126.3 119 125.8 119.9Z" fill="#002869"/></g><g><path d="M141.2 115.6C140.7 116.6 136.1 121.1 133.9 117.9 133.3 117.1 135.5 118.7 137.7 117.6 139.9 116.5 141.5 115 141.2 115.6Z" fill="#002869"/></g><g><g><path d="M130.1 128.7C131.6 128.6 133.9 128 134.1 126.1 134.2 125.3 133.7 124.7 133.3 124.1 132.2 122.5 131.2 121 131 119 131 118.7 130.6 118.7 130.6 119 130.8 120.9 131.6 122.4 132.7 123.9 133.3 124.8 134.1 125.6 133.4 126.8 132.8 127.8 131.3 128.2 130.2 128.3 129.8 128.3 129.8 128.7 130.1 128.7L130.1 128.7Z" fill="#F27979"/></g></g><g><path d="M124.9 133.1C124.3 132.3 132.1 133.6 135.5 130.9 137.5 129.3 133.3 142.5 124.9 133.1Z" fill="#FFFFFF"/></g></g></g><g><g><g><g><g><g><path d="M129.5 83.3C129.5 83.3 105.4 63.2 78.5 94.7 69.7 105 51.5 100.3 48.4 116.4 46.6 125.8 60.4 138.6 47.3 145.2 23.5 157.3 34.2 187.8 62.4 179.3 75.8 175.3 84.8 186.7 97.2 180.4 108.7 174.6 103.1 167.6 111.9 156.7 122.4 143.7 115.3 135.1 111.9 125.6 111.7 124.9 111.4 124.2 111.1 123.5L111.1 123.5C110.3 121.1 109.9 118.9 110.8 116.6 113.4 109.8 133.4 112.9 128.4 97.6 123.7 83.2 129.5 83.3 129.5 83.3Z" fill="#5A6771"/></g></g></g></g></g><g><g><g><g><path d="M38.6 146.8C38.6 146.8 38.7 146.8 38.6 146.8 56 142.5 53.8 131.7 51.2 119.1 50.9 117.8 50.7 116.4 50.4 115.1 50.3 114.7 50 114.5 49.6 114.6 49.2 114.7 49 115 49.1 115.4 49.4 116.8 49.6 118.1 49.9 119.4 52.6 132.3 54.5 141.6 38.4 145.6 38.1 145.7 37.8 146 37.9 146.4 38 146.7 38.3 146.9 38.6 146.8Z" fill="#5A6771"/></g></g></g></g><g><g><g><g><path d="M165.6 153.6C165.7 153.6 165.9 153.5 166 153.4 166.3 153.1 166.3 152.7 166 152.5 158.3 144.7 163.7 132.1 163.7 132 163.8 131.7 163.7 131.3 163.4 131.1 163.1 131 162.7 131.1 162.5 131.4 162.4 131.5 156.8 144.9 165.1 153.4 165.2 153.6 165.4 153.6 165.6 153.6Z" fill="#5A6771"/></g></g></g></g><g><g><g><g><path d="M152.7 94.6C152.8 94.6 152.8 94.6 152.8 94.6 153.1 94.5 153.3 94.1 153.2 93.8 148.7 81.5 137.7 79.2 136.6 79.3 136.2 79.3 136 79.7 136 80 136 80.4 136.4 80.6 136.7 80.6 137.7 80.5 147.8 82.9 151.9 94.3 152.1 94.5 152.4 94.6 152.7 94.6Z" fill="#5A6771"/></g></g></g></g><g><g><g><g><path d="M55.3 183.8C57.1 183.6 59 183.2 61.1 182.7 61.4 182.6 61.7 182.2 61.6 181.9 61.5 181.6 61.1 181.3 60.8 181.4 52.5 183.6 46.2 182.9 41.9 179.4 35.3 174 36.1 163.4 36.1 163.3 36.1 162.9 35.9 162.6 35.5 162.6 35.1 162.6 34.8 162.8 34.8 163.2 34.8 163.7 34 174.5 41.1 180.4 44.5 183.4 49.3 184.5 55.3 183.8Z" fill="#5A6771"/></g></g></g></g></g><g><path d="M159 221.1C159 221.1 159.7 198.1 151.6 184.2 151.4 183.8 152 183.5 152.2 183.8 158.2 194.8 159.7 208.5 159.6 221.1 159.6 222 159 222 159 221.1 159 221.1 159 222 159 221.1Z" fill="#5A6771"/></g><g><path d="M94.2 238.6C91.8 232.4 93 226.3 94.5 220 97.1 209.2 98.1 198.7 96.9 187.6 96.9 187.2 97.5 187.2 97.6 187.6 98.8 197.8 98.1 207.6 95.8 217.6 94.2 224.6 92.1 231.5 94.9 238.5 95 238.9 94.3 239 94.2 238.6L94.2 238.6Z" fill="#5A6771"/></g><g id="heart"><path d="M177.5 78.6C179.1 78.2 179.9 80 180.9 82 182.3 80.3 183.4 78.5 185.1 79.5 186.5 80.3 186.8 83.2 184.6 86.7 183.4 88.6 180.2 92.1 180.2 92.1 180.2 92.1 177.5 88 176.4 85.9 174.6 82.1 176 79 177.5 78.6Z" fill="#E6A9BD"/><path d="M158 63.2C159.2 61.9 160.8 63 162.6 64.1 163 61.9 163.1 59.7 165 59.6 166.5 59.5 168.2 61.7 167.9 66 167.8 68.3 166.7 73.1 166.7 73.1 166.7 73.1 162.4 71.2 160.5 70 157.1 67.8 156.9 64.3 158 63.2Z" fill="#E6A9BD"/><path d="M168.7 101.1C169.6 100.3 170.6 101.1 171.7 101.9 172 100.4 172.2 99 173.5 99 174.5 99 175.6 100.5 175.2 103.4 175 104.9 174.1 108.1 174.1 108.1 174.1 108.1 171.3 106.6 170 105.8 167.9 104.2 167.9 101.8 168.7 101.1Z" fill="#E6A9BD"/><path d="M174.9 38C177.4 37.8 178.1 40.8 179.2 44 181.6 41.9 183.7 39.6 186 41.5 187.8 43 187.6 47.4 183.5 52 181.3 54.5 175.8 58.7 175.8 58.7 175.8 58.7 172.8 51.8 171.7 48.4 169.7 42.3 172.6 38.2 174.9 38Z" fill="#E6A9BD"/></g></g></svg>