<svg viewBox="0 0 512 512" xmlns="http://www.w3.org/2000/svg" xmlns:xlink="http://www.w3.org/1999/xlink" id="Capa_1" overflow="hidden"><g><g><path d="M410.442 24.972C404.763 22.515 398.249 23.588 393.732 27.81 391.052 30.172 341.383 72.27 263.979 25.971 213.087-4.468 170.866-2.686 144.408 4.171 115.648 11.623 99.106 26.202 97.315 27.841 97.236 27.914 97.169 27.994 97.091 28.068 96.874 28.274 96.667 28.488 96.463 28.706 96.31 28.87 96.157 29.034 96.011 29.203 95.812 29.435 95.625 29.676 95.44 29.919 95.313 30.087 95.183 30.252 95.063 30.424 94.872 30.697 94.697 30.981 94.524 31.266 94.431 31.42 94.331 31.571 94.243 31.727 94.057 32.059 93.892 32.401 93.73 32.746 93.673 32.868 93.609 32.986 93.555 33.111 93.381 33.511 93.229 33.922 93.089 34.338 93.062 34.417 93.028 34.493 93.003 34.573 92.857 35.029 92.735 35.497 92.631 35.97 92.621 36.016 92.606 36.06 92.596 36.107 92.494 36.588 92.42 37.079 92.364 37.576 92.36 37.616 92.349 37.656 92.345 37.696 92.29 38.229 92.26 38.769 92.26 39.315L92.26 199.486 92.26 496.452C92.26 505.038 99.221 512 107.808 512 116.394 512 123.356 505.039 123.356 496.452L123.356 207.166C137.993 197.309 183.519 174.25 248.02 212.831 281.138 232.64 310.581 238.803 334.401 238.803 347.184 238.803 358.35 237.027 367.591 234.633 396.35 227.181 412.892 212.602 414.684 210.963 417.905 208.018 419.741 203.854 419.741 199.489L419.741 39.316C419.74 33.114 416.134 27.434 410.442 24.972Z" fill="#B6CFD2"/></g></g><g></g><g></g><g></g><g></g><g></g><g></g><g></g><g></g><g></g><g></g><g></g><g></g><g></g><g></g><g></g></svg>