<svg viewBox="0 0 1100 1600" xmlns="http://www.w3.org/2000/svg" xmlns:xlink="http://www.w3.org/1999/xlink" overflow="hidden"><g id="Слой_2"><g><g><path d="M995.9 610C987.2 589.6 973.1 571.9 950.7 556.9 908.8 528.8 850.3 511.6 850.3 453.3 850.4 391.4 874.1 335.6 864.5 273.3 854.7 210.1 835.4 159.7 778.6 123.7 706 77.7 609 98.5 546.6 153 516.7 179 495.3 208.2 458.7 226.7 414.8 248.9 381.6 239.6 336.5 246 283.3 253.5 239 312.8 228.8 362.8 220.3 404.7 224.9 455.8 234.9 497.2 242.6 528.9 252 550 236.2 582.3 209.9 636.2 141 651.5 114.9 706.2 83.9 771.1 116.8 834.6 148.5 891.9 164.4 920.6 181.8 949.5 190.9 981.2 202.5 1021.2 186.6 1037.2 169 1071.9 141.7 1125.6 106.1 1195.2 176.5 1230.6 220.1 1252.5 262.1 1261.9 264.5 1317.1 266.5 1363 263.4 1402 304.9 1432.4 346.4 1462.8 416.2 1482.7 465.4 1462.4 514.6 1442.1 543.3 1400 602.6 1416.5 659.8 1432.5 703.9 1444.5 764.1 1427.9 817.6 1413.2 868.1 1379.4 876.1 1321.4 883.3 1269.5 858.3 1215.8 908.8 1181.7 951.9 1152.6 999.2 1118.1 1010.1 1064.1 1027.2 979.3 948 911.6 960.8 827.8 972.8 748.9 1032.4 695.7 995.9 610Z" fill="#BCD3D6"/></g></g><g><g><path d="M419.3 1474.9C379.9 1474.9 335 1459.9 302.3 1435.8 263.2 1407 262.1 1371.5 260.7 1330.3 260.6 1326 260.4 1321.6 260.2 1317.1 258.3 1273.7 230.7 1260.9 195.7 1244.7 189.2 1241.7 182.5 1238.6 175.7 1235.2 143.2 1218.8 128.8 1192.9 132.9 1158.3 136.4 1129.1 152 1098.3 165.7 1071L166 1070.4C169.1 1064.3 172 1058.9 174.9 1053.7 188.2 1029.4 196.3 1014.7 187.4 983.7 179.6 956.7 165.5 931.3 151.8 906.7 149.8 903.1 147.8 899.4 145.8 895.8 129.2 865.6 113.7 836 105.4 805 95.8 768.7 98.1 736.4 112.4 706.3 126 677.8 150.6 659.6 174.5 642.1 198 624.8 220.3 608.5 232.7 583 245.4 556.9 240.7 539.1 234.3 514.3 233.2 510.2 232.1 506 231.1 501.6 219.5 453.5 217.3 403.9 225 365.6 235.4 313.9 280.8 253.2 335.9 245.4 350.9 243.3 364.5 242.9 377.6 242.5 404.3 241.7 427.3 241 455.5 226.7 479.8 214.3 497.2 197.1 515.6 178.8 523.8 170.6 532.3 162.2 541.6 154 581.9 118.7 634.4 98.5 685.6 98.5 719.1 98.5 750.9 107.5 777.6 124.5 839.9 164.1 856.4 221.2 865 276.9 870.7 313.8 864.8 348.9 859.2 382.8 855.2 406.8 851.1 431.6 851 456.9 850.9 499.6 884.3 518.5 919.6 538.6 929.2 544.1 939.2 549.7 948.2 555.9 970.1 570.7 985.4 588.7 994.9 611 1019.4 668.6 1002 711.5 983.6 756.8 974.2 780 964.5 803.9 960.4 830.5 954.4 869.9 969.3 905.1 985 942.5 1001.3 981.3 1018.2 1021.4 1009.2 1066.1 998.3 1120.4 952.6 1155.3 906.7 1186.4 874 1208.6 875.5 1239.2 877.2 1274.6 877.9 1290.1 878.7 1306 876.5 1322 869.4 1373.8 827.6 1413.9 761.9 1432.1 742.2 1437.6 723.3 1440.2 704.2 1440.2 704.2 1440.2 704.2 1440.2 704.2 1440.2 668.6 1440.2 634.9 1430.7 599.1 1420.7 590.5 1418.3 582.5 1417.1 574.6 1417.1 549.1 1417.1 529.1 1429.8 507.9 1443.2 495.1 1451.3 481.8 1459.7 466.4 1466.1 452.6 1472 436.7 1474.9 419.3 1474.9ZM685.4 108.7C636.6 108.7 586.6 128 548 161.8 539 169.7 530.6 178.1 522.5 186.1 503.6 204.9 485.7 222.7 459.9 235.8 429.7 251.1 404.5 251.9 377.8 252.7 365 253.1 351.7 253.5 337.2 255.5 314.2 258.8 290.6 273.2 270.9 296.1 252.8 317.1 239.6 343.3 234.7 367.8 227.4 404.2 229.6 453.4 240.7 499.5 241.7 503.9 242.8 508 243.9 512 250.4 536.8 256 558.2 241.7 587.6 228.2 615.3 203.9 633.2 180.5 650.4 156.6 668 134 684.6 121.5 710.8 93.2 770.4 119.8 827.7 154.6 891.2 156.6 894.8 158.6 898.4 160.6 902.1 174.5 927.2 189 953.1 197 981.2 207 1016.1 197.2 1034 183.7 1058.7 180.9 1063.9 178 1069.2 175 1075.1L174.7 1075.7C161.3 1102.2 146.2 1132.2 142.9 1159.6 139.2 1190.4 151.1 1211.6 180.2 1226.4 186.8 1229.7 193.5 1232.8 199.9 1235.8 235 1252 268.1 1267.3 270.2 1316.8 270.4 1321.3 270.5 1325.7 270.7 1330.1 272 1370.2 273.1 1401.9 308.2 1427.8 338.8 1450.4 382.4 1464.9 419.3 1464.9 435.4 1464.9 449.9 1462.3 462.4 1457 477 1450.9 489.9 1442.8 502.4 1434.9 524.9 1420.7 546.1 1407.2 574.5 1407.2 583.3 1407.2 592.2 1408.5 601.7 1411.1 638.3 1421.4 669.8 1430.2 704.1 1430.2 704.1 1430.2 704.1 1430.2 704.1 1430.2 722.3 1430.2 740.3 1427.7 759.1 1422.5 788.3 1414.4 857.2 1388.3 866.5 1320.7 868.6 1305.6 867.8 1290.1 867.1 1275.1 865.4 1239.9 863.7 1203.4 901 1178.1 945.2 1148.2 989.1 1114.7 999.3 1064.1 1007.7 1022.4 992.1 985.5 975.6 946.4 960 909.4 943.9 871.2 950.4 829.1 954.6 801.3 964.6 776.8 974.2 753.1 991.8 709.7 1008.4 668.8 985.6 615 976.9 594.5 962.8 578 942.6 564.3 933.8 558.4 924.1 552.8 914.6 547.4 878.3 526.8 840.8 505.4 840.9 457 840.9 430.9 845.1 405.7 849.2 381.3 855 346.7 860.4 313.9 855 278.6 846.8 225.2 831 170.6 772.1 133.1 747 117.1 717 108.7 685.4 108.7Z" fill="#92B7BC"/></g></g><g><g><path d="M421.8 1470.9C383.6 1470.9 338.5 1455.7 306.8 1432.2 268.4 1403.7 267.3 1368.5 265.9 1327.8 265.8 1323.6 265.6 1319.2 265.4 1314.8 263.5 1271.8 236.4 1259.1 202 1243.1 195.6 1240.1 189 1237 182.4 1233.7 150.5 1217.5 136.3 1191.8 140.4 1157.6 143.8 1128.7 159.1 1098.2 172.6 1071.2L172.9 1070.6C175.9 1064.6 178.8 1059.2 181.6 1054 194.7 1029.9 202.6 1015.3 193.9 984.7 186.3 957.9 172.4 932.8 159 908.4 157 904.8 155 901.2 153.1 897.6 136.8 867.7 121.5 838.4 113.5 807.7 104.1 771.8 106.3 739.8 120.3 710 133.6 681.7 157.8 663.8 181.3 646.4 204.4 629.3 226.2 613.1 238.4 587.8 250.9 562 246.3 544.3 239.9 519.7 238.9 515.7 237.8 511.5 236.7 507.1 225.3 459.4 223.1 410.4 230.7 372.4 241 321.2 285.5 261.1 339.7 253.3 354.4 251.2 367.8 250.8 380.7 250.4 406.9 249.6 429.5 248.9 457.2 234.7 481.1 222.4 498.1 205.3 516.2 187.2 524.3 179.1 532.6 170.7 541.7 162.7 581.3 127.7 632.9 107.7 683.1 107.7 716 107.7 747.3 116.6 773.5 133.4 834.7 172.6 850.9 229.1 859.4 284.4 865 320.9 859.2 355.7 853.7 389.2 849.8 413 845.7 437.5 845.7 462.6 845.6 504.9 878.4 523.7 913.1 543.6 922.5 549 932.3 554.6 941.2 560.7 962.7 575.3 977.7 593.2 987 615.3 1011 672.4 993.9 714.8 975.9 759.7 966.7 782.6 957.1 806.4 953.1 832.7 947.2 871.7 961.8 906.6 977.2 943.6 993.2 982 1009.8 1021.7 1001 1066 990.3 1119.7 945.4 1154.3 900.3 1185.1 868.2 1207.1 869.6 1237.4 871.3 1272.5 872 1287.8 872.8 1303.6 870.6 1319.5 863.6 1370.8 822.6 1410.5 758 1428.6 738.6 1434 720.1 1436.6 701.3 1436.6 666.3 1436.6 633.2 1427.2 598.1 1417.3 589.7 1414.9 581.8 1413.8 574.1 1413.8 549.1 1413.8 529.4 1426.4 508.6 1439.7 496 1447.7 483 1456.1 467.8 1462.4 454.4 1468 438.9 1470.9 421.8 1470.9ZM683.1 117.5C635.2 117.5 586 136.7 548.2 170.1 539.3 177.9 531.1 186.2 523.1 194.2 504.5 212.9 486.9 230.5 461.6 243.5 432 258.7 407.2 259.5 380.9 260.2 368.3 260.6 355.2 261 341 263 318.4 266.2 295.3 280.5 275.9 303.2 258.1 324 245.2 349.9 240.3 374.2 233.1 410.2 235.3 459 246.2 504.6 247.2 508.9 248.3 513 249.3 517 255.7 541.5 261.1 562.7 247.1 591.8 233.9 619.3 210 636.9 187 654 163.5 671.4 141.3 687.9 129.1 713.9 101.3 773 127.4 829.8 161.6 892.6 163.6 896.2 165.5 899.8 167.5 903.4 181.2 928.2 195.4 953.9 203.3 981.7 213.1 1016.2 203.5 1033.9 190.2 1058.4 187.4 1063.5 184.6 1068.8 181.6 1074.7L181.3 1075.3C155.2 1127.3 122.8 1192.1 186.7 1224.6 193.2 1227.9 199.7 1230.9 206 1233.9 240.4 1250 273 1265.1 275.1 1314.1 275.3 1318.6 275.4 1323 275.6 1327.2 276.9 1367 277.9 1398.4 312.5 1424 342.6 1446.3 385.4 1460.8 421.6 1460.8 437.4 1460.8 451.6 1458.2 464 1453 478.4 1447 491 1438.9 503.3 1431.1 525.4 1417 546.2 1403.7 574.1 1403.7 582.8 1403.7 591.5 1405 600.8 1407.6 636.7 1417.8 667.7 1426.5 701.3 1426.5 719.2 1426.5 736.8 1424 755.3 1418.8 784 1410.8 851.7 1384.9 860.8 1317.9 862.8 1303 862.1 1287.6 861.4 1272.7 859.8 1237.8 858 1201.7 894.7 1176.7 938.1 1147 981.3 1113.9 991.2 1063.8 999.4 1022.5 984.1 985.9 968 947.2 952.7 910.6 936.9 872.7 943.2 831 947.4 803.5 957.1 779.2 966.6 755.8 983.9 712.8 1000.2 672.3 977.8 618.9 969.3 598.6 955.4 582.2 935.5 568.7 926.9 562.9 917.3 557.3 908 552 872.4 531.6 835.6 510.4 835.6 462.4 835.6 436.5 839.8 411.6 843.8 387.4 849.5 353.1 854.8 320.7 849.5 285.7 841.4 232.8 825.9 178.7 768.1 141.5 743.6 125.9 714.2 117.5 683.1 117.5Z" fill="#A7C5C9"/></g></g></g><g id="Слой_3"><line x1="898.4" y1="441.9" x2="919.9" y2="417.4" stroke="#BE1622" stroke-miterlimit="10" fill="#BE1622"/><line x1="893.6" y1="424.8" x2="924.8" y2="434.5" stroke="#BE1622" stroke-miterlimit="10" fill="#BE1622"/></g><g id="Слой_4"><g><path d="M371.7 1447.1 369.3 1445.8C370.1 1446.3 370.9 1446.7 371.7 1447.1Z" fill="#BE9081"/></g><g><path d="M410.8 1127.2C371.1 1150.8 353.8 1199.6 346.4 1245.3 344.5 1257.2 343.2 1268.9 342.4 1279.9 339.1 1325.4 338.6 1374.7 345.2 1419.8 347.5 1435.3 347.6 1452.3 359.3 1462.9 369.2 1471.9 379.1 1487.5 389.6 1471.2 393.2 1465.6 392 1445.4 393.9 1438.3 404.3 1398.4 416.6 1360.6 430.2 1321.4 444.7 1279.6 459 1237.7 470.6 1195 476 1175.2 491.6 1143.6 481.1 1123.6 468.3 1099.3 428.7 1116.6 410.8 1127.2Z" fill="#D67555"/></g><g><path d="M666.5 1108.5C537.3 1098 616.3 1346 632.4 1410.1 635.8 1423.5 638 1438 646.5 1449.3 655.6 1461.5 671.3 1466.4 680.2 1478.8 679.9 1478.4 707.1 1224.9 707.4 1180.4 707.5 1151 704.2 1111.6 666.5 1108.5Z" fill="#D67555"/></g><g><path d="M651.8 1506.3C652.8 1499.8 654.6 1490.5 655 1489.1 647.4 1489.1 631.3 1485.3 631.5 1476.7 631.5 1477 631.5 1477.2 631.5 1477.5 631.5 1477.9 631.4 1478.2 631.4 1478.5 629.2 1486.5 633.5 1500.3 637.8 1507.4 640.7 1512.2 645.8 1512.5 651.3 1512.6 650.9 1512.7 651.2 1510 651.8 1506.3Z" fill="#5B6771"/></g><g><path d="M719.3 1513.3C714.6 1512 710.1 1514.6 705.4 1514.4 693.7 1513.8 685.1 1506.7 675.9 1500.7 672.7 1498.6 669.5 1496.7 666 1495.2 670 1514.8 683.9 1528.5 704.7 1528.7 709.4 1528.7 728 1528 729 1521.7 729.5 1518.1 722.1 1514 719.3 1513.3Z" fill="#5B6771"/></g><g><path d="M707.1 1499.2C702.1 1493.5 696.9 1488.6 693.6 1481.6 683 1459 681.5 1426.9 685.9 1402.4 690 1379.7 688.8 1354.4 690.4 1331.2 690.7 1326.4 689.7 1322 686.3 1318.8 677.8 1310.8 636.7 1321.3 629.2 1329.8 615.1 1345.8 623.5 1372.5 626.7 1389.8 629 1402.5 631.6 1462.5 641.2 1473.3 648 1480.9 657.7 1485.7 666.4 1490.7 670.5 1493.1 672.7 1495.8 676.1 1498.7 680.5 1502.5 686.5 1503.4 691.8 1505.4 696.4 1507.1 703.7 1511.2 708.8 1510 715.8 1508.5 709.7 1502.2 707.1 1499.2Z" fill="#D67555"/></g><g><path d="M713.7 1503.3C710.3 1500.2 705 1494.1 700.5 1493 701.8 1496.4 706.4 1500.3 705.8 1503.9 697.7 1503.4 689.7 1499.1 682.8 1495.2 676.7 1491.7 671.3 1487.3 665.8 1482.8 663.1 1480.6 632.3 1456.7 634.7 1454 626.1 1462.8 627.9 1481.5 638.1 1488.7 645 1493.5 652.3 1493.4 659.7 1496 667 1498.5 671.6 1505.2 677.3 1509.9 683.7 1515.1 691.3 1518 699.4 1519.2 701.7 1519.6 728.2 1521 727.7 1519.9 725.2 1513.8 719.1 1508.3 713.7 1503.3Z" stroke="#5B6771" stroke-miterlimit="10" fill="#5B6771"/></g><g><path d="M336.8 1472.8C336.7 1473.1 336.7 1473.3 336.6 1473.6 336.5 1474 336.4 1474.3 336.3 1474.6 332.8 1482.2 334.7 1496.5 337.8 1504.2 339.9 1509.4 344.8 1510.4 350.2 1511.4 349.9 1511.3 350.7 1508.7 351.9 1505.1 354 1498.8 357.3 1489.9 357.9 1488.5 350.4 1487.5 335.1 1481.2 336.8 1472.8Z" fill="#5B6771"/></g><g><path d="M403.2 1521.2C391.8 1518.8 384.5 1510.5 376.4 1503.2 373.6 1500.7 370.7 1498.3 367.6 1496.2 368.2 1516.2 379.6 1531.8 400.1 1535.2 404.7 1535.9 423.2 1538 425.2 1531.9 426.3 1528.5 419.7 1523.4 417.1 1522.2 412.7 1520.3 407.9 1522.2 403.2 1521.2Z" fill="#5B6771"/></g><g><path d="M355.2 1330C345.4 1340.8 342.7 1365.2 342 1385.9 341.7 1395.5 341.8 1404.3 341.9 1410.6 342.1 1426.7 338.4 1457.3 346.9 1470.8 352.3 1479.4 361 1485.6 368.8 1491.9 372.4 1494.9 374.1 1497.9 377 1501.3 380.7 1505.7 386.5 1507.6 391.3 1510.3 395.5 1512.7 402 1517.9 407.3 1517.5 414.5 1516.9 409.6 1509.8 407.5 1506.4 403.5 1500 399.2 1494.4 397.1 1486.9 390.5 1462.9 394.4 1430.9 402.8 1407.3 410.6 1385.4 413.7 1360.1 419.1 1337.4 420.2 1332.7 420 1328.2 417.1 1324.5 407.3 1311.8 364.9 1319.3 355.2 1330Z" fill="#D67555"/></g><g><path d="M402 1499.4C402.7 1503 406.6 1507.5 405.4 1511 397.5 1509.3 390.4 1503.8 384.3 1498.9 378.9 1494.5 374.3 1489.3 369.6 1484.1 367.3 1481.5 341 1453.2 343.8 1450.9 333.9 1458.3 332.5 1477.1 341.4 1485.8 347.4 1491.6 354.6 1492.6 361.5 1496.3 368.3 1499.9 371.6 1507.2 376.5 1512.7 381.9 1518.8 389 1522.8 396.7 1525.3 398.9 1526 424.7 1531.4 424.5 1530.2 422.9 1523.7 417.8 1517.3 413.4 1511.6 410.5 1508 406.3 1501.2 402 1499.4Z" fill="#5B6771"/></g><g><path d="M458.6 1193.3C466.6 1190.2 473 1184.9 474.9 1175.1 480.6 1146.5 446.8 1158.7 430 1158.6 420.9 1158.5 411.5 1159.2 402.6 1157.1 397.5 1155.9 387.5 1149.1 383.3 1149.2 363.5 1149.6 356.2 1201.1 358.1 1216.8 377.3 1221.1 411.3 1201.7 431.8 1198.7 440.3 1197.5 450.3 1196.6 458.6 1193.3Z" fill="#D0674B"/></g><g><path d="M693.1 1202.3C700.7 1199 706.7 1194 708 1185.2 712 1159.4 679.7 1172.3 663.3 1173.1 654.5 1173.6 645.2 1174.7 636.5 1173.4 631.4 1172.7 621.3 1167.2 617.3 1167.5 598 1169 593.6 1215.3 596.4 1229.1 615.3 1231.8 647.5 1212.6 667.3 1208.7 675.5 1207.1 685.2 1205.7 693.1 1202.3Z" fill="#D0674B"/></g><g><path d="M576 536.9C559.2 534.7 535.7 518.7 519.4 523.1 510.9 525.4 488.6 551.2 482.2 557.9 446.2 595.9 405.9 665.6 384.5 715.8 353.7 788.2 346.6 868.4 325.1 943.5 311 993.1 273.5 1109.9 331.7 1143.3 386.8 1174.9 465.9 1187.7 528.3 1191.6 586.3 1195.2 712.9 1202.2 751.2 1147.3 772.6 1116.6 756.8 1070.8 752.2 1037.3 744.2 979.9 738.5 921.9 733.5 864.2 724.6 762.5 709.6 645.8 679 548 662.5 495.1 616.4 542.1 576 536.9Z" fill="#5B6771"/></g><g><g><g><path d="M567.1 485.6C567 485.6 567.1 485.6 567.1 485.6L567.1 485.6Z" fill="#F9CCC9"/></g></g></g><g><g><g><path d="M675.8 515.3C661.6 517 647.4 518.2 632.9 518.9 616.9 519.7 600.9 521.2 584.9 521 579.7 520.9 539.8 519 539 512.6 541.2 531.4 549.6 543.9 569.4 547.2 594 551.3 619.6 546.8 644.3 545.7 655.3 545.2 666.7 544.4 678 543.1 676.5 539 675.7 534.6 675.6 530.1 675.6 525.3 675.6 520.3 675.8 515.3Z" stroke="#5B6771" stroke-miterlimit="10" fill="#5B6771"/></g></g></g><g><g><path d="M535.6 523.9C532.2 523.8 528.9 523 525.6 522.2 523.4 521.7 522.5 525 524.7 525.6 528.3 526.5 531.9 527.3 535.7 527.4 537.8 527.4 537.8 523.9 535.6 523.9Z" fill="#EEEAEB"/></g></g><g><g><path d="M612.5 507.5C610.9 508.2 609 508.1 607.3 508.1 605 508.1 605 511.6 607.3 511.6 609.7 511.6 612.1 511.5 614.3 510.5 616.4 509.6 614.6 506.6 612.5 507.5Z" fill="#EEEAEB"/></g></g><g><g><path d="M691.3 491.9C690.3 494.9 688.8 497.7 687.8 500.6 687.1 502.7 690.4 503.6 691.2 501.5 692.2 498.5 693.7 495.7 694.7 492.8 695.5 490.7 692.1 489.8 691.3 491.9Z" fill="#EEEAEB"/></g></g><g><path d="M901.2 464.2C901.1 464.2 901.1 464.2 901.1 464.3 901 464.3 901.1 464.2 901.2 464.2Z" fill="#D46B4B"/><path d="M818.6 469.9C829.1 465.4 839.7 460.9 850.6 457.4 860.3 454.2 867.6 448.6 876.2 443.4 878.8 449.4 870.1 457.1 879.9 459.7 887.5 461.7 897.9 458.5 905.4 456.8 912.8 455.1 916.9 451.9 919.4 452.6 929.4 455.5 904.7 462.7 901.2 464.3 901.1 464.3 901.1 464.3 901.1 464.4 901.1 464.4 901.2 464.4 901.2 464.3 902.5 464.2 912 470.2 912.6 473.8 913.3 478.1 910.6 481.1 907 483.7 892 494.5 875.9 500.9 858 506.7 848.5 509.8 838.8 513.9 832.8 504 831 501.1 816.6 470.8 818.6 469.9Z" fill="#D46B4B"/></g><g><path d="M872.2 450.2C878.6 433.4 892.5 396.8 893.2 395.2 894.4 392.4 898.8 387.5 906.5 390 912.3 391.9 930.6 398 937.9 400.5 948.3 404 946.9 410.1 944.6 416.2 940.3 427.5 919.9 481 918.1 485.9 915.2 493.5 911.6 496.4 900 492.5 894.4 490.6 877.8 485.1 872.1 483.2 866.9 481.5 861.6 478.1 864.8 469.7 865.2 468.7 868.3 460.3 872.2 450.2Z" fill="#5B6771"/><path d="M889.1 479.3 889.2 479.4 889.3 479.5C888.8 479.7 888.4 480.1 888.2 480.6 888 481.1 888 481.6 888.3 482.2 888.4 482.3 888.5 482.6 888.8 482.8 889 483 889.3 483.2 889.7 483.3 889.9 483.4 890.2 483.4 890.4 483.4 890.7 483.4 890.9 483.3 891.2 483.2 891.5 483.1 891.7 482.9 891.9 482.7 892.1 482.5 892.2 482.3 892.3 482.1 892.4 481.9 892.4 481.6 892.4 481.3 892.4 481 892.3 480.8 892.1 480.5 892 480.3 891.8 480.1 891.6 479.9 891.4 479.7 891.1 479.5 890.8 479.4 890.6 479.3 890.3 479.3 890.1 479.3 889.8 479.3 889.6 479.4 889.3 479.5L889.2 479.4 889.1 479.3C889.4 479.2 889.8 479.1 890.1 479.1 890.4 479.1 890.7 479.1 890.9 479.2 891.3 479.3 891.6 479.5 891.8 479.8 892.1 480 892.2 480.3 892.4 480.5 892.6 480.8 892.7 481.1 892.7 481.4 892.7 481.7 892.7 482 892.6 482.3 892.5 482.6 892.3 482.8 892.1 483 891.9 483.2 891.6 483.4 891.3 483.5 891 483.6 890.6 483.7 890.3 483.7 890 483.7 889.7 483.7 889.5 483.6 889.1 483.5 888.8 483.2 888.5 483 888.2 482.8 888.1 482.5 888 482.3 887.7 481.7 887.6 481 887.8 480.5 888.1 480 888.6 479.5 889.1 479.3Z" fill="#FFFFFF"/><path d="M885.4 479.8 885.4 479.8C885.9 478.4 886.9 477.4 888.1 476.9 889.3 476.4 890.7 476.3 891.9 476.8L891.8 476.9 891.8 477C890.6 476.6 889.3 476.7 888.2 477.1 887.1 477.6 886.1 478.5 885.6 479.8L885.6 479.8C885.5 480.1 885.4 480.6 885.3 481.2 885.3 481.8 885.4 482.4 885.6 483.1 885.8 483.5 886 483.9 886.4 484.3 886.9 484.8 887.5 485.2 888.5 485.6 889.6 486 890.6 486 891.5 485.8 892.4 485.6 893.1 485.1 893.7 484.5 894.1 484.1 894.4 483.5 894.6 482.9 894.8 482.3 895 481.5 894.8 480.6 894.7 479.8 894.3 478.9 893.6 478.2 893.1 477.7 892.5 477.3 891.6 477L891.6 476.9 891.7 476.8C892.4 477 892.9 477.3 893.4 477.7 893.9 478.1 894.2 478.4 894.5 478.9 895 479.7 895.2 480.7 895.2 481.6 895.2 482.2 895.1 482.7 894.9 483.1L894.9 483.1C894.5 484.1 894 484.9 893.2 485.4 892.5 486 891.6 486.3 890.5 486.3 889.8 486.3 889.1 486.2 888.3 485.9 887.6 485.7 887 485.3 886.5 485 886 484.6 885.7 484.2 885.4 483.8 884.9 482.9 884.8 481.9 884.9 481.2 885.2 480.6 885.3 480.1 885.4 479.8Z" fill="#FFFFFF"/><path d="M886.5 484.4C886.9 484.8 887.3 485.1 887.9 485.4 888 485.5 888.1 485.7 888.2 485.8 887.6 485.6 887.1 485.3 886.7 485 886.4 484.7 886.1 484.4 885.9 484.1 886 484.1 886.1 484 886.2 484 886.3 484.1 886.4 484.3 886.5 484.4Z" fill="#FFFFFF"/><path d="M895.1 481.4C895.2 481.4 895.3 481.4 895.4 481.4L895.4 481.5C895.4 482.1 895.3 482.6 895.1 483L895.1 483C895 483.2 894.9 483.4 894.8 483.6 894.7 483.5 894.7 483.4 894.6 483.3 894.6 483.2 894.7 483.1 894.8 482.9 894.9 482.5 895.1 482 895.1 481.4Z" fill="#FFFFFF"/><path d="M888.4 482.2C888.5 482.3 888.6 482.6 888.9 482.8 889.1 483 889.4 483.2 889.8 483.3 890 483.4 890.3 483.4 890.5 483.4 890.5 483.4 890.6 483.4 890.6 483.4 890.7 483.5 890.8 483.6 890.9 483.6 890.8 483.6 890.6 483.6 890.5 483.6 890.2 483.6 889.9 483.6 889.7 483.5 889.3 483.4 889 483.1 888.7 482.9 888.4 482.7 888.3 482.4 888.2 482.2 888.1 482 888 481.9 888 481.7 888.1 481.8 888.3 481.9 888.4 481.9 888.3 482.1 888.3 482.2 888.4 482.2Z" fill="#FFFFFF"/><path d="M888.6 485.6C888.8 485.7 889.1 485.7 889.3 485.8 889.9 485.9 890.5 486 891 485.9 891 486 891.1 486.1 891.1 486.2 891 486.2 890.8 486.2 890.7 486.2 890 486.2 889.3 486.1 888.5 485.8 888.4 485.8 888.3 485.7 888.2 485.7 888.1 485.6 888 485.4 887.9 485.3 888 485.3 888.1 485.4 888.2 485.4 888.3 485.6 888.5 485.6 888.6 485.6Z" fill="#FFFFFF"/><path d="M891.5 485.9 891.5 485.9 891.5 485.9 891.5 485.9 891.5 485.9 891.5 485.9 891.5 485.9 891.5 485.9 891.5 485.9 891.5 485.9 891.5 485.9 891.5 485.9 891.5 485.9 891.5 485.9 891.5 485.9 891.5 485.9 891.5 485.9 891.5 485.9 891.5 485.9 891.6 485.9 891.6 485.9 891.6 485.9 891.6 485.9 891.6 485.9 891.6 485.9 891.6 485.9 891.6 485.9C892.1 485.8 892.5 485.6 892.9 485.4 893 485.5 893.1 485.5 893.2 485.6 892.6 486 891.9 486.3 891.1 486.3 891.1 486.2 891 486.1 891 486 891.2 486 891.4 485.9 891.5 485.9L891.5 485.9Z" fill="#FFFFFF"/><path d="M875.4 454.9C875.8 454 876.1 453 876.6 451.8 878.7 446.3 880.8 440.8 882.9 435.3 884.1 432.3 885.2 429.2 886.4 426.2 887.5 423.3 896.1 400.7 897.2 397.9 898.8 393.7 903.2 394.8 905.3 395.5 907.7 396.3 909.8 397 912.2 397.8 917.4 399.5 922.6 401.3 927.8 403 931.4 404.2 933 404.7 936.5 405.9 939.5 406.9 942.2 408.3 940.2 413.4 939.5 415.3 939.4 415.6 938.7 417.5 937.4 421.1 930.3 439.6 929 443.2 928.2 445.4 927.4 447.6 926.5 449.8L926.5 449.8C924.4 455.3 922.4 460.8 920.3 466.2 919.1 469.4 917.9 472.6 916.7 475.8 916.3 476.9 914.6 481.2 908.8 479.2 906.3 478.3 881.1 470 878.1 469 870.6 466.5 872.7 462.3 873.4 460.4 874.2 458.3 874.8 456.7 875.4 454.9Z" fill="#F7F8F8"/></g><path d="M923.4 451.4C932.6 457.4 929 470.5 924.7 478.5 923.6 480.6 922.2 483.2 920.4 485 910.9 493.9 901.4 466.1 904.4 459.4 907.9 451.7 915.3 446 923.4 451.4Z" fill="#D46B4B"/><g><path d="M927.3 458 925.5 461.7C921 459.8 912.7 459.6 907.3 460.5L906.7 456.5C912.7 455.6 921.7 455.7 927.3 458Z" fill="#C0533E"/></g><g><path d="M926.9 468.5 925.2 472.2C918.9 469.6 911.7 468.5 905.6 467.6L906.3 463.6C912.7 464.5 920.2 465.7 926.9 468.5Z" fill="#C0533E"/></g><g><path d="M921 475.5C921.9 475.7 922.8 475.9 923.6 476.1L922.6 480C921.8 479.8 920.9 479.6 920 479.4 916.4 478.6 912.3 477.6 909.5 477.9L909.1 473.9C912.6 473.6 917.1 474.6 921 475.5Z" fill="#C0533E"/></g><g><path d="M852.2 451.6C858.7 444.2 868.1 441.9 876.5 436.9 878.5 435.7 880.2 434.2 881.8 432.6 882.6 431.8 883.5 436.9 883.5 437.3 883.2 439.5 881 441.5 879.6 443.1 876.3 446.8 873.6 449 871.4 453.3 868.2 459.4 863.6 467.7 855.5 468 852.7 468.1 845.9 465.8 845.3 462.7 844.9 459.7 850.4 453.7 852.2 451.6Z" fill="#D46B4B"/></g><g><path d="M699.3 250.8C688.3 247.9 679.8 238.4 673.9 228.9 667 217.6 666.8 205.6 661.7 194.1 665.6 202.9 622.4 231.2 616.1 235.6 605.1 243.3 592.5 251.1 579.6 255.1 570.6 257.9 562.1 256.1 553 258.4 535.3 262.9 532.8 278.4 534.9 294.1 536.5 306.2 540.5 318 544.9 329.3 554.8 355.2 577.8 381 608.2 375.1 635 369.9 640.5 353.4 644.8 334.6 648 320.7 650.5 305.6 660.6 292.8 672.5 277.6 684.7 263.9 699.3 250.8Z" fill="#D67555"/></g><g><path d="M644 250.8C635.9 238.6 634.7 222.1 631.1 207.3 630.8 207.6 630.5 207.9 630.2 208.2 621 217.9 619.7 231.6 607.4 239.6 601.8 243.2 595.7 246.2 589.6 248.9 586.7 250.1 575.6 252.3 574.4 255.6 571.3 264.1 591 266.2 595.7 265.1 605.4 262.9 616.7 251.1 626.8 255.7 633.3 258.7 638.3 266.9 644.9 270.8 647.9 272.6 658.4 276.8 659.7 271.6 660.6 268.3 646.5 254.6 644 250.8Z" fill="#D0674B"/></g><g><path d="M733.2 166.1C727.8 151.7 720.2 136.6 707.8 128.9 689 117.3 685.7 130.7 681.3 146.3 678.1 157.4 674.9 171.4 664.5 178.1 658.4 182 651 181.1 644.8 184.2 621.6 195.6 643.9 222.4 654.5 234.2 670.4 251.9 691.2 272.6 717.7 265.4 730.7 261.9 740.3 253.4 743.2 240.1 747.5 219.6 743.8 197.9 737.4 178.2 736.1 174.3 734.8 170.2 733.2 166.1Z" fill="#5B6771"/></g><g><path d="M725.2 177.3C722.5 173.6 718.8 170.2 714.2 167.1 691.3 152.1 661.9 156.6 644.3 177.6 629.6 195.1 626.3 219.9 633.1 241.4 638.3 257.7 657.7 282.9 677.2 274.3 690.4 268.5 705.6 261.8 711.7 247.8 713.6 243.5 714 237.8 717.1 233.7 720.5 229.1 725.1 226.4 727.3 220.7 732.9 206.6 734.6 190.1 725.2 177.3Z" fill="#EFA17B"/></g><g><path d="M676.5 192.9C673.4 192.5 667.2 190.8 665.7 195.1 665.7 195 666.5 195.1 667.6 195.4 670.9 196.4 677.7 198.9 678.4 199.1 682.9 200.3 684.6 196.7 685.4 192.6 682.4 192.8 679.6 193.4 676.5 192.9Z" fill="#674E4F"/></g><g><path d="M719.3 213.7C718.8 213.1 713.3 206.3 713.9 205.8 711.4 208.2 709.6 210.2 710.5 212.6 710.8 213.4 711.3 214.2 712.3 215.1 712.8 215.6 720.7 221.2 720 221.8 723.7 218.7 721.7 216.9 719.3 213.7Z" fill="#674E4F"/></g><g><path d="M688.2 233.2C687.9 231.8 687.6 230.4 687.9 229.1 688.6 225.1 691 221.4 691.5 217.5 685.7 213.7 678.3 230.6 678.6 234.5 679 239.8 687.1 246.3 688.9 238.1 689.2 236.7 688.7 235 688.2 233.2Z" fill="#D5826E"/></g><g><path d="M655.7 226.7C656.5 220.8 643.5 212.6 641.6 222.3 640.1 230.1 655.1 236 655.7 226.9 655.6 227.6 655.7 227 655.7 226.7Z" fill="#EF7E67"/></g><g><path d="M638.1 164.2 637.9 164.3 638.1 164.2Z" fill="#96777A"/></g><g><path d="M726 176.4C716.4 165.2 700.1 161.3 685.9 163.1 675 164.5 664 168.2 654.8 174.3 649.1 178.1 643.9 182.8 643.7 190.2 648.1 189 651.3 184 654.9 181.4 659.7 177.9 666.5 172.8 672.3 171.4 682.1 168.9 692.3 175 702.1 175.8 707.3 176.3 713 173.3 717.8 176.6 721.4 179.1 723.9 185.3 725.9 189.2 729.5 195.9 731.4 205 729.5 212.5 729.6 212 729.8 211.5 729.9 211 732.9 199.4 734.4 186.2 726 176.4Z" fill="#E59275"/></g><g><path d="M717.9 140.6C711.6 129.1 699 120.7 686 119 672.5 117.3 658.5 115 647.9 125.8 639.7 134.1 638.8 145.6 624.5 145.2 610.4 144.8 599.3 136.8 583.6 137.6 557 139 551.3 156.9 540.2 176.6 531.9 191.5 525 193.7 509 196.8 484 201.6 463.1 209.5 459.7 237.1 453.2 289.8 501.5 290.2 538.2 273.1 546.2 269.4 553.5 262.5 561.4 259.2 570.5 255.4 582 256.2 591.8 253.5 620.5 245.7 624.8 220.5 639.1 198.3 648.9 183.2 659 169.6 677.9 165.8 689 163.6 718.7 179.3 721.5 159.6 722.6 152.8 721 146.3 717.9 140.6Z" fill="#5B6771"/></g><g><path d="M638.7 184.6C628.9 179.5 620.3 195 625.2 202.9 625.4 203.3 626.3 204 627.5 204.8 630.8 207.1 636.5 210.5 636.2 211.4 638.7 204.7 648.6 189.6 638.7 184.6Z" fill="#EFA17B"/></g><g><path d="M631.8 192.2C629.8 194.5 627.3 198.7 632.2 199.5 633.3 197.3 634.2 195 635.2 192.7L631.8 192.2Z" fill="#D17F68"/></g><path d="M617.5 213.8C617.4 213.7 617.3 213.6 617.2 213.6 614.4 211.8 608.7 217 606.6 218.3 595.2 225.5 585.8 229.2 572.1 230 560 230.7 549.6 221.2 538.4 224.8 528.5 228 521.1 237.6 510.7 239.3 501.9 240.7 500.1 236 493.5 231.9 474.3 220.2 458.5 243.3 476 256.5 489.9 266.9 509.6 260.9 524.3 255.7 540.4 250 554.5 248 571 248.1 582.5 248.1 593.3 245 602.5 238.1 606.9 234.5 625.8 220 617.5 213.8Z" fill="#5B6771"/><g><path d="M555.2 472.1C555.1 472.1 555.2 472.2 555.2 472.1L555.2 472.1Z" fill="#F9CCC9"/></g><g><g><path d="M816.9 525.3C829.8 518.9 840.4 509.9 838.6 493.9 837.3 482.5 834.4 464.5 823.3 458.6 793.3 442.6 764.5 463 738.5 433.6 719.5 412.1 711.7 382.6 701.3 356.5 694.8 340.3 692.2 319.3 675.1 310.4 657.6 301.3 628.2 308.1 617.4 325.1 609 338.3 613.3 357.2 612.2 371.9 610.6 393.6 606.1 413.1 613.2 434.2 620.5 455.8 633.9 474.6 644 494.9 670.8 548.9 711.7 563.9 769 545.4 775.1 543.4 780.9 541.1 786.7 538.2 794.8 534 806.6 530.4 816.9 525.3Z" fill="#D97A9A"/></g></g><g><path d="M686.3 315.5C686.2 310.2 686.2 306.1 686.3 306.2 679.5 304.2 673.2 300.5 666.9 297.2 651.2 288.9 634.1 305.1 615.2 299 601.6 294.5 592 283.7 584.8 271.9 582.4 268 579.7 256.6 576 254.4 571.6 251.9 558.9 257.1 553.5 257.9 546.3 258.8 539.1 260.9 532.1 262.6 521.2 265.3 509.7 267.8 499.2 271.8 491.7 274.7 482.1 278.9 479.2 286.9 476.2 295.2 480.8 307.5 482 316 486.7 349.5 484.8 382.9 489.3 416.3 492 436.6 490.7 465 502.3 483 522 513.5 560 513.4 593 510.6 605.4 509.5 617.8 510.5 630.2 510.4 640.3 510.4 652 511.7 661.6 508 675.4 502.8 672.9 491.5 673.2 480.2 673.6 462.2 679.3 443.6 681.7 425.7 685.5 396.6 687.3 367.2 687 337.9 686.7 336.2 686.4 324.2 686.3 315.5Z" fill="#E6A9BD"/></g><g><path d="M694.1 442.9 694.1 442.9 694.1 442.9Z" fill="#6589A8"/></g><g><path d="M548.5 462C546.9 461.1 544.8 461.6 543.8 463.2 542.9 464.8 543.4 467 545 467.9 545.2 468 545.3 468.1 545.4 468.2 545.4 468.2 545.4 468.2 545.4 468.2 545.4 468.2 545.4 468.2 545.5 468.3 545.6 468.4 545.7 468.5 545.8 468.7 545.8 468.7 545.8 468.7 545.8 468.7 545.8 468.7 545.8 468.7 545.9 468.8 546.4 469.5 546.8 470.3 547.1 471 547.9 472.7 550.2 473.1 551.8 472.2 553.5 471.2 553.8 469.2 553 467.5 552.1 465.3 550.7 463.2 548.5 462Z" fill="#8CC9A5"/></g><g><g><g><path d="M666.1 289.4C663.1 288.4 658.4 292.7 655.7 293.9 653.2 295 650.6 296 648 296.7 637.6 299.6 627.8 297.5 618.1 293.8 601.9 287.5 589.4 274.6 585.9 255.1 585.5 253 578.1 255.7 577.4 256.6 575 259.7 572.5 295.4 613.2 310.8 647.8 323.8 667.7 302 669.4 295.2 668.6 292.1 666.9 290.4 666.1 289.4Z" fill="#D97A9A"/></g></g></g><g><path d="M658.1 248.8C657.4 249.3 659.1 253.1 659.3 253 659.4 252.9 659.5 252.8 659.6 252.7 660.2 251.9 659.2 248 658.1 248.8Z" fill="#C56F68"/><path d="M686.8 262.4C686.7 262.3 686.6 262.3 686.5 262.2 685.6 262 683 264.1 684 264.6 684.6 265 686.9 262.5 686.8 262.4Z" fill="#C56F68"/><path d="M680.2 247.9C679.6 247.8 678.9 247.9 678.4 248.3 676 244.7 673.2 243.8 669.1 245.5 667 246.4 664.4 248.7 663.7 250.9 665.3 251 666.6 250.2 668.2 250 670.2 249.7 672.6 249.9 674.6 250.3 677 250.7 679.6 252.1 680.9 254.3 681.9 256.1 682.1 258.8 682.4 260.8 682.3 260.3 683.6 258.8 683.8 258.2 684.1 257.2 684.2 256.1 684.2 255.1 684.2 253.2 684 250.8 682.7 249.3 682.3 248.7 681.2 248.1 680.2 247.9Z" fill="#ED6A5F"/><path d="M677.5 250.5C675.6 249.6 673.4 249.1 671.5 249 669.6 248.9 664.2 249.2 663.6 251.5 663.7 251.3 669.8 253.8 670.2 253.9 673.6 254.7 676.6 256.3 679.5 258.3 680.6 259.1 681.6 260.3 682.8 260.9 684.2 256.8 680.9 252.2 677.5 250.5Z" fill="#DE4F47"/></g><g><path d="M513.6 270.2C496.3 265.3 475.6 270.2 461.9 282.7 434.2 308.2 424.2 345.9 421.6 382.3 419.1 418 421.6 447.1 435.7 480.4 452.9 521.1 498.9 556.8 544.3 556.8 578.5 556.8 617 551.6 645.3 531 662.8 518.3 672.6 499.8 683.9 481.9 693 467.5 700 452.1 707.9 436.8 712.7 427.6 716.9 418.7 719.9 408.9 726.6 387.5 733.9 349.7 707.7 338.1 695.4 332.7 661.1 322.5 653 335.5 645.2 348.1 635.5 359.6 626 371 610.9 389.3 595.4 409.6 569.7 407.7 555.4 406.7 546.7 404 543.7 388.5 540.8 374 544.2 358.7 546.6 344.4 549.3 328.3 546.6 308.4 540.2 293.5 535 281.1 525.1 273.5 513.6 270.2Z" fill="#E6A9BD"/></g><g><g><path d="M838.5 454.1C836.5 454.1 813.8 456.8 813.9 458.2 814.3 463.6 818 526.3 814.1 526.4 854.8 525.6 849.2 482.7 838.9 455 838.8 454.7 838.6 454.4 838.5 454.1Z" fill="#D97A9A"/></g></g><path d="M656.7 315.5C654.2 329.1 646.4 342.6 639 355 629.6 370.6 618.1 386.7 601.6 398.6 588 408.4 567.6 412.2 557.5 397.2 552.2 389.3 551.3 379.6 550.8 370.9 550.3 361.5 550.9 352.1 551.7 342.8 552.2 336.8 552.9 330.8 552.9 324.9 552.9 322.4 547.9 322.4 547.8 324.9 547.7 341.8 544.5 358.5 546 375.5 547.2 389 551.5 407.3 571.5 411 588.8 414.2 604.2 403.1 614.3 393.8 628.9 380.4 639.4 364.4 648.2 348.4 653.7 338.3 659.4 327.5 661.5 316.6 662.1 314.1 657.2 313 656.7 315.5Z" fill="#F4F2F2"/><path d="M677.1 208.9C675.6 213.4 673.3 216 670.6 216.3 668.1 216.6 665.3 214.8 663.6 212 661.9 209 661.9 205.7 663.8 203.1L660.9 201C658.2 204.8 658 209.5 660.5 213.8 662.9 217.9 667.1 220.3 671 219.9 673.5 219.6 678 218 680.6 210L677.1 208.9Z" fill="#674E4F"/><path d="M713.8 225.8C712.7 229.4 710.8 231.4 708.7 231.7 706.7 231.9 704.5 230.6 703.2 228.3 701.8 225.9 701.9 223.3 703.4 221.3L701.1 219.6C699 222.6 698.8 226.3 700.8 229.7 702.7 232.9 706 234.8 709.1 234.5 711 234.3 714.6 233 716.6 226.7L713.8 225.8Z" fill="#674E4F"/><g><path d="M696.9 280.8C691.3 292.3 676.9 314.7 670 325.5 683.5 335.1 705.2 333.9 718.6 343.6 723.1 335 726.8 326.2 729.5 317 734.3 300.3 739.7 280.8 733.6 263.7 731.3 257.3 726.4 248.5 720.1 245 719.5 244.7 718.8 244.3 718 243.9 713.9 242 707.8 240.2 704.9 243.3 702.4 246.1 704.1 266.1 696.9 280.8Z" fill="#DE7F59"/><path d="M710.1 242.4C708.6 242.2 708.1 241.9 706.7 241.4L706.3 241.6C710.6 251.1 711 262.8 707.4 277.6L711.4 278.6C714.9 264.2 713.9 252.3 710.1 242.4Z" fill="#CA5C42"/><path d="M720.8 247.1C718.4 244.9 718.4 244.9 716 243.5 720.5 253.1 720.6 266.5 716.4 282.2L720.7 283.4C724.7 268.3 724.4 257.1 720.8 247.1Z" fill="#CA5C42"/><path d="M733 273.3C733.1 271 732.9 268 732.4 265.1 731.7 261.8 730.1 257.3 727.4 254.7 728.4 256.2 729.5 265.4 729 274.6 728.9 276 725.5 290.8 724.8 290.6L728.8 291.9C729.9 292.3 733 275 733 273.3Z" fill="#CA5C42"/><path d="M699.7 283.3C698.1 274.2 685.9 260.7 675.6 266 678 269.8 680.7 273.3 682.6 277.5 684.2 280.9 685.6 284.5 686.7 288.1 687.8 291.6 688.6 295.1 689.1 298.6 691.7 298.6 694.2 298.6 696.8 298.6 699.1 293.5 700.6 288.4 699.7 283.3Z" fill="#DE7F59"/></g><g><g><path d="M663.8 315.3C661.8 324.3 659.6 332.3 655.1 341.1 657.3 341.6 663.5 344.3 671.2 348.3 691.4 358.6 722.1 376.9 720.7 382.8 724.7 366.7 732.5 350.2 719.6 338.9 715.3 335.2 664.5 312.2 663.8 315.3Z" fill="#D97A9A"/></g></g><path d="M670.9 224.9C670.7 224 670.5 223.1 670.3 222.3 666.4 224.9 659.7 230.9 660.5 236.1 661.1 240.4 665.3 242 668.7 239.4 672.7 236.1 671.8 229.3 670.9 224.9Z" fill="#FBFBFC"/><path d="M819.2 522.4C806.7 503.6 815 480.5 813.8 459.6 813.6 455.9 807.7 455.8 808 459.6 809.3 481.7 801 505.4 814.2 525.4 816.3 528.5 821.3 525.6 819.2 522.4Z" fill="#F4F2F2"/></g></svg>