<svg viewBox="0 0 595.3 841.9" xmlns="http://www.w3.org/2000/svg" xmlns:xlink="http://www.w3.org/1999/xlink" id="Слой_1" overflow="hidden"><path d="M337.2 710.9C326 697 309.1 687.3 273.2 691.2 282.1 686.6 290.9 681.9 295.6 671.2 282.2 676.2 232.6 674.2 207.2 690.6 218.4 683.2 221.1 674.3 223.5 665.5 212.7 676.4 124.6 688.5 84.2 750 151.8 700.2 225.3 704.7 253.3 705.5 232.7 712.5 211.1 719.9 189.4 723.9 148.9 731.3 109.7 730.2 84 750.2 127.7 724 165 759 215.5 753.1 212.2 745 207.5 742 203 738.3 218.5 740.6 232.8 744 246.4 744.4 258.9 744.8 269 739.4 283.9 743.8 280 736.7 275.6 730.2 268.2 726.8 291.6 724.4 310.4 709.3 337.2 710.9L337.2 710.9Z" fill="#E6A9BD"/><path d="M396.3 278.3C382.5 274.3 368.4 275.8 353.3 295 354.9 287.9 356.3 280.7 352.1 271.4 348.6 280.9 323.3 302.6 320.8 325.2 321.7 315.1 317.8 308 313.6 301 314.9 313.2 279.5 362 297 421.4 299.8 357.2 338.2 326.1 352.3 313.7 346.5 327.8 340.5 342.8 332.4 355.5 317.2 379.2 297.5 396.6 297.1 421.7 302.5 384.1 341.8 390 362.7 362.6 356.2 358.8 352.1 359 347.7 358.6 356.6 352.9 365.6 348.5 372.5 342.5 378.8 336.9 380.5 328.7 390.3 324.7 384.1 321.9 378 319.6 372.4 320.8 382.2 308.4 382.3 289.7 396.3 278.3L396.3 278.3Z" fill="#E6A9BD"/><path d="M124.9 544.2C134.3 551.4 140.6 562 137.1 583.4 140.5 578.2 143.9 573.1 151.5 570.7 147.7 578.6 147.9 608.4 135.9 623.1 141.3 616.7 147.5 615.3 153.7 614.2 145.9 620.3 135.4 672.8 91.7 694.8 127.9 656 126.5 611.7 126.6 594.8 121.3 606.9 115.6 619.6 112.3 632.5 106.2 656.5 106 680.2 91.5 694.9 110.7 669.6 87.3 645.9 92.6 615.8 98.1 618.1 100.1 621 102.6 623.9 101.4 614.5 99.4 605.8 99.4 597.6 99.4 590.1 103.4 584.2 100.7 575.1 105.5 577.7 110 580.6 112.1 585.1 114.5 571.1 125.3 560.3 124.9 544.2L124.9 544.2Z" fill="#E6A9BD"/><path d="M130.2 675.8C129.8 675.5 134.8 669 141.7 657.7 148.8 646.1 157.1 630.7 164 611.4 170.6 593 173.9 576.6 175.7 563.3 177.7 549.2 177.9 540.2 178.4 540.2 178.8 540.2 179.6 549.2 178.2 563.6 177 577 173.9 593.9 167.3 612.6 160.3 632.1 151.5 647.8 143.8 659 136.2 670.1 130.5 676 130.2 675.8L130.2 675.8Z" fill="#E6A9BD" fill-rule="evenodd" clip-rule="evenodd"/><path d="M122.9 693.4C122.6 692.9 126.9 690.4 133.2 685.7 139.7 680.9 147.7 674.2 155.6 665 166.5 652.4 172.5 640.8 176 633.6 177.6 630.3 178.6 628.4 178.9 628.6 179.2 628.7 178.8 630.8 177.7 634.3 175.2 641.9 169.4 654.5 158.3 667.4 150.1 676.9 141.6 683.5 134.6 687.8 127.8 692.1 123.1 693.8 122.9 693.4L122.9 693.4Z" fill="#E6A9BD" fill-rule="evenodd" clip-rule="evenodd"/><path d="M99.1 715.4C98.8 714.8 129.1 702 163.7 670.6 179 656.7 195.3 638.7 207.3 616.8 211.1 610 214.3 603 216.9 596 230.4 559.5 225.8 527.2 216.6 506.1L216.6 506.1C208.6 487.6 199.4 478.9 199.7 478.6 199.5 478.7 209.7 486.2 218.6 505.2L218.6 505.2C228.6 526.6 233.9 559.9 220.2 597.3 217.5 604.5 214.3 611.6 210.4 618.6 198.1 640.9 181.4 659.1 165.8 673 129.9 704.7 99 715.3 99.1 715.4L99.1 715.4Z" fill="#E6A9BD" fill-rule="evenodd" clip-rule="evenodd"/><path d="M247.8 656.2C247.8 655.9 257.2 654.6 272.5 655.9 288.1 657.2 308.4 661.2 330.3 670.8 358.3 683.1 377.2 699.5 388 711 394 717.4 396.9 721.6 396.7 721.8 396.4 722.1 393 718.3 386.6 712.4 375.1 701.6 356.4 686.2 328.8 674.1 307.3 664.7 287.6 660.4 272.2 658.5 257.2 656.5 247.8 656.7 247.8 656.2L247.8 656.2Z" fill="#E6A9BD" fill-rule="evenodd" clip-rule="evenodd"/><path d="M187.6 675.1C188.1 675.7 213.1 649.5 265 635.9 288.9 629.6 317.1 626.8 347.2 630.9 355.7 632.1 364 633.7 372 635.9 415.2 647.4 445.9 670.6 464.3 689.8 480.5 706.6 486.8 719 486.8 719 486.5 719.2 479.1 707.4 462.8 691.3 444.1 672.8 413.7 650.4 371.2 639.3 363.3 637.2 355.2 635.6 346.8 634.5 317.2 630.5 289.4 633.1 265.8 639 215.8 651.4 188 675.7 187.6 675.1L187.6 675.1Z" fill="#E6A9BD" fill-rule="evenodd" clip-rule="evenodd"/><path d="M283.4 607.6C283.2 607.5 289.4 597.5 303.6 585.2 318 572.7 339.7 558.9 368.1 551.7 383.5 547.8 398.3 546.5 411.7 547.1 447.7 548.7 468.9 561.8 468.9 561.7 468.6 562.4 446.1 551.2 411.6 550.3 398.4 549.9 384 551.3 369 555.1 341.2 562.1 319.9 575.3 305.3 587.1 290.9 598.7 283.8 607.9 283.4 607.6L283.4 607.6Z" fill="#E6A9BD" fill-rule="evenodd" clip-rule="evenodd"/><path d="M328.9 553.8C328.6 553.6 330.7 548.3 336.2 541 341.8 533.6 350.6 524.7 362.9 517.5 371.5 512.5 380 509.4 387.6 507.7 401.8 504.5 411.3 505.9 411.3 506.3 411.3 506.9 401.8 506.9 388.4 510.6 381.1 512.6 373 515.7 364.7 520.5 352.8 527.4 344.1 535.6 338.1 542.5 332.3 549.3 329.3 554.1 328.9 553.8L328.9 553.8Z" fill="#E6A9BD" fill-rule="evenodd" clip-rule="evenodd"/><path d="M235.7 609.9C235.6 609.9 233.7 597.9 235.7 577.6 237.6 557.2 243.5 529.2 259.2 499.8L259.2 499.8C265 488.9 272.1 478.1 280.5 467.6 298 445.9 318 429.7 337.5 418.3 378.1 394.4 409.8 393.5 409.8 393.1 409.9 393.7 378 397.4 339.1 421 320.1 432.5 300.5 448.5 283.3 469.9 275 480.2 268.1 490.8 262.2 501.5L262.2 501.5C246.6 530.2 240.4 557.8 237.8 577.9 235.3 597.7 236.1 609.9 235.7 609.9L235.7 609.9Z" fill="#E6A9BD" fill-rule="evenodd" clip-rule="evenodd"/><path d="M356 465.2C348.1 458.2 338.3 456.6 322.8 472.5 325.9 465.8 328.9 458.9 328.9 448.8 323.8 457.5 300.9 473.7 292.7 495.6 296.3 485.8 295.7 477.8 294.9 470 292.2 482.4 243.8 514.5 249.4 608.8 265.5 543.5 297.6 497.3 316.7 490.9 308.8 503.7 300.5 517.3 291.4 528.2 274.5 548.5 256.9 583.9 249.3 608.8 263.8 572.6 287.5 564.5 309.3 541.9 306.2 536.7 303.4 536 300.6 534.7 308.1 531 315.3 528.5 321.6 524 327.4 519.8 330.9 512 338.5 510.2 335.3 506 331.9 502.4 327.9 502.4 338 492.1 343.4 473.5 356 465.2L356 465.2Z" fill="#E6A9BD"/><path d="M220.1 354C227.4 355.3 241.2 373.1 245.4 391.1 245.8 385.6 246.2 380.1 249.7 374.8 249.9 382.6 258.6 405.5 256.3 422.1 257.4 414.7 260.5 410.9 263.6 407.2 261 415.4 270.4 460.5 252.5 497.1 261.3 451 247.7 417.5 242.9 404.5 243.5 416.2 244 428.5 245.9 439.9 249.5 461.2 256.2 479.4 252.4 497.2 255.8 469 235.9 461.4 230.1 435.8 233.8 435 235.8 436.4 238 437.5 234.6 430.8 231 425 228.6 418.7 226.4 412.9 227 406.6 222.8 400.8 226.2 400.6 229.5 400.8 232.1 403.4 222.9 389.6 229.2 367 220.1 354L220.1 354Z" fill="#E6A9BD"/><path d="M292.5 334.1C292.2 334 294.4 323.8 301.4 308.5 308.5 292.9 320.1 273.4 338.2 254.5 340.2 252.4 342.3 250.3 344.3 248.4L344.3 248.4C361.6 231.8 379.3 221 393.1 214.2 406.7 207.5 415.6 205.1 415.7 205.4 415.9 205.8 407.3 209.1 394.2 216.3 380.8 223.6 363.8 234.5 346.8 250.9L346.8 250.9C344.8 252.8 342.8 254.9 340.8 256.9 323 275.5 311.4 294.4 303.7 309.5 296.3 324.4 293 334.2 292.5 334.1L292.5 334.1Z" fill="#E6A9BD" fill-rule="evenodd" clip-rule="evenodd"/><path d="M321.9 249.4C321.6 249.3 324.6 239.5 332.6 225 340.8 210.3 353.7 191.8 373 174.4L373 174.4C374.1 173.4 375.1 172.5 376.2 171.5 396.7 153.9 417.6 143.1 434.2 136.8 450.5 130.6 461.1 129 461.2 129.3 461.3 129.8 450.9 132.4 435.1 139.2 419 146.1 398.6 157 378.5 174.3 377.4 175.2 376.4 176.2 375.3 177.1L375.3 177.1C356.3 194.2 343.4 212 334.7 226.3 326.3 240.3 322.3 249.6 321.9 249.4L321.9 249.4Z" fill="#E6A9BD" fill-rule="evenodd" clip-rule="evenodd"/><path d="M270.2 416.1C269.8 416.2 268.5 409.6 264.5 399.1 260.5 388.5 253.7 374.4 242 360.4L242 360.4C237.2 354.7 231.7 349.2 225.5 344.1 214.5 335 202.8 328.5 191.8 324 166.2 313.6 146.4 314.5 146.4 313.8 146.4 313.8 165.9 310.8 193 321.1 204.4 325.5 216.5 332 227.8 341.4 234.2 346.7 239.8 352.4 244.6 358.3L244.6 358.3C256.5 372.8 263 387.5 266.5 398.4 270.1 409.3 270.5 416 270.2 416.1L270.2 416.1Z" fill="#E6A9BD" fill-rule="evenodd" clip-rule="evenodd"/><path d="M265.3 463.9C264.8 463.7 268.2 455.3 272.1 441.3 276.1 426.9 280.1 408 281.1 385.5 282 365.7 280.3 348.5 278 334.5 275.1 317 271.7 306.2 272.2 306 272.6 305.9 277.1 316.4 280.7 334 283.6 348.1 285.6 365.6 284.7 385.7 283.7 408.5 279.2 427.8 274.6 442.1 270 456.1 265.6 464.1 265.3 463.9L265.3 463.9Z" fill="#E6A9BD" fill-rule="evenodd" clip-rule="evenodd"/><path d="M270.2 395.2C269.2 395.2 268.4 379.5 261.3 362 259.3 357.2 257.2 352.9 255 349 249.3 338.8 243.9 332.5 244.4 332 244.8 331.6 251.3 337 257.8 347.4 260.2 351.3 262.6 355.7 264.6 360.7 272.2 379.2 271.2 395.2 270.2 395.2L270.2 395.2Z" fill="#E6A9BD" fill-rule="evenodd" clip-rule="evenodd"/><path d="M255.1 191.1C246.2 199.9 229.2 201.1 234.1 219.8 222.9 198.9 208.6 207.6 193.7 204.4 200.9 216.2 195.6 231.7 221.9 235.2 178 240.6 188.5 263 178.5 281.9 199.9 276.5 223.2 290.8 236.2 248.2 230.7 296 255.7 289.7 272.5 303.8 271.7 284.1 286.7 266.3 262.3 247.3 286.6 256.5 293.9 242 310.4 236.9 293.5 230.1 286.7 212.5 256 225.6 271.9 210.9 257.7 203.1 255.1 191.1L255.1 191.1ZM251.2 204.2C250.6 207.8 249.5 213.2 247.6 219.9 246.3 224.3 244.9 228.2 243.7 231.3 244 231.4 244.3 231.6 244.5 231.7 244.7 231.6 244.9 231.5 245.1 231.5 246.1 230.3 247.1 228.8 248.1 227.2 250.8 222.5 251.8 218 252.1 215.1 251.8 218 250.9 222.5 248.4 227.3 247.7 228.7 246.8 230 246 231.1 246.4 231 246.8 230.8 247.2 230.7 248 229.9 248.8 229.1 249.6 228.1 251.5 226 252.9 223.9 253.7 222.7 252.9 224.1 251.7 226 249.9 228.4 249.3 229.1 248.7 229.8 248.1 230.4 250.6 229.6 253.3 228.8 256.3 228.3 260.3 227.6 263.5 227.5 265.7 227.4 263.6 227.5 260.3 227.8 256.4 228.7 252.9 229.4 249.8 230.4 247.1 231.5 246.8 231.8 246.6 232 246.3 232.3 249.6 231.6 253.4 230.9 257.7 230.6 264.2 230.1 269.3 230.6 272.8 231 269.5 230.6 264.1 230.4 257.8 231 253.3 231.5 249.4 232.2 246.1 233.1 246.2 233.2 246.2 233.2 246.3 233.3 249.7 232.9 253.7 232.7 258.2 232.9 265 233.1 270.6 234 274.6 234.8 270.6 234 264.9 233.3 258.2 233.3 253.9 233.3 250 233.6 246.7 234 246.9 234.4 247 234.7 247 235.1 252.1 235.6 258.1 236.1 265.2 236.4 275.6 236.9 284.2 236.7 289.7 236.5 284.1 236.7 275.7 237.1 265.2 236.8 258.2 236.6 252.1 236.2 247 235.8 246.9 236.2 246.8 236.5 246.7 236.9 249 237.6 251.6 238.3 254.5 238.9 262.6 240.5 269.5 240.3 273.9 239.9 269.5 240.3 262.7 240.7 254.5 239.3 251.5 238.8 248.8 238.2 246.4 237.5 246.4 237.6 246.3 237.6 246.3 237.7 248.4 238.7 250.8 239.7 253.6 240.6 257.5 242 260.9 242.9 263.1 243.3 260.9 242.9 257.6 242.2 253.5 241 250.8 240.1 248.3 239.2 246.1 238.3 248.9 240.3 252 243 255 246.3 257.9 249.7 259.7 252.6 260.9 254.6 259.7 252.7 257.6 249.7 254.6 246.6 251.4 243.2 248.2 240.7 245.3 238.7 245.1 238.8 245 238.9 244.8 239.1 247.5 241.8 250.4 245.1 253.1 249.2 256.5 254.3 258.6 258.9 259.9 262.4 258.5 259 256.2 254.4 252.7 249.5 249.8 245.4 246.8 242.2 244 239.6 243.9 239.7 243.8 239.7 243.7 239.8 246 242.9 248.4 246.7 250.7 251.2 254.6 258.9 256.5 265.7 257.5 270.1 256.5 265.7 254.3 258.9 250.3 251.4 247.8 246.9 245.3 243.1 242.9 240.1 242.5 240.2 242.1 240.3 241.7 240.4 243.8 245.8 246.6 252.6 250.2 260.3 255 270.5 259.7 278.7 262.8 283.7 259.6 278.5 254.9 270.7 249.8 260.5 246 252.9 243 246 240.8 240.5 240.5 240.5 240.2 240.6 240 240.6 239.9 240.6 239.9 240.6 239.8 240.6 240.1 243.8 240.7 247.6 241.8 251.7 244.2 260.4 248 267 250.7 270.9 248 267 244.1 260.6 241.4 251.9 240.1 247.8 239.4 244.1 239 240.9 238.9 244.1 238.9 247.8 239.3 252 239.7 256.6 240.5 260.5 241.1 262.8 240.4 260.3 239.5 256.7 238.8 252 238.3 248 238.1 244.3 238.1 241.2 236.7 244.7 234.6 248.7 231.6 252.7 228.9 256.2 226.4 258.6 224.7 260.2 226.4 258.6 228.8 255.9 231.2 252.4 234.1 248.2 236.1 244.1 237.4 240.5 237.3 240.5 237.1 240.5 237 240.4 234.9 243.7 232.1 247.5 228.4 251.4 224.1 255.8 220 258.8 216.9 260.8 219.9 258.7 223.9 255.5 228 251.1 231.5 247.3 234.1 243.5 236.1 240.3 236 240.3 235.9 240.2 235.8 240.2 233.2 243.1 230 246.3 226 249.5 219.3 254.9 213 258.1 208.9 260.1 213 258.2 219.2 254.7 225.7 249.1 229.5 245.9 232.5 242.7 235 239.8 234.5 239.6 234.1 239.3 233.7 239 229 242.1 223.3 246 217 250.9 208 257.7 201 264 196.7 268.1 201.1 263.9 207.8 257.7 216.7 250.5 222.8 245.6 228.4 241.6 233.1 238.4 232.7 238 232.5 237.6 232.3 237.1 229.7 238 226.7 239.2 223.6 240.8 215.6 245 209.9 250 206.7 253.5 210 250 215.4 244.9 223.4 240.4 226.5 238.7 229.4 237.4 232.1 236.4 232.1 236.3 232.1 236.2 232.1 236.2 232.1 236.2 232.1 236.2 232.1 236.1 229.4 236.6 226.3 237.4 223 238.4 218.6 239.8 214.9 241.3 212.8 242.4 215.1 241.3 218.4 239.6 222.9 237.9 226.1 236.7 229.2 235.9 231.9 235.3 229.9 234.9 227.8 234.3 225.6 233.5 222.5 232.3 220.2 231.1 218.7 230.3 220.2 231.1 222.7 232.3 225.7 233.2 228 234 230.3 234.5 232.3 234.9 232.4 234.6 232.5 234.4 232.6 234.1 230.5 233.4 228.3 232.5 226 231.3 221.4 229 218.1 226.5 216 224.8 218.1 226.5 221.6 228.9 226.1 231 228.5 232.1 230.8 233 232.9 233.7 233 233.5 233.2 233.4 233.3 233.2 231.3 232.2 229.2 231 227 229.5 222.6 226.5 219.3 223.6 217.1 221.3 219.4 223.5 222.8 226.4 227.2 229.2 229.5 230.6 231.7 231.8 233.7 232.7 234.1 232.4 234.5 232.1 235 231.8 232 229.5 228.5 226.8 224.3 223.9 217.5 219.2 211.6 215.7 207.8 213.6 211.7 215.7 217.5 219 224.5 223.6 228.8 226.5 232.5 229.1 235.6 231.5 236 231.3 236.5 231.2 236.9 231 235.8 229.6 234.5 228.1 233 226.5 228.4 221.9 223.6 219.1 220.5 217.7 223.6 219.2 228.4 221.7 233.2 226.3 234.9 227.9 236.3 229.4 237.4 230.9 237.5 230.9 237.6 230.9 237.7 230.8 236.9 229.2 235.8 227.5 234.6 225.7 232.8 223 231 221 229.8 219.8 231 221 232.9 222.9 234.9 225.5 236.3 227.3 237.4 229.1 238.3 230.7 238.6 230.7 238.9 230.6 239.2 230.6 239.2 230.6 239.3 230.6 239.3 230.6 238.7 228.6 238.3 226.4 238.2 223.9 238.2 221.2 238.5 219.1 238.7 217.7 238.5 219.1 238.3 221.3 238.5 223.9 238.7 226.5 239.2 228.7 239.8 230.6 240 230.6 240.3 230.6 240.5 230.6 240.3 228.5 240.3 226.1 240.6 223.4 241.2 219.2 242.4 215.9 243.3 213.9 242.4 215.9 241.3 219.3 240.9 223.5 240.6 226.2 240.7 228.6 241 230.7 241.2 230.7 241.4 230.7 241.5 230.8 241.7 228.7 242.1 226.3 242.8 223.7 244 219.4 245.8 216.1 247.2 213.8 245.8 216.1 244.2 219.6 243.2 223.8 242.5 226.4 242.2 228.8 242.1 230.9 242.5 231 243 231.1 243.4 231.3 244.7 228.2 246.1 224.5 247.5 220 249.4 213.3 250.6 207.7 251.2 204.2L251.2 204.2ZM245.9 231.9C245.7 232 245.4 232.1 245.2 232.2 245.2 232.2 245.2 232.2 245.2 232.2 245.3 232.2 245.3 232.3 245.4 232.3 245.6 232.2 245.7 232 245.9 231.9Z" fill="#91E6C9" fill-rule="evenodd" clip-rule="evenodd"/><path d="M183.3 416.6C174.4 425.4 157.4 426.7 162.4 445.3 151.1 424.4 136.9 433.1 122 429.9 129.2 441.7 123.9 457.2 150.2 460.7 106.3 466.1 116.9 488.6 106.9 507.5 128.3 502 151.6 516.4 164.5 473.7 159.1 521.5 184.1 515.2 200.9 529.3 200.1 509.6 215 491.8 190.6 472.8 214.9 482 222.2 467.5 238.7 462.3 221.8 455.5 214.9 437.9 184.3 451 200.2 436.4 186 428.6 183.3 416.6L183.3 416.6ZM179.5 429.7C178.9 433.3 177.8 438.7 175.9 445.4 174.6 449.8 173.2 453.7 172 456.8 172.3 456.9 172.6 457.1 172.8 457.2 173 457.1 173.2 457 173.4 457 174.4 455.8 175.4 454.3 176.4 452.7 179.1 447.9 180.1 443.5 180.4 440.6 180.1 443.5 179.3 448 176.7 452.9 176 454.3 175.2 455.6 174.3 456.7 174.7 456.6 175.1 456.4 175.5 456.3 176.3 455.5 177.1 454.7 177.9 453.7 179.8 451.6 181.2 449.5 182 448.2 181.2 449.6 180 451.5 178.2 453.9 177.6 454.6 177 455.3 176.4 455.9 178.9 455.1 181.6 454.3 184.6 453.8 188.6 453.1 191.8 453 194 452.9 191.9 453 188.6 453.3 184.7 454.2 181.2 455 178.1 456 175.4 457 175.1 457.3 174.9 457.5 174.6 457.8 177.9 457.1 181.7 456.4 186 456.1 192.5 455.6 197.6 456.1 201.1 456.4 197.8 456 192.4 455.8 186.1 456.5 181.6 457 177.7 457.8 174.4 458.6 174.5 458.7 174.5 458.7 174.6 458.8 178 458.4 182 458.2 186.5 458.3 193.3 458.5 198.8 459.4 202.9 460.2 198.9 459.5 193.2 458.7 186.5 458.7 182.2 458.7 178.3 459 175 459.4 175.2 459.8 175.3 460.1 175.3 460.5 180.4 461 186.4 461.5 193.5 461.8 203.9 462.2 212.5 462.1 218 461.8 212.4 462.1 204 462.4 193.5 462.2 186.5 462 180.4 461.6 175.3 461.2 175.2 461.6 175.1 461.9 175 462.3 177.3 463 179.9 463.7 182.8 464.3 190.9 465.9 197.8 465.7 202.2 465.3 197.8 465.7 191 466.1 182.8 464.7 179.8 464.2 177.1 463.6 174.7 462.9 174.7 463 174.6 463 174.6 463.1 176.7 464.1 179.1 465.1 181.9 466 185.8 467.4 189.2 468.2 191.4 468.7 189.2 468.3 185.9 467.7 181.8 466.4 179.1 465.6 176.6 464.6 174.4 463.7 177.2 465.7 180.3 468.4 183.3 471.7 186.2 475.1 188 478 189.3 480 188.1 478.1 186 475.1 183 472 179.8 468.6 176.6 466.1 173.7 464.1 173.5 464.2 173.4 464.3 173.2 464.5 175.9 467.2 178.8 470.5 181.5 474.6 184.9 479.7 187 484.3 188.3 487.7 186.9 484.3 184.6 479.7 181.1 474.8 178.2 470.7 175.2 467.5 172.4 464.9 172.3 465 172.2 465 172.1 465.1 174.4 468.2 176.8 472 179.1 476.5 183 484.2 184.9 491 185.9 495.4 184.8 491 182.7 484.2 178.6 476.7 176.1 472.2 173.6 468.4 171.2 465.4 170.8 465.5 170.4 465.7 170 465.7 172.1 471.1 174.9 477.9 178.6 485.6 183.4 495.8 188.1 504 191.2 509 188 503.8 183.3 496 178.1 485.8 174.3 478.2 171.3 471.3 169.1 465.9 168.8 465.9 168.5 466 168.3 466 168.2 466 168.2 466 168.1 466 168.4 469.2 169 472.9 170.1 477.1 172.5 485.8 176.3 492.4 179 496.3 176.3 492.4 172.3 486 169.7 477.3 168.4 473.2 167.7 469.5 167.3 466.3 167.2 469.5 167.2 473.2 167.6 477.4 168 482 168.8 485.9 169.4 488.2 168.7 485.7 167.8 482.1 167.1 477.4 166.6 473.4 166.4 469.7 166.4 466.6 165 470.1 162.9 474.1 159.9 478.1 157.2 481.6 154.7 484 153 485.7 154.7 484.1 157.1 481.4 159.5 477.9 162.4 473.7 164.4 469.6 165.7 466 165.6 466 165.4 466 165.3 465.9 163.2 469.2 160.4 473.1 156.7 476.9 152.4 481.3 148.3 484.3 145.3 486.3 148.3 484.2 152.3 481 156.4 476.6 159.9 472.8 162.5 469 164.5 465.7 164.4 465.7 164.3 465.6 164.2 465.6 161.6 468.5 158.4 471.7 154.4 474.9 147.7 480.3 141.4 483.6 137.3 485.5 141.4 483.6 147.6 480.1 154.1 474.5 157.9 471.3 160.9 468.1 163.4 465.2 162.9 465 162.5 464.7 162.1 464.4 157.4 467.5 151.7 471.4 145.4 476.3 136.5 483.2 129.4 489.4 125.1 493.5 129.5 489.3 136.2 483 145.1 475.9 151.2 471 156.8 467 161.4 463.8 161 463.4 160.8 463 160.6 462.5 158 463.4 155 464.6 151.9 466.2 143.9 470.4 138.3 475.4 135 478.9 138.3 475.4 143.7 470.2 151.7 465.8 154.8 464.1 157.7 462.8 160.4 461.8 160.4 461.7 160.4 461.6 160.4 461.6 160.4 461.6 160.4 461.6 160.4 461.5 157.7 462 154.6 462.8 151.3 463.8 146.9 465.2 143.3 466.7 141.1 467.8 143.4 466.6 146.7 465 151.2 463.3 154.4 462.1 157.5 461.3 160.2 460.7 158.2 460.3 156.1 459.7 153.9 458.9 150.8 457.7 148.5 456.5 147 455.7 148.5 456.5 151 457.6 154 458.6 156.3 459.4 158.6 459.9 160.6 460.2 160.7 459.9 160.8 459.7 160.9 459.4 158.8 458.7 156.6 457.8 154.3 456.6 149.7 454.3 146.4 451.8 144.3 450.1 146.4 451.8 149.9 454.2 154.4 456.3 156.8 457.4 159.1 458.3 161.2 459 161.3 458.8 161.5 458.6 161.6 458.5 159.6 457.5 157.5 456.3 155.3 454.9 150.9 452 147.7 449 145.4 446.8 147.7 449 151.1 451.9 155.5 454.7 157.8 456.1 160 457.3 162 458.2 162.4 457.9 162.8 457.6 163.3 457.3 160.3 455 156.8 452.3 152.6 449.4 145.8 444.7 139.9 441.2 136.1 439.2 140 441.3 145.8 444.6 152.8 449.1 157.1 451.9 160.8 454.6 163.9 457 164.3 456.8 164.8 456.7 165.2 456.5 164.1 455.1 162.8 453.6 161.3 452 156.7 447.4 151.9 444.7 148.8 443.2 151.9 444.7 156.7 447.2 161.5 451.7 163.2 453.3 164.6 454.8 165.8 456.3 165.9 456.3 166 456.3 166.1 456.2 165.3 454.6 164.2 452.9 163 451.1 161.2 448.4 159.4 446.4 158.2 445.2 159.4 446.4 161.3 448.3 163.3 450.9 164.7 452.7 165.8 454.5 166.7 456.1 167 456.1 167.3 456 167.6 456 167.6 456 167.7 456 167.7 456 167.1 454 166.7 451.8 166.6 449.3 166.6 446.6 166.9 444.5 167.1 443.1 166.9 444.5 166.7 446.7 166.9 449.3 167.1 451.9 167.6 454.1 168.2 456 168.4 456 168.7 456 168.9 456 168.7 453.9 168.7 451.5 169 448.8 169.6 444.6 170.8 441.3 171.7 439.3 170.8 441.3 169.7 444.7 169.3 448.9 169 451.6 169.1 454 169.4 456.1 169.6 456.1 169.8 456.1 169.9 456.2 170.1 454.1 170.5 451.7 171.2 449.1 172.4 444.8 174.2 441.5 175.6 439.1 174.2 441.4 172.6 444.9 171.6 449.1 171 451.7 170.6 454.1 170.5 456.2 170.9 456.3 171.4 456.4 171.8 456.6 173.1 453.5 174.5 449.8 175.9 445.3 177.7 438.8 178.9 433.3 179.5 429.7L179.5 429.7ZM174.2 457.4C174 457.5 173.7 457.6 173.5 457.7L173.5 457.7C173.6 457.7 173.6 457.8 173.7 457.9 173.9 457.7 174 457.6 174.2 457.4Z" fill="#9CAFE6" fill-rule="evenodd" clip-rule="evenodd"/><path d="M461.9 310.3C455.4 325 437 330.1 451 357.6 416.9 319.1 402.3 344.1 377.7 347 397 363.9 398.7 395.6 448.1 379.9 398.7 406.3 421.3 426 418.9 451.4 437.2 437.7 464.1 440.2 466.2 404.3 473.4 433.6 492.1 431.1 507.9 443.4 503.3 422.8 515.6 404.6 482.8 383.9 507.5 389.5 505.5 370.7 515.2 360.2 500.9 357.5 488.5 342.1 473.9 359.1 486.5 334.5 468.7 326.7 461.9 310.3L461.9 310.3ZM462.3 329.4C462.8 334.5 463.6 342.2 463.8 352 463.9 358 463.8 363.3 463.6 367.8 464.1 368.1 464.5 368.4 464.9 368.8 465.5 366.8 466.2 364.6 466.6 362.1 468 354.6 467.4 348.3 466.8 344.3 467.5 348.3 468.2 354.5 467 362.1 466.6 364.7 466 367.1 465.4 369.2 465.5 369.3 465.6 369.4 465.7 369.5 466.7 367.7 467.6 365.5 468.5 363.1 469.8 359.6 470.6 356.5 471 354.6 470.6 356.6 470.1 359.6 468.9 363.2 468.1 365.7 467.1 368 466.2 369.9 466.4 370.1 466.6 370.4 466.9 370.7 466.9 370.7 466.9 370.8 467 370.8 468.5 369 470.4 367.1 472.7 365.3 475.2 363.5 477.5 362.4 479 361.7 477.5 362.4 475.3 363.6 473 365.6 470.7 367.4 468.8 369.4 467.4 371.3 467.6 371.5 467.7 371.7 467.8 372 469.7 370.4 472 368.8 474.8 367.4 478.7 365.4 482.1 364.5 484.6 363.9 482.1 364.5 478.7 365.6 475 367.7 472.3 369.2 470 370.9 468.2 372.5 468.3 372.7 468.4 372.9 468.5 373.1 470.6 371.9 473.2 370.7 476.1 369.7 481.9 367.7 486.9 367.3 490.1 367.2 486.9 367.3 481.9 367.9 476.3 370 473.4 371.1 470.9 372.4 468.8 373.6 469 374.1 469.2 374.6 469.3 375.1 473.1 374.3 477.6 373.2 482.8 371.6 490.4 369.3 496.5 366.8 500.3 365 496.4 366.8 490.6 369.4 483 371.9 477.9 373.6 473.3 374.8 469.5 375.7 469.6 376.1 469.6 376.4 469.6 376.7 469.8 376.8 470 377 470.2 377.1 472 377.2 474.1 377.3 476.3 377.1 482.6 376.5 487.6 374.5 490.5 373 487.5 374.6 482.7 376.8 476.3 377.5 474.4 377.7 472.7 377.8 471.1 377.8 471.5 378.1 471.9 378.4 472.3 378.6 473.6 378.8 474.9 379.1 476.4 379.2 479.7 379.6 482.6 379.6 484.3 379.5 482.5 379.6 479.8 379.8 476.4 379.6 475.3 379.5 474.3 379.4 473.3 379.3 475.7 381.1 478.2 383.2 480.8 385.8 484.1 389.2 486.4 392.2 487.9 394.2 486.4 392.3 483.9 389.3 480.5 386.1 477.5 383.2 474.5 380.9 471.7 379 471.3 378.9 470.8 378.8 470.4 378.8 473.3 381.4 476.4 384.7 479.6 388.6 483.7 393.8 486.5 398.4 488.4 401.8 486.5 398.4 483.4 393.8 479.2 388.9 475.8 384.9 472.5 381.7 469.5 379.1 469.5 379.2 469.4 379.3 469.4 379.4 472 382.4 474.8 386.1 477.7 390.4 482 397.1 484.8 403 486.7 407.3 484.8 403 481.7 397 477.3 390.6 474.4 386.4 471.6 383 469 380.1 468.8 380.5 468.5 380.8 468.1 381.1 471 386.3 474.5 392.4 478.9 399.4 485.3 409.6 491.2 417.8 495 422.9 491 417.7 485.2 409.9 478.5 399.7 474.1 392.9 470.3 386.7 467.4 381.6 467 381.8 466.6 381.9 466.2 382 467 384.7 468.1 387.6 469.4 390.8 473.3 399.6 478 406.1 481.2 410 477.9 406.1 473.1 399.8 469 391 467.5 387.8 466.3 384.8 465.4 382 465.3 382 465.2 382 465.1 382 465.6 384.7 466.2 387.7 467.1 390.9 468.3 395.6 469.8 399.4 470.8 401.7 469.7 399.3 468.2 395.7 466.7 391 465.7 387.8 465 384.8 464.4 382.1 464.3 386.2 463.8 390.8 462.6 395.9 461.3 400.9 459.7 404.6 458.5 407.1 459.6 404.7 461 400.7 462 395.8 463.1 390.5 463.5 385.8 463.4 381.6 463.2 381.5 462.9 381.4 462.7 381.3 461.9 385.6 460.6 390.6 458.5 395.9 455.5 403.5 451.9 409.1 449.4 412.6 451.8 409.1 455.3 403.3 458 395.7 460 390.2 461.1 385.2 461.8 380.8 461.7 380.7 461.5 380.7 461.4 380.6 459.9 384.8 457.9 389.7 455.1 394.8 450.3 403.6 445.1 409.9 441.5 413.8 445 409.9 450.1 403.4 454.6 394.5 457.3 389.2 459.2 384.2 460.5 380 460.1 379.7 459.7 379.4 459.4 379 455.6 384.6 451 391.7 446 400.3 439.5 411.6 434.7 421.5 431.9 427.9 434.8 421.4 439.1 411.7 445.5 400.1 450.3 391.4 454.8 384 458.6 378.3 458.4 378.1 458.2 377.8 458 377.6 458 377.5 457.9 377.5 457.9 377.4 455 379.8 451.8 382.8 448.6 386.7 441.9 394.7 438.1 402.7 436.1 407.8 438.1 402.6 441.6 394.6 448.2 386.3 451.3 382.4 454.4 379.3 457.2 376.7 454.1 378.7 450.5 381.2 446.8 384.3 442.7 387.8 439.5 391 437.6 393.2 439.5 390.9 442.3 387.7 446.4 383.9 449.9 380.7 453.3 378.1 456.3 376.1 452 377 446.8 377.7 441 377.5 435.9 377.3 431.9 376.4 429.2 375.9 431.8 376.5 436 377 441 377 447 377 452.2 376.2 456.5 375.1 456.4 375 456.4 374.8 456.3 374.7 451.7 374.9 446.2 374.7 440.1 373.7 432 372.3 425.8 370 421.8 368.3 425.7 369.9 432.1 372.1 440.2 373.2 446.2 374 451.5 374.1 455.9 373.8 455.9 373.7 455.8 373.6 455.8 373.4 451.4 372.8 446.1 371.9 440.4 370.2 430.8 367.3 423.6 363.5 419 360.9 423.5 363.5 431 367.1 440.6 369.7 446.2 371.2 451.3 372 455.6 372.4 455.5 371.8 455.5 371.2 455.5 370.6 449.4 368.1 441.9 365.3 433.1 362.4 420.6 358.4 410 355.8 403.2 354.4 410.1 355.9 420.5 358.1 433.2 361.9 441.9 364.5 449.5 367.2 455.6 369.6 455.7 369 456 368.5 456.3 368 453.7 366.1 450.6 364.1 447.1 362.2 437.8 357.3 429.3 355.2 423.8 354.4 429.3 355.2 437.8 357 447.3 361.7 451 363.5 454.2 365.5 456.9 367.3 457 367.2 457 367.2 457.1 367.1 457.1 367.1 457.1 367.1 457.2 367.1 454.9 364.8 452.2 362.4 448.9 359.9 444.7 356.6 440.8 354.1 438.3 352.8 440.9 354.2 444.7 356.3 449.2 359.5 452.4 361.8 455.2 364.2 457.6 366.4 456.7 364.3 455.8 361.9 455.2 359.3 454.3 355.6 453.9 352.6 453.7 350.6 453.9 352.6 454.4 355.7 455.6 359.2 456.4 362 457.4 364.4 458.4 366.6 458.7 366.5 459 366.4 459.3 366.4 458.6 363.9 458 361.2 457.6 358.2 456.9 353 457 348.7 457.2 345.6 457.1 348.7 457.2 353.1 458 358.1 458.5 361.2 459.2 363.9 459.9 366.3 460.2 366.3 460.4 366.3 460.7 366.4 460.4 363.9 460.1 361 460 358 459.9 351.8 460.6 346.8 461.3 343.1 460.7 346.8 460.1 351.9 460.4 358 460.5 361.2 460.9 364 461.3 366.6 461.9 366.8 462.5 367 463.1 367.3 463.4 362.9 463.6 357.8 463.6 351.9 463.4 342.4 462.8 334.4 462.3 329.4L462.3 329.4ZM469.4 378C469.4 378.1 469.4 378.2 469.4 378.3 469.6 378.4 469.9 378.4 470.1 378.5 469.9 378.3 469.6 378.1 469.4 378 469.4 378 469.4 378 469.4 378Z" fill="#D89CE6" fill-rule="evenodd" clip-rule="evenodd"/><path d="M526 680.1C509.9 695.9 480.5 694.9 493.5 739.5 470.7 694.1 451.8 712.5 428.5 708.5 440.6 725.6 437.5 749.1 470.4 753.6 443.2 757.8 444.9 774.4 433.1 787.4 452.3 784.9 468.7 797.1 488.8 769.8 482.9 791.1 500.3 790.8 509.6 800.1 512.5 787.7 527.1 778 511.9 763.8 534.2 776.7 542 761.7 557.3 756.9 544 750 539.8 733.5 514 743.8 550.4 716.7 527.9 702.1 526 680.1L526 680.1ZM518.2 701.7C516.7 707.7 514.3 716.6 510.3 727.6 507.6 735 504.9 741.5 502.5 746.7 503.1 746.9 503.6 747.1 504 747.4 505.8 745.2 507.8 742.7 509.7 739.7 514.5 731.9 516.7 724.5 517.6 719.8 516.7 724.6 514.8 731.9 510.1 740 508.3 743.1 506.4 745.8 504.6 748 504.7 748.1 504.7 748.1 504.8 748.2 504.8 748.2 504.8 748.2 504.8 748.3 507 746.4 509.3 744.2 511.7 741.6 514.9 738.1 517.2 734.9 518.6 732.8 517.2 735 515.2 738.2 512.1 741.9 509.8 744.6 507.6 746.9 505.5 748.8 507.5 748.2 509.8 747.6 512.2 747.2 515.7 746.7 518.4 746.6 520.3 746.6 518.5 746.6 515.6 746.9 512.3 747.6 509.8 748.1 507.4 748.8 505.4 749.5 505.5 749.8 505.5 750 505.5 750.3 507.8 749.9 510.4 749.6 513.1 749.4 518.6 749.1 523 749.7 525.9 750.1 523.1 749.7 518.5 749.3 513.1 749.7 510.3 749.9 507.7 750.3 505.4 750.8 505.4 751 505.3 751.2 505.3 751.5 507.7 751.4 510.3 751.4 513.1 751.5 518.9 751.9 523.5 752.9 526.8 753.8 523.5 753 518.7 752.1 513 751.9 510.1 751.8 507.4 751.9 505.1 752.1 504.9 752.6 504.7 753.1 504.4 753.6 508.4 754.2 513.1 754.8 518.6 755.2 527.4 755.9 534.8 756 539.4 755.9 534.6 756 527.5 756.1 518.5 755.5 512.9 755.2 508.1 754.7 503.9 754.1 503.6 754.5 503.3 754.8 503 755.2 504.8 755.9 506.8 756.6 509.1 757.2 515.9 758.9 521.8 759 525.5 758.7 521.8 759 516 759.1 509.1 757.6 506.7 757.1 504.5 756.4 502.6 755.7 502.5 755.8 502.4 755.9 502.3 755.9 504 756.9 505.9 757.9 508.1 758.9 511.3 760.3 514.1 761.2 515.9 761.7 514 761.2 511.3 760.5 508 759.2 505.7 758.3 503.7 757.3 501.9 756.3 501.7 756.5 501.4 756.7 501.2 756.8 501.2 756.8 501.2 756.8 501.1 756.8 502.7 758.3 504.4 760 506 762.3 507.6 764.7 508.5 766.7 509.1 768.1 508.5 766.8 507.4 764.7 505.7 762.5 504.1 760.3 502.3 758.5 500.6 757.1 500.4 757.2 500.2 757.3 500 757.4 501.4 759.2 502.8 761.3 504 763.9 505.9 767.9 506.7 771.5 507.1 773.8 506.7 771.5 505.7 768 503.7 764.1 502.4 761.6 500.9 759.5 499.5 757.7 499.3 757.8 499.2 757.8 499 757.9 500 759.9 501 762.2 501.9 764.9 503.3 769.4 503.6 773.2 503.7 776 503.6 773.2 503 769.3 501.6 765 500.7 762.3 499.6 760 498.5 758.1 498 758.2 497.6 758.4 497.1 758.4 497.7 761.8 498.6 765.9 499.9 770.5 501.8 777.4 503.9 782.9 505.4 786.4 503.9 782.9 501.7 777.5 499.6 770.6 498.2 766 497.2 761.9 496.5 758.4 496.2 758.4 495.8 758.4 495.5 758.4 495.4 758.6 495.3 758.7 495.1 758.9 494.9 760.5 494.8 762.3 494.9 764.3 495.2 770 496.9 774.5 498.3 777.1 496.9 774.4 495.1 770 494.6 764.3 494.5 762.6 494.4 761.1 494.5 759.6 494.2 759.9 493.9 760.3 493.7 760.6 493.4 761.7 493.2 762.9 493 764.1 492.5 767 492.4 769.5 492.5 771 492.4 769.4 492.4 767 492.7 764 492.8 763 493 762.1 493.1 761.2 491.4 763.2 489.3 765.3 486.9 767.4 483.7 770.1 480.9 771.8 479 773 480.8 771.9 483.7 769.9 486.7 767.1 489.4 764.6 491.7 762.2 493.5 759.9 493.6 759.5 493.7 759.1 493.8 758.7 491.3 761 488.2 763.6 484.5 766.1 479.6 769.4 475.3 771.4 472.1 772.9 475.3 771.5 479.6 769.2 484.3 765.8 488.1 763.1 491.1 760.4 493.6 758 493.5 758 493.4 757.9 493.3 757.9 490.4 760 486.9 762.2 482.9 764.4 476.6 767.7 471.1 769.7 467 771.1 471 769.7 476.6 767.5 482.7 764.1 486.6 761.9 489.9 759.7 492.6 757.6 492.2 757.4 491.9 757.1 491.7 756.8 486.9 758.9 481.1 761.5 474.5 764.9 464.9 769.8 457.2 774.3 452.4 777.3 457.3 774.2 464.7 769.7 474.3 764.5 480.7 761.1 486.5 758.3 491.3 756.1 491.1 755.7 491 755.4 491 755 488.5 755.5 485.7 756.2 482.8 757.2 474.7 759.9 468.5 763.6 464.8 766.2 468.6 763.6 474.5 759.8 482.7 756.8 485.7 755.7 488.5 754.9 491.1 754.3 491.1 754.2 491.1 754.1 491.1 754.1 488.6 754.3 485.9 754.6 482.8 755.2 478.5 755.9 474.9 756.9 472.7 757.6 475 756.8 478.3 755.7 482.7 754.8 485.7 754.2 488.4 753.7 490.9 753.5 487.1 753.1 482.9 752.4 478.3 750.9 473.8 749.4 470.4 747.7 468.1 746.5 470.3 747.6 473.9 749.2 478.4 750.4 483.2 751.8 487.6 752.4 491.4 752.7 491.5 752.5 491.6 752.3 491.6 752.1 487.6 751.1 483.1 749.6 478.3 747.3 472.3 744.5 467.7 741.4 464.5 739 467.7 741.3 472.5 744.2 478.5 746.8 483.5 749 488.1 750.3 492.1 751.2 492.2 751.1 492.2 751 492.3 750.9 488.5 749.3 484.1 747.2 479.4 744.3 471.5 739.4 465.8 734.3 462.3 730.9 465.8 734.3 471.7 739.2 479.7 743.9 484.5 746.7 489 748.7 492.9 750.2 493.2 749.9 493.5 749.6 493.8 749.3 488.7 745.5 482.3 740.9 474.6 735.9 464.3 729.3 455.4 724.4 449.6 721.4 455.5 724.4 464.3 728.9 474.8 735.4 482.7 740.2 489.3 744.8 494.5 748.6 494.7 748.4 495 748.3 495.2 748.1 495.3 748.1 495.3 748 495.4 748 493.3 745.3 490.6 742.3 487.2 739.1 480 732.5 472.8 728.6 468.1 726.5 472.8 728.6 480.1 732.3 487.5 738.7 490.9 741.7 493.8 744.6 496 747.3 494.3 744.4 492.1 741.1 489.3 737.7 486.2 733.8 483.3 730.7 481.4 728.9 483.4 730.8 486.4 733.5 489.7 737.3 492.5 740.6 494.8 743.8 496.6 746.6 495.9 742.8 495.4 738.2 495.8 733.1 496.2 728.6 497.1 725.1 497.7 722.8 497.1 725 496.5 728.7 496.3 733.1 496.1 738.4 496.7 743 497.6 746.9 497.7 746.8 497.9 746.8 498 746.7 498 742.7 498.3 737.8 499.4 732.6 500.7 726.5 502.7 721.8 504.3 718.4 502.8 721.8 501 726.7 499.9 732.7 498.9 737.9 498.7 742.6 498.9 746.5 499 746.5 499.2 746.4 499.3 746.4 499.9 742.5 501 738 502.7 733.1 505.7 724.9 509.4 718.8 512 715 509.5 718.8 505.9 725.1 503.2 733.3 501.6 738.1 500.7 742.5 500.2 746.3 500.8 746.3 501.3 746.3 501.9 746.3 504.4 741.1 507.2 734.8 510.1 727.2 513.9 716.8 516.6 707.6 518.2 701.7L518.2 701.7ZM494.3 758.4C494.2 758.6 494.2 758.8 494.1 759.1 494.3 758.9 494.4 758.7 494.6 758.5 494.5 758.5 494.4 758.5 494.3 758.4Z" fill="#F5D36F" fill-rule="evenodd" clip-rule="evenodd"/><path d="M462.2 619.9C457.9 608.8 449.6 599.8 428.1 597.1 434 595.3 439.9 593.4 444.4 586.9 435.8 588.3 407.2 579.7 389.7 587 397.4 583.6 400.4 578.1 403.3 572.4 395.2 578.2 342 573.4 308.4 609 355.9 585.3 397.9 599.2 414.1 603.9 401 605.6 387.2 607.4 373.9 606.9 349.1 606 326.4 599.4 308.2 609.2 337.9 597.9 354 627.1 384.4 630.6 383.8 624.7 381.5 621.9 379.5 618.7 388.2 622.5 395.9 626.9 403.8 629.2 411 631.3 417.8 629.1 425.7 634.3 424.6 628.9 423.1 623.9 419.3 620.5 433.4 622.2 446.8 614.8 462.2 619.9L462.2 619.9Z" fill="#E6A9BD"/><path d="M372.9 684.2C372.9 687.5 370.3 690.1 367 690.1L367 690.1C363.7 690.1 361.1 687.5 361.1 684.2L361.1 684.2C361.1 680.9 363.7 678.3 367 678.3L367 678.3C370.2 678.3 372.9 680.9 372.9 684.2L372.9 684.2Z" fill="#E6A9BD"/><path d="M383.6 692.8C383.6 695.8 381.2 698.2 378.2 698.2 375.2 698.2 372.8 695.8 372.8 692.8 372.8 689.8 375.2 687.4 378.2 687.4 381.2 687.5 383.6 689.9 383.6 692.8Z" fill="#E6A9BD"/><path d="M391.5 701.6C391.5 704 389.6 705.9 387.2 705.9L387.2 705.9C384.8 705.9 382.9 704 382.9 701.6L382.9 701.6C382.9 699.2 384.8 697.3 387.2 697.3L387.2 697.3C389.6 697.3 391.5 699.3 391.5 701.6L391.5 701.6Z" fill="#E6A9BD"/><path d="M395.3 709.1C395.3 710.3 394.3 711.2 393.2 711.2L393.2 711.2C392 711.2 391.1 710.2 391.1 709.1L391.1 709.1C391.1 707.9 392.1 707 393.2 707L393.2 707C394.4 707 395.3 708 395.3 709.1 395.3 709.1 395.3 709.1 395.3 709.1Z" fill="#E6A9BD"/><path d="M399.7 715C399.7 715.9 399 716.6 398.1 716.6L398.1 716.6C397.2 716.6 396.5 715.9 396.5 715L396.5 715C396.5 714.1 397.2 713.4 398.1 713.4 399 713.4 399.7 714.2 399.7 715L399.7 715Z" fill="#E6A9BD"/><path d="M368.7 212.5C371.8 213.6 373.4 217 372.3 220L372.3 220C371.2 223.1 367.8 224.7 364.8 223.6L364.8 223.6C361.7 222.5 360.1 219.1 361.2 216.1L361.2 216.1C362.3 213 365.7 211.4 368.7 212.5L368.7 212.5Z" fill="#E6A9BD"/><path d="M380.5 205.3C383.3 206.3 384.7 209.4 383.8 212.1 382.8 214.9 379.7 216.3 377 215.4 374.2 214.4 372.8 211.3 373.7 208.6 374.6 205.8 377.7 204.3 380.5 205.3Z" fill="#E6A9BD"/><path d="M391.4 200.8C393.6 201.6 394.8 204 394 206.3L394 206.3C393.2 208.5 390.8 209.7 388.5 208.9L388.5 208.9C386.3 208.1 385.1 205.7 385.9 203.4L385.9 203.4C386.7 201.2 389.2 200 391.4 200.8L391.4 200.8Z" fill="#E6A9BD"/><path d="M399.8 199.7C400.9 200.1 401.5 201.3 401.1 202.4 401.1 202.4 401.1 202.4 401.1 202.4 400.7 203.5 399.5 204.1 398.4 203.7L398.4 203.7C397.3 203.3 396.7 202.1 397.1 201L397.1 201C397.5 199.9 398.7 199.3 399.8 199.7 399.8 199.7 399.8 199.7 399.8 199.7Z" fill="#E6A9BD"/><path d="M406.8 197.6C407.6 197.9 408.1 198.8 407.8 199.7 407.8 199.7 407.8 199.7 407.8 199.7 407.5 200.5 406.6 201 405.7 200.7 405.7 200.7 405.7 200.7 405.7 200.7 404.9 200.4 404.4 199.5 404.7 198.6 405 197.7 405.9 197.3 406.8 197.6Z" fill="#E6A9BD"/><path d="M186.4 585.7C184.2 583.3 180.4 583.3 178.1 585.5L178.1 585.5C175.7 587.7 175.7 591.5 177.9 593.8L177.9 593.8C180.1 596.2 183.9 596.2 186.2 594L186.2 594C188.5 591.8 188.6 588.1 186.4 585.7L186.4 585.7Z" fill="#E6A9BD"/><path d="M188.2 572.1C186.2 570 182.8 569.9 180.6 571.9 178.5 573.9 178.4 577.3 180.4 579.5 182.4 581.6 185.8 581.7 188 579.7 190.1 577.6 190.2 574.2 188.2 572.1Z" fill="#E6A9BD"/><path d="M187.8 560.2C186.2 558.5 183.5 558.4 181.7 560.1L181.7 560.1C180 561.7 179.9 564.4 181.6 566.2L181.6 566.2C183.2 567.9 185.9 568 187.7 566.3L187.7 566.3C189.4 564.7 189.5 562 187.8 560.2L187.8 560.2Z" fill="#E6A9BD"/><path d="M185.4 552.1C184.6 551.2 183.2 551.2 182.4 552 182.4 552 182.4 552 182.4 552 181.5 552.8 181.5 554.2 182.3 555L182.3 555C183.1 555.9 184.5 555.9 185.3 555.1L185.3 555.1C186.2 554.4 186.3 553 185.4 552.1L185.4 552.1Z" fill="#E6A9BD"/><path d="M184.5 544.9C183.9 544.3 182.9 544.2 182.2 544.8 182.2 544.8 182.2 544.8 182.2 544.8 181.6 545.4 181.5 546.4 182.1 547.1L182.1 547.1C182.7 547.7 183.7 547.8 184.4 547.2 185.1 546.6 185.1 545.6 184.5 544.9Z" fill="#E6A9BD"/><path d="M382.3 89.4C369.2 87.7 357 90.8 347.7 109.3 347.5 103 347.3 96.6 341.6 89.1 340.6 97.8 322.8 119.7 325.5 139.5 324.2 130.7 319.1 125.1 313.9 119.6 317.7 130 296.8 176.6 325.1 225.5 313.7 169.8 341.1 138.1 350.9 125.5 348.8 138.4 346.7 152.1 342.2 164.1 333.8 186.5 320.1 204.1 325.2 225.7 321.9 192.6 358 192.6 370.7 166.3 364.1 163.8 360.5 164.6 356.5 164.8 363.2 158.8 370.2 153.8 375 147.7 379.4 142.1 379.1 134.8 387 130.1 380.9 128.4 375 127.2 370.3 129 376.3 117.1 372.3 101 382.3 89.4L382.3 89.4Z" fill="#E6A9BD"/><path d="M186.4 585.7C184.2 583.3 180.4 583.3 178.1 585.5L178.1 585.5C175.7 587.7 175.7 591.5 177.9 593.8L177.9 593.8C180.1 596.2 183.9 596.2 186.2 594L186.2 594C188.5 591.8 188.6 588.1 186.4 585.7L186.4 585.7Z" fill="#E6A9BD"/><path d="M188.2 572.1C186.2 570 182.8 569.9 180.6 571.9 178.5 573.9 178.4 577.3 180.4 579.5 182.4 581.6 185.8 581.7 188 579.7 190.1 577.6 190.2 574.2 188.2 572.1Z" fill="#E6A9BD"/><path d="M187.8 560.2C186.2 558.5 183.5 558.4 181.7 560.1L181.7 560.1C180 561.7 179.9 564.4 181.6 566.2L181.6 566.2C183.2 567.9 185.9 568 187.7 566.3L187.7 566.3C189.4 564.7 189.5 562 187.8 560.2L187.8 560.2Z" fill="#E6A9BD"/><path d="M185.4 552.1C184.6 551.2 183.2 551.2 182.4 552 182.4 552 182.4 552 182.4 552 181.5 552.8 181.5 554.2 182.3 555L182.3 555C183.1 555.9 184.5 555.9 185.3 555.1L185.3 555.1C186.2 554.4 186.3 553 185.4 552.1L185.4 552.1Z" fill="#E6A9BD"/><path d="M184.5 544.9C183.9 544.3 182.9 544.2 182.2 544.8 182.2 544.8 182.2 544.8 182.2 544.8 181.6 545.4 181.5 546.4 182.1 547.1L182.1 547.1C182.7 547.7 183.7 547.8 184.4 547.2 185.1 546.6 185.1 545.6 184.5 544.9Z" fill="#E6A9BD"/><path d="M365.5 505.3C368.3 506.9 369.2 510.6 367.6 513.4L367.6 513.4C366 516.2 362.3 517.1 359.5 515.5L359.5 515.5C356.7 513.9 355.8 510.2 357.4 507.4L357.4 507.4C359 504.6 362.7 503.6 365.5 505.3L365.5 505.3Z" fill="#E6A9BD"/><path d="M378.4 500.4C381 501.9 381.8 505.2 380.3 507.7 378.8 510.2 375.5 511.1 373 509.6 370.4 508.1 369.6 504.8 371.1 502.3 372.5 499.8 375.8 498.9 378.4 500.4Z" fill="#E6A9BD"/><path d="M390 498C392 499.2 392.7 501.8 391.5 503.9L391.5 503.9C390.3 505.9 387.7 506.6 385.6 505.4L385.6 505.4C383.6 504.2 382.9 501.6 384.1 499.5L384.1 499.5C385.3 497.5 387.9 496.8 390 498L390 498Z" fill="#E6A9BD"/><path d="M398.4 498.5C399.4 499.1 399.8 500.4 399.2 501.4L399.2 501.4C398.6 502.4 397.3 502.8 396.3 502.2L396.3 502.2C395.3 501.6 394.9 500.3 395.5 499.3 395.5 499.3 395.5 499.3 395.5 499.3 396.1 498.3 397.4 497.9 398.4 498.5L398.4 498.5Z" fill="#E6A9BD"/><path d="M405.6 497.8C406.4 498.2 406.6 499.2 406.2 500 406.2 500 406.2 500 406.2 500 405.8 500.8 404.8 501 404 500.6L404 500.6C403.2 500.2 403 499.2 403.4 498.4 403.9 497.6 404.9 497.4 405.6 497.8Z" fill="#E6A9BD"/><path d="M194.7 309.8C192 311.7 191.4 315.3 193.2 318L193.2 318C195.1 320.7 198.7 321.3 201.4 319.5 201.4 319.5 201.4 319.5 201.4 319.5 204.1 317.6 204.7 314 202.9 311.3L202.9 311.3C201 308.6 197.3 307.9 194.7 309.8 194.7 309.8 194.7 309.8 194.7 309.8Z" fill="#E6A9BD"/><path d="M181.4 305.9C179 307.6 178.4 310.9 180.1 313.4L180.1 313.4C181.8 315.8 185.1 316.4 187.6 314.7 190.1 313 190.6 309.7 188.9 307.2L188.9 307.2C187.2 304.8 183.9 304.2 181.4 305.9L181.4 305.9 181.4 305.9Z" fill="#E6A9BD"/><path d="M169.7 304.4C167.8 305.8 167.3 308.4 168.6 310.4L168.6 310.4C170 312.3 172.6 312.8 174.6 311.5 174.6 311.5 174.6 311.5 174.6 311.5 176.5 310.1 177 307.5 175.7 305.5L175.7 305.5C174.3 303.6 171.6 303.1 169.7 304.4 169.7 304.4 169.7 304.4 169.7 304.4Z" fill="#E6A9BD"/><path d="M161.3 305.5C160.3 306.2 160.1 307.5 160.8 308.5L160.8 308.5C161.5 309.5 162.8 309.7 163.8 309 163.8 309 163.8 309 163.8 309 164.8 308.3 165 307 164.3 306L164.3 306C163.6 305.1 162.3 304.9 161.3 305.5L161.3 305.5Z" fill="#E6A9BD"/><path d="M154 305.4C153.3 305.9 153.1 306.9 153.6 307.6L153.6 307.6C154.1 308.3 155.1 308.5 155.8 308L155.8 308C156.5 307.5 156.7 306.5 156.2 305.8L156.2 305.8C155.8 305.1 154.8 304.9 154 305.4 154 305.4 154 305.4 154 305.4Z" fill="#E6A9BD"/><path d="M194.7 309.8C192 311.7 191.4 315.3 193.2 318L193.2 318C195.1 320.7 198.7 321.3 201.4 319.5 201.4 319.5 201.4 319.5 201.4 319.5 204.1 317.6 204.7 314 202.9 311.3L202.9 311.3C201 308.6 197.3 307.9 194.7 309.8 194.7 309.8 194.7 309.8 194.7 309.8Z" fill="#E6A9BD"/><path d="M181.4 305.9C179 307.6 178.4 310.9 180.1 313.4L180.1 313.4C181.8 315.8 185.1 316.4 187.6 314.7 190.1 313 190.6 309.7 188.9 307.2L188.9 307.2C187.2 304.8 183.9 304.2 181.4 305.9L181.4 305.9 181.4 305.9Z" fill="#E6A9BD"/><path d="M169.7 304.4C167.8 305.8 167.3 308.4 168.6 310.4L168.6 310.4C170 312.3 172.6 312.8 174.6 311.5 174.6 311.5 174.6 311.5 174.6 311.5 176.5 310.1 177 307.5 175.7 305.5L175.7 305.5C174.3 303.6 171.6 303.1 169.7 304.4 169.7 304.4 169.7 304.4 169.7 304.4Z" fill="#E6A9BD"/><path d="M161.3 305.5C160.3 306.2 160.1 307.5 160.8 308.5L160.8 308.5C161.5 309.5 162.8 309.7 163.8 309 163.8 309 163.8 309 163.8 309 164.8 308.3 165 307 164.3 306L164.3 306C163.6 305.1 162.3 304.9 161.3 305.5L161.3 305.5Z" fill="#E6A9BD"/><path d="M154 305.4C153.3 305.9 153.1 306.9 153.6 307.6L153.6 307.6C154.1 308.3 155.1 308.5 155.8 308L155.8 308C156.5 307.5 156.7 306.5 156.2 305.8L156.2 305.8C155.8 305.1 154.8 304.9 154 305.4 154 305.4 154 305.4 154 305.4Z" fill="#E6A9BD"/><path d="M516.9 101.9C516.8 101.6 516.7 101.4 516.7 101.4 516.7 101.4 515.2 104.3 511.4 106.3 509.7 107.2 507.5 107.9 505.5 108 503.7 108.1 501.9 107.8 499.9 107.3 498 106.9 496 106.2 493.7 105.5 492.3 105.1 490.8 104.7 489.1 104.3 488.2 104.1 487.3 104 486.3 103.9 483.3 103.5 479.8 103.6 476.2 104.5 468.5 106.5 463.6 111.5 461.9 116.2 460.3 120.7 461.7 124.2 463 126 463.5 126.7 464 127.2 464.4 127.6 464.3 128.1 464.2 128.6 464.2 129.3 464.1 131.3 464.7 134.6 468 137.4 471.4 140.2 477.3 141.9 483.8 139.9 486.9 138.9 489.4 137.4 491.4 135.7 492.1 135.1 492.7 134.6 493.2 134.1 494.3 133 495.2 132 496 131.1 497.4 129.5 498.5 128 499.6 126.8 500.8 125.5 502 124.4 503.3 123.7 504.8 122.8 506.6 122.4 508.3 122.3 512 122.1 514.5 123.7 514.5 123.7 514.5 123.7 514.4 120.9 510.2 118.4 509.1 117.7 507.6 117.1 505.9 116.8 506.8 116.4 507.7 116.1 508.5 115.6 512.1 113.7 514.4 111.1 515.6 108.8 517.6 105.3 517.2 102.9 516.9 101.9L516.9 101.9ZM493.5 118.7C493.2 118.8 493 119 492.7 119.1 485.5 123.1 484 133.4 472.4 131.7 469.9 131.4 467.8 129.9 466.6 128.6 466.2 128.1 465.8 127.7 465.6 127.3 465.6 126.8 465.6 126.1 465.8 125.2 466.2 123.2 467.4 120.7 469.7 118.9 471.9 117.1 475.2 116.1 477.5 116.4 478.7 116.4 480.1 116.7 481.8 117 482.4 117.1 483 117.2 483.7 117.4 485 117.7 486.5 117.9 488.1 118.2 489.7 118.5 491.5 118.7 493.5 118.7L493.5 118.7Z" fill="#E6A9BD" fill-rule="evenodd" clip-rule="evenodd"/><path d="M528.5 573.7C528.6 573.4 528.6 573.2 528.6 573.2 528.6 573.2 525.7 574.6 521.4 574 519.4 573.7 517.3 573 515.7 571.9 514.2 570.9 512.9 569.6 511.6 568 510.3 566.5 509.2 564.8 507.7 562.8 506.8 561.7 505.9 560.4 504.7 559.1 504.1 558.4 503.4 557.8 502.7 557.1 500.5 555 497.6 553.1 494.2 551.6 486.8 548.6 479.9 549.8 475.8 552.5 471.8 555.2 470.9 558.8 470.9 561.1 470.9 562 471 562.7 471.1 563.3 470.7 563.6 470.3 564 469.9 564.5 468.6 566.1 467.1 569.1 468.2 573.3 469.3 577.6 473 582.4 479.4 584.7 482.5 585.7 485.4 586 488 585.8 488.9 585.8 489.7 585.7 490.4 585.6 491.9 585.4 493.2 585.1 494.4 584.8 496.5 584.3 498.2 583.8 499.8 583.5 501.5 583.2 503.1 583 504.6 583.2 506.3 583.4 508.1 584.1 509.5 585.1 512.6 587.2 513.6 589.9 513.6 589.9 513.6 589.9 515.1 587.6 513.3 583.1 512.8 581.9 512 580.5 510.8 579.2 511.7 579.5 512.7 579.7 513.6 579.8 517.7 580.4 521 579.7 523.4 578.6 527.1 576.8 528.2 574.7 528.5 573.7L528.5 573.7ZM499.6 573.3C499.3 573.2 499 573.2 498.7 573.2 490.5 572.2 483.2 579.5 474.9 571.3 473.1 569.6 472.3 567.2 472.1 565.4 472 564.8 472 564.2 472.1 563.8 472.4 563.4 472.9 562.8 473.5 562.3 475 561 477.5 559.6 480.4 559.5 483.3 559.4 486.5 560.6 488.2 562.1 489.1 562.8 490.1 563.9 491.3 565.2 491.7 565.6 492.1 566.1 492.6 566.6 493.5 567.6 494.5 568.7 495.7 569.9 496.8 570.9 498.1 572.1 499.6 573.3L499.6 573.3Z" fill="#E6A9BD" fill-rule="evenodd" clip-rule="evenodd"/><path d="M221.1 286.4C221.3 286.2 221.5 286.2 221.5 286.2 221.5 286.2 221.1 288.8 222.6 292.1 223.3 293.6 224.4 295.1 225.7 296.1 226.8 297.1 228.2 297.7 229.8 298.5 231.3 299.2 232.9 299.7 234.8 300.4 235.9 300.8 237.1 301.3 238.4 301.9 239.1 302.2 239.8 302.6 240.5 303 242.7 304.2 244.9 306.1 246.9 308.5 251 313.7 251.7 319.4 250.6 323.4 249.4 327.2 246.7 328.8 245 329.3 244.3 329.5 243.7 329.6 243.2 329.6 243 330 242.8 330.4 242.5 330.8 241.6 332.2 239.5 334.1 235.9 334.3 232.2 334.5 227.5 332.6 224.2 328.1 222.7 325.9 221.7 323.6 221.2 321.5 221 320.8 220.9 320.1 220.8 319.5 220.6 318.3 220.5 317.1 220.5 316.1 220.4 314.4 220.4 312.8 220.2 311.5 220 310 219.8 308.7 219.3 307.6 218.7 306.3 217.8 305.1 216.7 304.2 214.3 302.2 211.9 302.1 211.9 302.1 211.9 302.1 213.4 300.3 217.4 300.7 218.5 300.8 219.8 301.1 221.1 301.7 220.7 301 220.3 300.3 219.9 299.6 218.5 296.5 218.2 293.7 218.5 291.6 218.9 288.3 220.4 286.9 221.1 286.4L221.1 286.4ZM228.3 309.3C228.4 309.5 228.5 309.8 228.6 310 231.4 316.3 227.3 323.9 235.8 328.5 237.6 329.5 239.7 329.6 241.2 329.3 241.7 329.2 242.2 329.1 242.5 328.9 242.8 328.5 243.1 328.1 243.4 327.4 244.1 325.9 244.6 323.6 243.9 321.3 243.3 319 241.6 316.7 240 315.7 239.2 315.1 238.1 314.6 236.8 313.9 236.4 313.7 235.9 313.4 235.4 313.2 234.4 312.7 233.3 312.2 232.1 311.5 230.9 311 229.6 310.2 228.3 309.3L228.3 309.3Z" fill="#E6A9BD" fill-rule="evenodd" clip-rule="evenodd"/><path d="M189.9 595.7C190.1 595.7 190.2 595.8 190.2 595.8 190.2 595.8 188.7 596.9 187.9 599.1 187.5 600.1 187.3 601.4 187.4 602.5 187.5 603.5 187.8 604.5 188.2 605.6 188.6 606.6 189.1 607.7 189.7 608.9 190 609.6 190.4 610.4 190.7 611.4 190.9 611.9 191 612.4 191.2 612.9 191.7 614.5 191.9 616.5 191.7 618.6 191.2 623 188.8 626.1 186.4 627.4 184 628.7 182 628.1 180.9 627.6 180.5 627.4 180.1 627.1 179.9 626.9 179.7 627 179.4 627.1 179 627.2 177.9 627.4 176 627.3 174.2 625.7 172.4 624 171 620.9 171.6 617.2 171.9 615.4 172.5 613.9 173.3 612.7 173.6 612.3 173.8 611.9 174.1 611.6 174.6 610.9 175.1 610.3 175.5 609.8 176.3 608.9 177 608.2 177.6 607.5 178.2 606.7 178.7 606 179 605.2 179.4 604.3 179.5 603.3 179.4 602.3 179.2 600.2 178.1 599 178.1 599 178.1 599 179.6 598.9 181.4 601 181.9 601.6 182.3 602.3 182.6 603.2 182.7 602.7 182.9 602.2 183 601.7 183.8 599.5 185 598.1 186.2 597.2 188 595.6 189.4 595.6 189.9 595.7L189.9 595.7ZM182.5 610C182.4 610.2 182.4 610.3 182.3 610.5 180.6 614.8 175.1 616.5 177 622.7 177.4 624.1 178.3 625.1 179.2 625.7 179.5 625.9 179.8 626 180 626.2 180.3 626.2 180.7 626.1 181.1 625.9 182.2 625.5 183.5 624.7 184.3 623.2 185.1 621.8 185.4 619.9 185.1 618.7 185 618.1 184.7 617.3 184.4 616.4 184.3 616.1 184.2 615.7 184 615.4 183.8 614.7 183.5 613.9 183.2 613 182.9 612 182.7 611 182.5 610L182.5 610Z" fill="#E6A9BD" fill-rule="evenodd" clip-rule="evenodd"/></svg>