<svg width="793.701" height="1122.52" viewBox="0 0 210 297" xmlns="http://www.w3.org/2000/svg" xmlns:xlink="http://www.w3.org/1999/xlink" overflow="hidden"><path d="M118.97 250.8C115.033 245.89 109.041 242.464 96.394 243.843 99.5251 242.235 102.622 240.577 104.303 236.792 99.5671 238.565 82.0745 237.866 73.1095 243.629 77.0552 241.005 78.0228 237.895 78.8658 234.763 75.0426 238.602 43.9888 242.874 29.7278 264.587 53.5758 247.023 79.4908 248.608 89.3798 248.906 82.1165 251.361 74.5038 253.995 66.8458 255.403 52.5648 258.028 38.7228 257.637 29.6638 264.696 45.0978 255.441 58.2408 267.801 76.0608 265.719 74.9076 262.872 73.236 261.816 71.6433 260.487 77.1155 261.291 82.1553 262.49 86.9533 262.635 91.3714 262.77 94.9382 260.856 100.17 262.423 98.7864 259.928 97.2377 257.611 94.6332 256.432 102.859 255.542 109.506 250.237 118.972 250.8Z" fill="#E6A9BD" fill-opacity="0.231373"/><path d="M139.79 98.194C134.914 96.7788 129.936 97.2952 124.624 104.068 125.175 101.556 125.678 99.0254 124.211 95.7483 122.98 99.1138 114.06 106.761 113.183 114.722 113.516 111.161 112.109 108.66 110.628 106.202 111.088 110.508 98.5814 127.723 104.758 148.665 105.742 126.017 119.288 115.05 124.272 110.662 122.225 115.65 120.117 120.917 117.246 125.396 111.893 133.749 104.933 139.908 104.793 148.766 106.705 135.503 120.549 137.567 127.949 127.932 125.67 126.588 124.221 126.666 122.645 126.527 125.789 124.521 128.96 122.976 131.379 120.847 133.606 118.888 134.184 115.971 137.671 114.58 135.493 113.575 133.343 112.764 131.366 113.193 134.825 108.793 134.851 102.209 139.79 98.1924Z" fill="#E6A9BD" fill-opacity="0.231373"/><path d="M44.052 191.97C47.3656 194.514 49.601 198.238 48.3434 205.786 49.5336 203.964 50.7581 202.163 53.4243 201.291 52.0817 204.072 52.1513 214.606 47.9384 219.782 49.8529 217.507 52.0347 217.039 54.2279 216.646 51.4728 218.803 47.7702 237.303 32.3629 245.081 45.1189 231.393 44.6339 215.767 44.6629 209.816 42.7867 214.09 40.7779 218.568 39.6189 223.117 37.4579 231.601 37.4002 239.931 32.2859 245.116 39.0751 236.181 30.8106 227.836 32.6786 217.206 34.6269 218.003 35.32 219.045 36.2043 220.051 35.7765 216.734 35.0647 213.663 35.0775 210.775 35.0894 208.116 36.5023 206.043 35.5391 202.843 37.2374 203.765 38.8084 204.779 39.5648 206.387 40.3779 201.478 44.2179 197.678 44.0521 191.97Z" fill="#E6A9BD" fill-opacity="0.231373"/><path d="M45.924 238.41C45.7893 238.302 47.5452 235.994 49.983 232.032 52.4898 227.957 55.4146 222.519 57.8404 215.715 60.1532 209.227 61.3249 203.425 61.9708 198.755 62.6607 193.768 62.7525 190.594 62.933 190.596 63.0727 190.597 63.3503 193.775 62.8792 198.859 62.4408 203.59 61.3617 209.559 59.0179 216.134 56.5598 223.03 53.4428 228.538 50.7241 232.512 48.0619 236.405 46.0313 238.495 45.924 238.41Z" fill="#E6A9BD" fill-rule="evenodd" fill-opacity="0.231373"/><path d="M43.352 244.63C43.2611 244.458 44.7556 243.581 46.9811 241.93 49.2729 240.229 52.0795 237.882 54.8921 234.63 58.7356 230.186 60.839 226.082 62.0974 223.544 62.669 222.391 62.9973 221.723 63.1092 221.762 63.2097 221.798 63.0811 222.538 62.6708 223.779 61.7896 226.444 59.7601 230.913 55.8379 235.448 52.9524 238.785 49.9341 241.129 47.4782 242.66 45.0697 244.162 43.4215 244.762 43.352 244.63Z" fill="#E6A9BD" fill-rule="evenodd" fill-opacity="0.231373"/><path d="M34.953 252.37C34.8506 252.154 45.522 247.654 57.741 236.559 63.1365 231.655 68.894 225.302 73.137 217.595 74.4671 215.179 75.5944 212.729 76.5154 210.247 81.2862 197.387 79.6557 185.992 76.4121 178.518L76.4121 178.518C73.5828 171.985 70.3339 168.91 70.4421 168.81 70.3853 168.862 73.9778 171.49 77.1229 178.197 77.1229 178.197 77.1229 178.197 77.1229 178.197 80.6505 185.736 82.538 197.477 77.6736 210.675 76.7362 213.219 75.5865 215.728 74.2284 218.196 69.8913 226.077 64.0084 232.49 58.4774 237.381 45.8104 248.593 34.9334 252.33 34.9524 252.37Z" fill="#E6A9BD" fill-rule="evenodd" fill-opacity="0.231373"/><path d="M87.401 231.48C87.3975 231.361 90.7165 230.919 96.1134 231.375 101.622 231.839 108.771 233.229 116.487 236.617 126.354 240.949 133.044 246.743 136.845 250.796 138.961 253.052 139.99 254.529 139.91 254.598 139.799 254.694 138.592 253.374 136.36 251.281 132.318 247.488 125.702 242.028 115.984 237.762 108.397 234.43 101.448 232.942 96.0202 232.253 90.7363 231.581 87.4055 231.652 87.4005 231.48Z" fill="#E6A9BD" fill-rule="evenodd" fill-opacity="0.231373"/><path d="M66.171 238.17C66.3325 238.381 75.1789 229.134 93.481 224.333 101.917 222.12 111.871 221.119 122.492 222.565 125.504 222.975 128.43 223.564 131.253 224.312 146.496 228.351 157.311 236.556 163.817 243.315 169.515 249.235 171.754 253.61 171.745 253.617 171.623 253.699 169.015 249.532 163.264 243.862 156.656 237.346 145.928 229.431 130.938 225.508 128.161 224.781 125.284 224.206 122.323 223.803 111.883 222.383 102.089 223.309 93.7521 225.392 76.1151 229.798 66.3141 238.357 66.1711 238.17Z" fill="#E6A9BD" fill-rule="evenodd" fill-opacity="0.231373"/><path d="M99.983 214.36C99.9227 214.312 102.084 210.814 107.099 206.452 112.182 202.03 119.826 197.158 129.846 194.618 135.278 193.241 140.486 192.793 145.238 192.997 157.954 193.545 165.415 198.178 165.428 198.15 165.328 198.379 157.381 194.456 145.199 194.128 140.546 194.003 135.467 194.482 130.154 195.83 120.354 198.316 112.823 202.949 107.668 207.129 102.619 211.222 100.119 214.468 99.9838 214.361Z" fill="#E6A9BD" fill-rule="evenodd" fill-opacity="0.231373"/><path d="M116.02 195.38C115.904 195.313 116.645 193.456 118.599 190.873 120.586 188.247 123.671 185.123 128.034 182.598 131.066 180.843 134.064 179.758 136.764 179.142 141.761 178.004 145.118 178.507 145.117 178.65 145.117 178.874 141.755 178.872 137.023 180.173 134.436 180.883 131.585 181.987 128.661 183.68 124.45 186.118 121.404 189.009 119.285 191.43 117.218 193.792 116.169 195.466 116.02 195.38Z" fill="#E6A9BD" fill-rule="evenodd" fill-opacity="0.231373"/><path d="M83.144 215.15C83.0926 215.152 82.4546 210.908 83.1383 203.744 83.8235 196.564 85.8988 186.656 91.4361 176.308 91.4361 176.308 91.4361 176.308 91.4361 176.308 93.4969 172.457 95.9934 168.636 98.9532 164.955 105.113 157.296 112.189 151.59 119.046 147.562 133.375 139.146 144.566 138.819 144.538 138.662 144.578 138.891 133.317 140.192 119.602 148.495 112.901 152.552 105.984 158.207 99.9272 165.738 97.0164 169.357 94.5503 173.106 92.5009 176.881L92.5009 176.881C86.9933 187.023 84.7938 196.741 83.9038 203.827 83.0198 210.865 83.289 215.142 83.1439 215.148Z" fill="#E6A9BD" fill-rule="evenodd" fill-opacity="0.231373"/><path d="M125.58 164.11C122.779 161.65 119.349 161.089 113.883 166.682 114.976 164.301 116.042 161.892 116.027 158.315 114.239 161.398 106.142 167.082 103.252 174.813 104.506 171.342 104.305 168.549 104.044 165.784 103.096 170.168 86.0226 181.475 87.9826 214.755 93.6797 191.717 104.995 175.421 111.737 173.166 108.94 177.687 106.021 182.473 102.829 186.31 96.8765 193.466 90.6478 205.971 87.9828 214.755 93.0945 201.971 101.469 199.133 109.143 191.144 108.032 189.315 107.055 189.08 106.057 188.602 108.711 187.284 111.249 186.431 113.46 184.835 115.497 183.366 116.724 180.589 119.426 179.958 118.283 178.488 117.101 177.217 115.674 177.217 119.231 173.585 121.161 167.041 125.58 164.11Z" fill="#E6A9BD" fill-opacity="0.231373"/><path d="M77.655 124.87C80.2331 125.334 85.0935 131.602 86.5823 137.975 86.7153 136.037 86.8739 134.101 88.1024 132.229 88.1624 134.973 91.254 143.044 90.4136 148.923 90.8179 146.311 91.8944 144.968 92.9992 143.678 92.0937 146.579 95.3982 162.477 89.0925 175.4 92.2125 159.126 87.4146 147.324 85.7055 142.732 85.9018 146.865 86.0833 151.214 86.758 155.236 88.0161 162.736 90.3982 169.169 89.0595 175.462 90.2418 165.531 83.2318 162.835 81.189 153.816 82.5023 153.551 83.1895 154.041 83.9721 154.416 82.7732 152.058 81.4876 150.016 80.6579 147.788 79.8938 145.738 80.078 143.507 78.6155 141.479 79.8263 141.423 80.9931 141.496 81.8793 142.392 78.6365 137.448 80.8713 129.454 77.6552 124.871Z" fill="#E6A9BD" fill-opacity="0.231373"/><path d="M103.2 117.85C103.092 117.815 103.883 114.232 106.354 108.833 108.869 103.338 112.954 96.4356 119.323 89.7786 120.037 89.0327 120.759 88.3113 121.487 87.6143L121.487 87.6143C127.596 81.7699 133.818 77.9484 138.685 75.5573 143.485 73.1999 146.635 72.3591 146.674 72.4644 146.732 72.6167 143.703 73.7867 139.073 76.3071 134.355 78.8757 128.336 82.7415 122.349 88.5121L122.349 88.5121C121.636 89.1995 120.928 89.9096 120.226 90.6427 113.961 97.1908 109.848 103.875 107.15 109.216 104.514 114.435 103.364 117.904 103.2 117.85Z" fill="#E6A9BD" fill-rule="evenodd" fill-opacity="0.231373"/><path d="M113.55 87.993C113.449 87.951 114.5 84.516 117.337 79.3999 120.218 74.2051 124.765 67.6819 131.572 61.5519L131.572 61.5519C131.948 61.2131 132.33 60.8766 132.718 60.5427 139.943 54.3197 147.337 50.5257 153.173 48.2877 158.912 46.0869 162.668 45.5261 162.695 45.6316 162.737 45.7988 159.07 46.7316 153.505 49.1068 147.813 51.5359 140.638 55.3701 133.534 61.4898 133.153 61.818 132.777 62.1483 132.407 62.4806L132.407 62.4807C125.703 68.4967 121.136 74.8046 118.086 79.8336 115.097 84.7611 113.705 88.0574 113.55 87.9927Z" fill="#E6A9BD" fill-rule="evenodd" fill-opacity="0.231373"/><path d="M95.338 146.79C95.1974 146.817 94.7237 144.481 93.326 140.784 91.9184 137.06 89.5278 132.066 85.3834 127.142L85.3834 127.142C83.7006 125.142 81.7649 123.2 79.5691 121.387 75.6712 118.171 71.5707 115.869 67.6751 114.29 58.6458 110.63 51.6501 110.926 51.6501 110.685 51.6501 110.682 58.5282 109.617 68.0811 113.257 72.1098 114.792 76.3558 117.115 80.3641 120.423 82.6219 122.287 84.6016 124.297 86.3081 126.372L86.3081 126.372C90.51 131.483 92.8161 136.679 94.0443 140.533 95.2698 144.379 95.4291 146.772 95.3373 146.789Z" fill="#E6A9BD" fill-rule="evenodd" fill-opacity="0.231373"/><path d="M93.59 163.67C93.4311 163.603 94.6242 160.637 96.0009 155.698 97.4156 150.624 98.8212 143.952 99.1759 135.999 99.4872 129.02 98.9043 122.947 98.0776 118 97.0486 111.841 95.8424 108.012 96.0262 107.952 96.1549 107.911 97.7503 111.613 99.0227 117.824 100.039 122.785 100.74 128.979 100.425 136.055 100.065 144.115 98.4943 150.911 96.8466 155.954 95.233 160.893 93.7108 163.721 93.5899 163.67Z" fill="#E6A9BD" fill-rule="evenodd" fill-opacity="0.231373"/><path d="M95.338 139.42C94.9932 139.432 94.703 133.868 92.1895 127.692 91.4983 125.994 90.743 124.469 89.9769 123.106 87.9525 119.503 86.0504 117.281 86.2357 117.111 86.3871 116.973 88.6655 118.875 90.9516 122.527 91.8076 123.895 92.632 125.463 93.3473 127.221 96.0112 133.766 95.6571 139.409 95.338 139.42Z" fill="#E6A9BD" fill-rule="evenodd" fill-opacity="0.231373"/><path d="M340.1 254.77C328.255 266.506 305.585 268.138 312.12 293.038 297.129 265.123 278.139 276.754 258.231 272.487 267.81 288.221 260.702 308.866 295.799 313.591 237.234 320.731 251.313 350.724 237.93 375.882 266.458 368.629 297.498 387.806 314.856 330.946 307.552 394.707 340.905 386.312 363.282 405.098 362.247 378.876 382.183 355.071 349.673 329.805 382.027 342.09 391.859 322.786 413.786 315.928 391.318 306.836 382.147 283.35 341.235 300.813 362.597 281.167 343.593 270.784 340.1 254.77ZM334.956 272.266C334.099 277.087 332.733 284.312 330.166 293.149 328.441 299.076 326.612 304.158 324.956 308.35 325.338 308.521 325.7 308.709 326.04 308.914 326.292 308.811 326.561 308.709 326.821 308.606 328.146 306.957 329.501 305.047 330.776 302.817 334.373 296.483 335.689 290.497 336.131 286.692 335.687 290.513 334.594 296.497 331.155 303.024 330.158 304.927 329.086 306.622 328.01 308.135 328.516 307.944 329.051 307.758 329.581 307.571 330.641 306.538 331.727 305.407 332.819 304.155 335.37 301.296 337.228 298.621 338.268 296.889 337.186 298.692 335.598 301.337 333.149 304.432 332.363 305.403 331.574 306.295 330.79 307.147 334.062 306.047 337.728 305.042 341.769 304.299 347.132 303.383 351.405 303.204 354.3 303.092 351.507 303.2 347.042 303.654 341.872 304.821 337.184 305.816 333.056 307.141 329.476 308.532 329.116 308.897 328.758 309.258 328.405 309.598 332.758 308.605 337.861 307.736 343.583 307.315 352.19 306.709 359.116 307.302 363.657 307.795 359.192 307.31 352.089 306.968 343.63 307.844 337.646 308.444 332.424 309.505 328.021 310.641 328.096 310.731 328.167 310.822 328.234 310.914 332.776 310.446 338.105 310.154 344.037 310.315 353.152 310.565 360.514 311.767 365.877 312.844 360.532 311.836 352.967 310.849 344.031 310.846 338.242 310.842 333.109 311.249 328.711 311.787 328.923 312.269 329.049 312.768 329.086 313.274 335.825 313.952 343.882 314.633 353.373 315.049 367.177 315.662 378.764 315.474 386.041 315.153 378.547 315.483 367.405 315.919 353.355 315.58 344.012 315.351 335.835 314.818 329.035 314.235 328.961 314.721 328.807 315.203 328.574 315.672 331.635 316.643 335.108 317.588 339.008 318.358 349.831 320.457 359.025 320.26 364.817 319.713 358.98 320.264 349.899 320.72 338.915 318.879 334.914 318.222 331.3 317.355 328.12 316.438 328.059 316.526 327.995 316.613 327.929 316.7 330.753 318.011 333.966 319.363 337.607 320.629 342.807 322.491 347.357 323.635 350.212 324.188 347.227 323.61 342.884 322.777 337.441 321.133 333.786 319.995 330.502 318.738 327.607 317.497 331.4 320.221 335.495 323.724 339.437 328.192 343.279 332.673 345.735 336.642 347.362 339.317 345.785 336.723 342.957 332.758 338.966 328.618 334.747 324.113 330.441 320.702 326.517 318.077 326.296 318.246 326.063 318.409 325.82 318.565 329.373 322.119 333.235 326.569 336.89 332.03 341.44 338.883 344.178 345.019 345.981 349.579 344.12 345.074 341.051 338.918 336.366 332.39 332.481 326.935 328.458 322.591 324.811 319.14 324.661 319.212 324.509 319.282 324.354 319.349 327.365 323.464 330.627 328.536 333.653 334.554 338.824 344.843 341.325 353.861 342.737 359.767 341.34 353.924 338.498 344.859 333.09 334.849 329.823 328.797 326.384 323.807 323.268 319.777 322.737 319.958 322.186 320.11 321.62 320.23 324.421 327.488 328.112 336.485 333.001 346.771 339.443 360.348 345.67 371.281 349.817 378.037 345.56 371.104 339.28 360.692 332.43 347.051 327.336 336.892 323.35 327.738 320.416 320.436 320.048 320.486 319.678 320.523 319.306 320.547 319.222 320.55 319.137 320.552 319.052 320.553 319.464 324.825 320.236 329.821 321.738 335.346 324.931 346.953 329.939 355.698 333.549 360.914 329.917 355.665 324.685 347.165 321.129 335.523 319.456 330.104 318.501 325.104 317.959 320.804 317.787 325.036 317.821 330.002 318.381 335.595 318.935 341.757 319.972 346.907 320.805 350.058 319.936 346.772 318.662 341.972 317.75 335.669 317.028 330.305 316.809 325.423 316.842 321.222 314.927 325.887 312.181 331.19 308.195 336.562 304.611 341.252 301.241 344.481 298.963 346.628 301.171 344.546 304.459 340.956 307.68 336.19 311.602 330.561 314.194 325.096 315.969 320.366 315.782 320.336 315.596 320.303 315.412 320.266 312.603 324.719 308.846 329.795 303.912 334.868 298.158 340.742 292.728 344.695 288.644 347.408 292.663 344.649 298.043 340.368 303.451 334.43 308.121 329.341 311.611 324.35 314.258 319.969 314.116 319.925 313.975 319.878 313.836 319.829 310.418 323.665 306.091 327.966 300.77 332.229 291.782 339.427 283.482 343.746 277.999 346.356 283.424 343.774 291.7 339.11 300.366 331.739 305.433 327.431 309.487 323.176 312.729 319.385 312.084 319.079 311.501 318.721 310.993 318.318 304.714 322.446 297.143 327.66 288.686 334.13 276.745 343.255 267.347 351.619 261.602 357.081 267.498 351.476 276.375 343.167 288.293 333.63 296.404 327.148 303.889 321.741 310.107 317.505 309.637 316.982 309.285 316.414 309.06 315.818 305.545 317.033 301.652 318.611 297.517 320.738 286.828 326.275 279.316 332.992 274.964 337.607 279.343 332.963 286.568 326.077 297.216 320.177 301.315 317.89 305.238 316.147 308.794 314.8 308.778 314.695 308.767 314.589 308.759 314.483 308.759 314.461 308.76 314.438 308.761 314.415 305.106 315.116 301.014 316.086 296.575 317.505 290.663 319.329 285.84 321.414 282.93 322.884 285.963 321.351 290.396 319.107 296.371 316.903 300.678 315.364 304.716 314.253 308.355 313.433 305.741 312.89 302.943 312.141 300.017 311.083 295.9 309.529 292.857 307.883 290.802 306.763 292.785 307.844 296.08 309.367 300.165 310.653 303.29 311.686 306.255 312.384 308.982 312.854 309.086 312.515 309.23 312.18 309.412 311.852 306.648 310.886 303.668 309.662 300.568 308.089 294.483 304.97 290.084 301.638 287.263 299.38 290.04 301.603 294.666 304.824 300.767 307.681 303.972 309.197 307.013 310.341 309.816 311.233 309.993 310.997 310.191 310.768 310.407 310.546 307.781 309.218 304.956 307.619 302.026 305.673 296.098 301.727 291.806 297.773 288.788 294.741 291.831 297.718 296.353 301.599 302.272 305.29 305.349 307.211 308.275 308.749 310.97 310.014 311.494 309.569 312.097 309.165 312.765 308.811 308.805 305.692 304.12 302.142 298.519 298.274 289.494 292.036 281.578 287.378 276.498 284.606 281.712 287.452 289.472 291.763 298.775 297.897 304.539 301.702 309.462 305.282 313.576 308.42 314.142 308.172 314.741 307.961 315.365 307.787 313.918 305.89 312.21 303.862 310.158 301.793 303.998 295.632 297.676 291.989 293.513 290.057 297.698 292 304.078 295.414 310.476 301.469 312.699 303.558 314.567 305.639 316.14 307.592 316.294 307.559 316.449 307.527 316.605 307.499 315.483 305.39 314.126 303.094 312.439 300.684 310.013 297.147 307.609 294.415 306.009 292.817 307.671 294.477 310.112 296.924 312.806 300.417 314.645 302.85 316.148 305.207 317.382 307.376 317.766 307.322 318.154 307.282 318.542 307.257 318.587 307.255 318.631 307.254 318.675 307.253 317.926 304.638 317.359 301.626 317.247 298.26 317.188 294.68 317.65 291.877 317.976 290.012 317.659 291.825 317.395 294.767 317.679 298.239 317.901 301.648 318.577 304.655 319.411 307.237 319.723 307.237 320.034 307.246 320.343 307.264 320.094 304.451 320.077 301.221 320.529 297.702 321.276 292.067 322.937 287.752 324.12 285.013 322.949 287.723 321.465 292.18 320.956 297.749 320.615 301.315 320.743 304.543 321.077 307.329 321.316 307.354 321.554 307.386 321.788 307.423 322.063 304.619 322.602 301.426 323.579 298.007 325.227 292.247 327.518 287.867 329.392 284.755 327.574 287.883 325.422 292.425 323.995 298.118 323.126 301.586 322.701 304.77 322.513 307.551 323.111 307.681 323.687 307.847 324.232 308.049 325.947 303.928 327.868 298.961 329.751 293.022 332.498 284.383 334.118 276.975 334.954 272.264ZM327.86 309.176C327.551 309.303 327.252 309.431 326.954 309.559 326.953 309.56 326.952 309.562 326.952 309.563 327.035 309.628 327.116 309.694 327.196 309.762 327.415 309.57 327.636 309.377 327.86 309.176Z" fill="#E6A9BD" fill-rule="evenodd" fill-opacity="0.231373" transform="scale(0.26458 0.26458)"/><path d="M244.45 555.49C232.622 567.244 209.953 568.909 216.528 593.802 201.495 565.904 182.521 577.565 162.606 573.327 172.209 589.047 165.133 609.704 200.237 614.376 141.68 621.603 155.805 651.575 142.46 676.753 170.978 669.458 202.046 688.588 219.319 631.696 212.107 695.474 245.448 687.028 267.854 705.782 266.78 679.563 286.68 655.727 254.137 630.511 286.506 642.744 296.309 623.426 318.225 616.536 295.743 607.477 286.536 584.006 245.651 601.53 266.984 581.852 247.967 571.498 244.45 555.489ZM239.331 572.992C238.482 577.815 237.126 585.044 234.573 593.885 232.856 599.814 231.034 604.897 229.384 609.092 229.766 609.262 230.128 609.45 230.468 609.654 230.721 609.55 230.991 609.448 231.251 609.344 232.573 607.693 233.925 605.78 235.196 603.549 238.784 597.21 240.091 591.223 240.528 587.418 240.089 591.24 239.005 597.224 235.575 603.756 234.581 605.661 233.512 607.358 232.438 608.873 232.944 608.681 233.48 608.495 234.009 608.307 235.068 607.273 236.151 606.139 237.241 604.885 239.788 602.022 241.641 599.345 242.679 597.612 241.599 599.416 240.017 602.063 237.573 605.162 236.788 606.134 236 607.028 235.218 607.881 238.489 606.776 242.153 605.767 246.193 605.018 251.555 604.093 255.827 603.907 258.722 603.791 255.929 603.903 251.464 604.363 246.296 605.537 241.609 606.54 237.483 607.872 233.903 609.268 233.544 609.633 233.188 609.994 232.836 610.334 237.187 609.335 242.289 608.459 248.01 608.03 256.616 607.411 263.543 607.994 268.084 608.481 263.618 608.002 256.514 607.67 248.057 608.559 242.074 609.168 236.853 610.234 232.452 611.377 232.527 611.468 232.598 611.56 232.665 611.653 237.206 611.178 242.535 610.877 248.468 611.03 257.56 611.266 264.909 612.451 270.271 613.518 264.926 612.52 257.376 611.549 248.462 611.559 242.673 611.563 237.541 611.978 233.144 612.524 233.357 613.005 233.483 613.504 233.521 614.01 240.261 614.678 248.32 615.348 257.812 615.75 271.617 616.342 283.201 616.137 290.478 615.805 282.984 616.147 271.845 616.597 257.794 616.28 248.45 616.064 240.273 615.544 233.472 614.971 233.399 615.457 233.245 615.939 233.013 616.408 236.076 617.375 239.549 618.315 243.451 619.078 254.277 621.161 263.473 620.952 269.263 620.397 263.427 620.956 254.344 621.424 243.357 619.6 239.355 618.948 235.742 618.088 232.56 617.176 232.498 617.263 232.434 617.35 232.367 617.436 235.193 618.743 238.409 620.093 242.052 621.354 247.256 623.207 251.808 624.344 254.663 624.893 251.678 624.319 247.333 623.493 241.886 621.858 238.231 620.725 234.945 619.473 232.048 618.237 235.845 620.956 239.946 624.452 243.894 628.913 247.743 633.388 250.205 637.354 251.836 640.026 250.254 637.435 247.421 633.475 243.424 629.34 239.198 624.841 234.887 621.436 230.959 618.817 230.739 618.986 230.507 619.149 230.263 619.305 233.822 622.854 237.688 627.299 241.351 632.754 245.904 639.588 248.65 645.709 250.461 650.264 248.591 645.764 245.516 639.625 240.83 633.116 236.937 627.667 232.907 623.327 229.256 619.882 229.106 619.955 228.953 620.025 228.797 620.093 231.814 624.204 235.086 629.27 238.121 635.284 243.307 645.565 245.821 654.577 247.242 660.481 245.837 654.64 242.981 645.581 237.559 635.579 234.282 629.532 230.832 624.548 227.711 620.522 227.181 620.704 226.63 620.856 226.064 620.977 228.877 628.231 232.583 637.221 237.486 647.5 243.949 661.068 250.191 671.991 254.35 678.74 250.082 671.813 243.786 661.41 236.915 647.779 231.807 637.628 227.805 628.481 224.861 621.183 224.494 621.234 224.124 621.272 223.753 621.296 223.668 621.299 223.584 621.301 223.499 621.302 223.917 625.574 224.696 630.568 226.206 636.091 229.416 647.693 234.437 656.43 238.054 661.642 234.415 656.398 229.171 647.906 225.597 636.269 223.918 630.856 222.954 625.861 222.406 621.564 222.24 625.794 222.283 630.757 222.851 636.345 223.415 642.507 224.457 647.656 225.294 650.806 224.421 647.521 223.142 642.721 222.22 636.419 221.49 631.056 221.264 626.177 221.291 621.976 219.383 626.644 216.643 631.95 212.666 637.328 209.089 642.024 205.721 645.257 203.447 647.408 205.652 645.322 208.937 641.727 212.15 636.957 216.064 631.322 218.648 625.854 220.416 621.121 220.228 621.092 220.043 621.059 219.859 621.023 217.056 625.48 213.307 630.56 208.38 635.64 202.645 641.512 197.229 645.469 193.151 648.187 197.163 645.423 202.527 641.14 207.917 635.205 212.579 630.109 216.062 625.111 218.702 620.726 218.559 620.682 218.417 620.635 218.278 620.586 214.865 624.427 210.546 628.735 205.231 633.006 196.253 640.217 187.96 644.55 182.481 647.168 187.901 644.578 196.171 639.902 204.827 632.518 209.888 628.202 213.936 623.94 217.173 620.145 216.527 619.84 215.943 619.483 215.435 619.082 209.162 623.219 201.599 628.444 193.152 634.928 181.225 644.071 171.838 652.448 166.101 657.918 171.989 652.304 180.855 643.983 192.759 634.428 200.861 627.933 208.338 622.515 214.55 618.27 214.079 617.747 213.725 617.18 213.499 616.585 209.985 617.805 206.096 619.389 201.964 621.522 191.283 627.075 183.782 633.803 179.437 638.424 183.809 633.774 191.025 626.877 201.664 620.961 205.761 618.668 209.68 616.919 213.234 615.567 213.218 615.462 213.205 615.357 213.197 615.252 213.197 615.229 213.198 615.205 213.199 615.182 209.545 615.888 205.454 616.866 201.017 618.291 195.107 620.124 190.289 622.216 187.382 623.69 190.413 622.153 194.842 619.902 200.814 617.69 205.118 616.144 209.157 615.027 212.794 614.201 210.179 613.663 207.377 612.917 204.45 611.864 200.331 610.315 197.286 608.674 195.229 607.557 197.214 608.635 200.511 610.153 204.598 611.434 207.725 612.462 210.691 613.157 213.419 613.623 213.522 613.283 213.665 612.948 213.846 612.619 211.081 611.657 208.1 610.438 204.997 608.869 198.907 605.76 194.503 602.433 191.679 600.18 194.459 602.399 199.092 605.614 205.197 608.461 208.404 609.973 211.448 611.112 214.252 612 214.428 611.763 214.625 611.532 214.841 611.309 212.214 609.985 209.384 608.393 206.453 606.451 200.552 602.537 196.271 598.611 193.25 595.59 196.296 598.556 200.806 602.407 206.699 606.069 209.778 607.986 212.705 609.519 215.402 610.78 215.926 610.334 216.529 609.929 217.197 609.575 213.232 606.462 208.542 602.919 202.935 599.059 193.9 592.834 185.978 588.189 180.894 585.424 186.112 588.262 193.876 592.562 203.189 598.682 208.958 602.478 213.887 606.049 218.005 609.182 218.57 608.933 219.169 608.72 219.792 608.545 218.343 606.651 216.634 604.626 214.579 602.561 208.41 596.408 202.08 592.774 197.915 590.848 202.103 592.784 208.488 596.189 214.895 602.235 217.121 604.32 218.993 606.399 220.569 608.35 220.723 608.316 220.878 608.284 221.034 608.255 219.909 606.148 218.549 603.855 216.858 601.448 214.426 597.914 212.018 595.186 210.416 593.591 212.081 595.248 214.526 597.692 217.225 601.18 219.067 603.611 220.572 605.965 221.809 608.132 222.193 608.077 222.58 608.036 222.969 608.01 223.014 608.009 223.059 608.008 223.104 608.007 222.351 605.393 221.779 602.382 221.663 599.016 221.598 595.436 222.056 592.633 222.379 590.768 222.065 592.582 221.804 595.523 222.094 598.995 222.321 602.404 223 605.409 223.838 607.989 224.15 607.988 224.461 607.997 224.77 608.014 224.517 605.202 224.496 601.971 224.942 598.452 225.681 592.816 227.336 588.5 228.516 585.759 227.349 588.471 225.872 592.931 225.371 598.501 225.035 602.068 225.166 605.294 225.504 608.079 225.743 608.104 225.98 608.135 226.215 608.171 226.485 605.367 227.02 602.175 227.993 598.755 229.636 592.977 231.929 588.586 233.801 585.47 231.985 588.602 229.832 593.156 228.411 598.866 227.546 602.335 227.124 605.519 226.94 608.299 227.539 608.427 228.115 608.593 228.661 608.794 230.369 604.669 232.284 599.702 234.159 593.761 236.893 585.117 238.501 577.706 239.33 572.993ZM232.292 609.914C231.983 610.042 231.683 610.169 231.384 610.297L231.384 610.299C231.468 610.365 231.55 610.432 231.63 610.5 231.849 610.308 232.069 610.115 232.292 609.914Z" fill="#E6A9BD" fill-rule="evenodd" fill-opacity="0.231373" transform="scale(0.26458 0.26458)"/><path d="M615.88 413.76C607.166 433.315 582.726 440.158 601.394 476.834 555.873 425.565 536.497 458.843 503.599 462.67 529.386 485.157 531.56 527.51 597.406 506.531 531.604 541.68 561.671 568.024 558.494 601.836 582.883 583.52 618.82 586.854 621.498 539.074 631.131 578.126 656.085 574.772 677.131 591.207 670.981 563.726 687.363 539.447 643.699 511.881 676.578 519.31 673.92 494.257 686.922 480.338 667.885 476.769 651.352 456.194 631.877 478.828 648.635 446.07 624.953 435.608 615.881 413.76ZM616.362 439.239C617.087 446.105 618.09 456.371 618.372 469.321 618.542 477.294 618.389 484.454 618.109 490.438 618.714 490.813 619.307 491.242 619.88 491.719 620.738 489.083 621.547 486.111 622.169 482.782 623.991 472.82 623.295 464.366 622.392 459.11 623.3 464.395 624.253 472.75 622.691 482.87 622.163 486.375 621.406 489.538 620.577 492.333 620.712 492.458 620.845 492.585 620.976 492.715 622.251 490.249 623.549 487.435 624.737 484.229 626.517 479.572 627.54 475.469 628.011 472.883 627.521 475.57 626.796 479.521 625.235 484.404 624.124 487.77 622.862 490.763 621.605 493.375 621.91 493.707 622.204 494.052 622.485 494.408 622.516 494.45 622.545 494.491 622.575 494.533 624.581 492.088 627.088 489.556 630.234 487.224 633.618 484.802 636.602 483.392 638.601 482.472 636.658 483.367 633.67 485.058 630.538 487.625 627.425 490.09 624.998 492.722 623.081 495.226 623.286 495.523 623.482 495.826 623.667 496.133 626.193 494.035 629.272 491.886 632.935 489.992 638.076 487.362 642.635 486.101 645.994 485.363 642.666 486.155 638.08 487.667 633.174 490.435 629.538 492.466 626.537 494.72 624.094 496.881 624.227 497.125 624.353 497.371 624.473 497.619 627.335 496.029 630.744 494.436 634.661 493.111 642.376 490.503 649.005 489.944 653.276 489.785 649.039 489.943 642.356 490.759 634.831 493.584 630.94 495.044 627.612 496.741 624.829 498.398 625.1 499.056 625.32 499.716 625.487 500.371 630.561 499.287 636.582 497.844 643.507 495.721 653.584 492.638 661.735 489.291 666.792 486.978 661.616 489.346 653.805 492.814 643.659 496.199 636.905 498.447 630.766 500.098 625.686 501.283 625.772 501.753 625.83 502.216 625.858 502.668 626.124 502.841 626.399 503.032 626.67 503.213 629.122 503.39 631.845 503.423 634.819 503.168 643.251 502.422 649.846 499.725 653.776 497.635 649.828 499.734 643.384 502.644 634.87 503.668 632.39 503.973 630.063 504.068 627.905 504.039 628.423 504.397 628.955 504.787 629.485 505.17 631.172 505.501 632.971 505.79 634.889 506.006 639.309 506.556 643.091 506.566 645.434 506.416 642.995 506.572 639.42 506.802 634.842 506.506 633.395 506.395 632.02 506.232 630.688 506.045 633.902 508.447 637.283 511.288 640.662 514.66 645.083 519.183 648.078 523.152 650.098 525.846 648.15 523.247 644.767 519.277 640.235 515.104 636.184 511.278 632.186 508.208 628.489 505.702 627.903 505.6 627.325 505.496 626.768 505.383 630.593 508.889 634.795 513.197 638.979 518.389 644.488 525.272 648.177 531.424 650.725 536.006 648.135 531.49 644.104 525.323 638.504 518.781 633.976 513.456 629.511 509.165 625.516 505.705 625.478 505.835 625.437 505.963 625.393 506.088 628.842 510.122 632.645 515.026 636.411 520.805 642.203 529.701 645.92 537.543 648.434 543.385 645.866 537.606 641.809 529.706 635.899 521.147 632.078 515.609 628.295 510.971 624.874 507.122 624.554 507.643 624.161 508.092 623.702 508.462 627.507 515.354 632.178 523.509 638.052 532.86 646.588 546.464 654.423 557.418 659.538 564.165 654.27 557.217 646.493 546.853 637.532 533.194 631.623 524.177 626.651 515.917 622.729 509.059 622.22 509.304 621.664 509.471 621.069 509.557 622.163 513.126 623.555 517.071 625.397 521.309 630.541 533.045 636.806 541.707 641.155 546.883 636.771 541.666 630.333 533.282 624.835 521.563 622.82 517.302 621.261 513.276 620.036 509.629 619.912 509.628 619.786 509.623 619.659 509.615 620.271 513.183 621.103 517.15 622.298 521.469 623.955 527.672 625.868 532.78 627.226 535.875 625.806 532.639 623.732 527.935 621.706 521.643 620.38 517.395 619.411 513.426 618.685 509.836 618.586 515.264 617.944 521.493 616.276 528.215 614.53 534.85 612.358 539.821 610.876 543.145 612.313 539.923 614.235 534.602 615.558 528.049 617.077 521.039 617.492 514.665 617.409 509.178 617.102 509.079 616.794 508.965 616.485 508.835 615.435 514.581 613.73 521.213 610.923 528.315 606.871 538.462 602.073 545.894 598.798 550.635 602.029 545.957 606.606 538.191 610.234 528.055 612.883 520.735 614.378 514.017 615.269 508.25 615.1 508.154 614.932 508.055 614.765 507.951 612.819 513.549 610.126 520.02 606.371 526.89 599.949 538.633 592.98 546.983 588.266 552.236 592.929 547.039 599.721 538.332 605.719 526.547 609.346 519.423 611.845 512.836 613.641 507.193 613.116 506.806 612.606 506.379 612.117 505.917 607.028 513.392 600.865 522.868 594.26 534.339 585.534 549.47 579.196 562.647 575.477 571.077 579.294 562.426 585.1 549.539 593.618 533.975 599.966 522.392 606.084 512.533 611.128 504.903 610.837 504.585 610.557 504.255 610.288 503.915 610.23 503.836 610.172 503.757 610.115 503.677 606.301 506.893 602.034 510.931 597.744 516.019 588.755 526.742 583.703 537.31 581.099 544.208 583.718 537.267 588.388 526.647 597.171 515.554 601.242 510.38 605.387 506.166 609.138 502.808 604.981 505.438 600.26 508.747 595.288 512.974 589.762 517.576 585.52 521.971 583.057 524.849 585.626 521.847 589.376 517.458 594.799 512.421 599.452 508.186 603.973 504.749 608.013 502.005 602.287 503.257 595.402 504.135 587.632 503.874 580.779 503.546 575.464 502.455 571.905 501.696 575.355 502.432 580.96 503.205 587.645 503.136 595.62 503.167 602.56 502.033 608.255 500.605 608.16 500.407 608.069 500.208 607.982 500.009 601.868 500.265 594.532 500.025 586.42 498.659 575.652 496.806 567.385 493.66 562.066 491.442 567.313 493.631 575.864 496.489 586.533 497.929 594.485 499.031 601.564 499.071 607.502 498.706 607.451 498.54 607.404 498.375 607.359 498.21 601.432 497.476 594.461 496.181 586.867 493.909 574.046 490.07 564.43 484.99 558.31 481.471 564.363 484.952 574.292 489.782 587.068 493.198 594.537 495.197 601.284 496.262 607.051 496.858 606.916 496.039 606.873 495.245 606.922 494.493 598.826 491.216 588.839 487.423 577.063 483.612 560.448 478.224 546.241 474.764 537.221 472.88 546.477 474.814 560.288 477.813 577.283 482.907 588.842 486.38 598.955 489.963 607.115 493.11 607.304 492.315 607.614 491.602 608.035 490.993 604.55 488.435 600.469 485.756 595.705 483.208 583.347 476.646 571.961 473.902 564.672 472.79 572.006 473.908 583.366 476.266 596.043 482.55 600.939 484.959 605.198 487.556 608.836 490.067 608.925 489.984 609.018 489.904 609.113 489.827 609.135 489.812 609.158 489.797 609.181 489.782 606.096 486.75 602.462 483.48 598.171 480.173 592.52 475.725 587.34 472.489 584.013 470.678 587.483 472.566 592.558 475.321 598.613 479.579 602.931 482.68 606.663 485.809 609.851 488.747 608.643 485.889 607.511 482.716 606.59 479.22 605.355 474.256 604.917 470.261 604.631 467.556 604.907 470.166 605.628 474.322 607.097 479.079 608.175 482.75 609.466 486.045 610.818 488.963 611.212 488.838 611.627 488.754 612.06 488.711 611.158 485.43 610.361 481.773 609.816 477.768 608.903 470.844 609.016 465.155 609.256 461.01 609.078 465.13 609.206 470.966 610.338 477.69 611.005 481.758 611.921 485.421 612.92 488.69 613.263 488.704 613.614 488.741 613.97 488.802 613.504 485.413 613.164 481.655 613.09 477.568 612.945 469.29 613.89 462.571 614.795 457.681 613.958 462.557 613.236 469.448 613.619 477.55 613.814 481.761 614.276 485.575 614.847 488.988 615.62 489.194 616.405 489.504 617.185 489.91 617.552 484.062 617.848 477.238 617.845 469.326 617.847 456.574 617.071 445.928 616.365 439.238ZM625.841 503.969C625.834 504.093 625.824 504.216 625.812 504.338 626.14 504.422 626.47 504.503 626.81 504.584 626.484 504.373 626.165 504.171 625.845 503.969 625.844 503.969 625.842 503.969 625.841 503.969Z" fill="#E6A9BD" fill-rule="evenodd" fill-opacity="0.231373" transform="scale(0.26458 0.26458)"/><path d="M701.34 906.86C679.81 927.862 640.693 926.601 657.99 986.096 627.62 925.578 602.4 950.056 571.324 944.727 587.457 967.558 583.271 998.924 627.244 1004.86 590.937 1010.41 593.258 1032.62 577.453 1049.9 602.992 1046.55 624.879 1062.8 651.662 1026.39 643.78 1054.78 666.941 1054.34 679.375 1066.83 683.258 1050.33 702.763 1037.32 682.432 1018.47 712.139 1035.7 722.529 1015.66 742.961 1009.31 725.199 1000.18 719.642 978.168 685.24 991.85 733.938 955.636 703.85 936.094 701.34 906.86ZM690.885 935.672C688.82 943.659 685.621 955.587 680.389 970.162 676.825 980.071 673.204 988.702 670.047 995.646 670.791 995.875 671.451 996.208 672.008 996.634 674.47 993.763 677.064 990.369 679.563 986.355 685.986 975.966 688.87 966.141 690.118 959.832 688.863 966.177 686.326 976.005 680.135 986.699 677.761 990.829 675.236 994.376 672.813 997.383 672.89 997.471 672.964 997.562 673.034 997.655 673.051 997.682 673.068 997.709 673.084 997.737 675.971 995.253 679.099 992.295 682.289 988.75 686.546 984.121 689.687 979.804 691.465 977.008 689.613 979.921 686.9 984.187 682.792 989.188 679.784 992.773 676.779 995.829 673.971 998.413 676.666 997.55 679.647 996.78 682.905 996.226 687.532 995.502 691.216 995.424 693.708 995.382 691.303 995.423 687.454 995.743 682.993 996.694 679.597 997.37 676.522 998.264 673.782 999.241 673.882 999.595 673.945 999.965 673.969 1000.35 677.037 999.793 680.441 999.357 684.143 999.173 691.473 998.837 697.346 999.574 701.18 1000.16 697.406 999.583 691.378 999.067 684.172 999.649 680.42 999.938 677.015 1000.47 673.961 1001.11 673.938 1001.41 673.894 1001.71 673.829 1002.01 676.978 1001.85 680.459 1001.83 684.225 1002.07 691.913 1002.56 698.076 1003.9 702.543 1005.07 698.085 1003.97 691.744 1002.81 684.201 1002.55 680.324 1002.41 676.793 1002.54 673.621 1002.78 673.408 1003.44 673.103 1004.1 672.712 1004.74 678.087 1005.51 684.367 1006.28 691.675 1006.87 703.399 1007.83 713.25 1007.95 719.452 1007.83 713.08 1007.95 703.572 1008.06 691.641 1007.35 684.229 1006.9 677.716 1006.22 672.192 1005.53 671.829 1006.03 671.416 1006.52 670.96 1006.98 673.363 1007.94 676.077 1008.87 679.132 1009.67 688.197 1012 696.027 1012.03 700.944 1011.65 695.995 1012.03 688.244 1012.24 679.02 1010.13 675.796 1009.41 672.901 1008.51 670.35 1007.57 670.239 1007.67 670.127 1007.77 670.012 1007.87 672.246 1009.18 674.797 1010.53 677.713 1011.82 681.946 1013.73 685.699 1014.95 688.07 1015.56 685.602 1014.92 681.983 1013.99 677.529 1012.26 674.458 1011.03 671.733 1009.69 669.361 1008.39 669.05 1008.63 668.727 1008.86 668.394 1009.08 668.365 1009.1 668.335 1009.12 668.305 1009.14 670.479 1011.07 672.72 1013.46 674.771 1016.42 676.879 1019.57 678.1 1022.31 678.9 1024.15 678.123 1022.37 676.648 1019.61 674.404 1016.69 672.221 1013.74 669.874 1011.41 667.633 1009.54 667.358 1009.69 667.078 1009.84 666.795 1009.98 668.636 1012.34 670.509 1015.21 672.137 1018.59 674.685 1023.96 675.71 1028.67 676.256 1031.74 675.717 1028.7 674.454 1023.96 671.732 1018.8 669.973 1015.41 667.993 1012.6 666.084 1010.3 665.856 1010.4 665.627 1010.49 665.397 1010.58 666.763 1013.2 668.116 1016.32 669.209 1019.88 671.031 1025.82 671.512 1030.92 671.643 1034.68 671.454 1030.94 670.756 1025.77 668.777 1020.02 667.555 1016.46 666.098 1013.4 664.66 1010.84 664.039 1011.03 663.418 1011.18 662.803 1011.27 663.649 1015.83 664.794 1021.23 666.527 1027.46 669.067 1036.61 671.9 1044.02 673.873 1048.62 671.855 1043.91 668.905 1036.8 666.094 1027.59 664.222 1021.44 662.923 1015.97 661.984 1011.38 661.527 1011.42 661.078 1011.44 660.641 1011.43 660.489 1011.63 660.321 1011.83 660.164 1012.03 659.92 1014.2 659.796 1016.61 659.93 1019.26 660.337 1026.84 662.635 1032.82 664.449 1036.37 662.628 1032.8 660.135 1026.96 659.479 1019.3 659.28 1017.06 659.273 1014.97 659.375 1013.05 659.021 1013.49 658.64 1013.93 658.262 1014.38 657.9 1015.86 657.572 1017.43 657.311 1019.12 656.664 1022.98 656.543 1026.31 656.611 1028.37 656.54 1026.23 656.439 1023.07 656.861 1019.06 657.013 1017.76 657.213 1016.54 657.434 1015.36 655.105 1018.03 652.367 1020.82 649.143 1023.56 644.83 1027.13 641.087 1029.46 638.553 1031.02 641.002 1029.51 644.768 1026.84 648.778 1023.14 652.422 1019.87 655.381 1016.57 657.815 1013.49 657.932 1012.97 658.05 1012.45 658.176 1011.96 654.803 1015.09 650.683 1018.49 645.758 1021.8 639.231 1026.15 633.47 1028.93 629.19 1030.8 633.416 1028.88 639.211 1025.81 645.442 1021.34 650.462 1017.77 654.559 1014.16 657.883 1010.9 657.756 1010.85 657.632 1010.81 657.51 1010.75 653.671 1013.5 649.032 1016.48 643.61 1019.36 635.213 1023.81 627.904 1026.48 622.471 1028.23 627.853 1026.42 635.235 1023.46 643.342 1018.87 648.537 1015.93 652.929 1012.95 656.594 1010.23 656.125 1009.91 655.723 1009.53 655.397 1009.09 648.932 1011.92 641.267 1015.42 632.442 1019.9 619.677 1026.37 609.327 1032.45 602.93 1036.45 609.516 1032.33 619.34 1026.26 632.186 1019.41 640.756 1014.84 648.427 1011.16 654.887 1008.22 654.67 1007.74 654.53 1007.23 654.469 1006.69 651.15 1007.38 647.468 1008.32 643.485 1009.63 632.622 1013.26 624.397 1018.13 619.432 1021.57 624.436 1018.1 632.424 1013.06 643.301 1009.11 647.298 1007.64 651.05 1006.57 654.436 1005.77 654.441 1005.66 654.449 1005.56 654.459 1005.46 651.155 1005.72 647.469 1006.16 643.432 1006.89 637.696 1007.88 632.923 1009.18 630.014 1010.14 633.059 1009.14 637.473 1007.66 643.323 1006.35 647.257 1005.5 650.915 1004.94 654.216 1004.57 649.216 1004.08 643.51 1003.05 637.407 1001.09 631.341 999.057 626.837 996.771 623.817 995.213 626.741 996.721 631.587 998.808 637.6 1000.46 643.996 1002.3 649.863 1003.14 654.944 1003.48 655.041 1003.23 655.151 1002.98 655.274 1002.73 650.003 1001.38 643.939 999.379 637.483 996.377 629.423 992.595 623.404 988.524 619.126 985.375 623.424 988.441 629.758 992.352 637.757 995.768 644.417 998.64 650.567 1000.46 655.866 1001.67 655.952 1001.54 656.041 1001.42 656.134 1001.29 651.036 999.16 645.158 996.304 638.943 992.479 628.352 985.959 620.862 979.197 616.136 974.639 620.807 979.145 628.638 985.767 639.284 991.907 645.745 995.635 651.741 998.325 656.891 1000.33 657.257 999.904 657.656 999.497 658.086 999.11 651.348 994.069 642.808 987.936 632.449 981.266 618.762 972.443 606.808 965.873 599.156 961.973 607.017 965.98 618.706 972.039 632.804 980.702 643.284 987.15 652.197 993.273 659.083 998.286 659.38 998.059 659.687 997.841 660.003 997.634 660.07 997.593 660.138 997.553 660.206 997.513 657.349 993.908 653.761 989.85 649.235 985.706 639.599 976.937 630.034 971.723 623.756 968.935 630.075 971.742 639.698 976.61 649.676 985.206 654.271 989.141 658.011 993.083 660.992 996.626 658.696 992.783 655.808 988.412 652.119 983.776 648.033 978.538 644.117 974.48 641.545 972.108 644.229 974.583 648.151 978.19 652.635 983.352 656.372 987.737 659.394 991.968 661.805 995.733 660.839 990.642 660.259 984.552 660.75 977.719 661.271 971.728 662.433 967.116 663.237 964.031 662.457 967.023 661.573 971.901 661.416 977.756 661.121 984.829 661.944 991.017 663.084 996.106 663.28 996.033 663.477 995.965 663.674 995.901 663.626 990.523 664.076 984.098 665.596 977.042 667.381 968.911 669.977 962.618 672.081 958.114 670.06 962.625 667.694 969.173 666.25 977.173 664.969 984.121 664.709 990.348 664.864 995.581 665.031 995.545 665.199 995.512 665.366 995.483 666.223 990.334 667.632 984.303 669.963 977.786 673.9 966.789 678.882 958.697 682.307 953.587 678.917 958.646 674.149 967.025 670.594 978.001 668.509 984.437 667.313 990.296 666.587 995.317 667.362 995.258 668.111 995.281 668.815 995.384 672.085 988.506 675.89 980.002 679.762 969.933 685.245 955.702 688.867 943.465 690.881 935.675ZM659.131 1011.26C659.042 1011.55 658.952 1011.84 658.865 1012.14 659.076 1011.86 659.279 1011.59 659.481 1011.31 659.363 1011.3 659.246 1011.28 659.131 1011.26Z" fill="#E6A9BD" fill-rule="evenodd" fill-opacity="0.231373" transform="scale(0.26458 0.26458)"/><path d="M163.05 218.67C161.55 214.771 158.612 211.572 151.017 210.638 153.102 210.013 155.176 209.35 156.768 207.04 153.721 207.539 143.638 204.486 137.48 207.059 140.204 205.868 141.272 203.909 142.27 201.917 139.42 203.947 120.63 202.254 108.804 214.825 125.546 206.472 140.394 211.366 146.109 213.026 141.478 213.614 136.615 214.271 131.924 214.093 123.176 213.76 115.171 211.454 108.749 214.889 119.242 210.911 124.903 221.202 135.626 222.424 135.414 220.33 134.611 219.37 133.898 218.236 136.957 219.587 139.701 221.14 142.473 221.946 145.027 222.689 147.415 221.921 150.211 223.752 149.808 221.862 149.28 220.068 147.953 218.887 152.892 219.499 157.624 216.893 163.05 218.67Z" fill="#E6A9BD" fill-opacity="0.231373"/><path d="M131.54 241.36C131.54 242.508 130.609 243.439 129.461 243.439 128.313 243.439 127.382 242.508 127.382 241.36 127.382 240.212 128.313 239.281 129.461 239.281 130.609 239.281 131.54 240.212 131.54 241.36Z" fill="#E6A9BD" fill-opacity="0.231373"/><path d="M135.32 244.42C135.32 245.464 134.474 246.31 133.43 246.31 132.386 246.31 131.54 245.464 131.54 244.42 131.54 243.376 132.386 242.53 133.43 242.53 134.474 242.53 135.32 243.376 135.32 244.42Z" fill="#E6A9BD" fill-opacity="0.231373"/><path d="M138.11 247.52C138.11 248.355 137.433 249.032 136.598 249.032 135.763 249.032 135.086 248.355 135.086 247.52 135.086 246.685 135.763 246.008 136.598 246.008 137.433 246.008 138.11 246.685 138.11 247.52Z" fill="#E6A9BD" fill-opacity="0.231373"/><path d="M139.47 250.17C139.47 250.587 139.132 250.926 138.714 250.926 138.714 250.926 138.714 250.926 138.714 250.926 138.297 250.926 137.958 250.587 137.958 250.17 137.958 249.753 138.297 249.414 138.714 249.414 138.714 249.414 138.714 249.414 138.714 249.414 139.132 249.414 139.47 249.752 139.47 250.17 139.47 250.17 139.47 250.17 139.47 250.17Z" fill="#E6A9BD" fill-opacity="0.231373"/><path d="M140.99 252.25C140.99 252.563 140.736 252.817 140.423 252.817 140.423 252.817 140.423 252.817 140.423 252.817 140.11 252.817 139.856 252.563 139.856 252.25 139.856 252.25 139.856 252.25 139.856 252.25 139.856 251.937 140.11 251.683 140.423 251.683 140.736 251.683 140.99 251.937 140.99 252.25 140.99 252.25 140.99 252.25 140.99 252.25Z" fill="#E6A9BD" fill-opacity="0.231373"/><path d="M-27.129 147.67C-27.129 148.818-28.0598 149.749-29.2079 149.749-30.356 149.749-31.2868 148.818-31.2868 147.67-31.2868 146.522-30.356 145.591-29.2079 145.591-28.0598 145.591-27.129 146.522-27.129 147.67Z" fill="#E6A9BD" fill-opacity="0.231373" transform="matrix(0.334613 -0.942356 0.942356 0.334613 0 0)"/><path d="M-23.349 150.73C-23.349 151.774-24.1951 152.62-25.2389 152.62-26.2827 152.62-27.1288 151.774-27.1288 150.73-27.1288 149.686-26.2827 148.84-25.2389 148.84-24.1951 148.84-23.349 149.686-23.349 150.73Z" fill="#E6A9BD" fill-opacity="0.231373" transform="matrix(0.334613 -0.942356 0.942356 0.334613 0 0)"/><path d="M-20.552 153.83C-20.552 154.665-21.2289 155.342-22.0639 155.342-22.8989 155.342-23.5758 154.665-23.5758 153.83-23.5758 152.995-22.8989 152.318-22.0639 152.318-21.2289 152.318-20.552 152.995-20.552 153.83Z" fill="#E6A9BD" fill-opacity="0.231373" transform="matrix(0.334613 -0.942356 0.942356 0.334613 0 0)"/><path d="M-19.192 156.48C-19.192 156.897-19.5304 157.236-19.9479 157.236-19.9479 157.236-19.9479 157.236-19.9479 157.236-20.3654 157.236-20.7039 156.898-20.7039 156.48-20.7039 156.48-20.7039 156.48-20.7039 156.48-20.7039 156.063-20.3654 155.724-19.9479 155.724-19.5304 155.724-19.192 156.063-19.192 156.48Z" fill="#E6A9BD" fill-opacity="0.231373" transform="matrix(0.334613 -0.942356 0.942356 0.334613 0 0)"/><path d="M-17.68 158.56C-17.68 158.873-17.9338 159.127-18.247 159.127-18.247 159.127-18.247 159.127-18.247 159.127-18.5601 159.127-18.8139 158.873-18.8139 158.56-18.8139 158.56-18.8139 158.56-18.8139 158.56-18.8139 158.247-18.5601 157.993-18.247 157.993-17.9338 157.993-17.68 158.247-17.68 158.56Z" fill="#E6A9BD" fill-opacity="0.231373" transform="matrix(0.334613 -0.942356 0.942356 0.334613 0 0)"/><path d="M-94.981-194.94C-94.981-193.792-95.9118-192.861-97.0599-192.861-98.2081-192.861-99.1388-193.792-99.1388-194.94-99.1388-196.088-98.2081-197.019-97.0599-197.019-95.9118-197.019-94.981-196.088-94.981-194.94Z" fill="#E6A9BD" fill-opacity="0.231373" transform="matrix(0.72384 -0.68997 -0.68997 -0.72384 0 0)"/><path d="M-91.201-191.88C-91.201-190.836-92.0471-189.99-93.0909-189.99-94.1347-189.99-94.9808-190.836-94.9808-191.88-94.9808-192.924-94.1347-193.77-93.0909-193.77-92.0471-193.77-91.201-192.924-91.201-191.88Z" fill="#E6A9BD" fill-opacity="0.231373" transform="matrix(0.72384 -0.68997 -0.68997 -0.72384 0 0)"/><path d="M-88.404-188.78C-88.404-187.945-89.0809-187.268-89.9159-187.268-90.7509-187.268-91.4278-187.945-91.4278-188.78-91.4278-189.615-90.7509-190.292-89.9159-190.292-89.0809-190.292-88.404-189.615-88.404-188.78Z" fill="#E6A9BD" fill-opacity="0.231373" transform="matrix(0.72384 -0.68997 -0.68997 -0.72384 0 0)"/><path d="M-87.044-186.13C-87.044-185.713-87.3824-185.374-87.7999-185.374-87.7999-185.374-87.7999-185.374-87.7999-185.374-88.2175-185.374-88.5559-185.712-88.5559-186.13-88.5559-186.13-88.5559-186.13-88.5559-186.13-88.5559-186.548-88.2175-186.886-87.7999-186.886-87.3824-186.886-87.044-186.548-87.044-186.13Z" fill="#E6A9BD" fill-opacity="0.231373" transform="matrix(0.72384 -0.68997 -0.68997 -0.72384 0 0)"/><path d="M-85.532-184.05C-85.532-183.737-85.7858-183.483-86.0989-183.483-86.0989-183.483-86.099-183.483-86.099-183.483-86.4121-183.483-86.6659-183.737-86.6659-184.05-86.6659-184.05-86.6659-184.05-86.6659-184.05-86.6659-184.363-86.4121-184.617-86.099-184.617-85.7858-184.617-85.532-184.363-85.532-184.05Z" fill="#E6A9BD" fill-opacity="0.231373" transform="matrix(0.72384 -0.68997 -0.68997 -0.72384 0 0)"/><path d="M134.87 31.547C130.238 30.9552 125.932 32.0416 122.681 38.564 122.627 36.3272 122.528 34.0814 120.519 31.4457 120.153 34.5052 113.889 42.2457 114.829 49.2207 114.356 46.1086 112.567 44.1336 110.723 42.206 112.061 45.8585 104.678 62.308 114.68 79.563 110.664 59.915 120.317 48.717 123.792 44.293 123.052 48.8554 122.319 53.6672 120.738 57.898 117.791 65.7871 112.945 71.993 114.733 79.646 113.566 67.968 126.297 67.964 130.783 58.706 128.471 57.8406 127.201 58.0946 125.773 58.178 128.13 56.0438 130.61 54.3032 132.297 52.1573 133.85 50.1813 133.733 47.5929 136.528 45.9448 134.378 45.3592 132.295 44.9371 130.633 45.5617 132.752 41.323 131.355 35.6452 134.87 31.5467Z" fill="#E6A9BD" fill-opacity="0.231373"/><path d="M-94.981-194.94C-94.981-193.792-95.9118-192.861-97.0599-192.861-98.2081-192.861-99.1388-193.792-99.1388-194.94-99.1388-196.088-98.2081-197.019-97.0599-197.019-95.9118-197.019-94.981-196.088-94.981-194.94Z" fill="#E6A9BD" fill-opacity="0.231373" transform="matrix(0.72384 -0.68997 -0.68997 -0.72384 0 0)"/><path d="M-91.201-191.88C-91.201-190.836-92.0471-189.99-93.0909-189.99-94.1347-189.99-94.9808-190.836-94.9808-191.88-94.9808-192.924-94.1347-193.77-93.0909-193.77-92.0471-193.77-91.201-192.924-91.201-191.88Z" fill="#E6A9BD" fill-opacity="0.231373" transform="matrix(0.72384 -0.68997 -0.68997 -0.72384 0 0)"/><path d="M-88.404-188.78C-88.404-187.945-89.0809-187.268-89.9159-187.268-90.7509-187.268-91.4278-187.945-91.4278-188.78-91.4278-189.615-90.7509-190.292-89.9159-190.292-89.0809-190.292-88.404-189.615-88.404-188.78Z" fill="#E6A9BD" fill-opacity="0.231373" transform="matrix(0.72384 -0.68997 -0.68997 -0.72384 0 0)"/><path d="M-87.044-186.13C-87.044-185.713-87.3824-185.374-87.7999-185.374-87.7999-185.374-87.7999-185.374-87.7999-185.374-88.2175-185.374-88.5559-185.712-88.5559-186.13-88.5559-186.13-88.5559-186.13-88.5559-186.13-88.5559-186.548-88.2175-186.886-87.7999-186.886-87.3824-186.886-87.044-186.548-87.044-186.13Z" fill="#E6A9BD" fill-opacity="0.231373" transform="matrix(0.72384 -0.68997 -0.68997 -0.72384 0 0)"/><path d="M-85.532-184.05C-85.532-183.737-85.7858-183.483-86.0989-183.483-86.0989-183.483-86.099-183.483-86.099-183.483-86.4121-183.483-86.6659-183.737-86.6659-184.05-86.6659-184.05-86.6659-184.05-86.6659-184.05-86.6659-184.363-86.4121-184.617-86.099-184.617-85.7858-184.617-85.532-184.363-85.532-184.05Z" fill="#E6A9BD" fill-opacity="0.231373" transform="matrix(0.72384 -0.68997 -0.68997 -0.72384 0 0)"/><path d="M-88.463 201.42C-88.463 202.568-89.3938 203.499-90.5419 203.499-91.69 203.499-92.6208 202.568-92.6208 201.42-92.6208 200.272-91.69 199.341-90.5419 199.341-89.3938 199.341-88.463 200.272-88.463 201.42Z" fill="#E6A9BD" fill-opacity="0.231373" transform="matrix(0.506199 -0.862417 0.862417 0.506199 0 0)"/><path d="M-84.683 204.48C-84.683 205.524-85.5291 206.37-86.5729 206.37-87.6167 206.37-88.4628 205.524-88.4628 204.48-88.4628 203.436-87.6167 202.59-86.5729 202.59-85.5291 202.59-84.683 203.436-84.683 204.48Z" fill="#E6A9BD" fill-opacity="0.231373" transform="matrix(0.506199 -0.862417 0.862417 0.506199 0 0)"/><path d="M-81.886 207.58C-81.886 208.415-82.5629 209.092-83.3979 209.092-84.2329 209.092-84.9098 208.415-84.9098 207.58-84.9098 206.745-84.2329 206.068-83.3979 206.068-82.5629 206.068-81.886 206.745-81.886 207.58Z" fill="#E6A9BD" fill-opacity="0.231373" transform="matrix(0.506199 -0.862417 0.862417 0.506199 0 0)"/><path d="M-80.526 210.23C-80.526 210.647-80.8644 210.986-81.282 210.986-81.6995 210.986-82.0379 210.647-82.0379 210.23-82.0379 209.813-81.6995 209.474-81.282 209.474-81.282 209.474-81.282 209.474-81.282 209.474-80.8644 209.474-80.526 209.812-80.526 210.23-80.526 210.23-80.526 210.23-80.526 210.23Z" fill="#E6A9BD" fill-opacity="0.231373" transform="matrix(0.506199 -0.862417 0.862417 0.506199 0 0)"/><path d="M-79.014 212.31C-79.014 212.623-79.2678 212.877-79.5809 212.877-79.5809 212.877-79.581 212.877-79.581 212.877-79.8941 212.877-80.1479 212.623-80.1479 212.31-80.1479 212.31-80.1479 212.31-80.1479 212.31-80.1479 211.997-79.8941 211.743-79.581 211.743-79.2678 211.743-79.014 211.997-79.014 212.31Z" fill="#E6A9BD" fill-opacity="0.231373" transform="matrix(0.506199 -0.862417 0.862417 0.506199 0 0)"/><path d="M-128.93 5.9516C-128.93 7.09974-129.861 8.0305-131.009 8.0305-132.157 8.0305-133.088 7.09975-133.088 5.9516-133.088 4.80346-132.157 3.8727-131.009 3.8727-129.861 3.8727-128.93 4.80346-128.93 5.9516Z" fill="#E6A9BD" fill-opacity="0.231373" transform="matrix(-0.57055 -0.82127 -0.82127 0.57055 0 0)"/><path d="M-125.15 9.0132C-125.15 10.057-125.996 10.9031-127.04 10.9031-128.084 10.9031-128.93 10.057-128.93 9.0132-128.93 7.96944-128.084 7.1233-127.04 7.1233-125.996 7.1233-125.15 7.96944-125.15 9.0132Z" fill="#E6A9BD" fill-opacity="0.231373" transform="matrix(-0.57055 -0.82127 -0.82127 0.57055 0 0)"/><path d="M-122.35 12.113C-122.35 12.948-123.027 13.6249-123.862 13.6249-124.697 13.6249-125.374 12.948-125.374 12.113-125.374 11.278-124.697 10.6011-123.862 10.6011-123.027 10.6011-122.35 11.278-122.35 12.113Z" fill="#E6A9BD" fill-opacity="0.231373" transform="matrix(-0.57055 -0.82127 -0.82127 0.57055 0 0)"/><path d="M-120.99 14.758C-120.99 15.1755-121.328 15.514-121.746 15.514-122.163 15.514-122.502 15.1755-122.502 14.758-122.502 14.758-122.502 14.758-122.502 14.758-122.502 14.3405-122.163 14.0021-121.746 14.0021-121.746 14.0021-121.746 14.0021-121.746 14.0021-121.328 14.0021-120.99 14.3405-120.99 14.758Z" fill="#E6A9BD" fill-opacity="0.231373" transform="matrix(-0.57055 -0.82127 -0.82127 0.57055 0 0)"/><path d="M-119.48 16.837C-119.48 17.1501-119.734 17.404-120.047 17.404-120.047 17.404-120.047 17.404-120.047 17.404-120.36 17.404-120.614 17.1501-120.614 16.837-120.614 16.5239-120.36 16.27-120.047 16.27-119.734 16.27-119.48 16.5239-119.48 16.837-119.48 16.837-119.48 16.837-119.48 16.837Z" fill="#E6A9BD" fill-opacity="0.231373" transform="matrix(-0.57055 -0.82127 -0.82127 0.57055 0 0)"/><path d="M-128.93 5.9516C-128.93 7.09974-129.861 8.0305-131.009 8.0305-132.157 8.0305-133.088 7.09975-133.088 5.9516-133.088 4.80346-132.157 3.8727-131.009 3.8727-129.861 3.8727-128.93 4.80346-128.93 5.9516Z" fill="#E6A9BD" fill-opacity="0.231373" transform="matrix(-0.57055 -0.82127 -0.82127 0.57055 0 0)"/><path d="M-125.15 9.0132C-125.15 10.057-125.996 10.9031-127.04 10.9031-128.084 10.9031-128.93 10.057-128.93 9.0132-128.93 7.96944-128.084 7.1233-127.04 7.1233-125.996 7.1233-125.15 7.96944-125.15 9.0132Z" fill="#E6A9BD" fill-opacity="0.231373" transform="matrix(-0.57055 -0.82127 -0.82127 0.57055 0 0)"/><path d="M-122.35 12.113C-122.35 12.948-123.027 13.6249-123.862 13.6249-124.697 13.6249-125.374 12.948-125.374 12.113-125.374 11.278-124.697 10.6011-123.862 10.6011-123.027 10.6011-122.35 11.278-122.35 12.113Z" fill="#E6A9BD" fill-opacity="0.231373" transform="matrix(-0.57055 -0.82127 -0.82127 0.57055 0 0)"/><path d="M-120.99 14.758C-120.99 15.1755-121.328 15.514-121.746 15.514-122.163 15.514-122.502 15.1755-122.502 14.758-122.502 14.758-122.502 14.758-122.502 14.758-122.502 14.3405-122.163 14.0021-121.746 14.0021-121.746 14.0021-121.746 14.0021-121.746 14.0021-121.328 14.0021-120.99 14.3405-120.99 14.758Z" fill="#E6A9BD" fill-opacity="0.231373" transform="matrix(-0.57055 -0.82127 -0.82127 0.57055 0 0)"/><path d="M-119.48 16.837C-119.48 17.1501-119.734 17.404-120.047 17.404-120.047 17.404-120.047 17.404-120.047 17.404-120.36 17.404-120.614 17.1501-120.614 16.837-120.614 16.5239-120.36 16.27-120.047 16.27-119.734 16.27-119.48 16.5239-119.48 16.837-119.48 16.837-119.48 16.837-119.48 16.837Z" fill="#E6A9BD" fill-opacity="0.231373" transform="matrix(-0.57055 -0.82127 -0.82127 0.57055 0 0)"/><path d="M182.36 35.948C182.323 35.8335 182.288 35.7751 182.288 35.7751 182.288 35.7751 181.764 36.788 180.416 37.5174 179.8 37.8519 179.055 38.0841 178.342 38.1104 177.707 38.1512 177.068 38.027 176.358 37.8714 175.696 37.72 174.99 37.4682 174.159 37.2336 173.677 37.0894 173.139 36.9425 172.528 36.8248 172.216 36.7647 171.883 36.7118 171.529 36.6704 170.48 36.5338 169.248 36.5812 167.949 36.8893 165.223 37.5939 163.514 39.3741 162.908 41.0139 162.338 42.6137 162.849 43.8304 163.311 44.4673 163.491 44.716 163.669 44.9009 163.82 45.0351 163.784 45.1963 163.753 45.3942 163.743 45.6297 163.713 46.3348 163.923 47.5119 165.092 48.4898 166.305 49.4822 168.377 50.0775 170.669 49.3733 171.749 49.016 172.656 48.4876 173.345 47.9009 173.579 47.7066 173.793 47.5129 173.989 47.3233 174.372 46.9518 174.689 46.5914 174.967 46.2584 175.452 45.6956 175.84 45.1765 176.244 44.7559 176.68 44.3098 177.08 43.9206 177.556 43.6609 178.08 43.354 178.726 43.1923 179.327 43.169 180.641 43.1161 181.498 43.6602 181.498 43.6602 181.498 43.6602 181.452 42.6808 179.975 41.7907 179.575 41.5506 179.067 41.3376 178.466 41.2121 178.785 41.0885 179.094 40.9492 179.39 40.7949 180.673 40.1082 181.475 39.2015 181.91 38.412 182.609 37.1363 182.472 36.2908 182.36 35.9478ZM174.081 41.8818C173.985 41.9289 173.89 41.9774 173.796 42.0285 171.257 43.4554 170.71 47.0707 166.627 46.4725 165.747 46.365 165.012 45.8527 164.581 45.3825 164.427 45.2144 164.311 45.0576 164.224 44.9239 164.225 44.7345 164.241 44.4908 164.301 44.2005 164.444 43.5089 164.866 42.5979 165.681 41.9768 166.471 41.3529 167.635 41.0037 168.418 41.0805 168.828 41.0828 169.337 41.1969 169.945 41.2919 170.153 41.329 170.374 41.3731 170.608 41.4196 171.062 41.5099 171.587 41.6132 172.174 41.6994 172.765 41.7938 173.405 41.8602 174.081 41.8817Z" fill="#E6A9BD" fill-rule="evenodd" fill-opacity="0.231373"/><path d="M186.45 202.39C186.488 202.276 186.495 202.208 186.495 202.208 186.495 202.208 185.472 202.713 183.954 202.5 183.26 202.404 182.523 202.15 181.933 201.748 181.397 201.404 180.956 200.924 180.477 200.378 180.035 199.864 179.615 199.242 179.086 198.56 178.782 198.158 178.437 197.721 178.015 197.264 177.799 197.03 177.562 196.79 177.302 196.547 176.539 195.815 175.519 195.122 174.29 194.599 171.678 193.55 169.246 193.969 167.785 194.93 166.377 195.88 166.067 197.163 166.061 197.949 166.059 198.256 166.092 198.51 166.134 198.708 166.009 198.816 165.867 198.957 165.719 199.141 165.277 199.691 164.748 200.764 165.109 202.244 165.497 203.762 166.812 205.471 169.075 206.264 170.156 206.616 171.2 206.729 172.102 206.665 172.406 206.648 172.693 206.619 172.963 206.582 173.492 206.511 173.961 206.408 174.382 206.305 175.107 206.14 175.727 205.952 176.302 205.853 176.917 205.753 177.47 205.677 178.007 205.75 178.612 205.814 179.227 206.066 179.725 206.404 180.814 207.141 181.181 208.088 181.181 208.088 181.181 208.088 181.725 207.272 181.065 205.679 180.885 205.249 180.602 204.776 180.193 204.318 180.523 204.408 180.854 204.479 181.184 204.531 182.624 204.739 183.808 204.485 184.626 204.107 185.946 203.495 186.337 202.733 186.45 202.39ZM176.265 202.256C176.16 202.237 176.054 202.22 175.948 202.205 173.058 201.848 170.473 204.434 167.541 201.53 166.896 200.922 166.608 200.073 166.54 199.439 166.516 199.212 166.516 199.017 166.525 198.858 166.638 198.706 166.796 198.52 167.016 198.321 167.541 197.849 168.422 197.366 169.446 197.35 170.452 197.316 171.596 197.725 172.181 198.252 172.51 198.496 172.852 198.89 173.285 199.328 173.431 199.481 173.582 199.648 173.743 199.824 174.055 200.166 174.416 200.56 174.838 200.978 175.258 201.405 175.734 201.838 176.265 202.256Z" fill="#E6A9BD" fill-rule="evenodd" fill-opacity="0.231373"/><path d="M77.987 101.03C78.0686 100.972 78.121 100.951 78.121 100.951 78.121 100.951 77.9642 101.885 78.4953 103.042 78.7373 103.571 79.1162 104.097 79.5768 104.47 79.9783 104.814 80.4647 105.05 81.0136 105.301 81.5284 105.53 82.1231 105.715 82.7918 105.974 83.1842 106.119 83.6147 106.289 84.0791 106.516 84.3163 106.632 84.5638 106.763 84.8193 106.911 85.5837 107.344 86.3785 107.99 87.0877 108.842 88.5464 110.669 88.7935 112.704 88.3782 114.095 87.9589 115.442 87.0125 115.995 86.3883 116.188 86.1446 116.263 85.9346 116.297 85.7671 116.311 85.7109 116.436 85.6327 116.583 85.5218 116.744 85.1897 117.227 84.4633 117.904 83.1997 117.971 81.8991 118.025 80.2262 117.387 79.0552 115.776 78.5165 115 78.1773 114.197 78.0127 113.464 77.954 113.218 77.9083 112.983 77.873 112.759 77.8038 112.321 77.7734 111.924 77.7546 111.564 77.713 110.948 77.7141 110.41 77.656 109.929 77.5889 109.416 77.5173 108.958 77.3309 108.548 77.1354 108.083 76.7876 107.653 76.4001 107.338 75.5539 106.648 74.7133 106.582 74.7133 106.582 74.7133 106.582 75.2323 105.954 76.6568 106.099 77.042 106.139 77.486 106.252 77.9476 106.468 77.7976 106.227 77.6616 105.98 77.5417 105.73 77.0325 104.634 76.9517 103.632 77.0571 102.891 77.2289 101.695 77.7415 101.202 77.987 101.03ZM80.5256 109.099C80.5659 109.178 80.605 109.258 80.6418 109.339 81.6162 111.553 80.1766 114.226 83.1866 115.865 83.8244 116.233 84.5683 116.259 85.0888 116.162 85.2749 116.127 85.4298 116.081 85.5542 116.035 85.6485 115.909 85.759 115.739 85.864 115.516 86.114 114.986 86.288 114.17 86.0567 113.352 85.8431 112.543 85.2445 111.731 84.6859 111.391 84.4129 111.188 84.0178 111.011 83.5664 110.77 83.4097 110.691 83.2412 110.61 83.0626 110.525 82.716 110.358 82.3159 110.165 81.883 109.929 81.4434 109.697 80.9853 109.422 80.5256 109.099Z" fill="#E6A9BD" fill-rule="evenodd" fill-opacity="0.231373"/><path d="M67.001 210.14C67.0672 210.151 67.1023 210.166 67.1023 210.166 67.1023 210.166 66.5845 210.537 66.2891 211.34 66.1535 211.707 66.0848 212.137 66.1273 212.533 66.1556 212.888 66.2753 213.231 66.4181 213.611 66.5547 213.964 66.7504 214.335 66.9465 214.775 67.0648 215.03 67.189 215.316 67.3029 215.644 67.3611 215.812 67.417 215.992 67.4682 216.184 67.6275 216.752 67.6999 217.437 67.6336 218.18 67.4622 219.743 66.615 220.829 65.7573 221.296 64.9187 221.739 64.2054 221.553 63.8164 221.349 63.6645 221.27 63.5482 221.186 63.4619 221.113 63.3757 221.146 63.2688 221.179 63.1394 221.203 62.7521 221.276 62.0847 221.254 61.4508 220.687 60.8053 220.096 60.3105 218.998 60.5164 217.675 60.6275 217.05 60.8469 216.506 61.1161 216.078 61.2047 215.933 61.2946 215.799 61.3838 215.676 61.5584 215.435 61.7323 215.231 61.8941 215.05 62.1663 214.737 62.4222 214.481 62.6224 214.225 62.834 213.948 63.0171 213.696 63.1226 213.412 63.2502 213.097 63.288 212.728 63.2527 212.394 63.1769 211.663 62.8076 211.233 62.8076 211.233 62.8076 211.233 63.3526 211.18 63.9626 211.925 64.1273 212.127 64.2857 212.391 64.4031 212.713 64.446 212.527 64.4982 212.345 64.5597 212.169 64.8367 211.405 65.2735 210.889 65.6752 210.586 66.3243 210.097 66.8025 210.105 67.0011 210.14ZM64.3838 215.19C64.3654 215.247 64.3463 215.304 64.3255 215.359 63.7401 216.877 61.7857 217.468 62.443 219.677 62.5728 220.155 62.9148 220.52 63.2091 220.721 63.3143 220.792 63.4103 220.844 63.4911 220.881 63.5957 220.866 63.7291 220.837 63.8847 220.781 64.2555 220.647 64.7253 220.34 65.0033 219.84 65.2849 219.354 65.3848 218.683 65.2797 218.256 65.2459 218.03 65.1419 217.758 65.0407 217.429 65.0036 217.317 64.9615 217.198 64.9171 217.073 64.8309 216.829 64.7318 216.547 64.6372 216.23 64.5377 215.911 64.4499 215.562 64.3839 215.19Z" fill="#E6A9BD" fill-rule="evenodd" fill-opacity="0.231373"/></svg>