<svg viewBox="0 0 114.48 419.83" xmlns="http://www.w3.org/2000/svg" xmlns:xlink="http://www.w3.org/1999/xlink" overflow="hidden"><defs></defs><g id="Слой_2"><g id="Слой_1-2"><g id="Слой_2-2"><g id="Слой_9"><g id="woman"><path d="M110.56 148C109.34 134.87 108.02 121.26 108.43 107.2 108.72 98.3895 107.321 89.605 104.31 81.32 102.25 75.55 98.78 72.58 95.39 72.17 91.93 71.38 86.39 70.73 81.09 69.36 84.0812 67.4615 86.5007 64.7863 88.09 61.62 83.32 63.26 80.92 57.13 80.21 53.53 78.82 46.4 81.9 38.32 82.21 30.53 82.533 25.3672 81.8782 20.1898 80.28 15.27 79.1443 10.9504 76.578 7.14326 73 4.47 69.3 1.48 64.22-0.16 57.22 0 50.22-0.2 45.15 1.44 41.45 4.43 39.0865 6.24791 37.2134 8.62626 36 11.35 33.78 15.51 32 21.66 32.36 30.59 32.68 38.37 35.76 46.45 34.36 53.59 33.65 57.19 31.25 63.32 26.48 61.68 28.063 64.8506 30.4838 67.5274 33.48 69.42 28.21 70.79 22.64 71.42 19.17 72.23 15.78 72.64 12.32 75.61 10.26 81.38 7.23929 89.6625 5.84053 98.4489 6.14 107.26 6.52 121.26 5.19 134.93 4 148.02 0.66 158.59-0.51 168.11 0.2 197.19 0.26 199.71 0.12 202.1 0.34 204.19L0.34 205C1.27 211.5 0.42 215.72 2 220.2 6.1 232 14.07 238.61 15.55 236.81 17.03 235.01 14.63 232.52 12.72 228.08 9.72 221.08 10.44 218.22 10.1 215.25 11.41 217.57 12.1 216.6 14.36 223.31 15.3 226.08 17.2 225.38 17.16 225.13 16.79 222.55 16.16 219.72 15.55 216.79 13.55 207.09 11.15 206.43 9.78 203.79 9.70132 202.401 9.75826 201.008 9.95 199.63 12.54 178.45 17.24 168.7 18.01 152.14 18.1511 151.641 18.258 151.133 18.33 150.62 19.42 142.28 21.96 121.62 24.21 107.28 24.43 110.65 26.03 113.28 28.06 115.92 28.95 117.33 29.73 118.48 29.73 118.48 32.3 123.98 34.88 131.96 32.73 140.48 31.56 145.24 29.61 147.36 26.98 153.33 23.8824 160.45 21.9219 168.012 21.17 175.74 20.91 177.31 20.56 179.47 20.22 182.06 19.308 187.008 18.8527 192.029 18.86 197.06 19.07 212.58 23.4 241 23.4 267.89 23.4 277.39 23.8 284.18 22.34 291.42 20.4304 300.327 19.0778 309.345 18.29 318.42 16.82 335.79 21.46 374.13 19.77 389.26 19.59 390.88 18.82 397.26 18.16 400.19 16.97 405.49 16.03 409.08 15.16 412.19 13.78 416.93 19.4 418.36 22.56 418.91 25.16 419.36 32.12 422.05 32.89 415.83 33.16 413.66 30.89 408.04 30.97 401.9 31.04 395.59 30.72 389.45 30.85 386.34 31.46 373 39 346 41.76 326.3 43.87 311.01 41.99 301.76 42.27 293.61 42.65 282.41 45.37 274.37 46.13 271.03 55.03 232.03 54.65 193.86 57.77 193.89 60.89 193.92 59.68 232.38 68.49 271 69.25 274.32 71.96 282.36 72.35 293.58 72.63 301.73 70.74 310.98 72.86 326.27 75.58 345.93 83.16 372.95 83.73 386.27 83.87 389.38 83.55 395.52 83.61 401.83 83.68 407.97 81.43 413.59 81.7 415.76 82.47 421.98 89.43 419.29 92.03 418.84 95.19 418.29 100.81 416.84 99.43 412.12 98.53 409.03 97.58 405.44 96.43 400.12 95.77 397.18 95 390.81 94.82 389.19 93.13 374.06 97.76 335.72 96.3 318.35 95.529 309.276 94.1931 300.258 92.3 291.35 90.39 282.35 91.3 275.53 91.24 267.82 90.9369 249.765 91.859 231.71 94 213.78 94.6 208.83 95.2 204.78 95.63 202 95.71 200.5 96.85 176.22 92.4 162.08 90.73 156.77 88.53 151.64 88.53 151.64 85.77 145.17 83.95 143.29 83.17 140.5 80.78 131.92 82.75 123.86 84.78 118.42 84.78 118.42 85.56 117.28 86.44 115.88 88.44 113.25 90.08 110.6 90.31 107.23 92.56 121.6 95.1 142.23 96.19 150.56 96.2524 151.075 96.3594 151.584 96.51 152.08 97.28 168.63 101.97 178.39 104.51 199.57 104.71 200.947 104.77 202.341 104.69 203.73 103.32 206.38 100.89 207.04 98.92 216.73 98.33 219.66 97.68 222.49 97.3 225.07 97.3 225.32 99.17 226.07 100.1 223.25 102.36 216.54 103.1 217.51 104.36 215.19 104.03 218.19 104.78 220.99 101.75 228.02 99.83 232.46 97.43 234.95 98.91 236.75 100.39 238.55 108.36 231.94 112.47 220.14 114.03 215.66 113.17 211.44 114.11 204.95L114.11 204.13C114.34 202.13 114.2 199.7 114.26 197.13 115 168.1 113.88 158.58 110.56 148Z" stroke-width="2.98039" fill="#91B6BB"/></g></g></g></g></g></svg>