<svg viewBox="0 0 114.48 419.83" xmlns="http://www.w3.org/2000/svg" xmlns:xlink="http://www.w3.org/1999/xlink" overflow="hidden"><defs></defs><g id="Слой_2"><g id="Слой_1-2"><g id="Слой_2-2"><g id="Слой_9"><g id="woman"><path d="M110.56 148C109.34 134.87 108.02 121.26 108.43 107.2 108.72 98.3895 107.321 89.605 104.31 81.32 102.25 75.55 98.78 72.58 95.39 72.17 91.93 71.38 86.39 70.73 81.09 69.36 84.0812 67.4615 86.5007 64.7863 88.09 61.62 83.32 63.26 80.92 57.13 80.21 53.53 78.82 46.4 81.9 38.32 82.21 30.53 82.533 25.3672 81.8782 20.1898 80.28 15.27 79.1443 10.9504 76.578 7.14326 73 4.47 69.3 1.48 64.22-0.16 57.22 0 50.22-0.2 45.15 1.44 41.45 4.43 39.0865 6.24791 37.2134 8.62626 36 11.35 33.78 15.51 32 21.66 32.36 30.59 32.68 38.37 35.76 46.45 34.36 53.59 33.65 57.19 31.25 63.32 26.48 61.68 28.063 64.8506 30.4838 67.5274 33.48 69.42 28.21 70.79 22.64 71.42 19.17 72.23 15.78 72.64 12.32 75.61 10.26 81.38 7.23929 89.6625 5.84053 98.4489 6.14 107.26 6.52 121.26 5.19 134.93 4 148.02 0.66 158.59-0.51 168.11 0.2 197.19 0.26 199.71 0.12 202.1 0.34 204.19L0.34 205C1.27 211.5 0.42 215.72 2 220.2 6.1 232 14.07 238.61 15.55 236.81 17.03 235.01 14.63 232.52 12.72 228.08 9.72 221.08 10.44 218.22 10.1 215.25 11.41 217.57 12.1 216.6 14.36 223.31 15.3 226.08 17.2 225.38 17.16 225.13 16.79 222.55 16.16 219.72 15.55 216.79 13.55 207.09 11.15 206.43 9.78 203.79 9.70132 202.401 9.75826 201.008 9.95 199.63 12.54 178.45 17.24 168.7 18.01 152.14 18.1511 151.641 18.258 151.133 18.33 150.62 19.42 142.28 21.96 121.62 24.21 107.28 24.43 110.65 26.03 113.28 28.06 115.92 28.95 117.33 29.73 118.48 29.73 118.48 33.52 144.58 31.36 156.17 29.59 161.48 29.26 162.48 27.32 168.1 25.01 174.63 23.01 180.24 21.37 184.78 20.33 187.63L20.33 187.69C19.542 190.738 19.0596 193.857 18.89 197 15.89 227.41 23.43 256.34 23.43 267.83 23.43 277.33 23.83 284.12 22.37 291.36 20.4604 300.267 19.1078 309.285 18.32 318.36 16.85 335.73 21.49 374.07 19.8 389.2 19.62 390.82 18.85 397.2 18.19 400.13 17 405.43 16.06 409.02 15.19 412.13 13.81 416.87 19.43 418.3 22.59 418.85 25.19 419.3 32.15 421.99 32.92 415.77 33.19 413.6 30.92 407.98 31 401.84 31.07 395.53 30.75 389.39 30.88 386.28 31.46 373 39 346 41.76 326.3 43.87 311.01 41.99 301.76 42.27 293.61 42.47 287.72 43.62 283.8 46.13 271.03 54.37 229.14 55.45 226.7 56.76 226.68 59.5 226.63 62.49 241.43 68.49 271.03 71.18 284.31 72.19 289.03 72.35 293.61 72.63 301.76 70.74 311.01 72.86 326.3 75.58 345.96 83.16 372.98 83.73 386.3 83.87 389.41 83.55 395.55 83.61 401.86 83.68 408 81.43 413.62 81.7 415.79 82.47 422.01 89.43 419.32 92.03 418.87 95.19 418.32 100.81 416.87 99.43 412.15 98.53 409.06 97.58 405.47 96.43 400.15 95.77 397.21 95 390.84 94.82 389.22 93.13 374.09 97.76 335.75 96.3 318.38 95.529 309.306 94.1931 300.288 92.3 291.38 90.84 284.14 91.24 277.38 91.24 267.85 91.24 256.36 98.8 227.43 95.78 197.02 95.5936 193.85 95.0877 190.708 94.27 187.64 93.13 184.82 91.57 180.83 89.89 175.97 87.29 168.51 85.6 162.45 85.15 160.76 81.29 146.03 83.95 124.52 84.78 118.42 84.78 118.42 85.56 117.28 86.44 115.88 88.44 113.25 90.08 110.6 90.31 107.23 92.56 121.6 95.1 142.23 96.19 150.56 96.2524 151.075 96.3594 151.584 96.51 152.08 97.28 168.63 101.97 178.39 104.51 199.57 104.71 200.947 104.77 202.341 104.69 203.73 103.32 206.38 100.89 207.04 98.92 216.73 98.33 219.66 97.68 222.49 97.3 225.07 97.3 225.32 99.17 226.07 100.1 223.25 102.36 216.54 103.1 217.51 104.36 215.19 104.03 218.19 104.78 220.99 101.75 228.02 99.83 232.46 97.43 234.95 98.91 236.75 100.39 238.55 108.36 231.94 112.47 220.14 114.03 215.66 113.17 211.44 114.11 204.95L114.11 204.13C114.34 202.13 114.2 199.7 114.26 197.13 115 168.1 113.88 158.58 110.56 148Z" fill="#91B6BB"/></g></g></g></g></g></svg>