<svg viewBox="0 0 114.54 419.8" xmlns="http://www.w3.org/2000/svg" xmlns:xlink="http://www.w3.org/1999/xlink" overflow="hidden"><defs></defs><g id="Слой_2"><g id="Слой_9"><g id="woman"><path d="M110.56 148C109.34 134.87 108.02 121.26 108.43 107.2 108.723 98.3894 107.324 89.6043 104.31 81.32 102.25 75.55 98.78 72.58 95.39 72.17 91.93 71.38 86.39 70.73 81.09 69.36 84.0848 67.4658 86.5053 64.7895 88.09 61.62 83.32 63.26 80.92 57.13 80.21 53.53 78.82 46.4 81.9 38.32 82.21 30.53 82.533 25.3672 81.8782 20.1898 80.28 15.27 79.1477 10.9434 76.5812 7.1289 73 4.45 69.3 1.46 64.22-0.18 57.22 0 50.22-0.2 45.15 1.44 41.45 4.43 39.0888 6.24201 37.2158 8.61331 36 11.33 33.78 15.49 32 21.64 32.36 30.57 32.68 38.35 35.76 46.43 34.36 53.57 33.65 57.17 31.25 63.3 26.48 61.66 28.0647 64.8295 30.4852 67.5058 33.48 69.4 28.21 70.77 22.64 71.4 19.17 72.21 15.78 72.62 12.32 75.59 10.26 81.36 7.24171 89.6432 5.84303 98.4291 6.14 107.24 6.52 121.29 5.19 134.91 4 148 0.66 158.57-0.51 168.09 0.2 197.17 0.26 199.69 0.12 202.08 0.34 204.17 0.34 204.23 0.34 204.28 0.34 204.34 0.34 204.55 0.34 204.77 0.34 204.99 1.27 211.48 0.42 215.7 1.98 220.18 6.08 231.98 14.05 238.59 15.53 236.79 17.01 234.99 14.61 232.5 12.7 228.06 9.7 221.06 10.42 218.2 10.08 215.23 11.39 217.55 12.08 216.58 14.34 223.29 15.28 226.06 17.18 225.36 17.14 225.11 16.77 222.53 16.14 219.7 15.53 216.77 13.53 207.07 11.13 206.41 9.76 203.77 9.68062 202.381 9.73756 200.988 9.93 199.61 12.52 178.43 17.22 168.68 17.99 152.12 18.1354 151.622 18.2424 151.114 18.31 150.6 19.4 142.26 21.94 121.6 24.19 107.26 24.41 110.63 26.01 113.26 28.04 115.9 28.93 117.31 29.71 118.46 29.71 118.46 31 129.51 31.89 143.18 31 151 30.14 159 24.21 166.25 21.32 181.15 21.22 181.65 21.13 182.15 21.04 182.7L20.98 183.06C20.72 184.51 20.49 186.01 20.31 187.61L20.31 187.61 20.31 187.61 20.31 187.67C19.5291 190.725 19.0534 193.851 18.89 197 15.89 227.41 23.43 256.34 23.43 267.83 23.43 277.33 23.83 284.12 22.37 291.36 20.462 300.267 19.1094 309.285 18.32 318.36 16.85 335.73 21.49 374.07 19.8 389.2 19.62 390.82 18.85 397.2 18.19 400.13 17 405.43 16.06 409.02 15.19 412.13 13.81 416.87 19.43 418.3 22.59 418.85 25.19 419.3 32.15 421.99 32.92 415.77 33.19 413.6 30.92 407.98 31 401.84 31.07 395.53 30.75 389.39 30.88 386.28 31.46 372.98 39.04 345.96 41.76 326.28 43.87 310.99 41.99 301.74 42.27 293.59 42.5 286.89 45.47 282.37 46.13 271.01 47.32 250.62 56.64 209.64 56.82 209.66 57 209.68 67.3 250.66 68.49 271.01 69.15 282.37 72.11 286.89 72.35 293.59 72.63 301.74 70.74 310.99 72.86 326.28 75.58 345.94 83.16 372.96 83.73 386.28 83.87 389.39 83.55 395.53 83.61 401.84 83.68 407.98 81.43 413.6 81.7 415.77 82.47 421.99 89.43 419.3 92.03 418.85 95.19 418.3 100.81 416.85 99.43 412.13 98.53 409.04 97.58 405.45 96.43 400.13 95.77 397.19 95 390.82 94.82 389.2 93.13 374.07 97.76 335.73 96.3 318.36 95.5271 309.286 94.1912 300.268 92.3 291.36 90.84 284.12 91.24 277.36 91.24 267.83 91.24 256.34 98.8 227.41 95.78 197 95.5944 193.83 95.0885 190.688 94.27 187.62L94.27 187.62C94 185.27 93.65 183.1 93.27 181.07 90.27 166.22 84.35 159 83.49 151 82.63 143 83.49 129.51 84.78 118.4 84.78 118.4 85.56 117.26 86.44 115.86 88.44 113.23 90.08 110.58 90.31 107.21 92.56 121.58 95.1 142.21 96.19 150.54 96.2527 151.055 96.3597 151.563 96.51 152.06 97.28 168.61 101.97 178.37 104.51 199.55 104.71 200.927 104.77 202.321 104.69 203.71 103.32 206.36 100.89 207.02 98.92 216.71 98.33 219.64 97.68 222.47 97.3 225.05 97.3 225.3 99.17 226 100.1 223.23 102.36 216.52 103.1 217.49 104.36 215.17 104.03 218.17 104.78 220.97 101.75 228 99.83 232.44 97.43 234.93 98.91 236.73 100.39 238.53 108.36 231.92 112.47 220.12 114.03 215.64 113.17 211.42 114.11 204.93 114.11 204.71 114.11 204.49 114.11 204.28L114.11 204.11C114.34 202.11 114.2 199.68 114.26 197.11 115 168.08 113.88 158.56 110.56 148Z" fill="#91B6BB"/></g></g></g></svg>