<svg viewBox="0 0 76.5 218.6" xmlns="http://www.w3.org/2000/svg" xmlns:xlink="http://www.w3.org/1999/xlink" id="Слой_1" overflow="hidden"><g><g id="Слой_2_1_"><g id="Layer_2"><linearGradient x1="49.6786" y1="126.897" x2="30.4586" y2="-31.8034" gradientUnits="userSpaceOnUse" id="SVGID_1_" gradientTransform="matrix(1 0 0 -1 0 219.323)"><stop offset="0" stop-color="#EBA899"/><stop offset="1" stop-color="#D67E6D"/></linearGradient><linearGradient x1="31.5805" y1="110.037" x2="-1.8895" y2="-56.7233" gradientUnits="userSpaceOnUse" id="SVGID_2_" gradientTransform="matrix(1 0 0 -1 0 219.323)"><stop offset="0" stop-color="#F5B2A2"/><stop offset="1" stop-color="#E08D7C"/></linearGradient><linearGradient x1="34.9557" y1="163.163" x2="34.2757" y2="194.793" gradientUnits="userSpaceOnUse" id="SVGID_3_" gradientTransform="matrix(1 0 0 -1 0 219.323)"><stop offset="0" stop-color="#F5B2A2"/><stop offset="0.33" stop-color="#F1AA9A"/><stop offset="0.83" stop-color="#E59685"/><stop offset="1" stop-color="#E08D7C"/></linearGradient><linearGradient x1="20.9283" y1="177.345" x2="-19.3517" y2="-13.6247" gradientUnits="userSpaceOnUse" id="SVGID_4_" gradientTransform="matrix(1 0 0 -1 0 219.323)"><stop offset="0" stop-color="#F5B2A2"/><stop offset="1" stop-color="#E08D7C"/></linearGradient><linearGradient x1="12.4241" y1="163.308" x2="-22.5259" y2="-2.3923" gradientUnits="userSpaceOnUse" id="SVGID_5_" gradientTransform="matrix(1 0 0 -1 0 219.323)"><stop offset="0" stop-color="#F5B2A2"/><stop offset="1" stop-color="#E08D7C"/></linearGradient><path d="M59.6 94.7C59.3 93.1 58.5 91.8 57.2 90.9 55.8 90.3 54.2 90.3 52.8 90.8 49.4 91.7 46.3 93.2 43.5 95.2 39.8 97.9 36.8 100.8 35.2 105.1 32.9 111.3 32.5 117.9 32.4 124.4 32.3 129.3 32.3 134.3 32.4 139.2 32.5 144.2 32.8 149.1 32.5 154.2 32.2 159.4 31.5 164.5 30.5 169.6 30.3 170.8 30.4 171.9 30.6 173.1 30.6 174.5 30.5 175.9 30.3 177.3 30 181.7 30.2 186 29.8 190.4 29.4 195.9 28.3 201.6 29.9 206.9 30 207.6 30.4 208.3 31 208.8 31.9 209.3 33 209.4 34 209.1 35.3 208.8 36.6 208.8 37.8 209.1 39.5 209.6 40.9 210.9 42.6 210.9 43.2 210.8 43.8 210.8 44.4 210.8 44.7 210.9 45.1 211 45.4 211.2 46.7 211.6 48.1 211.3 49.1 210.3 49.4 210 49.5 209.7 49.5 209.3 49.3 208.8 48.7 208.7 48.2 208.5 47.7 208.3 47.1 208.1 46.6 207.8 45.1 207.1 43.8 206.3 42.5 205.3 41.6 204.5 40.9 203.5 39.9 202.7 39.1 202.1 38.5 201.2 38 200.3 36.9 198.2 37.1 195.7 37.3 193.4 37.9 187.8 39 182.3 40.6 176.9 42.1 171.8 43.9 166.9 45.1 161.8 46.9 154.5 48.3 147.1 50.3 139.8 52.3 132.5 54.8 125.1 57.1 117.8 59.4 110.5 61.6 102.2 59.6 94.7Z" stroke="#92B7BC" fill="#92B7BC"/><path d="M38.1 118.1C38.1 116.7 38 115.3 37.9 114 37.7 112.3 37.5 110.6 37.3 108.9L37 106.3C36.9 105.5 36.8 104.7 36.7 103.9 36.6 103.5 36.5 103 36.5 102.6 36.5 102 36.4 101.3 36.2 100.7 35.9 100.1 35.5 99.6 35 99.2 34.1 98.3 33 97.5 31.9 97 28.8 95.2 25.3 94.2 21.8 94 19.3 94 16.9 94.7 14.8 96.1 13.7 96.9 12.8 98 12.4 99.3 12.3 99.9 12.2 100.5 12.3 101.1 12.3 103.7 12.2 106.4 12.2 109 12.1 114.5 12.9 119.9 14.5 125.2 16.3 132.2 19.7 138.5 21.9 145.4 22.5 147.2 23 149.1 23.5 151 23.6 151.3 23.7 151.6 23.7 151.9 23.9 153.9 23.7 156 23.1 157.9 22.3 160.5 21.3 162.9 20.5 165.5 19.1 170.4 19 175.7 20.3 180.7 21.3 184.7 23 188.5 23.7 192.7 24 194.4 24.2 196.1 24.3 197.8 24.5 199.3 24.6 200.9 24.5 202.5 24.4 203.3 24.3 204.1 24.2 204.9 24.1 205.6 23.9 206.3 23.6 206.9 23.1 208.4 22.4 209.9 21.7 211.4 21.3 212.2 21.1 213 20.9 213.8 20.8 215.1 21.9 215.9 22.9 216.5 24.1 217.2 25.3 217.9 26.5 218.4 27.1 218.7 27.8 218.8 28.4 218.8 29.5 218.8 30.5 218.2 31.1 217.3 31.9 216.2 31.7 215 31.8 213.7L32.2 204.7 32.4 201.5C32.8 193.8 33.2 186.1 33.8 178.4 34.4 170.9 35.6 163.5 36.4 156 36.6 154.7 36.7 153.4 36.7 152.1 36.9 150.9 37 149.8 37 148.6 37.2 144.7 37.3 140.9 37.6 137 37.8 130.4 38.2 124.3 38.1 118.1Z" stroke="#92B7BC" fill="#92B7BC"/><path d="M76 71.2C76 71.2 69.9 59.5 67.5 56 64.9 52.3 62 48.8 58.8 45.6 57 43.7 54.3 41.6 51.7 41.3 51.2 41.2 50.6 41.3 50.1 41.6 49.5 42.1 49.2 42.8 49.1 43.6 48.7 45.3 48.5 47.1 48.6 48.9 48.8 51.4 49.8 53.9 51.3 55.9 52.7 57.9 54.2 59.8 55.9 61.6 58.1 64 63 70.6 66.5 73 65.5 75.1 65.2 77.8 63 82.5 62.7 83.1 61.5 85 60.8 85.2 59.7 85.5 58 84.6 57 85.4 55.7 86.5 56.7 88.5 57.7 89.3 58.3 89.8 59 90.2 59.8 90.4 60.7 90.6 61.7 90.4 62.5 89.9 63.2 89.6 63.9 89.2 64.5 88.9 66.1 88 67.5 87 68.9 85.9 71.5 83.8 73.4 80.2 74.9 77.2 75.3 76.4 75.7 75.5 76 74.6 76.7 73.5 76.6 72.2 76 71.2Z" stroke="#92B7BC" fill="#92B7BC"/><path d="M15.5 62.7C15.7 62.2 16 61.9 16.5 61.7 16.9 61.5 17.4 61.4 17.9 61.5 18.6 61.8 19.1 62.5 19.3 63.3 19.5 63.8 19.6 64.4 19.6 64.9 19.8 65.9 19.1 67 18.1 67.2 18 67.2 17.8 67.2 17.7 67.2 16.7 67.2 16.2 66 16 65.2 15.6 64.5 15.4 63.6 15.5 62.7Z" stroke="#92B7BC" fill="#92B7BC"/><path d="M19.1 77.1C18.7 79 17.9 80.7 16.8 82.2 15.7 83.8 14.7 85.5 13.8 87.2 13.3 87.9 13.2 88.8 13.5 89.6 13.8 90 14.2 90.4 14.7 90.5 15.7 90.9 16.7 91.1 17.7 91.2 26 92 34.3 91.4 42.4 89.5 45.6 88.9 48.7 87.9 51.6 86.6 52.8 86.2 53.7 85.3 54 84.1 54.4 82.5 54.1 80.9 53.3 79.5 52.8 78.7 52.1 77.9 51.4 77.3 50.9 76.9 50.4 76.5 50 75.9 49.8 75.3 49.7 74.7 49.8 74.1 49.8 72.2 50.1 70.3 50 68.5 50 68 49.9 67.6 49.5 67.3 49.1 67 48.6 67.3 48.2 67.3 47.6 67.3 47 67.3 46.4 67.3 45.7 67.4 45 67.5 44.3 67.7 43.6 67.8 42.8 67.9 42 67.8 40.1 67.7 38.2 67.6 36.3 67.6 32.5 67.6 28.8 67.7 25 67.9 23.3 68 21.6 68.3 20 68.8 18.6 69.3 17.4 70.5 18.2 72 19 73.5 19.4 75.3 19.1 77.1Z" stroke="#92B7BC" fill="#92B7BC"/><path d="M18 71.7C28.7 70.8 39.4 70 50.1 69.1 50.3 67.7 50.4 66.3 50.6 65.1 50.6 65.1 35.3 65.7 33.9 65.8 17.9 66.1 19.1 66 16.2 65.9 16.7 67.9 17.3 69.8 18 71.7Z" stroke="#92B7BC" fill="#92B7BC"/><path d="M30.7 34.9C30.6 35 30.6 35.2 30.5 35.3 30.1 36 29.5 36.5 28.8 37 27.4 38 25.9 38.7 24.2 39.1 23.2 39.2 22.2 39.7 21.6 40.4 21.3 41 21.1 41.7 21.1 42.3 21 46.5 22.1 50.6 24.2 54.1 25.1 55.6 26.2 56.9 27.6 57.9 30.1 59.5 33.1 60.1 36.1 59.6 39.2 59.3 42 57.8 43.9 55.4 44.6 54.3 45.2 53.1 45.7 51.8 46.3 50.1 46.9 48.4 47.2 46.6 47.5 45.1 49 42 47.7 40.7 47.4 40.4 47 40.2 46.6 40.1 42.8 38.5 42.7 34.4 42.9 30.9 43 29.8 42.9 28.7 42.6 27.6 42.1 26.2 41 25.9 39.8 25.3 38.5 24.5 37.1 24.2 35.6 24.4 33.8 24.8 32.4 26.1 31.9 27.9 31.8 28.7 31.7 29.5 31.8 30.2 31.7 31 31.6 31.9 31.5 32.7 31.2 33.5 31 34.2 30.7 34.9Z" stroke="#92B7BC" fill="#92B7BC"/><path d="M46.3 0.1C47.9 0.4 49.7 1.3 50 2.9 50.8 3.1 51.7 3.3 52.4 3.7 52.8 3.9 53.2 4.2 53.5 4.6 53.8 5 53.8 5.5 53.5 5.9 55.2 7 55.7 9.3 54.6 11 54.6 11 54.6 11 54.6 11 54.3 11.3 54.1 11.6 54 12 53.7 12.8 54.3 13.6 54.7 14.4 55.1 15.1 54.9 15.9 54.2 16.3 54.2 16.3 54.1 16.3 54.1 16.4L53.3 16.9C53.2 17 53.1 17.1 53 17.2 52.8 17.6 53.3 17.9 53.3 18.3 53.3 18.7 53 19.1 52.6 19.3 52.2 19.5 51.8 19.8 51.7 20.2 51.7 20.5 51.7 20.8 51.7 21.1 51.7 21.7 51.3 22 50.9 22.3 50.3 22.8 50.1 23.6 49.6 24.2 49.1 24.8 48.4 25.2 47.7 25.4 47.5 25.5 47.4 25.5 47.2 25.5 46.7 25.5 46.3 25.5 45.9 25.4 45.4 25.4 45 25.3 44.5 25.1 44.1 25 43.7 24.8 43.3 24.6 43 24.4 42.7 24.1 42.3 23.9 41.7 23.7 41.2 23.4 40.6 23 39.6 22.1 38.9 20.9 38.7 19.5 38.5 18.6 38.4 17.7 38.2 16.8 38 14.8 37.5 12.8 36.7 11 36 9.7 34.6 8.4 34.5 7 34.3 4 37.9 1.3 40.3 0.5 42 0 44.2-0.2 46.3 0.1Z" stroke="#92B7BC" fill="#92B7BC"/><path d="M28 14.9 28 14.6C28 12.6 28.4 10.7 29 8.8 29.5 7.3 30.3 5.9 31.4 4.7 31.9 4.1 32.5 3.6 33.2 3.2 33.9 2.8 34.7 2.6 35.5 2.4 37.9 1.7 40.5 1.8 42.8 2.8 44.3 3.5 45.7 4.4 46.8 5.5 48.5 6.9 49.7 8.8 50.3 10.9 50.6 12.4 50.7 13.9 50.4 15.3 49.7 19.8 47 24.2 42.8 26.1 41.6 26.6 40.3 27 38.9 27.2 37.9 27.4 36.8 27.4 35.7 27.2 34.8 27 33.9 26.6 33.1 26.1 32.1 25.6 31.2 25 30.4 24.2 29.4 22.9 28.8 21.4 28.8 19.8 28.6 18.9 28.4 18 28.2 17.2 28.1 16.4 28 15.7 28 14.9Z" stroke="#92B7BC" fill="#92B7BC"/><path d="M7.4 113.6C7.3 113.2 7.3 112.8 7.3 112.4 7.4 111.9 7.4 111.4 7.4 110.9 7.4 110.4 7.1 109.9 6.8 109.6 6.5 109.4 6.2 109.3 5.8 109.4 5.4 109.4 5.1 109.6 4.8 109.8 4.1 110.3 3.5 111 3.2 111.8 2.9 112.6 2.8 113.4 2.7 114.3 2.6 115.1 2.4 115.9 2.1 116.7 1.6 117.8 1.2 118.9 0.9 120.1 0.5 121.6 0.2 123.2 0.1 124.8 0.1 126.2 0.3 127.6 0.6 128.9 0.7 129.3 0.9 129.4 1.1 129.3 1.3 129.2 1.2 129.1 1.3 129 1.4 130 1.7 130.9 2 131.8 2 131.9 2.1 131.9 2.1 132L2.1 132 2.1 132C2.4 132 2.6 131.8 2.7 131.6 2.8 131.8 2.9 132.1 3 132.3 3 132.4 3.1 132.6 3.1 132.7 3.1 132.8 3.1 132.9 3.3 132.9 3.5 132.9 3.7 132.8 3.8 132.6 3.9 132.4 3.9 132.2 3.9 132 3.9 131.3 3.9 130.6 3.9 129.9 3.9 129.2 3.8 128.6 3.8 127.9 3.8 127.9 3.9 128.1 4.3 128.9 4.4 129.2 5.2 130.7 5.6 131.4 5.6 131.5 5.8 131.4 5.9 131.4 6 131.4 6.1 131.1 6.1 131 6.1 130.4 6 129.7 5.8 129.1 5.6 128.5 5.3 127.9 5.1 127.3 4.9 126.7 4.8 126.4 4.7 125.9 4.6 125.7 4.6 125.5 4.6 125.3 4.6 125.1 4.6 124.8 4.7 124.6 4.7 122.8 5 122.5 5.9 120.7 5.9 120.8 5.9 120.9 5.9 121L5.9 121.4C5.9 121.7 5.9 121.9 5.8 122.2 5.7 122.8 5.7 123.4 5.8 123.9 5.8 124.2 5.9 124.5 6.1 124.7 6.2 125 6.5 125.1 6.8 125 7.1 124.9 7.3 124.6 7.4 124.2 7.5 123.7 7.6 123.3 7.6 122.8 7.7 122 7.9 121.2 8.1 120.4 8.4 119.7 8.6 118.9 8.8 118.1 8.8 117.2 8.6 116.4 8.2 115.5 7.9 115 7.6 114.3 7.4 113.6Z" stroke="#92B7BC" fill="#92B7BC"/><path d="M21.1 43.1C20.5 42.2 20 41.2 19.3 40.3 19.1 40.1 18.9 39.9 18.6 39.7 17.1 39.1 15.2 39.7 13.8 40.4 10.7 42 9 45 7.5 47.9 6 50.8 4.9 54 4.5 57.3 4 60.9 4.1 64.3 4.5 67.7 4.6 69.6 4.6 71.5 4.7 73.4 5 75.7 5 78 4.8 80.2 4.4 82.1 3.8 83.9 3.1 85.8 2.3 88.6 1.8 91.5 1.8 94.4 1.8 97.2 1.9 99.9 2.2 102.7 2.6 105.3 2.8 107.9 2.8 110.5 2.8 112.3 2.4 114.5 4.1 115.7 4.4 115.9 4.7 116.1 5.1 116.1 5.5 116.1 6 115.9 6.3 115.6 6.9 115.1 7.2 114.4 7.3 113.6 7.4 112.8 7.4 112 7.5 111.1 7.8 109.2 8.2 107.4 8.6 105.5 9 103.6 9.6 101.7 10 99.8 11.1 95.3 12 90.7 12.7 86.1 13 83.6 13.3 81.1 13.4 78.5 13.5 76.5 14.3 72.7 14.6 70.7L15.5 63.9C15.7 62.3 16 60.7 16.4 59.2 16.8 57.9 17.5 56.8 18.3 55.7 20.5 52.9 21.9 50.8 21.9 47.1 22 45.6 21.7 44.3 21.1 43.1Z" stroke="#92B7BC" fill="#92B7BC"/><path d="M46.9 17.6C46.9 17.3 46.9 17 46.8 16.7 46.7 16.4 46.7 16 46.7 15.7 46.6 14.3 46.2 13 45.5 11.9 45.2 11.3 44.8 10.8 44.3 10.3 43.6 9.7 42.7 9.2 41.8 8.9 38.5 7.7 34.9 8.5 32.4 11 31.9 11.4 31.4 12 31.2 12.6 30.9 13.2 30.8 13.9 30.5 14.5 30.3 14.9 30 15.3 29.8 15.7 29.6 16.1 29.5 16.5 29.5 17 29.5 17.2 29.4 17.4 29.4 17.6 29.4 17.7 29.4 17.7 29.4 17.8 29.4 17.9 29.3 18 29.2 18 29.1 18 29.1 17.9 29.1 17.9 29 17.6 28.6 15 27.9 15.8 27.8 15.9 27.7 16.1 27.7 16.3 27.6 16.7 27.6 17.2 27.5 17.6 27.4 18.4 27.5 19.2 27.5 20.1 27.7 22 28.3 22.8 28.9 22.7 28.9 22.7 29 22.7 29 22.7 29 23.5 29 24.4 29.1 25.2 29.3 26.6 29.9 27.8 30.9 28.7 32.5 30.5 34.8 32.6 35.7 32.8 39.1 33.7 40.4 32.2 42.4 30.8 43.4 30.2 44.3 29.3 44.9 28.3 45.4 27.3 45.7 26.3 45.9 25.3 46.3 23.7 46.7 22 46.9 20.4 47 19.9 47 19.5 47 19 47 18.5 47 18 46.9 17.6Z" stroke="#92B7BC" fill="#92B7BC"/><path d="M42.2 7.4C44.6 5.9 47.5 5.5 50.2 6.3 50.9 6.5 51.5 6.7 52.1 7.1 52.4 7.3 52.7 7.6 52.9 7.9 53 8.3 52.9 8.7 52.6 9 52.3 9.2 52 9.5 51.7 9.6 51.4 9.8 51.1 9.9 50.8 10 50.2 10.3 49.5 10.5 48.8 10.6 48.1 10.7 47.4 10.8 46.7 10.8 46.3 10.8 46 10.8 45.6 10.7 45.5 10.7 45.4 10.7 45.3 10.6 45.2 10.6 45.2 10.5 45.2 10.4 45.2 10.3 45.3 10.3 45.3 10.2 45.5 10.1 45.6 10 45.8 10 47.2 9.7 48.6 9.7 50 10 50.7 10.2 51.4 10.4 52 10.7 52.2 10.8 52.3 10.9 52.4 11.1 52.5 11.3 52.6 11.5 52.5 11.7 52.4 12.1 52.1 12.4 51.8 12.6 51.5 12.7 51.1 12.8 50.8 12.9L49.8 13.1 47.8 13.6 47.8 13.3C48.5 13.4 49.1 13.6 49.8 13.7L50.8 14C51.1 14.1 51.5 14.2 51.8 14.3 52 14.4 52.1 14.5 52.3 14.6 52.5 14.8 52.5 15 52.5 15.2 52.4 15.4 52.3 15.6 52.2 15.7 52.1 15.8 51.9 15.9 51.7 16 51 16.3 50.3 16.3 49.9 16.7L49.9 16.5 51.2 17 51.5 17.1C51.6 17.1 51.7 17.2 51.8 17.3 51.9 17.4 52 17.6 51.9 17.8 51.9 17.9 51.8 18.1 51.7 18.2 51.5 18.4 51.3 18.5 51 18.6L50.3 18.9 49 19.4 49 19.2 50 19.9C50.1 20 50.2 20 50.3 20.1 50.4 20.1 50.4 20.2 50.4 20.3 50.4 20.4 50.4 20.5 50.4 20.5 50.3 20.7 50.1 20.9 50 21 49.7 21.2 49.4 21.5 49.1 21.9 48.9 22.2 48.7 22.7 48.7 23.1 48.7 23.1 48.7 23.2 48.6 23.2 48.6 23.2 48.5 23.2 48.5 23.1 48.5 22.6 48.7 22.2 48.9 21.8 49.2 21.4 49.5 21.1 49.8 20.9 49.9 20.8 50.1 20.6 50.2 20.4 50.2 20.3 50.2 20.3 50.2 20.2L50 20.1 48.9 19.4C48.9 19.3 48.9 19.3 48.9 19.2 48.9 19.2 48.9 19.2 48.9 19.2L50.2 18.6 50.9 18.3C51.1 18.2 51.3 18.1 51.5 18 51.7 17.9 51.7 17.7 51.6 17.6 51.4 17.5 51.2 17.4 51 17.3L49.7 16.8C49.6 16.8 49.6 16.7 49.6 16.6 49.6 16.6 49.6 16.6 49.6 16.6L49.6 16.6C49.9 16.4 50.2 16.2 50.6 16.1 50.9 16 51.3 15.9 51.6 15.8 51.9 15.7 52.1 15.5 52.2 15.2 52.3 15 52 14.7 51.7 14.6 51.4 14.5 51 14.4 50.7 14.3 50.4 14.2 50 14.1 49.7 14 49 13.8 48.4 13.7 47.7 13.6 47.6 13.6 47.6 13.5 47.6 13.4 47.6 13.4 47.6 13.4 47.6 13.4 47.6 13.3 47.7 13.3 47.7 13.3L49.7 12.8 50.7 12.6C51 12.5 51.4 12.5 51.7 12.3 52 12.2 52.2 12 52.3 11.7 52.4 11.4 52.2 11.1 51.9 11 51.3 10.7 50.6 10.4 49.9 10.3 48.6 10 47.2 10 45.9 10.2 45.7 10.2 45.6 10.3 45.5 10.4L45.5 10.4 45.5 10.4C45.6 10.4 45.6 10.4 45.7 10.5 46 10.6 46.4 10.6 46.7 10.6 47.4 10.6 48 10.5 48.7 10.4 49.4 10.3 50.1 10.1 50.7 9.8 51 9.7 51.3 9.5 51.6 9.4 52 9.2 52.3 9 52.5 8.8 52.7 8.6 52.7 8.3 52.6 8 52.5 7.7 52.2 7.5 51.9 7.3 51.3 7 50.7 6.7 50 6.5 47.3 5.8 44.5 6.1 42.1 7.5 42.1 7.5 42 7.5 42 7.5 42 7.5 42 7.5 42 7.5 42.1 7.5 42.1 7.5 42.2 7.4 42.2 7.5 42.2 7.5 42.2 7.4Z" stroke="#92B7BC" fill="#92B7BC"/><path d="M37.6 7.6C37.6 7.3 37.6 7.1 37.6 6.8 37.6 6.5 37.7 6.3 37.8 6.1 38 5.6 38.2 5.2 38.5 4.7 38.8 4.3 39.1 3.9 39.5 3.5 39.8 3.1 40.2 2.8 40.7 2.5 40.7 2.5 40.8 2.5 40.8 2.5 40.8 2.5 40.8 2.5 40.8 2.5 40.8 2.5 40.8 2.6 40.8 2.6 40.5 3 40.1 3.3 39.8 3.7 39.4 4 39.1 4.4 38.8 4.8 38.5 5.2 38.3 5.6 38.1 6.1 38 6.3 37.9 6.6 37.9 6.8 37.8 7 37.8 7.3 37.8 7.5 37.8 7.5 37.7 7.6 37.6 7.6 37.7 7.6 37.7 7.6 37.6 7.6 37.7 7.6 37.6 7.6 37.6 7.6Z" stroke="#92B7BC" fill="#92B7BC"/><path d="M40.3 7.4C40.6 7 41 6.7 41.4 6.4 41.8 6.1 42.2 5.8 42.6 5.6 43.5 5.1 44.4 4.7 45.3 4.4 45.8 4.2 46.3 4.1 46.8 4 47.8 3.9 48.8 3.9 49.8 4 50.3 4.1 50.8 4.2 51.2 4.5 51.2 4.5 51.2 4.6 51.2 4.6 51.2 4.6 51.2 4.6 51.2 4.6 51.2 4.6 51.1 4.6 51.1 4.6L51.1 4.6C50.7 4.4 50.2 4.3 49.7 4.3 49.2 4.2 48.7 4.2 48.2 4.2 47.7 4.2 47.2 4.2 46.7 4.3 46.2 4.4 45.8 4.5 45.3 4.6 44.4 4.9 43.5 5.3 42.6 5.8 42.2 6 41.8 6.3 41.4 6.6 41.1 6.8 40.8 7.2 40.3 7.4 40.3 7.5 40.3 7.5 40.3 7.4 40.3 7.5 40.3 7.5 40.3 7.4Z" stroke="#92B7BC" fill="#92B7BC"/><path d="M42.1 1.9C42.1 1.8 42.2 1.8 42.3 1.8L42.5 1.7 42.9 1.5C43 1.4 43.2 1.4 43.3 1.4 43.4 1.4 43.6 1.4 43.7 1.4 43.7 1.4 43.8 1.5 43.8 1.5 43.8 1.5 43.8 1.5 43.8 1.5L43.8 1.5 43.8 1.5C43.7 1.6 43.6 1.6 43.4 1.7L43 1.8C42.9 1.8 42.8 1.9 42.6 1.9L42.3 2C42.2 2 42.2 2.1 42.1 2.1L42.1 2.1C42.1 2 42.1 2 42.1 1.9L42.1 1.9Z" stroke="#92B7BC" fill="#92B7BC"/><path d="M37.2 26.1C37.4 26.1 37.5 26.3 37.7 26.3 37.8 26.3 37.9 26.2 38 26.2 39.1 25.9 39.6 26.5 40.5 26.7 40.8 26.8 40.6 26.9 40.4 27.2 40.1 27.7 39.8 28.1 39.4 28.4 38.9 28.8 38.2 28.9 37.6 28.9 36.9 28.9 36.2 28.6 35.7 28.1 35.3 27.7 35 27.2 34.8 26.7 34.7 26.6 34.8 26.6 34.8 26.5 36.4 26.1 36.8 25.9 37.2 26.1Z" stroke="#92B7BC" fill="#92B7BC"/><path d="M44.8 16.9 44.5 16.7C44.4 16.6 44.3 16.6 44.2 16.5 44.1 16.5 44 16.5 43.8 16.5 42.5 16.7 41.2 17 40 17.4 39.9 17.4 39.9 17.4 39.9 17.5 39.9 17.6 39.9 17.6 39.9 17.7 39.9 17.9 39.7 18.3 39.9 18.5 40.1 18.7 40.1 18.6 40.2 18.5L40.6 18.4C40.8 18.3 41.1 18.3 41.3 18.2 41.5 18.1 41.8 18.1 42 18 42.5 17.9 43 17.7 43.5 17.6 44.1 17.4 44.8 17.4 45.4 17.6 45.6 17.7 46 17.7 45.7 17.4 45.3 17.2 45 17 44.8 16.9Z" stroke="#92B7BC" fill="#92B7BC"/><path d="M43.1 19.3C42.7 18.9 42.1 18.9 41.7 19.2 41.4 19.4 41.2 19.7 41.2 20.1 41.2 20.1 41.2 20.1 41.2 20.2 41.2 20.2 41.2 20.2 41.2 20.2 41.3 20.8 41.9 21.2 42.5 21 42.7 21 42.9 20.8 43.1 20.7 43.4 20.3 43.4 19.7 43.1 19.3Z" stroke="#92B7BC" fill="#92B7BC"/><path d="M45.2 19.1C44.2 19.5 43.3 18.8 42.2 18.9 42 18.9 41.8 19 41.6 19 41.4 19.1 41.2 19.1 41 19.2 40.6 19.4 40.3 19.6 40.1 20 40.1 20 40.1 20.1 40.1 20.1 40.1 20.1 40.2 20.1 40.2 20.1 40.3 20.1 40.4 20 40.5 19.9 40.6 19.8 40.7 19.8 40.8 19.7 41 19.6 41.3 19.5 41.5 19.4 42 19.3 42.5 19.3 43 19.3 43.2 19.3 43.4 19.4 43.6 19.4 44.2 19.7 44.9 19.5 45.4 19.1 45.4 19.2 45.3 19 45.2 19.1Z" stroke="#92B7BC" fill="#92B7BC"/><path d="M31.4 16.6 31.8 16.4C31.9 16.3 32 16.3 32.1 16.2 32.2 16.2 32.3 16.2 32.5 16.2 33.8 16.3 35.1 16.6 36.3 17.1 36.4 17.1 36.4 17.1 36.5 17.2 36.5 17.3 36.5 17.3 36.5 17.4 36.5 17.6 36.7 18 36.5 18.2 36.3 18.4 36.3 18.3 36.2 18.2L35.8 18C35.6 17.9 35.3 17.9 35.1 17.8 34.9 17.7 34.6 17.6 34.4 17.6 33.9 17.5 33.4 17.3 32.9 17.2 32.3 17 31.6 17 31 17.2 30.8 17.3 30.4 17.3 30.6 17 30.9 16.9 31.1 16.7 31.4 16.6Z" stroke="#92B7BC" fill="#92B7BC"/><path d="M33 18.8C33.4 18.4 34 18.4 34.5 18.7 34.8 18.9 35 19.3 35 19.6 35 19.6 35 19.6 35 19.7 35 19.7 35 19.7 35 19.7 34.9 20.3 34.3 20.7 33.7 20.6 33.5 20.6 33.3 20.4 33.1 20.3 32.7 19.9 32.7 19.3 33 18.8Z" stroke="#92B7BC" fill="#92B7BC"/><path d="M30.7 18.6C31.8 19 32.6 18.3 33.8 18.5 34 18.5 34.2 18.6 34.4 18.6 34.6 18.7 34.8 18.7 35 18.8 35.4 19 35.7 19.2 35.9 19.6 35.9 19.6 35.9 19.7 35.9 19.7 35.9 19.7 35.8 19.7 35.8 19.7 35.7 19.7 35.6 19.6 35.5 19.5 35.4 19.4 35.3 19.4 35.2 19.3 35 19.2 34.7 19.1 34.5 19 34 19 33.5 19 33 19.1 32.8 19.1 32.6 19.2 32.4 19.2 31.8 19.4 31 19.3 30.5 18.8 30.4 18.8 30.4 18.7 30.5 18.6 30.6 18.5 30.6 18.6 30.7 18.6Z" stroke="#92B7BC" fill="#92B7BC"/><path d="M37.2 19.3C37.2 19.6 37.2 19.8 37.2 20.1 37.2 20.4 37.2 20.6 37.1 20.9 37 21.4 36.9 21.9 36.8 22.5 36.7 23 36.6 23.5 36.5 24.1 36.5 24.3 36.5 24.6 36.6 24.8 36.7 25 36.9 25.2 37.1 25.3 37.1 25.3 37.1 25.3 37.1 25.4 37.1 25.4 37.1 25.4 37 25.4 36.7 25.3 36.5 25.2 36.3 24.9 36.2 24.6 36.1 24.4 36.1 24.1 36.1 23.6 36.2 23 36.3 22.5 36.4 22 36.5 21.5 36.6 21 36.6 20.7 36.7 20.5 36.7 20.2 36.7 19.9 36.8 19.7 36.8 19.4 37.1 19.2 37.1 19.2 37.2 19.3L37.2 19.3Z" stroke="#92B7BC" fill="#92B7BC"/><path d="M36.9 27.1C37 27.1 37.1 27.1 37.3 27.1L37.7 27.1 38 27.1C38.1 27.1 38.2 27.1 38.4 27.1 38.4 27.1 38.4 27.1 38.4 27.1L38.4 27.1C38.2 27.2 37.9 27.2 37.7 27.2 37.6 27.2 37.4 27.2 37.3 27.2 37.1 27.2 37 27.2 36.9 27.1L36.9 27.1Z" stroke="#92B7BC" fill="#92B7BC"/><path d="M24.4 39.3C24.5 41.5 24.9 43.6 25.7 45.6 27 49.1 26.9 49.8 29.7 53 30.3 53.7 31 54.4 31.8 55 34.7 57.1 38 56.3 40.2 54.1 41.7 52.7 42.9 50.9 43.7 49 44.8 45.9 45.4 42.7 45.3 39.5 47 40.3 48.9 41 50.8 41.4 50.6 44.3 50.6 47.2 50.9 50 51 51.2 51.5 52.3 52.3 53.2 53.3 54.5 54.5 56.6 54.4 58.2 54.4 59.9 53.9 61.6 53.1 63.1 51.2 66.2 47.9 67 44.3 67.1 42.5 67.2 38.8 67 34.9 67.2 32.7 67.3 29.9 67.8 27.7 67.9 23.7 68 20.8 67.8 19.2 67 16.4 65.8 14.6 63 14.7 59.9 14.8 57.3 15.9 54.8 17.9 53 19.1 51.3 20 48.8 18.9 43.1 18.7 41.9 18.5 40.7 18.2 39.6 20.2 39.6 22.2 39.5 24.2 39.2 24.2 39.2 24.3 39.2 24.3 39.2 24.3 39 24.4 39.1 24.4 39.3L24.4 39.3Z" stroke="#92B7BC" fill="#92B7BC"/><path d="M15.7 64.3C15 63.4 14.6 62.4 14.4 61.3 14.3 60.7 14.3 60.2 14.3 59.6 14.3 59 14.4 58.5 14.5 57.9 14.6 57.4 14.8 56.8 15 56.3 15.2 55.8 15.5 55.3 15.9 54.8 16.5 53.9 17.2 53 17.8 52.1 18.4 51.2 18.8 50.2 19 49.1 19.2 48 19.3 47 19.2 45.9 18.9 43.7 18.5 41.6 18 39.5 18 39.4 18 39.4 18.1 39.4 18.1 39.4 18.2 39.4 18.2 39.5 18.8 41.6 19.3 43.8 19.5 46 19.6 47.1 19.5 48.2 19.3 49.3 19.1 50.4 18.7 51.4 18.1 52.4 17.5 53.4 16.8 54.2 16.2 55.1 15.9 55.5 15.6 56 15.4 56.5 15.2 57 15 57.5 14.9 58 14.8 58.5 14.7 59.1 14.7 59.6 14.6 60.1 14.6 60.7 14.7 61.2 14.8 61.7 14.9 62.2 15.1 62.7 15.3 63.2 15.6 63.7 15.9 64.1 15.9 64.1 15.9 64.2 15.9 64.2 15.8 64.3 15.8 64.3 15.7 64.3Z" stroke="#92B7BC" fill="#92B7BC"/><path d="M50.3 65.6C51.2 64.9 51.9 64.1 52.5 63.2 53.1 62.3 53.5 61.3 53.8 60.2 54 59.1 54.1 58.1 53.9 57 53.8 56.5 53.6 56 53.4 55.5 53.2 55 52.9 54.6 52.6 54.1 52.3 53.6 51.9 53.2 51.7 52.7 51.4 52.2 51.2 51.7 51 51.1 50.7 50 50.5 48.9 50.4 47.8 50.3 46.7 50.3 45.6 50.4 44.5 50.4 43.4 50.5 42.3 50.7 41.2 50.7 41.2 50.7 41.1 50.8 41.1 50.8 41.1 50.8 41.1 50.8 41.1 50.8 41.1 50.9 41.1 50.9 41.2 50.9 41.2 50.9 41.2 50.9 41.2L50.9 41.2C50.8 42.3 50.7 43.4 50.8 44.5 50.8 45.6 50.8 46.7 50.9 47.8 51 48.9 51.2 50 51.5 51 51.6 51.5 51.9 52 52.1 52.5 52.4 53 52.7 53.4 53 53.8 53.3 54.3 53.6 54.7 53.9 55.2 54.1 55.7 54.3 56.3 54.4 56.8 54.6 57.9 54.6 59 54.3 60.1 54 61.2 53.6 62.2 53 63.1 52.4 64 51.6 64.8 50.7 65.5 50.7 65.5 50.6 65.5 50.6 65.5 50.2 65.7 50.2 65.6 50.3 65.6Z" stroke="#92B7BC" fill="#92B7BC"/><path d="M45.3 39.5C45.4 41.3 45.3 43.1 44.9 44.9 44.6 46.7 44 48.4 43.2 50.1 42.4 51.8 41.4 53.3 40 54.5 39.3 55.1 38.5 55.6 37.7 56 37.3 56.2 36.8 56.3 36.4 56.5 36.2 56.6 35.9 56.6 35.7 56.6 35.5 56.6 35.2 56.6 35 56.6 34.1 56.5 33.2 56.2 32.4 55.7 31.6 55.2 30.8 54.7 30.2 54 28.9 52.7 27.8 51.2 27 49.6 26.2 48 25.5 46.3 25.1 44.5 25 44 24.9 43.6 24.8 43.2 24.7 42.8 24.6 42.3 24.6 41.9 24.5 41 24.4 40.1 24.3 39.2 24.3 39.2 24.3 39.1 24.4 39.1 24.4 39.1 24.4 39.1 24.4 39.1 24.4 39.1 24.5 39.1 24.5 39.2 24.5 39.2 24.5 39.2 24.5 39.2 24.6 40.1 24.7 41 24.9 41.9 25.1 42.8 25.3 43.7 25.5 44.5 26 46.2 26.6 47.9 27.4 49.5 28.2 51.1 29.3 52.6 30.5 53.8 31.1 54.4 31.8 55 32.6 55.4 33.4 55.8 34.2 56.1 35.1 56.2 35.5 56.3 36 56.2 36.4 56.1 36.8 56 37.2 55.9 37.6 55.7 38.4 55.3 39.2 54.8 39.8 54.3 41.1 53.1 42.2 51.7 43 50.1 43.8 48.5 44.3 46.8 44.7 45 45.1 43.2 45.2 41.4 45.2 39.6 45.2 39.6 45.2 39.5 45.3 39.5 45.1 39.4 45.1 39.4 45.3 39.5 45.2 39.4 45.2 39.4 45.3 39.5Z" stroke="#92B7BC" fill="#92B7BC"/><path d="M12.1 100.5C16.2 100.1 20.3 100.2 24.3 100.8 28.4 101.3 32.3 102.9 35.6 105.5 36 105.9 36.5 106.2 37.1 106.2 38.7 106.1 42.3 100.4 47.8 97.4 51 95.6 54.3 94.2 57.8 93 58.5 92.8 58.7 92.6 58.7 92.3 58.7 92 58.5 91.6 58.3 91.1 57.8 89.5 57.2 88 56.6 86.4 56 84.8 55.3 83.5 54.8 82 54.5 82.1 54.1 82.3 53.8 82.4 53.4 82.6 53 82.7 52.7 82.8L50.6 83.5C49.4 83.9 48.2 84.3 47.1 84.6 44.9 85.2 42.6 85.8 40.4 86.4 36.9 87.4 33.2 88.1 24.9 88.6 21.1 88.9 17.3 88.8 13.5 88.4 13.4 88.4 13.4 88.4 13.3 88.4 13.2 88.5 13.2 88.5 13.2 88.6 12.6 90.6 12.3 92.7 12.1 94.8 12.1 96.7 12 98.6 12.1 100.5Z" stroke="#92B7BC" fill="#92B7BC"/><path d="M56.5 86.4C56.3 86.1 56.1 85.7 56 85.4 55.9 85.2 55.9 84.9 55.7 84.8 55.6 84.8 55.5 84.8 55.4 84.8 54.7 85.2 54.1 85.8 53.5 86.3 53.2 86.6 52.9 86.8 52.5 87 52.3 87.1 52 87 51.9 86.7 51.8 87 51.2 87.5 50.9 87.6 50.6 87.7 50.4 87.4 50.5 87.3 50.7 86.7 50.8 86 50.8 85.3 50.8 85.4 50.7 85.6 50.6 85.7 50.6 85.8 50.5 85.8 50.4 85.9 50.3 85.9 50.2 85.9 50.2 85.9 50.1 85.9 50.1 85.8 50 85.8 49.9 85.6 49.8 85.3 49.9 85 50 84.5 50.1 84 50.2 83.4 50.3 82.8 50.5 82.3 50.6 81.7 50.9 80.6 51.3 79.6 51.9 78.6 52.1 78 52.5 77.6 53 77.2 53.6 76.8 54.2 77.3 54.6 77.8 54.9 77.5 55.3 77.5 55.6 77.7 56.2 78.1 56.3 79.1 56.9 79.5 57.6 79.6 58.1 80.1 58.3 80.7 58.8 81.9 59.5 83 60.2 84.1 60.3 84.4 60.6 84.6 60.9 84.6 61 84.6 61.1 84.6 61.1 84.6 61.3 84.7 61.4 84.9 61.5 85.1 61.6 85.5 61.7 86 61.6 86.4 61.3 87.1 60.8 87.6 60 87.7 59.6 87.8 59.1 87.7 58.7 87.8 57.7 88.3 57.1 87.5 56.5 86.4Z" stroke="#92B7BC" fill="#92B7BC"/><path d="M52.9 77.9C52.7 77.6 52.4 77.4 52.1 77.3 51.5 77.4 50.9 77.8 50.6 78.4 49.9 79.7 49.2 81.1 48.5 82.4 48.5 82.4 48.5 82.5 48.5 82.5 48.5 82.7 49.1 82.6 49.3 82.5 50.2 81.9 50.6 80.8 51.3 79.9 51.5 79.7 51.7 79.4 52 79.5 52.3 79.6 52.5 79.9 52.8 79.9 52.9 79.9 53 79.8 53.1 79.7 53.3 79.2 53.3 78.4 52.9 77.9Z" stroke="#92B7BC" fill="#92B7BC"/><path d="M51 77.9C50.5 78.7 50.1 79.5 49.6 80.4 49.1 81.3 48.8 82 48.4 82.9L48.4 82.7C48.5 82.8 48.6 82.7 48.8 82.7 48.9 82.6 49.1 82.5 49.2 82.4 49.5 82.2 49.7 81.9 50 81.7 50.5 81.2 50.9 80.6 51.3 80 51.3 79.9 51.5 79.9 51.5 79.9 51.5 79.9 51.5 79.9 51.5 79.9 51.6 79.9 51.6 80 51.6 80.1 51.2 81.3 50.8 82.5 50.5 83.7 50.3 84.3 50.3 84.9 50.2 85.5 50.2 85.6 50.2 85.8 50.2 85.9 50.2 86 50.2 85.9 50.2 85.9 50.2 85.9 50.3 85.9 50.3 85.9 50.5 85.7 50.7 85.5 50.8 85.3 50.8 85.2 50.9 85.2 51 85.2 51 85.2 51 85.2 51 85.2 51.1 85.2 51.1 85.3 51.1 85.4 50.9 86 50.7 86.6 50.7 87.2 50.7 87.3 50.7 87.3 50.7 87.4 50.7 87.5 50.7 87.5 50.7 87.5 50.7 87.5 50.9 87.5 51 87.4 51.2 87.2 51.5 87 51.6 86.7L52 87C52 87 52 87.1 52 87.1 52.1 87.1 52.2 87.1 52.2 87.1 52.4 87 52.6 86.9 52.8 86.8 53.2 86.5 53.6 86.2 54 85.9L55.1 84.9C55.4 84.5 55.9 84.2 56.4 84.1 56.4 84.1 56.5 84.1 56.5 84.2 56.5 84.2 56.5 84.3 56.5 84.3 56 84.4 55.6 84.7 55.3 85.1 54.9 85.4 54.6 85.8 54.2 86.1 53.8 86.5 53.4 86.8 53 87 52.8 87.1 52.6 87.3 52.3 87.4 52.2 87.5 52 87.5 51.8 87.4 51.7 87.4 51.7 87.3 51.6 87.2 51.5 87.1 51.5 87 51.6 86.9 51.6 86.8 51.7 86.8 51.8 86.9 51.8 86.9 51.8 86.9 51.8 86.9 51.9 86.9 51.9 87 51.9 87 51.9 87 51.9 87 51.9 87 51.7 87.3 51.5 87.5 51.2 87.8 51.1 88 50.8 88 50.6 88 50.5 88 50.4 87.8 50.3 87.7 50.3 87.6 50.3 87.5 50.3 87.4 50.3 86.7 50.4 86 50.7 85.4L51 85.5C50.8 85.8 50.6 86.1 50.3 86.3 50.2 86.4 50.1 86.4 49.9 86.4 49.8 86.4 49.8 86.3 49.7 86.3 49.7 86.2 49.6 86.2 49.6 86.1 49.6 85.9 49.6 85.8 49.6 85.6 49.6 85 49.7 84.3 49.9 83.7 50.2 82.4 50.5 81.2 51 80L51.3 80.2C50.9 80.9 50.5 81.5 50 82 49.7 82.3 49.5 82.5 49.2 82.8 49.1 82.9 48.9 83 48.7 83.1 48.6 83.1 48.5 83.2 48.4 83.2 48.3 83.2 48.1 83.2 48 83.2L48 83.2C47.9 83.2 47.9 83.1 48 83 48.4 82.1 48.8 81.3 49.3 80.5 49.8 79.7 50.4 78.6 51 77.9 51 77.8 51 77.8 51 77.9 51 77.9 51 77.9 51 77.9 51 77.9 51 77.9 51 77.9Z" stroke="#92B7BC" fill="#92B7BC"/><path d="M34.5 51.7C34.6 51.8 34.8 52 34.9 52.2 35 52.4 35.1 52.5 35.2 52.7 35.4 53 35.5 53.4 35.6 53.8 35.7 54.2 35.8 54.6 35.8 55 35.8 55.4 35.8 55.8 35.7 56.2 35.7 56.2 35.7 56.2 35.6 56.2 35.6 56.2 35.6 56.2 35.6 56.2 35.6 55.8 35.6 55.5 35.6 55.1 35.6 54.7 35.5 54.4 35.4 54 35.3 53.6 35.2 53.3 35 53L34.8 52.5C34.6 52.1 34.5 51.9 34.5 51.7 34.4 51.7 34.4 51.7 34.5 51.7 34.4 51.7 34.5 51.7 34.5 51.7Z" stroke="#92B7BC" fill="#92B7BC"/><path d="M35.7 53.2C35.7 53.1 35.7 53.1 35.7 53 35.7 52.9 35.7 52.9 35.8 52.8 35.9 52.7 35.9 52.5 36 52.4 36.1 52.3 36.2 52.2 36.3 52.1 36.4 52 36.5 51.9 36.6 51.8 36.6 51.8 36.6 51.8 36.7 51.8M36.8 51.9C36.7 52 36.6 52.1 36.6 52.2L36.4 52.5 36.2 52.8 36 53.1C36 53.1 35.9 53.2 35.9 53.3 35.9 53.3 35.9 53.3 35.8 53.3 35.8 53.3 35.8 53.3 35.8 53.3 35.8 53.3 35.8 53.3 35.8 53.3L36.8 51.9Z" stroke="#92B7BC" fill="#92B7BC"/><path d="M36.3 43.3C36.4 43.2 36.6 43.2 36.7 43.2 36.8 43.2 36.9 43.1 37.1 43 37.3 42.8 37.5 42.6 37.7 42.4 37.9 42.2 38.3 42 38.6 42.1 38.9 42.1 39.2 42.2 39.5 42.3 39.5 42.3 39.5 42.4 39.5 42.4 39.5 42.4 39.5 42.4 39.4 42.4 39.1 42.4 38.8 42.4 38.6 42.4 38.3 42.4 38.1 42.5 37.9 42.7 37.7 42.9 37.5 43.1 37.2 43.3 37.1 43.4 36.9 43.4 36.7 43.4 36.5 43.4 36.4 43.4 36.2 43.4 36.2 43.5 36.2 43.4 36.3 43.3L36.3 43.3 36.3 43.3Z" stroke="#92B7BC" fill="#92B7BC"/><path d="M14.2 50.8C14.4 50.9 14.5 51 14.7 51.1L15.1 51.5C15.4 51.8 15.6 52.1 15.7 52.4 15.9 52.7 16 53.1 16.1 53.4 16.2 53.8 16.2 54.1 16.2 54.5 16.2 54.5 16.2 54.5 16.1 54.5M16 54.4C15.9 54.1 15.8 53.7 15.7 53.4 15.5 52.8 15.1 52.2 14.7 51.6 14.6 51.5 14.5 51.3 14.4 51.2 14.3 51.1 14.2 51 14 50.8 14 50.8 14 50.7 14 50.7 14 50.7 14 50.7 14 50.7 14 50.7 14.1 50.7 14.1 50.7L16 54.4Z" stroke="#92B7BC" fill="#92B7BC"/><path d="M52.2 53.1C52.2 53 52.2 52.9 52.2 52.8 52.2 52.7 52.2 52.6 52.2 52.5 52.2 52.3 52.3 52.1 52.4 51.9 52.5 51.7 52.6 51.6 52.8 51.4 52.9 51.3 53.1 51.1 53.3 51 53.3 51 53.4 51 53.4 51 53.4 51 53.4 51 53.4 51.1 53.3 51.3 53.2 51.4 53.1 51.6 53 51.8 52.9 51.9 52.8 52.1 52.7 52.3 52.6 52.4 52.6 52.6L52.5 52.9C52.5 53 52.5 53.1 52.4 53.2L52.4 53.2C52.3 53.1 52.3 53.1 52.2 53.1L52.2 53.1Z" stroke="#92B7BC" fill="#92B7BC"/><path d="M66.6 72.9C66.6 72.7 66.7 72.6 66.9 72.5 67 72.4 67.2 72.3 67.3 72.2 67.6 72 67.9 71.9 68.1 71.8 68.7 71.6 69.3 71.5 70 71.5 70 71.5 70.1 71.5 70.1 71.6 70.1 71.6 70.1 71.6 70 71.7 69.7 71.8 69.4 71.8 69.1 71.9 68.8 72 68.5 72.1 68.3 72.2 68.1 72.3 67.7 72.4 67.5 72.6L67 72.7C66.9 72.8 66.8 72.9 66.7 73L66.7 73C66.7 73 66.7 73 66.6 72.9 66.6 72.9 66.6 72.9 66.6 72.9Z" stroke="#92B7BC" fill="#92B7BC"/><path d="M9.4 80.6C9.5 80.7 9.5 80.8 9.5 80.9L9.7 81.2C9.8 81.4 9.9 81.5 10 81.7 10.1 81.9 10.2 82 10.3 82.2 10.4 82.4 10.5 82.6 10.5 82.8 10.5 82.8 10.5 82.8 10.5 82.9M10.5 82.8C10.4 82.6 10.2 82.5 10.1 82.3 10 82.1 9.8 82 9.7 81.8 9.6 81.6 9.5 81.4 9.4 81.2 9.3 81.1 9.3 81 9.2 80.9 9.2 80.8 9.2 80.7 9.2 80.6 9.2 80.6 9.2 80.5 9.3 80.5 9.3 80.5 9.3 80.5 9.3 80.5L9.3 80.5 10.5 82.8Z" stroke="#92B7BC" fill="#92B7BC"/><path d="M27.8 150.6C27.9 150.7 28 150.8 28.1 150.9L28.4 151.2C28.6 151.4 28.8 151.7 29 151.9 29.2 152.2 29.3 152.4 29.4 152.7 29.5 153 29.6 153.3 29.7 153.6 29.7 153.6 29.7 153.7 29.7 153.7 29.7 153.7 29.7 153.7 29.6 153.7 29.4 153.4 29.3 153.2 29.1 152.9 28.9 152.6 28.8 152.4 28.6 152.1L28.1 151.4 27.8 151C27.7 150.9 27.6 150.7 27.6 150.6 27.7 150.7 27.7 150.7 27.8 150.6L27.8 150.6Z" stroke="#92B7BC" fill="#92B7BC"/><path d="M33 152.6C33 152.5 33 152.4 33 152.4 33 152.3 33 152.2 33 152.2 33 152 33.1 151.9 33.2 151.8 33.3 151.7 33.4 151.5 33.5 151.4 33.6 151.3 33.7 151.2 33.9 151.1 33.9 151.1 34 151.1 34 151.1 34 151.1 34 151.1 34 151.1L34 151.2C33.9 151.3 33.8 151.4 33.8 151.6 33.7 151.7 33.7 151.8 33.6 152L33.4 152.4 33.3 152.6C33.2 152.5 33.2 152.6 33 152.6L33 152.6C33.1 152.7 33 152.7 33 152.6 33 152.6 33 152.6 33 152.6L33 152.6Z" stroke="#92B7BC" fill="#92B7BC"/><path d="M43.7 146C43.7 146 43.7 146 43.7 146L43.8 146.1 44 146.3C44.1 146.4 44.2 146.6 44.3 146.7 44.4 146.8 44.4 147 44.5 147.2 44.5 147.4 44.6 147.5 44.6 147.7 44.6 147.7 44.6 147.8 44.5 147.8L44.5 147.8C44.4 147.7 44.3 147.5 44.3 147.4 44.3 147.3 44 147 44 146.9L43.8 146.5 43.7 146.3C43.7 146.3 43.6 146.2 43.6 146.2 43.6 146.1 43.6 146 43.7 146L43.7 146 43.7 146Z" stroke="#92B7BC" fill="#92B7BC"/><path d="M48.6 208.5C48.9 208.6 49.3 208.8 49.5 209.3 49.7 209.8 49.6 210.2 49.5 210.4 49 211.7 45.4 212.2 42.5 211.2 41.3 210.8 40.8 210.4 38.7 209.7 37.5 209.3 36.9 209.2 36.4 209.2 35.6 209.2 33.2 209.3 32.5 209.3 32.4 209.3 32.2 209.3 32 209.1 31.8 209 31.8 208.7 31.8 208.5 31.7 207.9 31.8 207.3 31.8 206.7 31.8 206.5 31.9 206.3 32 206.2 32.2 206 32.5 206 32.8 206 34.8 206.1 36.7 206.7 38.7 207.1 40.5 207.4 42.2 207.4 44 207.1 45.7 206.8 46.9 207.6 48.6 208.5Z" stroke="#92B7BC" fill="#92B7BC"/><path d="M21.5 210.1C21.1 211 20.2 213 20.7 214.4 21 215.2 21.4 215.7 22.5 216.4 23.6 217.1 24.7 217.7 25.9 218.2 27.4 218.9 28.9 219.1 30.1 218.5 31.6 217.7 31.8 215.4 32.1 212.7 32.2 211.2 32.3 208.9 31.8 206.2 31.2 208.5 30.6 210.7 30 212.9 29.9 213.3 29.7 213.8 29.4 214.1 29.2 214.3 28.9 214.4 28.6 214.4 27.7 214.6 25 213.9 23.8 211.5 22.6 209.2 23.7 206.8 23.8 206.5 22.6 207.9 21.9 209.2 21.5 210.1Z" stroke="#92B7BC" fill="#92B7BC"/><path d="M31.8 209.1C31.9 204.8 32.2 200.5 32.4 196.2 32.6 191.9 32.9 187.6 33.1 183.4 33.6 174.8 35.1 166.4 36 157.8 36.5 153.5 36.8 149.3 37 145 37.2 140.7 37.4 136.4 37.7 132.2 37.8 130.1 38 127.9 38 125.8L38.1 122.6C38.1 121.5 38.2 120.4 38.2 119.4 38.2 117.3 38.1 115.1 37.9 113 37.7 110.9 37.4 108.7 37.1 106.6 37.1 106.6 37.1 106.5 37.2 106.5 37.2 106.5 37.2 106.5 37.2 106.5 37.2 106.5 37.3 106.5 37.3 106.6 37.7 108.7 38 110.9 38.2 113 38.5 115.1 38.6 117.3 38.6 119.4 38.6 120.5 38.6 121.6 38.5 122.6L38.4 125.8C38.3 127.9 38.2 130.1 38.1 132.2 37.8 136.5 37.7 140.8 37.4 145 37.1 149.2 36.9 153.6 36.4 157.8 35.5 166.3 34 174.8 33.5 183.3 33.2 187.6 33 191.9 32.8 196.1L32 209.1C32 209.1 32 209.2 31.9 209.2 31.9 209.2 31.9 209.2 31.9 209.2 31.9 209.3 31.8 209.2 31.8 209.1 31.8 209.2 31.8 209.2 31.8 209.1Z" stroke="#92B7BC" fill="#92B7BC"/><path d="M25 206C25.1 205.9 25.2 205.8 25.4 205.7 25.5 205.6 25.7 205.5 25.8 205.4 26.1 205.2 26.4 205.1 26.7 205 27 204.9 27.4 204.8 27.7 204.8 28 204.8 28.4 204.8 28.7 204.8 28.7 204.8 28.8 204.8 28.7 204.9 28.7 204.9 28.7 204.9 28.7 205 28.4 205.1 28.1 205.1 27.7 205.2 27.4 205.3 27.1 205.3 26.8 205.5 26.5 205.6 26.2 205.7 25.9 205.8L25.4 206C25.3 206.1 25.1 206.1 25 206.2 25 206.2 24.9 206.2 24.9 206.2 24.9 206.2 25 206 25 206L25 206 25 206Z" stroke="#92B7BC" fill="#92B7BC"/><path d="M32.4 30C32.8 30.3 33.2 30.6 33.5 31 33.8 31.4 34.3 31.6 34.7 31.9 35.1 32.2 35.5 32.4 35.9 32.6 36.4 32.7 36.8 32.8 37.3 32.8 38.2 32.9 39.2 32.6 40 32.2 40.9 31.8 41.6 31.1 42.5 30.6L42.5 30.6C42.5 30.6 42.6 30.6 42.6 30.6 42.6 30.6 42.6 30.7 42.6 30.7 41.8 31.3 41.1 31.9 40.2 32.5 39.3 33 38.2 33.3 37.2 33.2 36.7 33.2 36.2 33.1 35.7 32.9 35.4 32.8 35.2 32.7 35 32.6 34.8 32.5 34.6 32.3 34.4 32.1 34 31.8 33.6 31.5 33.3 31.1 32.9 30.8 32.6 30.4 32.3 30 32.3 30 32.3 29.9 32.3 29.9 32.3 29.9 32.3 29.9 32.4 30 32.4 29.9 32.4 30 32.4 30Z" stroke="#92B7BC" fill="#92B7BC"/></g></g></g><path d="M44.6 153.5C43.5 155.5 42.3 157.4 40.7 159 38 161.6 34.4 163 30.8 163.9 27.2 164.8 23.4 165.1 19.8 166.1 17.8 166.6 16 167.4 14 167.1 15.7 158.6 15.3 149.9 14.4 141.3 13.3 131.3 12.3 126.4 11.8 115.5 11.4 106.7 11.8 99.5 12.2 94.8 27.5 93.4 42.8 91.9 58.1 90.5" stroke="#92B7BC" fill="#92B7BC"/><path d="M37.7 157.1C40.1 162.7 45.7 166.9 51.8 167.5 52.7 154.4 53.6 141.3 56.3 128.5 57.7 122.1 59.5 115.8 60.3 109.4 61.1 103 60.8 96.2 58.1 90.2 57.4 89.8 56.9 89 56.4 88.4" stroke="#92B7BC" fill="#92B7BC"/><path d="M49.9 66.1C48 66.8 45.8 66.9 43.8 66.4" stroke="#92B7BC" stroke-width="0.25" stroke-miterlimit="10" fill="#92B7BC"/><path d="M18 71.6C19.5 72.6 21.4 72.9 23.1 72.6" stroke="#92B7BC" stroke-width="0.25" stroke-miterlimit="10" fill="#92B7BC"/><path d="M47.4 69.6C48.1 69.6 48.9 69.5 49.6 69.3 49.1 69.9 48.5 70.6 47.7 70.9" stroke="#92B7BC" stroke-width="0.25" stroke-miterlimit="10" fill="#92B7BC"/><path d="M18.1 71.9C18.6 72.7 19.4 73.4 20.3 73.7" stroke="#92B7BC" stroke-width="0.25" stroke-miterlimit="10" fill="#92B7BC"/><path d="M15.5 64C17.6 66.1 20.6 67.3 23.6 67.1" stroke="#92B7BC" stroke-width="0.25" stroke-miterlimit="10" fill="#92B7BC"/><path d="M39.8 159.3C48.9 141 50.8 119.3 45.2 99.7" stroke="#92B7BC" stroke-width="0.25" stroke-miterlimit="10" fill="#92B7BC"/></svg>