<svg viewBox="0 0 94.8 198.9" xmlns="http://www.w3.org/2000/svg" xmlns:xlink="http://www.w3.org/1999/xlink" overflow="hidden"><g id="Слой_1"><g id="Layer_2"><linearGradient x1="73.3529" y1="51.4183" x2="20.7729" y2="174.878" gradientUnits="userSpaceOnUse" id="SVGID_1_" gradientTransform="matrix(1 0 0 -1 0 199.323)"><stop offset="0" stop-color="#F5A9A9"/><stop offset="1" stop-color="#E39191"/></linearGradient><linearGradient x1="38.974" y1="47.0146" x2="25.114" y2="154.515" gradientUnits="userSpaceOnUse" id="SVGID_2_" gradientTransform="matrix(1 0 0 -1 0 199.323)"><stop offset="0" stop-color="#F5A9A9"/><stop offset="1" stop-color="#E39191"/></linearGradient><linearGradient x1="49.1872" y1="153.933" x2="49.1872" y2="176.673" gradientUnits="userSpaceOnUse" id="SVGID_3_" gradientTransform="matrix(1 0 0 -1 0 199.323)"><stop offset="0" stop-color="#F5A9A9"/><stop offset="1" stop-color="#E39191"/></linearGradient><linearGradient x1="44.1299" y1="149.893" x2="43.3399" y2="88.6928" gradientUnits="userSpaceOnUse" id="SVGID_4_" gradientTransform="matrix(1 0 0 -1 0 199.323)"><stop offset="0" stop-color="#F5A9A9"/><stop offset="1" stop-color="#E39191"/></linearGradient><linearGradient x1="49.2893" y1="175.263" x2="49.2893" y2="192.563" gradientUnits="userSpaceOnUse" id="SVGID_5_" gradientTransform="matrix(1 0 0 -1 0 199.323)"><stop offset="0" stop-color="#F5A9A9"/><stop offset="0.44" stop-color="#F3A6A6"/><stop offset="0.78" stop-color="#EC9C9C"/><stop offset="1" stop-color="#E39191"/></linearGradient><path d="M36.2 5.7C32.1 9.2 32.2 13.5 32.5 14 29.7 13.6 26.8 15.3 25.1 16.8 23.4 18.3 22.3 20.9 23.3 23 21.4 23.7 19.7 24.8 18.4 26.4 17.4 27.7 16.6 29.5 17.4 31 18.3 32.9 20.8 33.2 22.8 33.3 21.9 34.4 22.1 36 23.2 36.8 23.2 36.8 23.2 36.8 23.3 36.9 24.5 37.7 25.9 38 27.2 37.6 28.6 37.4 29.9 36.9 31.2 36.8 32.8 39.1 35.2 40.7 38 41.2 40.7 41.6 43.5 41.7 46.3 41.4 49.6 41.2 53 40.9 56 39.5 56.6 39.1 57.3 38.9 58 38.7 58.7 38.6 59.3 38.7 59.9 38.9 63 39.6 66.5 40.6 69.1 38.8 69.5 38.5 69.8 38.2 70 37.7 70.1 37.3 70.2 36.8 70.1 36.3L69.8 32.6C72.6 32.4 75.3 31.7 77.9 30.7 79.2 30.2 80.6 29.3 80.8 27.9 81 26.5 79.9 25.4 78.8 24.6 77 23.3 75 22.5 72.8 22.2 74.3 20.8 75.9 19.2 76.1 17.1 76.4 14.7 74.5 12.4 72.3 11.4 69.8 10.3 67.2 9.7 64.5 9.6 62.7 5.9 59.1 3 55.7 1.3 51.5-0.8 45.9 1.9 45.9 1.9 45.9 1.9 41.6 1.1 36.2 5.7Z" fill="#FFE6D6"/><path d="M35.6 42.2C35.6 40.2 35.5 38.2 35.2 36.2 35 36.2 34.8 36.2 34.6 36.2 34.3 36.2 34.1 36.1 33.8 36 33.2 35.9 32.6 35.9 32 36 30.9 36.2 29.8 36.5 28.8 37 27.1 37.9 25.5 39 24 40.3 21.1 42.7 18.2 45.1 15.4 47.6 10.1 52.4 4.8 57.5 0.8 63.3 0.5 63.7 0.3 64 0.2 64.5 0.1 64.7 0 64.8 0 65 0 65.3 0 65.7 0.2 66 1.5 69.4 3.3 72.7 5.6 75.6 8.3 78.9 14.5 84.9 17.8 86.3 19.4 87 21.2 86.5 21.1 84.4 21 83.3 20.2 82.7 19.3 82.2 18.8 81.9 18.4 81.6 17.9 81.2 12.7 77 10.4 70.7 7.6 65.8L12.3 61.8C13.8 60.5 15.5 59.6 17.1 58.4 20.6 55.7 24.3 53.3 28.1 51.2 28.9 50.8 29.6 50.2 30.5 49.9 30.6 50.5 30.6 51.1 30.7 51.8 30.7 51.9 30.7 51.9 30.8 52 30.9 52.1 31.4 52 31.6 52 31.9 52 32.3 51.9 32.6 51.7 33.2 51.4 33.8 51 34.3 50.5 35 49.6 35.4 48.6 35.6 47.5 35.8 46.4 35.8 45.3 35.8 44.2 35.6 43.6 35.6 42.9 35.6 42.2Z" fill="#F5A9A9"/><path d="M55.6 129.2C56.1 130.3 56.6 131.3 57 132.4 58.9 136.9 59.3 141.3 59.8 146.1 60.5 150.9 61.9 155.6 63.9 160 66.2 165.3 70.3 170.2 73.6 175.8 75.7 179.4 77.4 182.9 77.6 187.7 77.6 189 77.5 190.2 77.4 191.5 77.3 192.5 77.7 193.5 78.5 194.1 80.1 195.1 82.2 194.5 83.7 195.6 84.4 196.1 85.1 196.7 85.7 197.3 86.1 197.7 86.6 197.9 87.1 198.2 87.6 198.3 88 198.4 88.5 198.5 88.9 198.6 89.2 198.9 89.6 198.9 89.9 199 90.3 199 90.6 199 91.3 199.1 92 199 92.7 198.7 93.3 198.4 93.8 197.9 94.3 197.4 94.8 197 94.9 196.4 94.7 195.8 94.3 195.3 93.8 194.8 93.3 194.5 89.7 192.3 86.9 189.1 85.1 185.3 83.2 181.1 82.3 176.4 81 172 76.8 157.7 74.3 143.6 71.5 129 70.3 122.5 69 115.9 67.8 109.4 65.4 95.6 65.9 99 63.6 90.1 63.4 89.4 63.2 89.3 62.6 89.4 59.4 90.1 56.3 91.3 53.5 92.9 52 93.6 50.5 94.4 49.2 95.4 48 96.5 46.7 97.4 45.3 98.2 44.4 98.7 43.6 99.3 43 100.1 41.9 101.6 42.5 103.7 43.1 105.3 44.7 109.4 47.1 113 49.2 116.8 51.3 121 53.6 125 55.6 129.2Z" fill="url(#SVGID_1_)"/><path d="M21.6 107.1C22.7 110.8 24 114.4 25.5 117.9 27.6 122.9 28.2 129.1 28.4 134.4 28.6 139.2 28.2 144 28.7 148.8 29.9 159.9 35.9 169.3 40.5 179.1 41.3 180.5 41.8 182.1 42 183.7 42.1 185.5 42 187.3 41.8 189.1 41.5 191 40.4 193.3 41.7 195.1 42.3 195.7 43 196.2 43.8 196.5 44.7 196.9 45.7 197.2 46.6 197.5 47.1 197.7 47.7 197.7 48.2 197.7 49 197.5 49.6 197.1 50 196.4 50.5 195.6 50.8 194.6 50.8 193.6 50.8 192.6 50.7 191.7 50.5 190.7 50.5 190.7 46.2 164.5 46.2 164.5 45.9 162.2 45.7 159.9 45.4 157.6 44.9 153 44.6 148.4 44.3 143.7 43.8 134.4 43.6 125.2 43.8 115.9 43.9 112.8 44 109.8 44.1 106.7 44.2 104.8 44.2 103 44.2 101.1 44.3 100.4 44.3 99.8 44.3 99.1 44.2 98.4 43.4 97.9 42.9 97.5 40.8 95.5 38.5 93.7 36.1 92.2 33.9 90.9 31.6 89.9 29.2 89.1L21.1 86.4C20.4 88.1 19.9 90 19.8 91.8 19.5 97 20.1 102.2 21.6 107.1Z" fill="url(#SVGID_2_)"/><path d="M41.8 44C41.9 44.2 42 44.4 42.1 44.6 42.6 45.8 43.3 47 44.2 48 45.1 49 46.1 49.7 47.3 50.3 49.8 51.3 52.8 50.6 54.6 48.6 55.2 47.9 55.6 47.1 56 46.3 56.6 45.1 57.1 43.9 57.4 42.6 57.6 41.8 57.7 40.9 57.8 40.1 57.9 39.3 58.1 38.7 58.1 38 58.1 38 58.1 37.9 58.1 37.9L58 37.9C57.7 37.8 57.4 37.7 57.2 37.6 56.7 37.3 56.4 36.7 56.2 36.2 55.9 35.7 55.6 35.1 55.3 34.5 54.7 33 54.3 31.5 54.2 29.9 54.1 29.1 54.1 28.3 54.1 27.5 54.1 27.1 54.1 26.7 54.1 26.3 54.1 26.2 54.1 25.2 54.1 25.2 51.4 26.7 48.3 27 45.4 26.1 45.4 26.8 45.3 27.6 45.2 28.3 45.1 29.3 44.9 30.4 44.6 31.4 44.4 32.3 44 33.2 43.4 34 43 34.4 42.6 34.8 42.1 35.1 41.8 35.3 41.6 35.4 41.3 35.5L40.5 35.7C40.4 36.6 40.4 37.4 40.5 38.3 40.6 39.1 40.7 39.8 40.9 40.6 41 41.8 41.4 42.9 41.8 44Z" fill="url(#SVGID_3_)"/><path d="M62.4 50C61.2 46.5 61 42.7 61.7 39.1 63.6 39.7 67.5 40.5 68.5 42.4 69.8 44.9 69.6 48.6 69.7 51.4 69.7 56.3 70.1 61.2 70.8 66 71.5 69.8 72.6 73.6 73.3 77.4 73.7 79.5 74 81.6 74.2 83.7 74.5 87.2 74.3 90.6 74.3 94.1 74.3 95.8 74.6 97.5 74.7 99.2 74.8 100.6 73.5 100.9 72.3 101 72.1 101 71.9 101 71.7 100.9 71.6 100.8 71.5 100.7 71.4 100.5 71 99.6 70.8 98.6 70.6 97.7 69.9 94.7 69 91.7 68 88.8 66.2 83.8 64.9 78.7 64.1 73.5 63.6 69.7 63.5 65.8 62.8 62 62.6 59.9 62.5 57.9 62.6 55.8 62.5 54.3 62.4 52.8 62.3 51.3 62.2 49.8 61.5 48.6 61.5 47.3L62.4 50Z" fill="#F5A9A9"/><path d="M59.2 62.5C57.1 62.4 55 62.3 52.9 62 51.1 61.8 49.3 61.7 47.6 61.7 43.5 61.5 39.4 60.8 35.3 61 34.2 61.1 33 61 31.9 60.8 31.8 62.1 32 63.4 31.8 64.7 31.6 66.1 31.2 67.4 30.6 68.7 30.4 69.2 30.1 69.7 29.9 70.2 29.6 70.6 29.3 71 29 71.5 28.4 72.5 27.7 73.4 27.2 74.5 27.1 74.7 27 74.9 27 75.2 27 75.7 27.6 75.9 27.9 76.1 28.2 76.3 28.6 76.5 28.9 76.6 29.4 76.9 29.9 77.1 30.4 77.3 32 77.8 33.6 78.2 35.2 78.5L41.7 79.8C44.5 80.4 47.3 80.7 50.2 80.7 53.5 80.6 56.7 80.3 60 79.7 60.5 79.6 60.7 79.5 60.6 79 60.4 77.9 60.2 76.8 59.9 75.8 59.5 73.7 59.3 71.6 59.3 69.5 59.2 68.9 59.1 62.5 59.2 62.5Z" fill="url(#SVGID_4_)"/><path d="M62.9 52.6C62.7 51.8 62.4 51.1 62.2 50.4 62 49.7 62 49 61.9 48.3 61.9 47.5 61.6 46.8 61.5 46.1 61.4 45.3 61.4 44.5 61.5 43.8 61.6 42.3 61.9 40.7 61.9 39.1 60.5 38.9 59.2 38.4 58 37.7 58 39.6 57.7 41.5 57.3 43.4 57 44.4 56.6 45.4 56.1 46.3 55.8 46.9 55.3 47.5 54.9 48 54.4 48.5 53.9 49 53.4 49.5 52.8 50 52.2 50.3 51.5 50.5 50.8 50.8 50 50.9 49.2 50.8 47.8 50.5 46.5 50 45.4 49.1 43.2 47.7 42 45.2 41.3 42.7 41.2 42.2 41.2 41.8 41 41.3 40.8 40.7 40.7 40.1 40.6 39.4 40.5 38.1 40.5 36.9 40.5 35.6 38.7 35.6 37 35.8 35.2 36.1 35.3 38.3 35.5 40.4 35.6 42.6 35.7 43.7 35.6 44.8 35.3 45.8 35 46.9 35.3 48 34.8 49.1 34.3 50.3 33.4 51.2 32.2 51.7 32 52 31.6 52 31.3 52 31.2 52 30.8 51.8 30.7 52 30.7 52.1 30.7 52.1 30.7 52.2 30.7 53.1 30.8 54 30.9 55 31 56 31.2 56.7 31.3 57.6 31.3 57.8 31.8 60.8 31.7 60.8 32.8 60.7 33.9 60.7 35 60.8 39 60.9 42.9 61.1 46.9 61.4 48.9 61.5 50.9 61.7 53 62 54 62.1 55 62.2 56.1 62.3 57.2 62.4 58.2 62.6 59.2 62.6 59.2 62.1 59.3 61.6 59.4 61.1 59.5 60.3 59.8 59.5 60.1 58.8 60.4 58.3 60.8 58.1 61.2 57.7 61.6 57.3 62 56.8 62.3 56.2 62.9 55.2 63.1 54.1 63 53 62.9 52.8 62.9 52.7 62.9 52.6Z" fill="#F5D36F"/><path d="M41 14.2C41 15.5 41.1 16.7 41.2 18 41.4 20.9 41.9 23.5 43.7 25.7 45.1 27.6 47.5 28.6 49.9 28.4 52.4 28.1 54.3 26.2 55.6 24.2 56.2 23.2 56.7 22 57 20.8 57.2 20.2 57.3 19.6 57.4 19 57.6 18.4 57.6 17.8 57.4 17.2 57.3 17 57.1 16.8 57 16.5 56.8 16 56.8 15.4 57 14.8 57.1 14.4 57.2 13.9 57.2 13.5 57.2 13.2 57 12.9 56.7 12.7 56.2 12.3 55.6 12.1 54.9 11.9 53.9 11.5 52.8 11.3 51.7 11.2 50.7 11.1 49.7 10.9 48.7 10.7 47.9 10.6 47.1 10.3 46.3 9.9L44.3 8.5C44.4 10.4 43.1 12.2 41.2 12.7 41.1 12.7 40.9 12.8 40.9 12.9 40.9 13 40.9 13 40.9 13.1 41 13.5 41 13.9 41 14.2Z" fill="url(#SVGID_5_)"/><path d="M40.6 35.8C40.6 37.3 40.7 38.8 40.9 40.3 41.1 41.8 41.6 43.2 42.2 44.6 42.8 46 43.7 47.2 44.7 48.3 45.2 48.8 45.8 49.3 46.5 49.7 47.1 50.1 47.8 50.3 48.5 50.5 49.9 50.8 51.5 50.6 52.7 49.8L53.2 49.5C53.4 49.4 53.5 49.3 53.6 49.2 53.9 49 54.2 48.7 54.4 48.4 54.6 48.1 54.9 47.8 55.1 47.5 55.3 47.2 55.5 46.9 55.7 46.5 56.4 45.2 56.9 43.8 57.2 42.3 57.3 41.6 57.5 40.8 57.6 40.1 57.7 39.4 57.8 38.6 57.9 37.8L57.9 37.8C57.9 37.7 58 37.7 58 37.7 58 37.7 58 37.7 58 37.7 58 37.7 58.1 37.8 58.1 37.8 58.1 38.6 58.1 39.3 58 40.1 58 40.5 57.9 40.9 57.9 41.2L57.7 42.3C57.4 43.8 56.9 45.2 56.2 46.6 56 46.9 55.8 47.3 55.6 47.6 55.4 47.9 55.1 48.2 54.9 48.5 54.6 48.8 54.4 49.1 54.1 49.3 53.9 49.4 53.8 49.6 53.6 49.7L53.1 50C51.7 50.8 50.1 51.1 48.6 50.7 48.2 50.6 47.9 50.5 47.5 50.4 47.3 50.3 47.1 50.2 47 50.1L46.5 49.8C45.8 49.4 45.2 48.9 44.7 48.4 43.6 47.3 42.8 46 42.1 44.6 41.5 43.2 41.1 41.7 40.8 40.2 40.8 40 40.7 39.8 40.7 39.6L40.6 39C40.6 38.6 40.5 38.2 40.5 37.9 40.5 37.1 40.5 36.4 40.5 35.6 40.5 35.5 40.5 35.5 40.6 35.5 40.5 35.7 40.6 35.7 40.6 35.8 40.6 35.7 40.6 35.8 40.6 35.8Z" fill="#F5D36F"/><path d="M35.3 36.3C35.4 37.1 35.4 37.8 35.5 38.6 35.6 39.4 35.6 40.1 35.7 40.9 35.8 42.4 35.9 44 35.8 45.5 35.8 47.1 35.4 48.6 34.7 50 34.3 50.7 33.7 51.3 33 51.7 32.3 52.1 31.5 52.2 30.7 52.1 30.6 52.1 30.6 52 30.6 52 30.6 52 30.6 52 30.6 52 30.6 52 30.7 51.9 30.7 51.9L30.7 51.9C31.4 51.9 32.2 51.7 32.8 51.4 33.4 51 34 50.5 34.3 49.9 35 48.5 35.3 47 35.3 45.5 35.4 44 35.4 42.4 35.3 40.9L35.1 38.6C35 37.8 35 37.1 35 36.3 35 36.3 35 36.2 35.1 36.2 35.2 36.2 35.2 36.2 35.3 36.3 35.3 36.2 35.3 36.2 35.3 36.3Z" fill="#F5D36F"/><path d="M62 39.1C61.9 40 61.8 40.8 61.7 41.7 61.6 42.6 61.6 43.4 61.6 44.3 61.6 46 61.8 47.7 62.1 49.4 62.2 49.8 62.3 50.2 62.5 50.6 62.7 51 62.8 51.4 63 51.8 63.8 54.5 62.6 57.3 60 58.5 60 58.5 59.9 58.5 59.9 58.5 59.9 58.5 59.9 58.4 59.9 58.4 59.9 58.4 59.9 58.4 59.9 58.4 60.6 58 61.3 57.4 61.8 56.7 62.3 56 62.7 55.2 62.8 54.4 62.9 53.6 62.9 52.8 62.6 52 62.3 51.2 62 50.4 61.8 49.5 61.4 47.8 61.3 46.1 61.3 44.3 61.3 43.4 61.3 42.6 61.4 41.7 61.5 40.8 61.6 40 61.7 39.1 61.8 39.1 61.9 39.1 62 39.1 61.9 39.1 61.9 39.1 62 39.1 62 39.1 62 39.1 62 39.1Z" fill="#F5D36F"/><path d="M59.7 58.7C59.6 58.8 59.4 58.9 59.2 58.9 59 58.9 58.8 59 58.7 59 58.4 59.1 58 59.1 57.7 59.2 57.4 59.2 57 59.2 56.7 59.2 56.4 59.2 56 59.1 55.7 59 55.7 59 55.7 58.9 55.7 58.9 55.7 58.9 55.7 58.9 55.8 58.9 56.1 58.9 56.5 59 56.8 59 57.1 59 57.5 59 57.8 59 58.1 59 58.5 58.9 58.8 58.9 59 58.9 59.1 58.8 59.3 58.8 59.5 58.7 59.6 58.7 59.8 58.7 59.8 58.7 59.9 58.7 59.9 58.8 59.7 58.7 59.7 58.7 59.7 58.7Z" fill="#F5D36F"/><path d="M34.5 52.5C34.4 53 34.5 53.6 34.6 54.1 34.7 54.4 34.8 54.6 34.9 54.9 35 55.2 35.2 55.4 35.3 55.7 35.9 56.6 36.7 57.3 37.8 57.7 38.8 58.1 39.9 58.3 41 58.2 42.1 58.2 43.2 57.9 44.2 57.5 44.2 57.5 44.3 57.5 44.3 57.5 44.3 57.5 44.3 57.5 44.3 57.5 44.3 57.5 44.3 57.6 44.3 57.6 43.8 57.9 43.3 58.1 42.7 58.2 42.1 58.3 41.6 58.4 41 58.4 39.9 58.5 38.7 58.3 37.7 57.8 36.6 57.4 35.7 56.6 35.1 55.6 35 55.3 34.9 55.1 34.7 54.8 34.6 54.5 34.5 54.3 34.4 54 34.3 53.5 34.3 52.9 34.5 52.5 34.4 52.4 34.5 52.4 34.5 52.4 34.5 52.4 34.5 52.4 34.5 52.4 34.6 52.4 34.6 52.4 34.5 52.5 34.5 52.5 34.5 52.5 34.5 52.5Z" fill="#BDA08C"/><path d="M66.2 135.1C66.3 135.1 66.4 135.1 66.5 135.2 66.6 135.2 66.7 135.3 66.8 135.3 67 135.4 67.1 135.5 67.3 135.6 67.4 135.7 67.6 135.9 67.7 136 67.8 136.1 67.9 136.3 68.1 136.5 68.1 136.5 68.1 136.6 68.1 136.6 68.1 136.6 68.1 136.6 68.1 136.6L68.1 136.6C67.9 136.5 67.8 136.4 67.6 136.3L67 136 66.6 135.6 66.4 135.4C66.3 135.3 66.2 135.3 66.2 135.2L66.2 135.2C66.1 135.3 66.1 135.2 66.2 135.1L66.2 135.1Z" fill="#BD5353"/><path d="M34.2 138.5 34.2 138.5C34.2 138.5 34.2 138.5 34.2 138.5 34 138.5 34.1 138.5 34.2 138.5L34.2 138.5 34.2 138.5 34.1 138.6C34.1 138.6 34 138.5 34 138.5L33.8 138.3 33.4 138C33.3 137.9 33.3 137.8 33.4 137.7 33.4 137.7 33.4 137.7 33.4 137.7 33.5 137.6 33.6 137.6 33.7 137.7L33.7 137.7C34 138 34.3 138.3 34.6 138.6L35 139.1C35.1 139.3 35.3 139.4 35.4 139.6 35.4 139.6 35.4 139.7 35.4 139.7 35.4 139.7 35.3 139.7 35.3 139.7 35.1 139.6 35 139.4 34.8 139.3L34.3 138.9C34 138.6 33.7 138.3 33.4 138L33.4 138 33.7 137.7 34 138 34.2 138.2 34.3 138.3 34.3 138.4 34.3 138.4 34.3 138.4 34.3 138.4C34.2 138.4 34.2 138.4 34.2 138.5 34.2 138.5 34.1 138.5 34.1 138.5L34.1 138.5C34.1 138.5 34.1 138.4 34.1 138.4 34.1 138.4 34.2 138.4 34.2 138.4L34.2 138.4 34.2 138.5Z" fill="#BD5353"/><path d="M38 139.3C38 139.2 38 139.2 38 139.1 38 139 38 139 38.1 138.9 38.2 138.8 38.2 138.7 38.3 138.5 38.4 138.4 38.5 138.3 38.6 138.2 38.7 138.1 38.8 138.1 39 138 39 138 39.1 138 39.1 138 39.1 138 39.1 138 39.1 138L39.1 138 39.1 138C39 138.1 39 138.2 38.9 138.3 38.8 138.4 38.8 138.5 38.7 138.6L38.5 138.9 38.4 139C38.3 139.2 38.2 139.3 38 139.3L38 139.3C38.1 139.3 38 139.3 38 139.3L38 139.3Z" fill="#BD5353"/><path d="M43.8 107.3C43.7 107 43.7 106.6 43.7 106.3 43.7 106 43.7 105.7 43.7 105.4 43.7 104.8 43.7 104.1 43.7 103.5L43.7 101.6C43.7 101 43.7 100.3 43.7 99.7 43.7 99.7 43.7 99.6 43.8 99.6 43.8 99.6 43.8 99.6 43.9 99.6 44 100.2 44.1 100.9 44.1 101.5 44.1 102.1 44.2 102.8 44.2 103.4 44.2 104 44.2 104.7 44.2 105.3L44.2 106.2C44.2 106.5 44.2 106.9 44.1 107.2 44.1 107.2 44 107.2 44 107.2L43.8 107.3Z" fill="#BD5353"/><path d="M47 77.7C47 77.6 47 77.6 47 77.5L47.1 77.4C47.2 77.3 47.2 77.3 47.3 77.2 47.5 77.1 47.6 77 47.8 77 48 77 48.2 77 48.4 77 48.5 77 48.6 77 48.7 77 48.8 77 48.9 77.1 49 77.2 49 77.2 49 77.3 49 77.4 49 77.4 49 77.4 49 77.4L49 77.4C48.9 77.5 48.8 77.5 48.7 77.5 48.6 77.5 48.6 77.5 48.5 77.5 48.3 77.5 48.2 77.6 48.1 77.6 47.9 77.6 47.8 77.7 47.6 77.8L47.4 77.9 47.3 77.9C47.2 77.8 47.2 77.8 47 77.7L47 77.7C47.1 77.8 47 77.8 47 77.7Z" fill="#BD5353"/><path d="M77.6 185.1C77.7 185.2 77.8 185.4 77.8 185.6 77.9 185.8 77.9 185.9 78 186.1 78.1 186.4 78.2 186.7 78.3 187 78.4 187.3 78.5 187.5 78.8 187.8 79 188 79.3 188.2 79.5 188.5 79.5 188.5 79.5 188.6 79.5 188.6 79.5 188.6 79.5 188.6 79.5 188.6 79.5 188.6 79.4 188.6 79.4 188.6 79.1 188.5 78.8 188.3 78.5 188.1 78.2 187.9 78 187.6 77.9 187.2 77.8 186.9 77.7 186.5 77.7 186.2L77.6 185.7C77.6 185.5 77.5 185.4 77.5 185.2L77.5 185.2C77.5 185.1 77.5 185 77.6 185.1 77.5 185 77.6 185 77.6 185.1 77.6 185.1 77.6 185.1 77.6 185.1Z" fill="#BD5353"/><path d="M43.3 186.5C43.4 186.4 43.6 186.3 43.7 186.2 43.8 186.1 44 186 44.1 185.9 44.4 185.7 44.7 185.6 45 185.4 45.3 185.3 45.7 185.2 46 185.1 46.3 185 46.7 185 47 185 47 185 47.1 185 47.1 185.1 47.1 185.1 47.1 185.1 47.1 185.1 47.1 185.1 47.1 185.1 47.1 185.2 46.8 185.3 46.4 185.4 46.1 185.5 45.8 185.6 45.5 185.7 45.2 185.9L44.3 186.3 43.8 186.5C43.7 186.6 43.5 186.7 43.3 186.7 43.4 186.6 43.3 186.6 43.3 186.5L43.3 186.5Z" fill="#BD5353"/><path d="M4.5 64.2C4.6 64.3 4.8 64.4 4.9 64.5 5 64.6 5.2 64.7 5.3 64.7 5.6 64.8 5.9 64.9 6.2 65 6.5 65.1 6.8 65.3 7.1 65.6 7.3 65.8 7.6 66.1 7.7 66.4 7.7 66.4 7.7 66.5 7.7 66.5 7.7 66.5 7.7 66.5 7.6 66.5L7.6 66.5C7.5 66.2 7.2 66 7 65.8 6.7 65.6 6.5 65.5 6.2 65.4 5.9 65.3 5.5 65.2 5.2 65 5 64.9 4.9 64.8 4.8 64.7 4.6 64.6 4.5 64.4 4.5 64.2 4.4 64.3 4.4 64.2 4.5 64.2 4.4 64.2 4.4 64.2 4.5 64.2 4.4 64.2 4.4 64.2 4.5 64.2L4.5 64.2Z" fill="#BD5353"/><path d="M29.9 50.1C30 50 30.1 49.9 30.2 49.8 30.3 49.7 30.4 49.6 30.5 49.6 30.7 49.5 30.9 49.3 31.1 49.2 31.3 49.1 31.6 49 31.8 49 32.1 49 32.3 49 32.6 49 32.6 49 32.7 49 32.7 49.1L32.7 49.1C32.5 49.2 32.2 49.2 32 49.3 31.8 49.4 31.6 49.5 31.4 49.6L30.8 49.9C30.7 50 30.6 50 30.5 50.1 30.4 50.2 30.3 50.2 30.2 50.2 29.9 50.3 29.9 50.2 29.9 50.1 29.9 50.2 29.9 50.1 29.9 50.1Z" fill="#BD5353"/><path d="M46.4 39.1C46.5 39.1 46.7 39.1 46.8 39.1 46.9 39.1 47.1 39.2 47.2 39.2 47.4 39.3 47.7 39.5 47.9 39.6 48.1 39.8 48.3 39.9 48.5 40 48.7 40.1 48.9 40.2 49.2 40.3 49.2 40.3 49.2 40.4 49.2 40.4M49 40.4C48.7 40.4 48.5 40.4 48.2 40.3 48 40.2 47.7 40.1 47.5 39.9 47.3 39.7 47.1 39.6 46.9 39.4 46.8 39.3 46.7 39.3 46.6 39.2 46.5 39.2 46.4 39.1 46.3 39L46.3 39C46.3 39 46.3 38.9 46.3 38.9L49 40.4Z" fill="#BD5353"/><path d="M66.1 71.5C66.2 71.4 66.2 71.3 66.3 71.3L66.5 71.1 66.9 70.7C67.1 70.6 67.2 70.4 67.4 70.3 67.6 70.2 67.7 70 67.9 69.9 67.9 69.9 68 69.9 68 69.9 68 69.9 68 69.9 68 69.9 68 69.9 68 69.9 68 70 67.9 70.2 67.8 70.4 67.7 70.5 67.6 70.7 67.4 70.8 67.3 71 67.1 71.1 67 71.3 66.8 71.4 66.7 71.5 66.6 71.5 66.5 71.6 66.4 71.7 66.3 71.7 66.2 71.7 66.1 71.6 66.1 71.5 66.1 71.5L66.1 71.5Z" fill="#BD5353"/><path d="M20.7 87.4C29.2 89.6 37.1 93.7 43.8 99.5 49.6 94.9 56.3 91.5 63.6 89.7 62.3 86.3 61.3 82.8 60.7 79.2 60.7 79.1 56.2 79.8 55.7 79.9 54 80 52.4 80 50.7 80 47.3 79.9 44 79.6 40.7 79 37.4 78.4 34.2 77.6 31 76.5 30.3 76.3 29.6 76 29 75.8 28.4 75.6 27.7 75.4 27.1 75.1 26.7 75.5 26.3 75.8 26 76.3 25.7 76.7 25.3 77.1 25 77.6 24.4 78.5 23.8 79.4 23.3 80.4 22 82.6 21.2 85 20.7 87.4Z" fill="#F5D36F"/><path d="M30.7 68.8C40.3 69.7 49.8 70.6 59.4 71.6 60.1 74.3 60.9 77 61.5 79.9 62.3 83.5 63 86.9 63.6 90.2L75.8 129.2C70.7 129.4 65.1 129.5 59.2 129.2 55 129 51 128.7 47.2 128.3 43.5 129.5 38.7 130.5 33.2 130.4 31.9 130.4 30.7 130.3 29.5 130.1 29.3 130.1 26.2 130.5 25.9 130.5 25.6 130.5 22.4 130.9 22.2 130.9 20 130.8 17.9 130.8 15.7 130.7L19.8 91.3C20.1 89 20.7 85.8 22.2 82.4 23.1 80.5 24 78.9 24.9 77.6 26.8 74.6 28.7 71.7 30.7 68.8Z" fill="#F5D36F"/><path d="M19.4 86.6C20.1 86.8 20.9 86.4 21.2 85.7 21.4 85.2 21.6 84.6 21.7 84.1 21.7 84 21.8 83.8 21.9 83.8 22 83.8 22.1 83.8 22.2 83.9 22.9 84.2 23.4 84.6 23.9 85.2 24 85.4 24.2 85.5 24.4 85.5 24.6 85.6 24.8 85.5 24.9 85.3 25 85.5 25.7 86.4 25.9 86.4 26.1 86.4 26 86 26 85.8 26 85.3 25.9 84.7 25.9 84.2L26 84.5C26 84.6 26.1 84.6 26.1 84.7 26.2 84.7 26.2 84.7 26.3 84.7 26.4 84.7 26.4 84.6 26.4 84.6 26.5 84.4 26.5 84.2 26.5 83.9 26.4 83.5 26.3 83 26.2 82.5 26.1 82 26 81.5 25.9 81.1 25.7 80.2 25.3 79.2 24.9 78.4 24.7 77.9 24.4 77.5 24 77.1 23.5 76.7 23 77.1 22.6 77.6 22.4 77.4 22 77.3 21.7 77.5 21.2 77.8 21.1 78.7 20.5 79 20.3 79 20.2 79.1 20 79.1 19.5 79.3 19.3 79.8 19.1 80.4 18.6 81.8 18.1 83.1 17.4 84.3 17.3 84.4 17.3 84.6 17.3 84.8 17.3 84.9 17.3 85 17.4 85.1 18 85.9 18.6 86.4 19.4 86.6Z" fill="#F5A9A9"/><path d="M24.6 77.7C24.8 77.4 25 77.3 25.3 77.3 25.8 77.3 26.1 77.8 26.3 78.3L28 81.8C28 81.8 28 81.9 28 81.9 28 81.9 27.8 82 27.6 81.9 26.9 81.3 26.4 80.5 26 79.7 25.9 79.5 25.7 79.3 25.4 79.3 25.1 79.3 25 79.7 24.7 79.6 24.6 79.6 24.5 79.5 24.5 79.4 24.2 78.9 24.2 78.2 24.6 77.7Z" fill="#F5A9A9"/><path d="M70.6 101.1C70.5 101.6 70.4 102.1 70.4 102.7 70.4 103.2 70.5 103.7 70.6 104.2 70.7 104.9 71.4 105.5 71.5 106.8 71.5 107.2 71.6 107.6 71.7 108 71.9 108.4 72.4 108.7 72.8 108.5 72.9 108.5 72.9 108.4 73 108.4 73.2 108.1 73.3 107.7 73.1 107.4 72.9 106.7 72.8 105.9 72.8 105.2 72.8 105.1 72.7 104.7 73 104.8 73.3 104.9 73.7 105.3 73.9 105.5 74.1 105.7 74.3 105.9 74.5 106.2 74.9 106.6 75.2 107 75.5 107.5 75.8 108.2 75.9 109 75.9 109.8 75.9 110.4 75.6 111.1 75.9 111.8 76 112 76.3 112.3 76.4 112 76.7 111.4 76.9 110.7 76.9 110 77 109.3 77 108.6 76.8 107.9 76.8 107.6 76.7 107.4 76.7 107.1 76.8 107.5 77 107.9 77.3 108.3 77.5 108.7 77.6 109.2 77.6 109.6 77.7 110.5 77.8 111.5 77.7 112.4 77.7 112.6 77.7 112.8 77.9 113 78 113.2 78.4 113.2 78.5 113 78.6 112.8 78.5 112.7 78.6 112.6 78.7 112.5 78.7 112.5 78.8 112.5 79 112.3 79.2 112.1 79.2 111.8 79.3 111.5 79.3 111.2 79.4 110.9 79.5 110.5 79.6 110 79.6 109.6 79.6 109.2 79.5 108.8 79.6 108.3L80 109.3C80 109.5 80.1 109.7 80.3 109.8 80.5 109.9 80.7 109.9 80.9 109.8 80.8 109.2 80.7 108.5 80.5 108 80.3 107.4 80.1 106.8 79.8 106.2 79.1 104.7 78.2 103.3 77.1 102.1L77 102C76.1 101.2 75.3 100.3 74.7 99.3 74.5 98.9 74.4 98.4 74.3 98 74.2 97.6 74 97.1 73.7 96.8 73.4 96.4 72.9 96.2 72.4 96.3 71.8 96.4 71.2 96.8 70.9 97.3 70.8 97.4 70.7 97.5 70.6 97.7 70.5 97.9 70.5 98.1 70.6 98.3 70.7 98.8 70.7 99.4 70.7 99.9 70.9 100.2 70.8 100.6 70.6 101.1Z" fill="#F5A9A9"/><path d="M47.8 22C48 22 48.2 22 48.4 22.1 48.6 22.2 48.7 22.3 48.9 22.3 49 22.3 49.2 22.2 49.3 22.2L49.6 22.1C49.9 22.1 50.2 22.1 50.5 22.2 51 22.4 51.5 22.4 52 22.2 52.1 22.2 52.2 22.1 52.2 22.2 52.2 22.3 52.2 22.3 52.2 22.4 52.1 22.6 52 22.8 51.8 23 51.6 23.2 51.6 23.4 51.5 23.5 50.6 24.6 49.1 25 47.8 24.5 47.3 24.3 46.9 23.9 46.5 23.5 46.3 23.3 46.2 23.2 46 23 45.9 22.8 45.7 22.7 45.6 22.5 45.5 22.3 45.5 22.4 45.6 22.3 45.7 22.2 45.7 22.2 45.8 22.2 45.9 22.2 45.9 22.2 46 22.2 46.5 22.3 47 22.2 47.5 22.1L47.8 22.1Z" fill="#D61945"/><path d="M57.1 16C57.3 16.6 57.8 17.1 58.4 17.3 58.7 17.4 59.1 17.4 59.4 17.4 59.7 17.4 60.1 17.3 60.4 17.3 61.1 17.2 61.8 17.1 62.5 17.1 62.9 17.1 63.2 17.1 63.6 17.1 64 17.1 64.4 17.3 64.7 17.5 65 17.8 65.1 18.3 64.9 18.7 64.7 19 64.3 19.2 64 19.4 63.3 19.7 62.7 19.9 62 20.1 61.7 20.2 61.4 20.4 61.4 20.6 61.4 20.8 61.7 21 62 21.1 62.7 21.3 63.3 21.4 64 21.4 64 21.4 64.1 21.4 64.1 21.5 64.1 21.5 64.1 21.5 64.1 21.5 64.1 21.5 64.1 21.6 64 21.6 64 21.6 64 21.6 64 21.6 63.3 21.7 62.6 21.6 61.9 21.4 61.7 21.3 61.5 21.3 61.4 21.2 61.2 21.1 61.1 20.9 61.1 20.6 61.1 20.5 61.1 20.3 61.2 20.2 61.3 20.1 61.3 20 61.4 20 61.6 19.9 61.7 19.8 61.9 19.7 62.6 19.4 63.2 19.2 63.9 19 64.2 18.9 64.5 18.7 64.7 18.5 64.8 18.3 64.8 18 64.6 17.8 64.4 17.6 64.1 17.5 63.8 17.5 63.5 17.5 63.1 17.5 62.8 17.5 62.1 17.5 61.4 17.6 60.7 17.7 60.4 17.7 60 17.8 59.6 17.8 59.2 17.8 58.9 17.8 58.5 17.6 58.1 17.5 57.8 17.3 57.6 17 57.3 16.7 57.1 16.4 57.1 16 57.1 16 57.1 15.9 57.2 15.9 57 16 57.1 16 57.1 16 57.1 16 57.1 16 57.1 16Z" fill="#BDA08C"/><path d="M45.2 2C43.5 1.8 41.7 2 40.1 2.6 38.5 3.3 37.1 4.3 36.1 5.7 35.1 7.1 34.3 8.6 33.8 10.3 33.5 11.1 33.4 12 33.3 12.8 33.2 13.7 33.2 14.5 33.4 15.4 33.4 15.6 33.5 15.8 33.6 16 33.7 16.2 33.8 16.3 34 16.3 34.1 16.3 34.1 16.3 34.2 16.3 34.2 16.3 34.3 16.2 34.3 16.1 34.3 15.9 34.2 15.7 34.1 15.5 33.9 15.1 33.6 14.9 33.2 14.7 32.8 14.5 32.4 14.5 32 14.5 30.3 14.6 28.6 15.1 27.1 16.1 26.4 16.6 25.7 17.1 25.2 17.8 24.6 18.4 24.2 19.2 24 20 23.8 20.8 23.8 21.7 24 22.5 24.2 23.3 24.6 24.1 25.1 24.7 25.7 25.3 26.4 25.8 27.2 26 28 26.2 28.9 26.2 29.7 26.1 30.1 26 30.6 26 31 25.9L31.6 25.8C31.8 25.7 32 25.7 32.2 25.6 32.6 25.4 32.9 25.2 33.2 24.9 33.5 24.6 33.6 24.3 33.6 23.9 33.5 23.5 33.3 23.2 32.9 23 32.5 22.8 32.2 22.6 31.8 22.5 31 22.2 30.1 22 29.3 21.9 27.6 21.6 25.8 21.7 24.2 22.1 22.5 22.5 21 23.3 19.7 24.5 19.1 25.1 18.5 25.8 18.1 26.5 17.6 27.2 17.4 28 17.3 28.9 17.3 29.7 17.7 30.5 18.4 31 19.1 31.5 19.9 31.8 20.7 32 21.5 32.2 22.4 32.2 23.3 32.2 24.1 32.2 25 31.9 25.7 31.6L25.7 31.6 25.9 31.4C26 31.3 26 31.2 26 31.1 26.1 31 26.1 30.8 26 30.7 26 30.6 25.8 30.5 25.7 30.5 25.5 30.5 25.4 30.5 25.2 30.6 24.8 30.7 24.5 30.8 24.2 30.9 23.2 31.3 22.4 32.1 22.1 33.2 21.9 33.9 22.2 34.7 22.8 35.1 23.4 35.5 24.1 35.7 24.8 35.7 25.6 35.7 26.3 35.6 27 35.3 28.4 34.7 29.7 34 31 33.2 31 33.2 31.1 33.2 31.1 33.2 31.1 33.2 31.1 33.2 31.1 33.2 31.1 33.2 31.1 33.3 31.1 33.3 29.8 34.1 28.5 34.9 27.1 35.5 26.4 35.8 25.6 35.9 24.8 35.9 24.4 35.9 24 35.9 23.7 35.8 23.3 35.7 22.9 35.5 22.6 35.3 22.3 35 22 34.7 21.9 34.3 21.8 33.9 21.7 33.5 21.8 33.1 22 32.3 22.4 31.7 23.1 31.1 23.3 31 23.4 30.9 23.6 30.8 23.8 30.7 24 30.6 24.1 30.6 24.5 30.5 24.8 30.3 25.2 30.2 25.4 30.1 25.6 30.1 25.8 30.1 25.9 30.1 26 30.1 26.1 30.2 26.2 30.3 26.3 30.4 26.3 30.5 26.4 30.7 26.4 31 26.2 31.2 26.1 31.3 26.1 31.4 26 31.4L25.8 31.6 25.8 31.6C25 32 24.1 32.2 23.2 32.3 22.3 32.4 21.4 32.3 20.6 32.1 19.7 31.9 18.9 31.6 18.1 31.1 17.7 30.8 17.4 30.5 17.2 30.1 17 29.7 16.8 29.2 16.8 28.8 16.8 27.9 17.1 27 17.6 26.2 18.1 25.5 18.7 24.8 19.3 24.2 21.3 22.4 23.9 21.4 26.6 21.4 27.5 21.4 28.4 21.4 29.2 21.6 30.1 21.7 30.9 21.9 31.8 22.2 32.2 22.3 32.6 22.5 33 22.8 33.4 23.1 33.7 23.5 33.8 24 33.9 24.5 33.7 25 33.3 25.3 33 25.6 32.6 25.9 32.2 26.1 32 26.2 31.8 26.3 31.5 26.3L30.9 26.4C30.5 26.5 30 26.6 29.6 26.6 28.7 26.8 27.7 26.7 26.8 26.5 25.9 26.3 25.1 25.8 24.5 25.1 23.9 24.4 23.5 23.6 23.3 22.7 23.1 21.8 23.1 20.9 23.3 20 23.5 19.1 24 18.3 24.6 17.6 25.2 16.9 25.9 16.3 26.6 15.9 27.3 15.4 28.1 15 29 14.7 29.8 14.4 30.7 14.2 31.6 14.2 32.1 14.2 32.5 14.3 32.9 14.4 33.3 14.6 33.7 14.9 33.9 15.3 34 15.5 34.1 15.7 34.1 16 34.1 16.2 34.1 16.3 33.9 16.4 33.8 16.5 33.6 16.5 33.5 16.5 33.2 16.5 33 16.3 32.9 16 32.8 15.8 32.7 15.6 32.7 15.3 32.6 14.4 32.6 13.5 32.7 12.6 32.8 11.7 33 10.9 33.2 10 33.7 8.3 34.5 6.7 35.6 5.3 36.9 4.1 38.3 3 40 2.3 41.7 1.7 43.5 1.5 45.2 1.7 45.2 1.7 45.3 1.7 45.3 1.8 45.3 1.8 45.3 1.8 45.3 1.8 45.3 1.9 45.3 2 45.2 2 45.2 2 45.2 2 45.2 2Z" fill="#BDA08C"/><path d="M64 38C65.1 38.2 66.2 38.3 67.3 38.4 67.9 38.4 68.4 38.5 69 38.4 69.5 38.4 70.1 38.3 70.6 38.2 70.8 38.1 71 38 71.2 37.7 71.3 37.5 71.3 37.2 71.1 37 70.9 36.5 70.6 36 70.2 35.6 69.9 35.2 69.5 34.8 69.1 34.3 68.9 34.1 68.7 33.9 68.6 33.6 68.4 33.4 68.3 33.1 68.2 32.8 68.2 32.5 68.4 32.2 68.6 32 68.8 31.8 69.1 31.7 69.4 31.6 69.9 31.5 70.5 31.4 71 31.3 72.1 31.2 73.2 31.1 74.3 30.9 75.4 30.8 76.5 30.6 77.6 30.3 78.1 30.1 78.6 29.9 79.1 29.6 79.6 29.3 79.9 28.9 80.2 28.5 80.4 28 80.5 27.5 80.5 27 80.4 26.5 80.2 26 79.8 25.7 79.4 25.4 78.9 25.1 78.4 25 77.9 24.8 77.4 24.7 76.8 24.5 75.7 24.2 74.6 24.1 73.5 23.8 73.2 23.7 72.9 23.7 72.7 23.5 72.4 23.4 72.1 23.2 72 22.9 71.9 22.6 72 22.2 72.2 22 72.4 21.8 72.6 21.6 72.8 21.4 73.7 20.7 74.7 20.1 75.5 19.4 75.9 19.1 76.3 18.6 76.5 18.1 76.6 17.9 76.7 17.6 76.7 17.4 76.7 17.1 76.7 16.9 76.6 16.6 76.3 15.5 75.8 14.6 74.9 13.9 74.1 13.2 73.2 12.6 72.1 12.2 71.1 11.8 70 11.7 68.9 11.7 67.8 11.7 66.6 11.5 65.6 11.2 64.5 10.8 63.6 10.1 62.8 9.2 62 8.4 61.4 7.4 60.8 6.5 60.5 6 60.2 5.5 60 5.1 59.7 4.6 59.4 4.2 59 3.8 58.3 3 57.5 2.2 56.5 1.7 54.6 0.6 52.4 0.2 50.2 0.5 49.1 0.6 48.1 1 47.1 1.5 46.6 1.8 46.2 2.1 45.8 2.5 45.4 2.9 45 3.3 44.7 3.7 44.1 4.6 43.8 5.7 44 6.7 44.2 7.8 44.9 8.7 45.8 9.3 46.7 9.9 47.7 10.4 48.7 10.7 49.8 11 50.9 11.2 52 11.3 53.1 11.4 54.2 11.6 55.3 11.9 55.9 12 56.4 12.3 56.8 12.6 57.3 13 57.5 13.6 57.3 14.2 57.3 14.2 57.2 14.3 57.2 14.3 57.2 14.3 57.1 14.2 57.1 14.2L57.1 14.2 57.1 14.2C57.2 13.7 57.1 13.1 56.6 12.8 56.2 12.5 55.7 12.3 55.1 12.1 54 11.8 52.9 11.6 51.8 11.5 50.7 11.4 49.6 11.2 48.5 10.9 47.4 10.6 46.4 10.1 45.5 9.5 44.5 8.8 43.8 7.8 43.6 6.7 43.4 5.5 43.7 4.4 44.4 3.4 44.7 2.9 45.1 2.5 45.5 2.1 45.9 1.7 46.4 1.4 46.9 1.1 47.9 0.6 49 0.2 50.1 0.1 53.5-0.4 57 0.9 59.2 3.5 59.7 4 60 4.5 60.4 5 60.7 5.5 60.9 6 61.2 6.4 61.7 7.3 62.4 8.2 63.1 9 63.8 9.8 64.7 10.5 65.7 10.9 66.7 11.3 67.8 11.4 68.9 11.4 70 11.4 71.2 11.6 72.2 11.9 73.3 12.3 74.3 12.9 75.1 13.7 76 14.5 76.6 15.5 76.9 16.6 77 16.9 77 17.2 77 17.5 77 17.8 76.9 18.1 76.8 18.4 76.5 18.9 76.2 19.4 75.7 19.8 74.9 20.6 73.9 21.1 73 21.8 72.8 22 72.6 22.1 72.4 22.3 72.3 22.4 72.3 22.5 72.2 22.6 72.2 22.7 72.2 22.8 72.2 22.9 72.3 23.1 72.5 23.2 72.8 23.3 73.1 23.4 73.3 23.5 73.6 23.5 74.7 23.8 75.8 23.9 76.9 24.2 77.4 24.3 78 24.5 78.5 24.7 79 24.9 79.6 25.2 80 25.5 80.5 25.9 80.8 26.4 80.8 27 80.8 27.6 80.7 28.2 80.5 28.7 80.2 29.2 79.8 29.7 79.3 30 78.8 30.3 78.3 30.5 77.7 30.7 76.6 31 75.5 31.2 74.4 31.3 73.3 31.4 72.2 31.5 71.1 31.7 70.6 31.8 70 31.9 69.5 32 69 32.2 68.5 32.5 68.5 33 68.5 33.2 68.7 33.5 68.8 33.7 69 33.9 69.1 34.1 69.3 34.4 69.7 34.8 70 35.2 70.4 35.7 70.8 36.1 71.1 36.6 71.3 37.2 71.6 37.7 71.5 38.3 71 38.6 70.9 38.7 70.8 38.7 70.7 38.7 70.2 38.9 69.6 39 69 39 68.4 39 67.9 39 67.3 38.9 66.2 38.8 65.1 38.6 64 38.4 63.9 38.4 63.9 38.3 63.9 38.3 63.9 38.3 63.9 38 64 38Z" fill="#BDA08C"/><path d="M44.5 8.9C44.5 9.8 44.3 10.6 43.9 11.4 43.4 12.1 42.7 12.7 41.9 13 41.5 13.1 41.1 13.3 40.7 13.4 40.3 13.5 39.9 13.7 39.6 13.8 39.4 13.9 39.3 14 39.2 14.2 39.1 14.3 39 14.5 39 14.7 39 15.1 39.1 15.5 39.3 15.8 39.4 16 39.5 16.2 39.5 16.4 39.5 16.5 39.5 16.6 39.5 16.8 39.5 16.9 39.5 17.1 39.4 17.2 39.3 17.4 39.1 17.6 38.9 17.7 38.7 17.8 38.5 17.9 38.3 18 37.8 18.1 37.4 18.1 37 18.2 36.6 18.3 36.3 18.5 36.1 18.8 35.7 19.5 35.9 20.3 36.6 20.7 37.3 21.1 38.2 21.1 38.9 20.7 38.9 20.7 39 20.7 39 20.7 39 20.7 39 20.7 39 20.7 39 20.7 39 20.8 39 20.8 38.6 21 38.2 21.2 37.8 21.2 37.3 21.2 36.9 21.1 36.5 20.9 36.1 20.7 35.8 20.3 35.7 19.8 35.5 19.3 35.6 18.8 35.9 18.4 36.2 18 36.6 17.8 37.1 17.7 37.5 17.6 38 17.6 38.3 17.5 38.7 17.5 39 17.3 39.2 17 39.2 16.9 39.3 16.9 39.3 16.8 39.3 16.7 39.3 16.6 39.3 16.5 39.3 16.3 39.2 16.1 39.1 15.9 38.9 15.5 38.8 15.1 38.8 14.6 38.8 14.4 38.9 14.1 39.1 13.9 39.2 13.7 39.4 13.6 39.6 13.5 40.4 13.1 41.2 13 42 12.6 42.8 12.3 43.4 11.8 43.9 11.2 44.1 10.9 44.3 10.5 44.4 10.1 44.5 9.7 44.6 9.3 44.6 8.9L44.6 8.9C44.4 8.9 44.4 8.9 44.5 8.9 44.5 8.9 44.5 8.9 44.5 8.9Z" fill="#BDA08C"/><path d="M47 5.2C47.7 6 48.5 6.7 49.5 7.3 50.4 7.9 51.4 8.2 52.5 8.4 53 8.6 53.5 8.6 54 8.4 54.2 8.3 54.1 8.1 54 7.9 53.8 7.7 53.6 7.5 53.4 7.4L50.9 5.4C50.8 5.3 50.8 5.2 50.9 5.1 50.9 5.1 50.9 5.1 50.9 5.1 50.9 5 51 5 51.1 5L52.7 5.3 53.5 5.5C53.6 5.5 53.7 5.6 53.9 5.6L53.9 5.6 53.9 5.6C53.9 5.6 53.8 5.4 53.7 5.3 53.6 5.1 53.6 4.9 53.7 4.8 53.8 4.5 54.1 4.3 54.4 4.2 54.7 4.1 55 4.2 55.3 4.3 55.6 4.4 55.8 4.6 56 4.7 56 4.7 56 4.8 56 4.8 56 4.8 56 4.8 56 4.8 56 4.8 55.9 4.8 55.9 4.8 55.9 4.8 55.9 4.8 55.9 4.8 55.7 4.7 55.4 4.6 55.2 4.5 55 4.4 54.7 4.4 54.5 4.5 54 4.6 53.9 4.8 53.8 5 53.8 5.1 53.8 5.2 53.8 5.3 53.8 5.4 53.9 5.5 54 5.6 54.1 5.7 54.1 5.8 54 6 53.9 6.1 53.8 6.2 53.7 6.2 53.6 6.2 53.4 6.2 53.3 6.1L52.5 5.9 50.9 5.6 51 5.1 53.5 7.1C53.7 7.3 53.9 7.5 54.1 7.7 54.2 7.8 54.3 8 54.3 8.2 54.3 8.4 54.2 8.6 54.1 8.7 53.8 8.9 53.5 8.9 53.2 8.9 52.9 8.9 52.7 8.8 52.4 8.8 51.3 8.6 50.3 8.2 49.3 7.6 48.3 7 47.5 6.3 46.9 5.4 46.9 5.4 46.9 5.3 46.9 5.3 46.9 5.2 46.9 5.2 47 5.2 46.9 5.2 47 5.2 47 5.2Z" fill="#BDA08C"/><path d="M55.3 14.4C54.2 14.2 53 14.1 51.9 14.1 51.4 14.2 50.7 14.2 50.4 14.8 50.4 14.9 50.4 15 50.5 15.1 50.6 15.1 50.6 15.1 50.7 15.1 52.2 14.5 53.8 14.7 55.3 14.8 55.5 14.8 55.5 14.4 55.3 14.4Z" fill="#BD5353"/><path d="M53.6 16.2C53.2 15.9 52.7 15.8 52.3 16.1 52 16.3 51.9 16.6 51.9 16.9 51.9 16.9 51.9 17 51.9 17L51.9 17C52 17.5 52.6 17.9 53.1 17.8 53.3 17.8 53.5 17.6 53.6 17.5 53.9 17.1 53.9 16.5 53.6 16.2Z"/><path d="M45.4 15.9C44.9 15.8 44.4 16.1 44.3 16.6 44.2 16.8 44.3 17 44.4 17.2 44.5 17.5 44.7 17.7 44.9 17.8 45.4 18 45.9 17.7 46.1 17.3 46.1 17.3 46.1 17.3 46.1 17.3 46.3 16.8 46.1 16.3 45.6 16.1 45.5 16 45.4 15.9 45.4 15.9Z"/><path d="M56.1 16.1C55 16.6 54.1 15.8 53 15.8 52.8 15.8 52.6 15.9 52.4 15.9 52.2 15.9 52 16 51.8 16.1 51.4 16.2 51.1 16.5 50.9 16.8 50.9 16.8 50.9 16.9 50.9 16.9 50.9 16.9 51 16.9 51 16.9 51.1 16.9 51.2 16.8 51.3 16.8 51.4 16.7 51.5 16.7 51.6 16.7 51.8 16.6 52.1 16.6 52.3 16.5 52.8 16.4 53.2 16.4 53.7 16.5 53.9 16.5 54.1 16.6 54.3 16.7 55 17 55.7 16.9 56.3 16.4 56.3 16.2 56.2 16 56.1 16.1Z"/><path d="M42.3 14.5C43.4 14.2 44.5 14.1 45.7 14 46.3 14 47 14 47.2 14.6 47.3 14.7 47.2 14.8 47.1 14.9 47 14.9 47 14.9 46.9 14.9 45.4 14.3 43.8 14.7 42.3 14.9 42.1 14.9 42.1 14.5 42.3 14.5Z" fill="#BD5353"/><path d="M42 16.1C43.1 16.6 44 15.8 45.1 15.8 45.5 15.8 45.9 16 46.3 16.2 46.5 16.3 46.7 16.4 46.8 16.5L47.1 16.7C47.1 16.7 47.2 16.8 47.2 16.8 47.2 16.8 47.1 16.8 47.1 16.8 47 16.8 47 16.8 47 16.7L46.8 16.6C46.4 16.4 45.9 16.3 45.5 16.2 45 16.2 44.5 16.3 44 16.5 43.3 16.8 42.6 16.7 42 16.2 41.8 16.2 41.8 16 42 16.1Z"/><path d="M48.2 16.3C48.3 16.5 48.3 16.7 48.3 17 48.3 17.2 48.3 17.5 48.3 17.7 48.3 18.2 48.3 18.6 48.2 19.1 48.1 19.5 48 19.9 48 20.4 48 20.8 48.3 21.2 48.7 21.4 48.7 21.4 48.7 21.5 48.7 21.5L48.7 21.5C48.4 21.5 48.2 21.4 48 21.1 47.8 20.9 47.7 20.7 47.7 20.4 47.7 19.9 47.8 19.5 47.9 19 48 18.6 48 18.1 48.1 17.7L48.1 17C48.1 16.8 48.1 16.6 48.1 16.3 48.1 16.3 48.1 16.3 48.2 16.3L48.2 16.3Z" fill="#BD5353"/><path d="M31.6 60.4C31.6 60.4 50.1 60.9 59.2 62.1 59.2 63.4 59.2 64.7 59.2 66.1 58.6 66 58.1 65.8 57.5 65.7 55.4 65.4 53.2 65.2 51 65.1 48.8 64.9 46.7 64.8 44.5 64.7 42.3 64.6 40.2 64.5 38 64.4 37.4 64.4 31.7 64.2 31.7 64.2L31.6 60.4Z" fill="#F5D36F"/><path d="M43 54.2C43.4 54.1 43.8 54 44.3 54L45.6 53.9C46.4 53.8 47.3 53.8 48.1 53.7 48.9 53.6 49.8 53.6 50.6 53.6 51.4 53.6 52.3 53.6 53.1 53.7 53.1 53.7 53.2 53.7 53.2 53.8 53.2 53.8 53.2 53.9 53.1 53.9 52.3 53.9 51.4 53.9 50.6 53.9 49.8 53.9 49 54 48.1 54 47.2 54 46.4 54.1 45.6 54.2L44.3 54.3C43.9 54.3 43.5 54.4 43 54.4 43 54.4 43 54.4 43 54.2 43 54.3 43 54.2 43 54.2 43 54.2 43 54.2 43 54.2Z" fill="#BDA08C"/><path d="M49.2 54.6C49.5 54.5 49.8 54.5 50 54.5L50.8 54.4C51.4 54.4 51.9 54.3 52.5 54.3 53.1 54.3 53.6 54.3 54.2 54.3 54.8 54.3 55.3 54.3 55.9 54.4 55.9 54.4 56 54.4 56 54.5 56 54.5 56 54.6 55.9 54.6 55.4 54.6 54.8 54.6 54.2 54.6L52.5 54.6C52 54.6 51.4 54.6 50.8 54.7L50 54.7C49.8 54.6 49.5 54.6 49.2 54.6 49.2 54.6 49.2 54.6 49.2 54.6 49.2 54.5 49.2 54.6 49.2 54.6Z" fill="#BDA08C"/><path d="M45.5 27.3C45.8 27.4 46.1 27.6 46.4 27.7 46.7 27.8 47 27.9 47.4 28 48.7 28.2 50 28.2 51.3 27.8 51.9 27.6 52.5 27.3 53.1 27 53.1 27 53.2 27 53.2 27 53.2 27 53.2 27.1 53.2 27.1 52.7 27.5 52.1 27.9 51.4 28.1 50.8 28.3 50.1 28.5 49.4 28.5 48.7 28.5 48 28.5 47.4 28.3 47.1 28.2 46.7 28.1 46.4 28 46 27.8 45.7 27.6 45.5 27.3 45.4 27.4 45.4 27.4 45.5 27.3 45.4 27.3 45.4 27.3 45.5 27.3 45.4 27.3 45.5 27.3 45.5 27.3Z" fill="#BD5353" opacity="0.6"/></g><path d="M42.3 89.3C41.2 101 48.1 112.7 45.9 124.3" stroke="#BDA08C" stroke-width="0.25" stroke-miterlimit="10" fill="none"/><path d="M31.3 108.8C31.4 110.7 31.4 112.6 31.5 114.5 31.6 118.2 31.8 122 30.6 125.5" stroke="#BDA08C" stroke-width="0.25" stroke-miterlimit="10" fill="none"/><path d="M29.5 71.9C32.3 70.9 35.4 70.4 38.4 70.6" stroke="#BDA08C" stroke-width="0.25" stroke-miterlimit="10" fill="none"/><path d="M41.9 187.4 41.7 189.2C41.3 190.3 41.2 191.2 41.1 191.9 41 193.2 40.9 193.9 41.3 194.6 41.7 195.5 42.4 195.9 42.8 196.1 43.4 196.4 45.1 197.7 47.4 197.7 48.3 197.7 48.8 197.6 49.1 197.4 49.4 197.2 49.8 196.8 50.2 196 51 194.2 50.9 192.1 50.7 191.2L50.7 191.2 50 188.4C49.7 189.3 49.3 190.1 49 191 48.9 191.2 48.5 192.3 47.4 192.6 46.6 192.8 45.9 192.6 45.5 192.4 45.3 192.3 44.5 192 43.5 190.7 43.1 190.1 42.3 189 41.9 187.4Z" fill="#F5D36F"/><path d="M77.6 188.5 77.4 190.7C77.2 191.5 77.2 192.5 77.7 193.3 78.6 194.6 80.8 194.7 80.8 194.8 80.8 194.8 80.5 194.8 79.4 194.5 81.2 194.8 82.1 195 82.1 195 82.1 195 82.1 195 82.1 195 82.1 195 83.3 195.4 84.4 196.1 84.7 196.3 84.9 196.5 85.1 196.7 85.8 197.2 85.8 197.4 86.1 197.6 86.1 197.6 86.2 197.7 86.3 197.8 86.3 197.8 86.3 197.8 86.4 197.8 86.8 198 87.2 198.2 87.2 198.2 87.9 198.5 89.7 198.9 89.7 198.9L89.7 198.9C89.7 198.9 90.6 199 90.7 199 91.1 199 93.3 199.2 94.2 197.9 94.8 197.1 94.7 196.1 94.7 195.8L93.9 195C92.6 194.1 91.9 193.6 91.9 193.6 91.7 193.8 91.4 194.1 91.1 194.3 89.8 194.9 88.4 193.8 88.3 193.8 87.1 193.2 86 192.5 84.8 191.9 83.6 191.3 82.4 190.6 81.3 190 80 189.4 78.8 188.9 77.6 188.5Z" fill="#F5D36F"/></g><g id="Юбка"></g><g id="Слой_3"></g></svg>