<svg viewBox="0 0 81.6 234.8" xmlns="http://www.w3.org/2000/svg" xmlns:xlink="http://www.w3.org/1999/xlink" id="Слой_1" overflow="hidden"><g><g id="Слой_2_1_"><g id="Layer_2"><linearGradient x1="-0.2894" y1="-14.313" x2="61.7506" y2="189.637" gradientUnits="userSpaceOnUse" id="SVGID_1_" gradientTransform="matrix(1 0 0 -1 0 235.323)"><stop offset="0" stop-color="#E09087"/><stop offset="1" stop-color="#C7736B"/></linearGradient><linearGradient x1="42.5044" y1="119.509" x2="63.8044" y2="201.149" gradientUnits="userSpaceOnUse" id="SVGID_2_" gradientTransform="matrix(1 0 0 -1 0 235.323)"><stop offset="0" stop-color="#E09087"/><stop offset="1" stop-color="#C7736B"/></linearGradient><linearGradient x1="47.1435" y1="174.363" x2="47.1435" y2="215.663" gradientUnits="userSpaceOnUse" id="SVGID_3_" gradientTransform="matrix(1 0 0 -1 0 235.323)"><stop offset="0" stop-color="#E09087"/><stop offset="1" stop-color="#C7736B"/></linearGradient><linearGradient x1="24.3834" y1="-21.8182" x2="86.4134" y2="182.142" gradientUnits="userSpaceOnUse" id="SVGID_4_" gradientTransform="matrix(1 0 0 -1 0 235.323)"><stop offset="0" stop-color="#E09087"/><stop offset="1" stop-color="#C7736B"/></linearGradient><path d="M77.8 95.6C77.5 93.2 76.8 90.7 76.4 88.2 76.2 86.5 76.2 85 76 83.3 75.8 81.5 76.1 79.6 76 77.7 75.9 74 75.7 70.3 75.5 66.5 75.5 66.2 75.5 66 75.5 65.7 75.3 61.5 75 57.4 72.6 54 70.5 51.4 67.5 49.6 64.2 48.9 63.7 48.7 63.1 48.8 62.7 49.1 62.3 49.4 61.4 51.6 60.3 56.9 60.1 58.1 60 59.4 60 60.6 60 61.7 60.3 62.8 60.4 63.9 60.5 65.1 60.7 66.3 61 67.5 61.2 68.1 61.4 68.7 61.7 69.3 62 69.9 62.5 70.3 63 70.6 63.7 70.9 64.4 71 65.1 70.7 65.3 70.6 65.5 70.5 65.6 70.4 66 70 65.9 69.3 66.2 68.9 66.2 69.4 66.3 69.8 66.4 70.3 66.5 70.6 66.6 71 66.7 71.3 66.8 72.3 67 73.2 67.1 74.2 67.4 76.6 67.6 79 67.9 81.3 68.1 82.6 68.2 84 68.4 85.3 68.6 86.6 68.8 87.8 68.9 89.1 68.8 91.9 68.8 94.6 69 97.4 69.3 100.1 69.7 102.8 70.2 105.5 70.6 108 71 110.6 71.5 113.1 72 115.6 72.5 118.2 72.7 120.8 72.8 121.7 72.8 122.3 73.5 122.8 73.8 123 74.1 123.1 74.5 123.2 75 123.2 75.4 123.1 75.9 122.9 76.4 122.7 76.6 122.7 76.7 122.2 76.8 121.8 76.8 121.4 76.8 120.9 76.8 120.8 76.8 120.7 76.8 120.6 76.7 114.5 78.7 104.1 77.8 95.6Z" fill="#E09087"/><path d="M48 114C46.9 110.3 43.8 107.5 40 106.7 36.2 106 32.3 107.6 30 110.7 25.1 117.6 26.3 144.4 23.2 158.9 22 164.5 19.5 170.4 18.1 176 16.7 182.2 15.6 188.4 15 194.8 14.6 197.7 14.2 200.6 13.8 203.4 13.4 205.8 13.3 208.3 12.9 210.7 12.7 212.6 12.4 214.6 12 216.5 11.5 218.2 10.6 219.9 9.5 221.3 8.6 222.7 7.5 224.1 6.3 225.3 5.2 226.1 4.2 227.1 3.4 228.2 3.1 228.7 3 229.3 3.2 229.8 3.3 230.1 3.6 230.4 3.9 230.6 5.2 231.7 6.9 231.9 8.5 232.1 9.3 232.3 10.2 232.3 11 232.2 12.3 231.7 13.4 231 14.4 230.1 15.1 229.5 15.2 228.5 16 227.9 16.8 227.3 18 227.3 18.8 226.7 19.4 226.2 19.8 225.4 19.8 224.5 19.8 223.7 19.7 222.8 19.5 222 18.3 214.2 22.5 207.3 25.1 200.3 27.6 193.7 30.3 190.2 31.4 183.3 32.6 175.6 32.7 172.6 33 170 33.3 167.4 33.8 165.1 36 158.8 37.8 153.6 39.1 148.3 40.9 143.1 42.8 137.4 44.6 131.8 46.5 126.1 47.8 122.2 49.1 118 48 114Z" fill="url(#SVGID_1_)"/><path d="M32.9 100.5C33.5 101.9 35.2 102.4 36.7 102.7 40.4 103.4 44.1 103.7 47.8 103.6 51.6 103.5 55.3 103 58.9 102.1 59.7 101.9 60.5 101.7 61.3 101.5 62.1 101.3 62.9 101.3 63.6 101 64.2 100.8 64.8 100.4 65.1 99.8 65.4 99.1 65.4 98.2 65.2 97.5 64.7 95.7 64.2 93.9 63.9 92 63.7 90.6 63.6 89.2 63.6 87.8 63.7 85 64.3 82.2 64.6 79.4 64.7 78.9 64.7 78.3 64.4 77.9 64.2 77.6 63.8 77.4 63.4 77.3 63.1 77.3 62.7 77.3 62.4 77.3 62.1 77.3 61.8 77.3 61.6 77.3L51.7 76.5C48.5 76.2 45.3 76.1 42.1 76.2 40.2 76.3 38.3 76.7 36.5 77.2 35.7 77.4 34.9 77.7 34.1 78.1 33.8 78.3 33.5 78.6 33.3 78.9 33.2 79.4 33.2 79.9 33.4 80.4 34.2 83.4 34.9 89 34.4 91.4 33.8 96.8 32.1 98.7 32.9 100.5Z" fill="url(#SVGID_2_)"/><path d="M24 61.9C24.3 59.2 25.1 56.6 26.4 54.3 27.8 52.1 30.6 51 33.8 50.4 33.9 55.7 33.4 60.9 32.5 66.1 32.1 68.2 31.7 70.3 31.3 72.4 30.3 78.7 29.6 81.2 29.2 84.7 28.7 89.7 27.8 94.7 26.6 99.6 25.2 104.2 23.3 108.6 20.9 112.7 20 114.4 19.2 116 18.3 117.8 17.9 118.5 17.6 119.6 16.9 120.1 16.1 120.4 15.1 120.3 14.4 119.7 13.7 118.9 13.6 117.8 14 116.8 17.8 107.7 16.6 99.5 19.7 90.2 20.9 87 21.7 83.7 22.2 80.3 22.6 77.9 22.9 75.7 23.6 69.6 23.8 67.5 23.6 65 24 61.9Z" fill="#E09087"/><path d="M43.5 44.7C43.3 46 42.5 47.1 41.3 47.8 40.1 48.4 38.8 48.9 37.5 49.3 35.4 50.1 34.6 53 34.4 55.3 34.3 57.6 34.7 59.8 35.5 61.9 36.4 64.4 37.7 66.9 39.9 68.3 42 69.5 44.5 69.8 46.9 69.2 51.9 68 56.1 64.5 58 59.7 59.1 56.7 59.8 53.5 60 50.2 60.2 49.4 60.1 48.5 59.7 47.8 59.3 47.2 58.5 47 57.9 46.6 56 45.2 54.7 43.1 54.4 40.8 53.9 38 54.4 35.2 54.7 32.4 54.7 32.2 54.7 32 54.7 31.8 54.7 31.6 54.6 31.4 54.4 31.3 54.2 31.1 54 31.3 53.8 31.3 53.6 31.3 53.3 31.2 53 31.2 52.4 31.3 51.8 31.5 51.2 31.8 49.5 32.6 47.9 33.6 46.4 34.8 45.1 35.9 43.7 37.6 43.5 39.4 43.3 41.2 43.8 43 43.5 44.7Z" fill="url(#SVGID_3_)"/><path d="M62.3 63.7C62 62.5 61.8 61.3 61.8 60 61.7 59.5 61.7 59 61.8 58.5 61.8 57.9 61.8 57.3 61.8 56.7 61.9 54 62.7 51.3 64.1 48.9L58.5 47.2C58 50.2 57.1 53.1 55.9 55.9 54.9 58.8 53 61.4 50.5 63.2 48.9 64.3 47 65 45 65.2 42.2 65.3 39.6 63.6 38.5 61 37.4 58.6 37 55.3 38.1 49.2 36.2 49.7 34.3 50.2 32.4 50.7 32.7 52.9 32.7 55.1 32.3 57.2 31.9 58.8 31.3 60.4 30.6 62 29.6 64.4 28.1 66.9 28.1 69.6 28.1 72 29.2 74.3 31.2 75.8 31.7 76.2 32.8 76.8 32.8 76.8 33 76.9 33.1 79 33.6 80.2 34.7 80.2 36 80.2 37.1 80.2L42.5 80.1 53.3 79.9 59 79.8C61 79.9 63 79.8 64.9 79.7 65 78.9 65.2 78.2 65.4 77.4 65.6 76 65.8 74.5 66 73.1 66.1 72.1 66.2 71.1 66.3 70.1 66.3 70.1 66.3 70 66.3 70 66.3 70 66.2 69.9 66.2 69.9 64.6 69.5 63.7 67.6 63.2 66.1 62.7 65.2 62.5 64.4 62.3 63.7Z" fill="#8AE66E"/><path d="M52.5 8.2C52.1 7.2 52 6.2 52.1 5.1 52.2 4 52.7 3.1 53.6 2.4 54.5 1.8 55.7 1.8 56.5 2.5 56.9 1.4 57.8 0.6 59 0.6 60.1 0.6 61.3 1 62.1 1.8 62.9 2.6 63.6 3.6 64 4.6 65.2 7.4 65.8 10.5 65.5 13.5 65.5 14.6 65.1 15.6 64.4 16.5 63.7 17.2 62.7 17.5 61.7 17.5 58.1 17.5 55.6 14.3 54 11.3 53.4 10.4 52.9 9.3 52.5 8.2Z" fill="#202020"/><path d="M37.6 22.6C37.7 24 38.2 25.3 39 26.5 39.8 27.4 40.7 28.1 41.8 28.6 43.2 29.4 44.8 30.1 46.4 30.6 46.7 30.7 46.9 30.6 47.2 30.7 47.6 30.8 47.9 30.9 48.3 31.1 49.1 31.4 49.9 31.6 50.7 31.7 52.3 31.8 53.8 31.4 55.1 30.5 58.9 28.2 61.1 24.1 60.8 19.7 60.7 18.5 60.5 17.4 60 16.3 57.2 9.4 50.2 7.9 44.8 10 40.4 11.8 36.9 15.7 37.6 22.6Z" fill="#202020"/><path d="M68.1 110.4C67.9 108.8 67 107.5 65.6 106.7 62.1 104.5 56.8 105.3 52.8 110.3 48.5 115.8 49.1 123.1 49.4 127.1 49.6 130.1 49.4 141.2 48.6 155.2 48.3 159.3 48.3 163.9 47.9 168.4 47.2 176.1 46.1 180.1 45.4 188.2 45.1 192.2 45 196.2 44.5 200.1 44.1 203.6 43.4 207 42.7 210.4 41.5 216 40.4 221.6 39.5 227.3 39.3 228.3 39.2 229.3 39.2 230.4 39.2 231.5 39.5 232.5 40.1 233.4 40.5 234.1 41.3 234.6 42.1 234.8 42.7 234.9 43.3 234.8 43.9 234.6 44.9 234.3 45.9 234 46.9 233.5 47.8 233.2 48.5 232.6 49.1 232 50.5 230.1 49.2 227.7 48.9 225.6 48.7 224.4 48.4 223.1 48.4 221.9 48.4 220.6 48.6 219.3 49 218 49.6 215.3 50.5 212.6 51.2 210 52.5 205.2 53.8 200.4 55.3 195.7 56.9 190.9 58.6 186.1 60 181.2 60.8 178.3 61.3 175.4 61.4 172.4 61.5 169.7 61.2 167.2 61.1 164.5 61 158.6 62.3 153 63.8 147.3 67 134.8 70.1 122.7 68.1 110.4Z" fill="url(#SVGID_4_)"/><path d="M58.4 28.2C58.2 29.4 57.8 30.5 57.1 31.4 56.9 31.8 56.5 32.1 56.2 32.3 55.8 32.5 55.3 32.5 54.9 32.2 53.7 34.2 53.1 35.9 51.5 37.6 50.1 39.1 48.3 40.3 46.4 40.9 45.6 41.2 44.7 41.3 43.8 41.2 42.3 40.8 41 39.8 40.2 38.4 38.2 35.4 37.2 31.7 37.5 28.1 37.6 27.5 37.6 26.9 37.6 26.3 37.6 24.3 37.3 22.3 38.5 20.5 39.2 19.3 40.4 18.5 41.7 18.2 45.7 17.3 50.3 18.2 51.8 21.5 52.1 22.5 52.5 23.5 53 24.5 53.3 24.9 54 24.9 54.1 25.5 54.4 26.3 54.5 27.1 54.4 27.9 54.5 28.2 54.8 28.3 55.1 27.9 55.8 26.7 55.5 26.9 56.2 26.2 56.6 25.7 57.2 25.4 57.8 25.4 58.3 25.4 58.5 26 58.5 26.5 58.5 27.1 58.4 27.7 58.4 28.2Z" fill="#E39288"/><path d="M46.7 34.9 46.7 34.9 46.7 34.9C46.7 35.3 46.5 35.8 46.2 36.1 45.9 36.5 45.6 36.8 45.3 37 44.6 37.5 43.7 37.6 42.9 37.3 42.5 37.1 42.1 36.7 41.9 36.3 41.6 35.9 41.4 35.5 41.2 35 41.4 34.9 41.6 35 41.7 35.1 41.9 35.1 42.1 35.1 42.4 35.1 42.6 35 42.8 35 43 35 43.2 35.1 43.4 35.1 43.6 35.1 43.8 35.1 43.9 35 44 34.9 44.2 34.8 44.3 34.8 44.5 34.8 44.7 34.8 45 34.8 45.2 34.9 45.7 35 46.1 35 46.7 34.9L46.7 34.9Z" fill="#C1272D"/><path d="M51.8 26 51.5 26C51.2 25.9 50.9 25.7 50.5 25.5 50.2 25.4 49.8 25.3 49.4 25.3 48.8 25.3 48.2 25.4 47.6 25.5 47 25.6 46.4 25.8 45.8 26 45.7 26 45.6 26.1 45.5 26.1 45.3 26.3 45.2 26.6 45.5 26.8 45.8 27 46 26.8 46.2 26.8 46.4 26.8 46.9 26.7 47.2 26.6 47.5 26.5 47.7 26.4 48 26.3 48.3 26.2 48.6 26.1 48.9 26 49.6 25.8 50.4 25.8 51.1 26 51.3 26.1 51.5 26.1 51.7 26.2 51.8 26.2 51.9 26.2 51.8 26.1 51.7 26 51.8 26 51.8 26Z" fill="#A84C4C"/><path d="M42.2 26.1 42.2 26.1C42 25.9 41.8 25.8 41.6 25.7 40.8 25.5 39.9 25.3 39 25.3 38.8 25.3 38.6 25.3 38.4 25.4 38.2 25.5 38.1 25.7 37.9 25.8 37.9 25.9 37.9 26 37.9 26 37.9 26 38 26 38.1 26 38.4 25.9 38.8 25.9 39.1 26 39.5 26.1 40 26.2 40.4 26.3 40.9 26.4 41.3 26.5 41.8 26.7 41.9 26.7 42 26.7 42.1 26.7 42.4 26.6 42.3 26.2 42.2 26.1Z" fill="#A84C4C"/><path d="M48.7 27.7C50.2 27.7 50.9 28.5 51.7 28.3L51.8 28.3C51.9 28.3 51.8 28.5 51.7 28.6 50.7 28.9 48.8 27.9 46.3 28.9 46.3 28.9 46 29 46 28.9 46 28.8 46 28.9 46.1 28.8L46.2 28.7 46.5 28.5C47.1 28 47.9 27.7 48.7 27.7Z"/><path d="M38.3 28.1 38.3 28.1C38.2 28.1 38.2 28.1 38.3 28.1M38.2 28 38.2 28C38.3 28 38.5 28 38.6 28L39 27.8C39.3 27.7 39.6 27.6 39.8 27.6 40.2 27.6 40.7 27.6 41.1 27.8 41.3 27.9 41.7 28.1 41.6 28.4 41.5 28.7 41.4 28.5 41.3 28.4 41.1 28.3 41 28.3 40.8 28.2 40.5 28.1 40.2 28.1 39.8 28 39.5 28 39.2 28 38.9 28.1 38.7 28.2 38.4 28.1 38.2 28L38.2 28Z"/><path d="M49.9 28C49.6 27.9 48 27.6 47.8 28.2 47.7 28.7 47.9 29.3 48.4 29.6 48.9 29.9 49.5 29.9 49.9 29.5 50.1 29.3 50.3 29 50.4 28.6 50.4 28.3 50.2 28.1 49.9 28Z"/><path d="M41.6 28.7C41.6 28.6 41.6 28.6 41.6 28.5 41.6 28.3 41.5 28.1 41.3 28.1 41.3 28.1 41.3 28.1 41.3 28.1 41.2 28.1 41.1 28.1 41 28 40.9 27.9 40.7 27.9 40.6 27.9 40.3 27.8 40 27.8 39.7 27.9 39.6 27.9 39.6 27.9 39.5 27.9 39.4 28 39.3 28.2 39.3 28.3 39.3 28.5 39.3 28.6 39.4 28.8 39.5 29.1 39.8 29.3 40.1 29.4 40.5 29.6 41 29.5 41.4 29.2 41.5 29 41.6 28.8 41.6 28.7Z"/><path d="M42.9 28.1C42.9 28.4 42.9 28.6 42.8 28.9 42.7 29.2 42.7 29.4 42.6 29.7L42.2 31.3C42.1 31.6 42.1 31.8 42 32.1 42 32.2 42 32.5 42 32.7 42 32.9 42.2 33 42.4 33.2 42.6 33.3 42.9 33.5 43.1 33.7 43.1 33.7 43.1 33.8 43.1 33.8 43.1 33.8 43.1 33.8 43.1 33.8 43.1 33.8 43.1 33.8 43 33.8 42.7 33.7 42.5 33.6 42.3 33.5 42.2 33.4 42 33.4 41.9 33.3 41.8 33.2 41.7 33 41.6 32.9 41.5 32.6 41.5 32.3 41.6 32 41.6 31.7 41.7 31.5 41.8 31.2L42.2 29.7 42.4 28.9C42.5 28.6 42.5 28.4 42.7 28.1 42.8 28 42.8 28 42.9 28.1 42.9 28 42.9 28 42.9 28.1 42.9 28 42.9 28.1 42.9 28.1Z" fill="#A84C4C"/><path d="M33.5 36.5C33.1 36.2 32.7 35.8 32.4 35.4 32.1 35 31.9 34.5 31.7 34 31.6 33.5 31.7 32.9 32 32.4 32.3 32 32.7 31.6 33.2 31.3 34.1 30.7 35.1 30.4 35.9 29.8 36.3 29.5 36.5 29.1 36.5 28.6 36.4 28.1 36.1 27.8 35.7 27.6 35.3 27.3 34.8 27.1 34.3 26.9 34.1 26.8 33.8 26.6 33.7 26.4 33.5 26.2 33.4 25.9 33.4 25.6 33.4 25.4 33.5 25.3 33.6 25.2 33.7 25.1 33.8 25 34 25 34.2 24.9 34.5 24.8 34.7 24.7 35.2 24.6 35.6 24.4 36 24.1 36.1 23.9 36.2 23.7 36.1 23.5 36 23.3 35.9 23.1 35.7 22.9 35.3 22.5 35 22.1 34.8 21.6 34.7 21.3 34.7 20.9 34.9 20.6 35.1 20.4 35.3 20.2 35.5 20 35.9 19.7 36.4 19.5 36.9 19.3 36.9 19.3 37 19.3 37 19.3 37 19.3 37 19.4 37 19.4 36.5 19.6 36.1 19.8 35.7 20.1 35.3 20.4 34.9 20.8 35.1 21.2 35.3 21.6 35.6 22.1 36 22.4 36.2 22.6 36.3 22.9 36.4 23.1 36.5 23.4 36.4 23.7 36.2 24 36 24.2 35.8 24.4 35.5 24.5 35.2 24.6 35 24.7 34.8 24.8 34.6 24.9 34.3 25 34.1 25.1 33.9 25.2 33.7 25.3 33.7 25.5 33.7 25.7 33.8 25.9 33.9 26.1 34.1 26.3 34.3 26.4 34.5 26.6 34.9 26.9 35.4 27.1 35.9 27.3 36.1 27.4 36.4 27.6 36.5 27.8 36.7 28 36.8 28.3 36.8 28.6 36.8 28.9 36.8 29.2 36.6 29.4 36.4 29.6 36.3 29.8 36.1 30 35.2 30.6 34.3 31 33.4 31.5 33 31.8 32.6 32.1 32.3 32.5 32 32.9 31.9 33.4 32 33.9 32.1 34.4 32.3 34.8 32.6 35.2 32.9 35.6 33.2 36 33.6 36.3 33.6 36.3 33.6 36.4 33.6 36.4 33.6 36.4 33.6 36.4 33.6 36.4 33.6 36.5 33.5 36.5 33.5 36.5Z" fill="#BDA08C"/><path d="M57.5 13.2C57.6 13.3 57.6 13.5 57.5 13.6 57.4 13.7 57.3 13.8 57.1 13.8 56.9 13.7 56.7 13.6 56.5 13.5 56.1 13.2 55.8 13 55.5 12.6 54.9 12 54.4 11.2 54.1 10.4 53.9 10 53.8 9.6 53.7 9.1 53.6 8.6 53.6 8.2 53.7 7.7 53.8 7.5 54 7.3 54.2 7.2 54.4 7 54.6 7 54.9 7.1 55.3 7.2 55.8 7.4 56.2 7.6 57.7 8.6 58.9 9.9 59.8 11.5 60 11.9 60.3 12.3 60.5 12.7 60.6 12.9 60.7 13.2 60.7 13.4 60.7 13.6 60.6 13.7 60.5 13.8 60.4 13.9 60.3 13.9 60.1 13.9 59.9 13.9 59.6 13.8 59.4 13.7L58.8 13.4C58.4 13.2 58.1 12.9 57.7 12.6 56.3 11.5 55.2 10 54.4 8.4 54 7.6 53.7 6.8 53.4 5.9 53.1 5.1 53 4.1 53.1 3.2 53.2 2.7 53.5 2.3 53.8 2 54.2 1.7 54.6 1.5 55.1 1.5 56 1.5 56.9 1.7 57.7 2.2 59.2 3.1 60.6 4.4 61.5 6 62 6.7 62.4 7.5 62.7 8.4 62.9 8.8 63 9.2 63.1 9.7 63.2 9.9 63.2 10.1 63.2 10.3 63.2 10.4 63.2 10.5 63.2 10.7 63.2 10.9 63.1 11 63 11.1 62.9 11.1 62.8 11.2 62.7 11.2 62.6 11.2 62.5 11.1 62.5 11.1 62.4 11 62.3 10.9 62.2 10.8L61.8 10.3C61.5 9.9 61.3 9.6 61 9.2 60.5 8.4 60.1 7.7 59.7 6.8 58.9 5.2 58.4 3.5 58.2 1.7 58.2 1.5 58.2 1.2 58.2 1 58.2 0.7 58.4 0.5 58.5 0.3 58.7 0.1 58.9 -6.10623e-16 59.2-0.1 59.4-0.1 59.7-0.1 59.9-0.1 60.8 -6.38378e-16 61.7 0.3 62.4 0.9 63.1 1.5 63.7 2.1 64.2 2.9 64.7 3.6 65.1 4.4 65.4 5.3 66.1 7 66.4 8.7 66.5 10.5 66.5 11.4 66.4 12.3 66.2 13.1 66 14 65.5 14.8 64.8 15.4 64.4 15.7 64 15.9 63.6 16 63.1 16.1 62.7 16.1 62.2 16 61.3 15.9 60.5 15.6 59.7 15.1 59.7 15.1 59.7 15 59.7 15 59.7 15 59.8 15 59.8 15 59.8 15 59.8 15 59.8 15L59.8 15C60.5 15.4 61.4 15.7 62.2 15.8 63 16 63.9 15.7 64.6 15.2 65.3 14.7 65.7 14 65.9 13.1 66.1 12.3 66.2 11.4 66.2 10.5 66.2 8.8 65.8 7 65.1 5.4 64.9 4.7 64.5 4 64 3.2 63.5 2.5 63 1.8 62.3 1.3 61.6 0.8 60.8 0.5 60 0.4 59.6 0.3 59.2 0.4 58.9 0.7 58.7 1 58.6 1.4 58.7 1.8 58.9 3.5 59.4 5.2 60.2 6.8 60.6 7.6 61 8.4 61.5 9.1 61.8 9.5 62 9.8 62.3 10.1 62.4 10.3 62.6 10.4 62.7 10.6 62.8 10.8 63 10.9 63 10.8 63 10.7 63 10.8 63 10.7 63 10.6 63 10.5 63 10.4 63 10.2 62.9 10 62.9 9.8 62.8 9.4 62.7 9 62.5 8.6 61.6 6.1 59.9 4.1 57.6 2.7 56.9 2.2 56.1 2 55.2 2 54.8 2 54.4 2.2 54 2.5 53.7 2.8 53.5 3.1 53.4 3.5 53.3 4.3 53.4 5.2 53.7 6 54 6.8 54.3 7.7 54.7 8.4 55.4 10 56.5 11.4 57.9 12.5 58.2 12.8 58.6 13 59 13.3 59.3 13.5 59.7 13.7 60.1 13.8 60.3 13.8 60.4 13.7 60.4 13.5 60.4 13.5 60.4 13.5 60.4 13.5 60.4 13.3 60.3 13.1 60.2 13 60 12.6 59.8 12.2 59.5 11.9 58.6 10.4 57.4 9.1 56 8.2 55.6 8 55.3 7.8 54.8 7.7 54.6 7.7 54.4 7.7 54.2 7.8 54 7.9 53.9 8 53.8 8.2 53.7 8.6 53.7 9 53.8 9.4 53.9 9.8 54 10.2 54.2 10.6 54.5 11.4 55 12.1 55.6 12.8 55.9 13.1 56.2 13.4 56.6 13.7 56.8 13.8 56.9 13.9 57.1 14 57.2 14 57.3 14 57.3 13.9 57.3 13.8 57.4 13.8 57.3 13.7 57.3 13.3 57.3 13.2 57.5 13.2 57.4 13.1 57.5 13.1 57.5 13.2 57.5 13.2 57.5 13.2 57.5 13.2L57.5 13.2Z" fill="#BDA08C"/><path d="M37 19.4C37 18.5 37.1 17.6 37.4 16.8 37.6 15.9 38 15.1 38.4 14.3 39.3 12.7 40.5 11.4 42 10.4 43.5 9.4 45.2 8.9 47 8.7 48.8 8.5 50.6 8.8 52.2 9.6 52.2 9.6 52.2 9.7 52.2 9.7 52.2 9.7 52.1 9.7 52.1 9.7 50.5 9.1 48.7 8.8 47 9 45.3 9.2 43.6 9.7 42.1 10.6 40.6 11.5 39.4 12.8 38.6 14.3 38.2 15.1 37.8 15.9 37.6 16.7 37.3 17.7 37.2 18.5 37 19.4 37.1 19.4 37 19.5 37 19.4 37 19.5 37 19.5 37 19.4 37 19.4 37 19.4 37 19.4Z" fill="#BDA08C"/><path d="M42.9 17.6C43.1 16.7 43.5 15.9 44 15.2 44.5 14.4 45 13.8 45.7 13.1 47 11.9 48.6 11 50.3 10.5 50.4 10.5 50.5 10.5 50.5 10.6 50.5 10.6 50.5 10.7 50.5 10.7 49.7 11.6 49 12.6 48.4 13.7 47.8 14.7 47.4 15.9 47.4 17.1L47 17C48.7 15.7 50.4 14.5 52.1 13.2 52.2 13.1 52.3 13.1 52.3 13.2 52.3 13.2 52.3 13.2 52.3 13.2 52.3 13.3 52.3 13.3 52.3 13.4L50.7 16 50.3 16.6C50.2 16.8 50 17 50 17.2 49.9 17.4 49.9 17.6 49.9 17.8 50 18 50.1 18.1 50.4 18.1 50.6 18.1 50.9 18 51.1 17.9 51.3 17.8 51.5 17.6 51.7 17.5 52.1 17.2 52.4 16.8 52.7 16.4 53.3 15.6 53.8 14.7 54.1 13.8 54.1 13.8 54.2 13.8 54.2 13.8 54.2 13.8 54.3 13.8 54.3 13.9 54.1 14.9 53.6 15.9 53 16.7 52.7 17.1 52.3 17.5 51.9 17.8 51.5 18.2 51 18.4 50.4 18.4 50.1 18.4 49.8 18.2 49.7 17.9 49.6 17.6 49.6 17.3 49.8 17 49.9 16.8 50 16.5 50.2 16.3L50.6 15.7 52.2 13.1 52.4 13.3C50.7 14.6 49 15.8 47.3 17.1 47.2 17.2 47.1 17.2 47.1 17.1 47.1 17.1 47.1 17.1 47.1 17.1 47.1 17.1 47.1 17 47.1 17 47.1 15.7 47.5 14.5 48.1 13.4 48.7 12.3 49.5 11.3 50.3 10.3L50.5 10.5C48.8 11 47.3 11.8 46 13.1 45.4 13.7 44.8 14.4 44.3 15.1 43.8 15.8 43.4 16.6 43.2 17.4 43 17.7 43 17.7 42.9 17.6 42.9 17.7 42.9 17.6 42.9 17.6Z" fill="#BDA08C"/><path d="M59.8 15.1C59.9 15.3 60.1 15.5 60.2 15.7L60.5 16.4 60.8 17.1 61 18C61.2 19 61.3 20 61.2 21 61.1 22 60.9 23 60.5 24 60.1 25 59.6 25.9 58.9 26.6 58.9 26.6 58.8 26.6 58.8 26.6 58.8 26.6 58.8 26.5 58.8 26.5 59.4 25.7 59.8 24.8 60.2 23.9 60.5 23 60.8 22 60.8 21 60.9 20 60.8 19 60.6 18L60.4 17.3 60.2 16.6 60 15.9C59.9 15.7 59.8 15.5 59.7 15.2L59.7 15.2C59.7 15.2 59.7 15.1 59.7 15.1 59.7 15.1 59.7 15.1 59.8 15.1 59.8 15.1 59.8 15.1 59.8 15.1Z" fill="#BDA08C"/><path d="M55.5 29.6C55.5 29.5 55.5 29.4 55.6 29.3 55.6 29.2 55.7 29.1 55.7 29 55.7 28.9 55.9 28.6 56 28.4 56.1 28.2 56.2 28 56.3 27.8L56.5 27.5C56.6 27.4 56.7 27.3 56.8 27.3 56.8 27.3 56.9 27.3 56.9 27.3 56.9 27.3 56.9 27.3 56.9 27.4 56.9 27.5 56.8 27.6 56.8 27.7L56.6 28C56.5 28.2 56.4 28.4 56.3 28.6 56.2 28.8 56 28.8 55.9 29L55.8 29.3C55.8 29.4 55.7 29.5 55.6 29.6 55.6 29.7 55.5 29.7 55.5 29.6 55.5 29.6 55.5 29.6 55.5 29.6Z" fill="#A84C4C"/><path d="M56 28.5C56 28.4 56 28.4 56 28.5L56.1 28.4C56.2 28.4 56.2 28.3 56.3 28.3L56.5 28.2 56.6 28.2C56.6 28.2 56.7 28.2 56.7 28.2 56.7 28.3 56.7 28.3 56.7 28.4L56.7 28.4C56.7 28.5 56.7 28.5 56.6 28.5L56.5 28.5 56.3 28.5 56.1 28.5 56 28.5C56.1 28.5 56.1 28.5 56 28.5L56 28.5C56 28.5 56 28.5 56 28.5Z" fill="#A84C4C"/><path d="M33.9 77C34.1 77 34.3 77 34.4 77.1L34.9 77.2C35.3 77.2 35.6 77.2 36 77.2 36.4 77.2 36.7 77.1 37.1 77.1 37.4 77 37.8 76.9 38.1 76.8L38.1 76.8C38.1 76.8 38.2 76.8 38.2 76.8 38.2 76.8 38.2 76.9 38.2 76.9 37.9 77.1 37.5 77.3 37.2 77.4 36.8 77.5 36.5 77.5 36.1 77.5 35.7 77.5 35.3 77.5 35 77.5 34.8 77.5 34.6 77.5 34.4 77.4 34.2 77.4 34 77.3 33.9 77.2 33.8 77.1 33.8 77.1 33.9 77 33.8 77 33.9 77 33.9 77L33.9 77Z" fill="#BDA08C"/><path d="M48 76.6C48.7 76.7 49.3 76.8 50 76.9 50.7 77 51.3 77 52 77 53.3 77 54.6 76.8 55.9 76.3 57.2 75.9 58.3 75.3 59.4 74.5 60.4 73.7 61.2 72.6 61.7 71.4 61.7 71.4 61.8 71.4 61.8 71.4 61.8 71.4 61.9 71.5 61.8 71.5 61.4 72.8 60.6 73.9 59.5 74.8 58.5 75.6 57.3 76.3 56 76.7 54.7 77.1 53.4 77.3 52 77.3 51.3 77.3 50.7 77.3 50 77.2 49.3 77.1 48.7 77 48 76.8 48 76.8 47.9 76.8 47.9 76.7 47.9 76.6 47.9 76.6 48 76.6 48 76.6 48 76.6 48 76.6 48 76.6 48 76.6 48 76.6Z" fill="#BDA08C"/><path d="M32.5 50.7C32.8 51.9 32.9 53.1 32.8 54.4 32.7 55.6 32.5 56.8 32.3 58 32 59.2 31.6 60.3 31.1 61.4 30.6 62.5 30 63.6 29.6 64.7 29.1 65.8 28.8 66.9 28.6 68.1 28.5 68.7 28.5 69.3 28.6 69.9 28.6 70.2 28.7 70.5 28.7 70.8 28.7 71.1 28.8 71.4 28.9 71.7 29.2 72.9 29.7 73.9 30.5 74.8 31.3 75.7 32.3 76.4 33.4 76.8 33.5 76.8 33.5 76.9 33.5 76.9 33.5 77 33.4 77 33.4 77 32.2 76.7 31.1 76 30.3 75.1 29.5 74.2 28.9 73.1 28.6 71.8 28.3 70.6 28.2 69.3 28.3 68 28.5 66.8 28.8 65.6 29.4 64.5 29.9 63.4 30.5 62.3 31 61.2 31.5 60.1 31.9 59 32.2 57.8 32.8 55.5 33 53 32.6 50.7L32.6 50.7C32.6 50.6 32.6 50.6 32.7 50.6 32.4 50.6 32.5 50.6 32.5 50.7L32.5 50.7 32.5 50.7Z" fill="#8AE66E"/><path d="M38.1 49.2C37.8 51 37.6 52.8 37.5 54.7 37.4 56.5 37.7 58.3 38.3 60 38.9 61.7 40.1 63.2 41.7 64.1 43.3 65 45.2 65.2 46.9 64.7 47.8 64.5 48.6 64.2 49.4 63.7 50.2 63.2 50.9 62.7 51.5 62 52.8 60.7 53.9 59.2 54.7 57.6 56.4 54.4 57.6 50.9 58.2 47.3 58.2 47.3 58.3 47.2 58.3 47.2 58.3 47.2 58.3 47.2 58.3 47.2 58.3 47.2 58.4 47.2 58.4 47.3 58.4 47.3 58.4 47.3 58.4 47.3 57.9 51 56.7 54.5 55 57.8 54.2 59.5 53.1 61 51.7 62.3 51 62.9 50.3 63.5 49.5 64 48.7 64.5 47.8 64.8 46.9 65 45.1 65.5 43.1 65.3 41.4 64.4 39.8 63.4 38.6 62 37.9 60.2 37.3 58.4 37 56.6 37.1 54.7 37.2 52.9 37.4 51 37.8 49.2 37.8 49.1 37.9 49.1 37.9 49.1 38.1 49.2 38.1 49.2 38.1 49.2Z" fill="#8AE66E"/><path d="M64 49C63.6 49.8 63.2 50.7 62.9 51.5 62.6 52.4 62.4 53.3 62.3 54.2 62.1 55.1 62.1 56 62 57 61.9 57.9 61.9 58.9 62 59.8 62.1 61.7 62.4 63.5 63 65.3 63.3 66.2 63.6 67 64.1 67.8 64.5 68.6 65.3 69.3 66.1 69.6L66.1 69.6C66.1 69.6 66.1 69.7 66.1 69.7 66.1 69.7 66 69.8 66 69.8 65.5 69.7 65.1 69.4 64.7 69.1 64.4 68.8 64.1 68.4 63.8 68 63.3 67.2 62.9 66.3 62.6 65.4 62 63.6 61.6 61.7 61.5 59.8 61.5 58.9 61.5 57.9 61.6 57 61.7 56.1 61.8 55.1 62 54.2 62.1 53.3 62.4 52.3 62.7 51.4 63 50.5 63.4 49.6 64 48.9 64 48.9 64.1 48.9 64.1 48.9 64 48.9 64 48.9 64 49 64 48.9 64 49 64 49Z" fill="#8AE66E"/><path d="M43.5 41.2C44.1 41.2 44.7 41.2 45.2 41.1 45.8 41 46.4 40.9 46.9 40.6 48 40.2 49 39.6 49.9 38.8 50.8 38 51.6 37.2 52.3 36.3 53.1 35.4 53.7 34.4 54.2 33.3 54.2 33.3 54.3 33.3 54.3 33.3 54.3 33.3 54.3 33.4 54.3 33.4 53.8 34.5 53.2 35.5 52.5 36.5 51.8 37.5 51 38.3 50.1 39.1 49.2 39.9 48.1 40.5 47 40.9 46.4 41.1 45.8 41.2 45.2 41.3 44.7 41.5 44.1 41.5 43.5 41.2 43.5 41.3 43.5 41.3 43.5 41.2 43.5 41.2 43.5 41.2 43.5 41.2Z" fill="#A84C4C" opacity="0.6"/><path d="M29.5 111.5C34.9 111.5 39.8 113.5 45 115.8 46.3 116.4 47.7 117.5 48.8 117.7 49.9 117.9 51.5 116.5 53 115.4 57.5 112.2 62.6 110.1 68 109.2 67.1 105.4 66.3 101.8 65.4 98.2 65.4 98.3 56.9 99.7 56.1 99.8 53.1 100.1 50.1 100.3 47.1 100.2 45.9 100.2 44.7 100.2 43.5 100.1 41.7 100 39.9 99.8 38.1 99.6 37.6 99.6 32.6 98.8 32.6 98.7 32.4 99.6 32.2 100.4 32 101.3L29.5 111.5Z" fill="#8AE66E"/><path d="M17.9 117.8C17.8 117.6 17.6 117.4 17.5 117.3 17.1 117 16.7 116.8 16.3 116.5 16 116.2 15.6 116 15.1 116 14.8 116 14.5 116.1 14.3 116.3 13.9 117.1 13.4 117.9 12.9 118.6 12.3 119.2 11.6 119.7 11 120.3 9.9 121.2 8.8 122 7.6 122.8 6.3 123.2 5 123.9 3.9 124.8 3.6 125 3.3 125.2 3.2 125.3 2.2 125.9 1.3 126.6 0.4 127.4 0.3 127.5 0.2 127.6 0.2 127.7 0.2 127.8 0.3 128 0.5 128 0.6 128 0.8 128 0.9 128L1.4 127.8C1 128.3 0.6 128.8 0.2 129.3 0.2 129.3 0.1 129.4 0.1 129.4 0.1 129.5 -4.996e-16 129.6 -4.996e-16 129.7 0.1 129.8 0.2 129.8 0.3 129.8 0.4 129.8 0.1 130.2 0.1 130.4 0.5 130.9 1 130.6 1.4 130.3 2 129.8 2.5 129.3 2.9 128.8 3.1 128.6 3.3 128.3 3.5 128.1 3.5 128.1 3.6 128.2 3.6 128.2 3.1 129.1 2.5 129.9 2 130.8 1.9 131 1.7 131.4 2 131.5 2.3 131.6 2.6 131.4 2.8 131.2 3.2 130.9 3.5 130.5 3.9 130.1 4.2 129.7 4.6 129.3 4.9 128.9 5.2 128.5 5.5 128.1 5.8 127.8 6.4 127.3 7.1 126.8 7.8 126.5 8.3 126.3 8.8 126.1 9.3 125.9 9.8 125.7 10.3 125.6 10.7 125.4 10.8 125.4 11 125.3 11.1 125.3 11.7 125.3 12.1 125.7 12.2 126.2 12.2 126.2 12.2 126.2 12.2 126.3 12 127.2 11.7 128.1 11.1 128.8 10.9 129.2 10.8 129.7 10.8 130.2 10.8 130.6 11.1 130.8 11.5 130.9 11.9 130.9 12.2 130.5 12.4 130.1 12.9 129.1 13.5 128.2 14.3 127.3 14.7 126.9 15.1 126.5 15.4 126.1 16.2 125.1 16.6 123.9 16.7 122.7 16.7 122.2 16.8 121.7 16.9 121.2 17.1 120.4 17.3 119.6 17.7 118.9 17.8 118.7 17.9 118.5 18 118.2 18 118.1 18 117.9 17.9 117.8Z" fill="#E09087"/><path d="M34.1 83.7 64.2 83.3C64.5 82.1 64.6 80.6 64.8 79.4 64.8 79.4 52.3 79.6 51.2 79.7L37.5 80C36.4 80 35.4 80 34.3 80 34.2 80 33.4 80 33.4 80 33.5 80.5 33.6 81 33.7 81.5 33.8 82 34 83.1 34.1 83.7Z" fill="#8AE66E"/><path d="M37.8 70.1C38.3 70 38.7 69.9 39.2 69.8L40.6 69.6C41.5 69.5 42.4 69.3 43.4 69.2 44.4 69.1 45.3 69 46.2 68.9 47.1 68.8 48.1 68.7 49 68.8 49 68.8 49.1 68.8 49.1 68.9 49.1 69 49.1 69 49 69 49 69 49 69 49 69 48.1 69.1 47.2 69.2 46.2 69.3 45.2 69.4 44.4 69.5 43.4 69.6 42.4 69.7 41.6 69.8 40.6 69.9L39.2 70.1C38.7 70.2 38.3 70.3 37.8 70.3 37.8 70.3 37.8 70.3 37.8 70.1 37.8 70.2 37.8 70.2 37.8 70.1Z" fill="#BDA08C"/><path d="M41.8 70.6C42 70.5 42.1 70.5 42.3 70.5L42.8 70.4 43.9 70.2 44.9 70C45.3 69.9 45.6 69.9 46 69.9 46 69.9 46.1 69.9 46.1 70 46.1 70 46.1 70 46.1 70.1 45.8 70.2 45.4 70.3 45 70.3 44.6 70.4 44.3 70.4 43.9 70.5L43 70.7 42.5 70.8C42.3 70.8 42.1 70.8 42 70.8 41.8 70.7 41.8 70.7 41.8 70.6 41.8 70.6 41.8 70.6 41.8 70.6Z" fill="#BDA08C"/><path d="M47.3 69.8C47.4 69.8 47.5 69.7 47.6 69.7L48 69.7 48.6 69.6C48.8 69.6 49 69.6 49.2 69.5 49.4 69.5 49.6 69.5 49.8 69.5 49.8 69.5 49.9 69.6 49.9 69.6 49.9 69.6 49.9 69.6 49.9 69.6L49.9 69.6C49.7 69.7 49.5 69.7 49.3 69.7L48.7 69.7 48 70 47.7 70C47.6 70 47.5 70 47.4 70 47.3 70 47.3 69.9 47.3 69.8 47.4 69.9 47.4 69.9 47.3 69.8L47.3 69.8Z" fill="#BDA08C"/><path d="M23.8 87.5C23.9 87.4 24 87.4 24.1 87.3L24.4 87.1 24.9 86.8 25.4 86.5C25.6 86.4 25.8 86.3 25.9 86.2 25.9 86.2 26 86.2 26 86.2 26 86.2 26 86.2 26 86.2 26 86.2 26 86.2 26 86.3 25.9 86.5 25.7 86.6 25.5 86.7 25.3 86.8 25.1 86.9 25 87 24.8 87.1 24.6 87.2 24.4 87.2L24.1 87.3C24.1 87.6 23.9 87.6 23.8 87.5 23.8 87.5 23.8 87.5 23.8 87.5L23.8 87.5Z" fill="#A84C4C"/><path d="M47.7 96.5C47.6 96.4 47.7 96.3 47.7 96.2 47.7 96.1 47.8 96 47.9 95.9 48 95.7 48.2 95.6 48.4 95.6 48.6 95.6 48.8 95.6 49 95.6 49.1 95.6 49.2 95.7 49.3 95.7 49.4 95.7 49.5 95.8 49.5 95.9 49.5 96 49.5 96 49.4 96L49.4 96C49.3 96 49.2 96 49.2 96L49 96C48.9 96 48.8 96 48.7 96 48.6 96 48.5 96.1 48.4 96.2 48.4 96.2 48.3 96.3 48.3 96.3L48 96.5C48 96.5 48 96.5 47.9 96.5L47.9 96.5C47.8 96.6 47.7 96.6 47.7 96.5Z" fill="#A84C4C"/><path d="M48 51.9C48.1 51.8 48.2 51.7 48.3 51.6 48.4 51.5 48.5 51.4 48.6 51.3 48.8 51.1 49 50.8 49.3 50.7 49.6 50.5 49.8 50.4 50.1 50.3 50.4 50.2 50.7 50.2 51 50.2 51 50.2 51.1 50.2 51.1 50.3 51.1 50.3 51.1 50.3 51.1 50.3 50.8 50.4 50.5 50.5 50.3 50.6 50 50.7 49.8 50.8 49.6 51 49.4 51.2 49.2 51.3 49 51.5 48.9 51.6 48.8 51.7 48.7 51.8 48.4 52 48.2 52 48 51.9L48 51.9C48 52 48 52 48 51.9L48 51.9Z" fill="#A84C4C"/><path d="M43.2 220.8C43.3 220.8 43.5 220.8 43.6 220.8 43.7 220.8 43.9 220.8 44 220.9 44.3 221 44.5 221 44.8 221.2 45.1 221.3 45.3 221.4 45.5 221.6 45.7 221.7 46 221.9 46.2 222.1 46.2 222.1 46.2 222.2 46.2 222.2 46.2 222.2 46.2 222.2 46.2 222.2 46.2 222.2 46.2 222.2 46.1 222.2 45.8 222.1 45.6 222 45.4 221.9L44.7 221.6 44 221.3 43.6 221.2C43.5 221 43.3 221 43.2 220.8 43.2 220.9 43.2 220.8 43.2 220.8L43.2 220.8Z" fill="#A84C4C"/><path d="M24.9 164.7C24.8 164.6 24.8 164.6 24.8 164.5 24.8 164.4 24.7 164.3 24.7 164.3 24.6 164.1 24.6 164 24.6 163.8 24.6 163.6 24.5 163.5 24.5 163.3 24.5 163.1 24.5 163 24.5 162.8 24.5 162.8 24.5 162.7 24.6 162.7 24.6 162.7 24.6 162.7 24.6 162.7L24.6 162.7C24.7 162.8 24.8 163 24.8 163.2 24.8 163.3 24.9 163.5 25 163.7 25 163.9 25.1 164 25.1 164.2 25.1 164.3 25.1 164.4 25.1 164.5 25.1 164.6 25.1 164.7 25.1 164.8 25 164.7 25 164.7 24.9 164.7L24.9 164.7Z" fill="#A84C4C"/><path d="M54.4 164.5C54.4 164.4 54.4 164.3 54.5 164.2 54.5 164.1 54.6 164 54.6 163.9 54.7 163.7 54.8 163.6 54.9 163.4 55 163.3 55.2 163.1 55.3 163 55.4 162.9 55.6 162.8 55.8 162.7 55.8 162.7 55.9 162.7 55.9 162.7 55.9 162.7 55.9 162.7 55.9 162.8 55.8 163 55.7 163.1 55.6 163.3L55.3 163.7 55 164.1 54.8 164.3C54.7 164.4 54.7 164.5 54.6 164.5 54.5 164.5 54.4 164.5 54.4 164.5L54.4 164.5Z" fill="#A84C4C"/><path d="M51.3 164.5C51.2 164.4 51.2 164.4 51.2 164.3L51.1 164.1C51.1 164 51 163.9 51 163.8L50.9 163.4C50.9 163.3 50.8 163.2 50.8 163 50.8 163 50.8 162.9 50.9 162.9L50.9 162.9C51 163 51.1 163.1 51.2 163.2 51.3 163.3 51.3 163.4 51.4 163.6 51.4 163.7 51.5 163.9 51.5 164L51.5 164.2C51.5 164.3 51.5 164.3 51.5 164.4 51.4 164.5 51.4 164.5 51.3 164.5 51.3 164.4 51.3 164.4 51.3 164.5L51.3 164.5 51.3 164.5Z" fill="#A84C4C"/><path d="M28.3 165.4C28.3 165.3 28.4 165.1 28.4 165L28.6 164.6C28.7 164.4 28.9 164.2 29.1 164 29.3 163.8 29.5 163.6 29.7 163.5 29.9 163.3 30.1 163.2 30.4 163.1 30.4 163.1 30.5 163.1 30.5 163.1 30.5 163.1 30.5 163.1 30.5 163.2 30.3 163.4 30.1 163.6 30 163.7 29.9 163.8 29.6 164.1 29.5 164.3 29.4 164.5 29.1 164.7 29 164.9L28.8 165.2C28.7 165.3 28.6 165.4 28.5 165.5 28.4 165.4 28.3 165.4 28.3 165.4 28.3 165.4 28.3 165.4 28.3 165.4 28.3 165.4 28.3 165.4 28.3 165.4Z" fill="#A84C4C"/><path d="M71.2 91.6C71.2 91.5 71.3 91.4 71.4 91.3L71.6 91.1 72 90.6C72.1 90.4 72.3 90.3 72.4 90.1 72.5 89.9 72.6 89.8 72.8 89.6 72.8 89.6 72.9 89.6 72.9 89.6 72.9 89.6 72.9 89.6 72.9 89.6 72.9 89.6 72.9 89.6 72.9 89.7 72.8 89.9 72.8 90.1 72.7 90.3 72.6 90.5 72.5 90.7 72.4 90.8 72.3 91 72.1 91.1 72 91.2L71.7 91.4C71.4 91.7 71.3 91.7 71.2 91.6 71.2 91.7 71.1 91.7 71.2 91.6 71.1 91.7 71.1 91.7 71.2 91.6 71.1 91.7 71.2 91.6 71.2 91.6Z" fill="#A84C4C"/><path d="M64.7 63.3C64.8 63.6 64.9 63.9 65 64.2 65.1 64.5 65.2 64.8 65.4 65.1 65.7 65.7 66 66.3 66.2 66.9 66.4 67.5 66.5 68.2 66.6 68.8 66.7 69.5 66.8 70.1 66.8 70.7 66.8 70.7 66.8 70.8 66.7 70.8 66.7 70.8 66.7 70.8 66.6 70.8 66.5 70.2 66.4 69.5 66.2 68.9 66.1 68.3 65.9 67.7 65.7 67.1 65.5 66.5 65.2 65.9 65 65.3 64.9 65 64.8 64.7 64.7 64.4 64.6 64.1 64.5 63.7 64.6 63.4 64.6 63.3 64.6 63.3 64.7 63.3 64.7 63.3 64.7 63.3 64.7 63.3Z" fill="#A84C4C"/><path d="M17.6 220.2C17.6 220.1 17.7 220 17.7 219.9 17.8 219.8 17.8 219.7 17.9 219.7L18.3 219.3C18.4 219.2 18.5 219 18.7 218.9 18.8 218.8 18.9 218.6 19 218.5 19 218.5 19.1 218.5 19.1 218.5L19.1 218.5C19.1 218.7 19 218.9 18.9 219.1 18.8 219.3 18.7 219.4 18.6 219.6 18.5 219.7 18.3 219.9 18.2 220 18.1 220.1 18.1 220.1 18 220.2 17.8 220.1 17.8 220.2 17.6 220.2L17.6 220.2C17.7 220.2 17.6 220.2 17.6 220.2 17.6 220.2 17.6 220.2 17.6 220.2Z" fill="#A84C4C"/><path d="M81.4 127.8C80.1 122.8 79.4 123.1 77.6 119.2 77.3 118.7 77.1 118.2 77 117.6 76.9 117 76.8 116.3 76.8 115.7 76.8 115.1 76.1 115.1 75.5 115 75.1 114.9 74.6 114.9 74.2 115 73.8 115.1 73 115.1 72.9 115.6 72.9 115.7 72.9 115.8 72.9 115.9 72.9 116.6 73 117.4 72.9 118.1 72.8 118.7 72.7 119.4 72.6 120 72.3 121 72.2 122.1 72.4 123.1 72.7 124.2 73.5 125.1 73.9 126.2 74.2 126.8 74.2 127.5 74.4 128.1 74.6 128.6 74.6 129.1 75.1 129.3 75.8 129.6 76.1 128.9 76.1 128.3 76 127.1 75.8 126 75.5 124.9 76.3 125.7 76.8 126.7 77.2 127.8 77.6 129.3 77.2 130.8 77 132.4 76.9 133.3 76.7 134.3 77.3 135 77.4 135.1 77.5 135.1 77.6 135.1 77.7 135.1 77.7 135 77.8 134.9 78.1 133.9 78.3 132.6 78.6 131.6 78.6 131.9 78.7 132.5 78.7 132.8 78.7 133.6 78.8 134.4 79 135.2 79.1 135.6 79.4 136 79.7 136.3 79.8 136.4 79.8 136.4 79.9 136.4 80.1 136.4 80.2 136.2 80.2 136L80.2 135.1C80.3 135.2 80.5 135.3 80.7 135.3 80.8 135.3 80.9 135.3 80.9 135.2 81 135.1 81 135 81 134.9 81 133.9 81 133.1 81 132.1 81.1 132.2 81.1 132.3 81.2 132.4 81.3 132.5 81.6 132.4 81.6 131.9 81.7 130.5 81.6 129.1 81.4 127.8Z" fill="#E09087"/></g></g></g><path d="M34.8 89.9C33.1 99.6 29.6 108.9 27.7 118.5 25.1 131.4 25.2 144.7 22.8 157.6 21.8 163.2 20.3 168.7 18.8 174.2 17.4 179.4 16 184.6 14.6 189.7 11.6 200.9 8.5 212.2 4.3 223" fill="none"/><g id="Слой_2"><path d="M4.4 226.9C3.7 227.5 2.9 228.3 2.9 229.3 2.9 230.3 3.9 231 4.8 231.5 6.5 232.4 8.5 232.8 10.5 232.5 12.5 232.2 14.2 231.1 15.2 229.4 15.4 229 15.6 228.7 15.8 228.4 16.4 227.8 17.4 227.8 18.2 227.4 19 227 19.6 226.1 19.9 225.2 20.2 224.3 20.2 223.3 20.2 222.4 19.3 222.3 18.4 222.1 17.5 222 17.3 222 17.1 221.9 17 222 16.8 222.1 16.7 222.2 16.6 222.3 14.8 224.1 14 225.7 14 225.7 13.9 225.9 13.8 226 13.8 226 13.5 226.4 11.9 228.6 9.5 228.9 9.1 229 8.5 229 7.9 228.7 7.4 228.5 6.8 227.9 6.8 227.3 6.8 226.7 7.4 226 7.4 226L7.4 226C11.1 223.1 10.8 222.7 10.8 222.7 10.6 222.4 9.7 222.5 8.9 222.9 8.4 223.1 8.2 223.5 7.9 223.8 6.6 224.7 5.5 225.9 4.4 226.9Z" fill="#202020"/><path d="M49.3 225.6C49.2 227.6 50.4 229.6 49.6 231.4 49.1 232.6 47.9 233.3 46.8 233.8 45.9 234.2 45.1 234.5 44.1 234.8 43.2 235.1 42.3 235.2 41.4 234.9 40.3 234.5 39.7 233.2 39.4 232 38.8 229.5 39 226.7 40.1 224.3 40.7 224.2 41.2 224.1 41.8 224.2 41.5 225.7 41.2 227.3 41.8 228.6 41.9 228.9 42.7 230.5 44.1 230.6 44.9 230.7 45.8 230.2 46.2 229.6 47 228.6 47.2 226.5 47.2 225.9 47.2 225.8 47.2 225.7 47.3 225.5 47.5 225.2 47.9 225 48.2 225.1 48.6 225.3 48.9 225.4 49.3 225.6Z" fill="#202020"/></g><path d="M56.6 225.6C56.9 221.3 57 217.8 57 215.4 57 212.1 57.1 208.1 57.7 202.6 57.7 202.6 57.7 202.6 57.7 202.6L57.7 202.6C57.7 202.6 57.7 202.6 57.7 202.6 57.7 202.6 57.7 202.6 57.7 202.6 57.7 202.6 60.7 185.7 61.3 176.7 61.5 173.7 61.5 171.3 61.5 171.3 61.5 171.3 61.5 171.3 61.5 171.3 61.5 171.3 61.5 171.3 61.5 171.3 64.3 148.8 66.1 139.4 66.1 139.4 67.7 131.3 67.8 131.7 68.6 128 70.1 120.8 70.2 109.2 63.8 90.7 59.1 90.9 54.2 91.1 49.3 91.3 44.5 91.5 39.7 91.6 34.8 91.6 30.5 102.3 28.6 111.2 27.7 117.5 26.1 128.1 24.2 152.7 22.5 160.8 22.1 162.5 21.7 164.2 21.7 164.2 20.5 169.2 19.3 172.7 19.1 173.3 15.8 185 11.5 201.9 7.5 223.8 10.6 223.6 11.5 223.8 11.5 223.8 12.7 224 13.8 224.5 13.8 224.5 14.4 224.8 17.4 224.9 26.3 224.7 28.3 210.6 29.3 203.2 29.3 203.2 31.1 192 32.8 180.1 32.8 180.1 33.2 177.1 33.8 173.1 34.4 168.3L34.4 168.3C35.5 163.2 36.3 159.3 36.3 159.3 36.3 159.3 36.3 159.4 36.3 159.4 36.3 159.4 36.3 159.3 36.3 159.3 36.4 159 44.1 136.2 47.2 125.1 47.8 123.1 48.6 120 49.4 116.2 49.3 118 49.1 120.8 49 124.2 48.8 131.5 49.2 131.9 49.2 139.6 49.2 142.9 49 147.8 48.6 157.5 48.5 159.5 48.3 165.6 47.3 172.7 46.5 178.4 45.7 182.2 44.6 187.7 40.5 207.3 37.1 225.4 37.1 225.4 37.1 225.4 37.8 225.7 39.1 226.1 39.4 226.1 39.8 226.2 40.3 226.2 45.8 226.7 47.5 227.2 49.5 227.2 51 227.2 53.5 227 56.6 225.6Z" fill="#8AE66E"/><path d="" fill="#8AE66E"/><path d="" fill="#8AE66E"/><path d="" fill="#8AE66E"/><path d="" stroke="#BDA08C" stroke-width="0.25" stroke-miterlimit="10" fill="#FFFFFF"/><path d="M45.4 116.1C45.9 116 46.5 116 47.2 116 48.1 116 48.9 116.2 49.5 116.4 50.5 115.9 51.6 115.4 52.6 114.9" stroke="#BDA08C" stroke-width="0.25" stroke-miterlimit="10" fill="none"/><path d="M50.3 93.5C50.4 97.3 50.3 101.1 49.9 104.8 49.8 105.4 49.7 106.2 49.2 106.6 48.5 107.2 47.1 107 46.7 107.8" stroke="#BDA08C" stroke-width="0.25" stroke-miterlimit="10" fill="none"/><path d="M25.2 163.4C25.8 164 26.8 164.3 27.7 164.3 28.6 164.3 29.5 164 30.3 163.8 29.4 164.4 28.3 164.8 27.3 164.9" stroke="#BDA08C" stroke-width="0.25" stroke-miterlimit="10" fill="none"/><path d="M57.2 167.4C55.8 167.5 54.5 167.4 53.1 167" stroke="#BDA08C" stroke-width="0.25" stroke-miterlimit="10" fill="none"/><path d="M53.1 164.9C55.1 165.2 57.2 164.9 59 164.1" stroke="#BDA08C" stroke-width="0.25" stroke-miterlimit="10" fill="none"/><path d="M41.6 219C45.6 217.8 49.2 215.2 51.7 211.9" stroke="#BDA08C" stroke-width="0.25" stroke-miterlimit="10" fill="none"/><path d="M43.3 220.8C46.9 219.1 51.4 219.4 54.7 221.7" stroke="#BDA08C" stroke-width="0.25" stroke-miterlimit="10" fill="none"/><path d="M9.9 219.2C11.2 218 13 217.4 14.7 217.6 16.4 217.8 18.1 218.8 19.1 220.2" stroke="#BDA08C" stroke-width="0.25" stroke-miterlimit="10" fill="none"/><path d="M18.2 209.3C20.4 211.6 20.7 215 21 218.2" stroke="#BDA08C" stroke-width="0.25" stroke-miterlimit="10" fill="none"/></svg>