<svg viewBox="0 0 92.1 232.5" xmlns="http://www.w3.org/2000/svg" xmlns:xlink="http://www.w3.org/1999/xlink" id="Слой_1" overflow="hidden"><g><g><g id="Слой_2_1_"><g id="Layer_2"><linearGradient x1="49.1427" y1="179.153" x2="47.0827" y2="206.373" gradientUnits="userSpaceOnUse" id="SVGID_1_" gradientTransform="matrix(1 0 0 -1 0 233.323)"><stop offset="0" stop-color="#F5A9A9"/><stop offset="1" stop-color="#E39191"/></linearGradient><linearGradient x1="48.9159" y1="214.543" x2="49.5659" y2="238.623" gradientUnits="userSpaceOnUse" id="SVGID_2_" gradientTransform="matrix(1 0 0 -1 0 233.323)"><stop offset="0" stop-color="#7D4A4A"/><stop offset="1" stop-color="#B36D6D"/></linearGradient><linearGradient x1="45.8163" y1="194.901" x2="52.0663" y2="121.201" gradientUnits="userSpaceOnUse" id="SVGID_3_" gradientTransform="matrix(1 0 0 -1 0 233.323)"><stop offset="0" stop-color="#F5A9A9"/><stop offset="1" stop-color="#E39191"/></linearGradient><linearGradient x1="40.3103" y1="210.412" x2="38.5003" y2="190.522" gradientUnits="userSpaceOnUse" id="SVGID_4_" gradientTransform="matrix(1 0 0 -1 0 233.323)"><stop offset="0" stop-color="#7D4A4A"/><stop offset="1" stop-color="#B36D6D"/></linearGradient><linearGradient x1="41.4561" y1="210.302" x2="39.6461" y2="190.422" gradientUnits="userSpaceOnUse" id="SVGID_5_" gradientTransform="matrix(1 0 0 -1 0 233.323)"><stop offset="0" stop-color="#7D4A4A"/><stop offset="1" stop-color="#B36D6D"/></linearGradient><linearGradient x1="35.5561" y1="-10.4264" x2="61.4961" y2="130.314" gradientUnits="userSpaceOnUse" id="SVGID_6_" gradientTransform="matrix(1 0 0 -1 0 233.323)"><stop offset="0" stop-color="#F5A9A9"/><stop offset="1" stop-color="#E39191"/></linearGradient><linearGradient x1="12.1023" y1="-6.105" x2="38.0423" y2="134.635" gradientUnits="userSpaceOnUse" id="SVGID_7_" gradientTransform="matrix(1 0 0 -1 0 233.323)"><stop offset="0" stop-color="#F5A9A9"/><stop offset="1" stop-color="#E39191"/></linearGradient><path d="M35.1 49C35 47.6 34.9 46.3 35 44.9 35.2 43.6 35.1 42.3 34.7 41 34.7 40.8 34.6 40.7 34.4 40.5 34.3 40.4 34.1 40.4 34 40.4 30.1 40.9 26.5 43 24.1 46.2 21.3 49.9 18.5 53.5 15.9 57.4 12.5 62.6 9.5 67.9 6.7 73.5 6.5 73.9 6.4 74.3 6.3 74.7 6.2 75.2 6 75.6 5.9 76 5.6 76.7 5.7 77.5 6.1 78.1 8 81.7 10.4 85 13 88 17 93.1 24.1 99.2 25.8 99.4 26.2 99.5 26.7 99.4 27 99.1 27.3 98.8 27.4 98.4 27.7 98.1 28.3 97.4 28.7 96.5 28.7 95.6 28.7 95.2 28.6 94.7 28.4 94.3 28.3 94.1 28.2 94 28 94 27.9 94 27.8 94 27.7 94 27.3 94 26.9 93.9 26.5 93.8 25.9 93.5 25.3 93.1 24.8 92.6 23.8 91.7 22.8 90.7 22 89.6 21 88.3 20 86.9 19 85.6 18 84.3 17.2 83.1 16.4 81.8 15.9 81.1 15.4 80.3 14.9 79.6 14.5 79.1 13.8 77.8 12.8 76.4L12.8 76.4C14.3 74.4 16.7 70.8 20.6 66.1L25.3 60.5C26.3 59.4 27.2 58.2 28.2 57.2 28.8 56.6 29.5 56 30.2 55.5 30.3 55.4 30.4 55.4 30.6 55.3 30.7 55.3 30.8 55.2 30.9 55.2 31.1 55.2 31.3 55.4 31.4 55.6 31.7 56.2 31.9 56.9 31.9 57.6 31.9 58.2 32.1 58.9 32.4 59.4 32.8 59.9 33.4 59.5 33.7 59.1 34.4 58.1 34.7 56.9 34.9 55.7 35 53.5 35.2 51.3 35.1 49Z" fill="#F5A9A9"/><path d="M39.5 38.3C38.6 38.7 37.7 39 36.9 39.5 36.4 39.7 36.1 40.2 36.1 40.7 36 41.7 36 42.6 36.1 43.6 36.4 46.6 37.1 49.5 38.2 52.2 38.7 53.5 39.4 54.6 40.3 55.7 42.2 57.5 44.9 58.4 47.5 58 50.1 57.6 52.5 56.7 54.7 55.3 55.6 54.8 56.4 54.2 57 53.4 57.4 52.7 57.7 52 57.9 51.3 59 47.6 59.8 43.7 60.3 39.9 60.4 39.8 60.4 39.6 60.3 39.5 60.2 39.4 60.1 39.3 60 39.3 58.6 38.8 57.3 38.5 56.3 37.3 55.2 35.7 54.6 33.9 54.6 31.9 54.5 30 54.7 28.1 54.6 26.2 54.6 25.8 54.5 25.4 54.3 25 53.9 24.5 53.3 24.2 52.6 24.1 49.9 23.3 45.4 22.7 44 26 43.7 27.1 43.5 28.2 43.7 29.3 43.8 31.1 43.6 32.9 43 34.6 42.5 36.1 41.4 37.4 39.9 38.1L39.5 38.3Z" fill="url(#SVGID_1_)"/><path d="M45.1 0.7C46.4 0.2 47.7-0.1 49.1 0 50.9 0 53.1 0 54.6 1.1 55 1.3 55.4 1.6 55.8 2 56.2 2.6 56.6 3.2 56.8 3.9 57.4 5.2 57.8 6.6 58.1 8 58.6 10.7 58.7 13.5 58.5 16.2 58.5 17.4 58.3 18.6 57.8 19.7 57.4 20.6 56.6 21.4 55.7 21.7 55.3 21.8 54.9 21.9 54.6 22.1 54.1 22.4 53.6 22.7 53.1 23 51.2 24 49.2 24.4 47.1 24.4 44.5 24.4 42.1 23.3 40.4 21.4 39.5 20.4 39.6 18.5 39.5 17.3 39.4 15.6 39.4 14 39.4 12.3 39.5 10.1 39.9 7.9 40.8 5.8 41.7 3.7 43.2 1.9 45.1 0.7Z" fill="url(#SVGID_2_)"/><path d="M34 93C34.2 93.6 34.7 93.8 35.4 94.1 37.6 95 40 95.4 42.4 95.5 43.8 95.6 45.2 95.5 46.6 95.4 50.4 95.2 54.2 94.8 57.9 94 59.3 93.7 60.7 93 62.1 92.7 63.5 92.4 66.1 92.6 66.6 90.7 66.9 89.4 66.5 87.8 66.3 86.5 66 84.9 65.7 83.3 65.3 81.7 64.9 80.5 64.6 79.2 64.3 78 64.1 76.7 64.1 75.3 64 74 64 72.6 64 71.2 63.9 69.8 63.8 68.8 63.8 67.7 62.7 67.4 61.3 67 59.6 67.5 58.2 67.6 54.8 67.9 51.4 68.2 48 68.3 45.6 68.4 43.2 68.4 40.9 68.6 38.6 68.8 36.3 69.2 34.1 69.7 33.9 69.7 33.7 69.8 33.6 70 33.4 70.2 33.6 70.4 33.6 70.6 33.8 72.4 33.9 74.2 34.1 76 34.4 77.8 34.5 79.6 34.5 81.4 34.5 82.1 34.3 82.8 34.3 83.5 34.3 84.2 34.2 84.9 34.1 85.6 34 86.7 33.9 87.7 33.9 88.8 33.8 90 33.8 91.2 33.9 92.4 33.8 92.6 33.9 92.8 34 93Z" fill="url(#SVGID_3_)"/><path d="M91.9 74.1C91.7 73.6 91.5 73.2 91.3 72.8 91.2 72.5 91.1 72.1 90.9 71.8 87.9 66.4 84.6 61.1 81 56.1 80.5 55.3 79.9 54.6 79.4 53.9 76.8 50.2 73.8 46.8 70.6 43.7 69.5 42.5 68.3 41.5 66.9 40.7 65.7 40.1 63.6 39.1 61.9 39.6 61 39.9 60.9 41.5 60.7 42.4 60.5 43.3 60.5 44.4 60.4 45.4 60.3 46.4 60.3 47.4 60.3 48.3 60.3 49.7 60.3 51 60.5 52.4 60.6 53.4 60.7 54.4 60.9 55.4 61 55.9 61.2 56.4 61.3 56.9 61.3 57.1 61.3 57.2 61.3 57.4 61.4 57.6 61.6 57.6 61.8 57.6 62 57.7 62.2 57.7 62.3 57.7 62.6 57.7 62.8 57.6 63.1 57.4 63.2 57.3 63.4 57.1 63.4 56.9 63.6 56.3 63.8 55.6 63.9 54.9 64.2 53.1 64.7 52.9 65.1 53.1 65.2 53.2 64.5 52.5 67.9 56.1 69.5 57.9 72 60.6 76 64.9 80.2 69.3 82.7 72.7 84.3 74.7 83.4 75.9 82.7 77 82.3 77.5 81.1 79.1 71.5 93 69.5 90.9 68.8 91.3 68.3 92.1 68.2 92.9 67.9 95 68.8 97.5 70.6 97.2 72.4 96.9 80 91 84.3 85.9 87 82.8 89.6 79.9 91.7 76.2 92.2 75.6 92.2 74.8 91.9 74.1Z" fill="#F5A9A9"/><path d="M46.1 54.8C48.2 54.9 50.3 54.4 52.2 53.4 53.8 52.4 55.1 51.1 56.1 49.6 56.9 48.5 57.5 47.3 57.9 46 58.6 43.7 58.8 41.2 58.8 38.8 60.1 39.2 61.3 39.4 62.6 39.5 62.4 39.5 62.2 45.8 62.3 46.3 62.3 47.9 62.5 49.5 62.9 51.1 63.5 53.2 64.8 55.1 65 57.3 65 58.7 64.7 60.1 64.2 61.4 63.8 63.2 63.7 65 63.8 66.8L58.1 67.6C53.6 68.4 49.1 68.8 44.6 68.9 40.8 68.9 37 68.4 33.3 69.2 33.3 69.2 32.7 66 32.6 65.8 32.5 64.7 32.2 63.6 31.9 62.6 31.5 61.7 31.2 60.6 31.2 59.6 31.2 57.4 32.3 55.5 33 53.5 33.3 52.5 33.6 51.5 33.7 50.5 33.8 49.8 33.7 49 33.9 48.3 34 47.5 34 46.7 34 45.9 34 44.1 33.8 42.3 33.6 40.5 34.4 40.4 35.2 40.3 36 40.2L37.5 40C37.8 40 38 39.9 38.2 40.1 38.4 40.5 38.5 40.8 38.6 41.3 38.7 41.7 38.7 42 38.8 42.4 38.9 42.9 38.9 43.4 38.9 43.9 38.9 44.3 38.8 44.6 38.7 45 38.7 45.4 38.7 45.8 38.8 46.3 38.8 46.8 38.8 47.3 38.8 47.8 38.6 48.7 38.7 49.7 39 50.6 39.3 51.4 39.7 52.1 40.2 52.7 40.8 53.2 41.5 53.6 42.2 53.9 43.4 54.4 44.7 54.7 46.1 54.8Z" fill="#9CAFE6"/><path d="M38.8 33.9C36 34.9 35.5 35.4 34.9 36.4 33.9 38 36.1 39.6 38.6 39.4 38.3 39.2 37.9 39 36.8 39.3 36.2 39.5 35.8 40 35.7 40.6 35.6 41 35.7 41.4 35.9 41.8 36.1 42 36.3 42.2 36.6 42.3 36.9 42.4 37.1 42.6 37.4 42.7 37.9 42.8 38.3 43.1 38.5 43.5 38.6 43.8 38.6 44.1 38.5 44.3 38.2 45 38.7 44.8 39 44.4 39.3 44 39.4 43.7 39.7 43.3 40.4 42.4 41.7 42 42 40.8 42.2 40.1 41.8 39.4 41.2 39.1 42.2 38.7 42.9 37.8 43.2 36.8 43.3 36.2 43.5 35.2 43 34.8 44.3 33.5 44 30.8 43.8 29.1 43.7 26.6 43.7 24.1 43.4 21.7 43.3 20.8 43.1 18.5 41.7 18.8 40.4 19.3 39.3 20.5 38.9 21.9 38.6 23 39 24.2 40 24.9 38.9 25.2 37.8 25.8 36.9 26.6 36.1 27.4 35.6 28.4 35.3 29.5 34.8 31.7 35.9 33.8 38.8 33.9Z" fill="url(#SVGID_4_)"/><path d="M59 16.6C58.9 16.5 58.9 16.4 58.7 16.3 58.2 16.1 57.9 16.8 57.9 17.2 57.9 17.3 57.8 17.3 57.8 17.3 57.8 17.3 57.8 17.2 57.8 17.2 57.8 16.8 57.7 16.4 57.6 15.9 57.6 15.4 57.4 15 57.2 14.6 57.1 14.4 57 14.3 56.9 14.1 56.6 13.6 56.7 13 56.4 12.5 56.1 12 55.9 11.3 55.7 10.8 55 9.3 53.8 8.2 52.2 7.7 50.6 7.4 49 7.3 47.4 7.5 45.2 7.6 43.3 8.9 42.4 10.9 42.1 11.4 41.9 11.9 41.7 12.4 41.5 13 41.3 13.5 41 14 40.8 14.3 40.6 14.5 40.5 14.8 40.3 15.2 40.2 15.7 40.2 16.2 40.2 16.5 40.3 17 40.1 17.2 40.1 17.2 40.1 17.2 40.1 17.2L40.1 17.2C39.9 17 40 16.7 39.8 16.5 39.6 16.3 39.4 16 39.2 16.1 39.1 16.2 39 16.2 38.9 16.4 38.6 17.1 38.5 17.9 38.8 18.7 38.9 19.4 39.1 20.1 39.3 20.8 39.4 21.1 40.3 23.4 40.6 22.3 40.6 22.3 40.6 22.2 40.6 22.2 40.7 22.5 40.7 22.7 40.8 23 41.1 24 41.5 25 42.1 25.9 43.3 27.8 44.9 29.5 46.8 30.7 47.4 31.1 48.1 31.4 48.9 31.4 49.7 31.5 50.4 31.3 51.1 30.9 52.7 29.8 54 28.4 55.1 26.7 55.9 25.7 56.5 24.6 56.9 23.5 57 23.2 57.1 22.8 57.2 22.5 57.6 23.6 58.4 21.3 58.5 21 58.7 20.3 58.9 19.6 59 18.9 59.3 18.2 59.3 17.4 59 16.6Z" fill="#F5A9A9"/><path d="M38.1 44.3C37.8 44.7 37.7 45.1 37.7 45.6 37.8 46 38 46.4 38.2 46.8 38.5 47.2 38.6 47.6 38.5 48.1 38.5 48.5 38.2 48.9 37.7 48.9 38.4 49.2 39.1 49.1 39.7 48.7 40.6 48.1 41.1 47.1 41 46.1 41 45.6 40.9 45.1 40.7 44.7 40.5 44.2 40.3 43.8 39.9 43.5L39.8 43.4C39.2 43.1 38.5 43.8 38.1 44.3Z" fill="url(#SVGID_5_)"/><path d="M42.6 28C43 28.6 43.1 29.4 43 30.1 42.9 30.5 42.8 30.8 42.7 31.1 42.5 31.4 42.3 31.7 42 31.9 41.7 32.1 41.5 32.4 41.2 32.6 40.9 32.8 40.6 33 40.4 33.2 40.3 33.3 40.1 33.4 40 33.5L39.6 33.8C39.5 33.9 39.3 34 39.2 34.1 39.1 34.2 39 34.2 39 34.2 38.9 34.3 38.8 34.3 38.7 34.3L38.7 34C39.5 34.1 40.2 34.4 40.9 34.7 41.2 34.9 41.6 35.1 41.9 35.3 42.1 35.4 42.2 35.6 42.3 35.8 42.5 36 42.5 36.3 42.4 36.5 42.3 36.7 42.1 36.8 41.9 37 41.7 37.1 41.6 37.2 41.4 37.3 41.1 37.5 40.7 37.7 40.4 37.8 39.7 38.1 39 38.5 38.4 38.8L37.9 39.1 37.7 39.3C37.6 39.3 37.6 39.4 37.5 39.5 37.5 39.6 37.4 39.6 37.4 39.7 37.4 39.7 37.4 39.8 37.4 39.8 37.4 39.9 37.7 39.9 37.9 39.9 38.7 40 39.4 40.2 40.2 40.4 40.4 40.5 40.6 40.5 40.8 40.7 41 40.8 41.1 41 41.2 41.2 41.3 41.4 41.2 41.7 41.1 41.9 41 42.1 40.8 42.2 40.6 42.3L38.5 43.2 38.5 42.9C39.1 43 39.7 43 40.3 42.9L40.3 43.2C39.7 43.2 39.1 43.4 38.6 43.7L38.5 43.4C39.1 43.4 39.6 43.4 40.2 43.4L40.2 43.4C40.3 43.4 40.3 43.4 40.3 43.5 40.3 43.5 40.3 43.5 40.3 43.5 40.3 43.6 40.3 43.6 40.2 43.6 39.6 43.9 38.9 44.2 38.2 44.3 38.2 44.3 38.1 44.3 38.1 44.2 38.1 44.2 38.1 44.1 38.2 44.1 38.2 44.1 38.2 44.1 38.2 44.1 38.9 43.9 39.5 43.6 40.1 43.3L40.2 43.6C39.6 43.7 39.1 43.7 38.5 43.7 38.4 43.7 38.3 43.6 38.3 43.6L38.3 43.6C38.3 43.6 38.3 43.5 38.4 43.5 38.7 43.3 39 43.1 39.3 43 39.6 42.9 40 42.9 40.3 42.8 40.4 42.8 40.5 42.8 40.5 42.9 40.5 42.9 40.5 42.9 40.5 42.9 40.5 43 40.4 43.1 40.4 43.1 39.7 43.2 39.1 43.2 38.4 43.1L38.4 43.1C38.3 43.1 38.3 43 38.3 42.9 38.3 42.9 38.3 42.8 38.4 42.8L40.5 41.9C40.8 41.8 41 41.5 41 41.2 40.9 40.9 40.6 40.7 40.2 40.7 39.5 40.5 38.7 40.3 38 40.2L37.7 40.2C37.6 40.2 37.4 40.1 37.4 40 37 40 37 39.9 37 39.7 37 39.6 37.1 39.5 37.2 39.4 37.3 39.3 37.4 39.2 37.4 39.2L37.6 39 38.1 38.7C38.8 38.3 39.5 38 40.2 37.7 40.5 37.5 40.9 37.4 41.2 37.2L41.7 36.9C41.8 36.8 42 36.7 42.1 36.6 42.2 36.4 42 36 41.7 35.8 41.4 35.6 41 35.4 40.7 35.2 40 34.9 39.3 34.6 38.6 34.5L38.5 34.5C38.4 34.5 38.4 34.4 38.4 34.3 38.4 34.2 38.5 34.2 38.6 34.2L38.7 34.2C38.8 34.2 38.8 34.2 38.9 34.2L39.1 34.1C39.2 34 39.4 33.9 39.5 33.8L39.9 33.5 40.3 33.2C40.6 33 40.9 32.8 41.1 32.6 41.4 32.4 41.6 32.1 41.9 31.9 42.2 31.7 42.4 31.4 42.6 31.1 42.8 30.8 42.9 30.5 42.9 30.2 43 29.9 43 29.5 42.9 29.2 42.8 28.9 42.7 28.5 42.6 28.2 42.6 28.2 42.6 28.1 42.6 28.1 42.5 28 42.5 28 42.6 28L42.6 28Z" fill="#BDA08C"/><path d="M33 68.2C33 68.2 53.5 65.9 63.8 65.7 63.8 67.1 63.8 68.2 63.9 69.5 63.7 69.5 63.4 69.3 54.9 69.9 52.5 70.1 50 70.2 47.6 70.5 45.2 70.8 42.7 70.9 40.3 71.2 39.7 71.3 33.7 72.1 33.7 72.1L33 68.2Z" fill="#9CAFE6"/><path d="M68.1 98.8C68.1 98.8 60.4 101 57.1 103.2 54.8 104.8 53.3 105.7 52.3 107.1 51.3 108.5 50.9 111.3 50.5 114.1 49.8 118.4 49.3 122.7 48.9 127 48.1 134.9 47.7 142.8 46.9 150.6 44.9 168 37.9 208.7 36.2 216.5 35.8 218.4 35.2 220.5 34.6 222.3 34.2 223.5 33.9 224.8 33.8 226 33.4 228.3 33.6 230.3 35.6 231.7 36.3 232.2 37.1 232.4 37.9 232.4 38.2 232.3 38.6 232.3 38.9 232.1 40.9 231.4 43.3 230.7 44.7 229 45.9 227.6 45 226 44.8 224.4 44.6 223 44.3 221.7 44 220.4 43.7 218.7 43.9 217 44.3 215.3 44.9 212.9 45.7 210.5 46.7 208.2 47.7 205.8 48.5 203.3 49.4 200.9 53 191.3 56 183.6 56.8 177.8 57.7 170.7 56.3 163.5 56.9 159.9 57.7 155.5 59.6 151.1 60.8 146.7 62 142.3 63.6 137.7 64.6 133.2 65.7 128.3 71.8 100.7 68.1 98.8Z" fill="url(#SVGID_6_)"/><path d="M49.6 106.2C49.3 104.9 47.5 104.3 46.5 103.4 44.5 101.5 41.8 100.7 39.1 101 37.1 101.3 34.5 100.6 33.6 102.1 30.4 107.6 28.3 124.1 28.3 124.1 27.5 131.1 26.7 138 26.2 145 26.2 145.2 26.2 145.5 26.2 145.7 26.2 146.1 26.2 146.6 26.1 147 25.9 150.7 25.5 154.5 25.4 158.2 25.3 161.5 24.2 164.7 22.1 167.2 20.4 169.1 18.9 171.2 17.6 173.5 16.6 175.7 15.7 177.9 15 180.2 13.2 185.1 11.8 190.1 10.6 195.2 9 202.7 8.6 211 5.8 218 5.6 218.2 5.3 218.5 5.1 218.8L5.1 218.8C4.1 219.9 3.1 221.1 2.2 222.3 1.3 223.5 0.6 225 0.2 226.5-2.05391e-15 227.8 1 228.8 2.1 229.4 3.2 230.2 4.4 231 5.7 231.6 6.3 231.9 7 232.1 7.7 232.2 9.1 232.1 10.3 231.5 11.1 230.3 12 229.2 12.1 227.5 12.3 226.2 12.9 222.3 13.3 218.8 14.4 215 16.8 206.8 21.1 199 24.5 191 26.5 186.4 28.2 181.8 30.4 177.3L32.7 172.5C33.6 170.7 34.5 168.9 35.3 167 36.8 163.5 37.9 159.9 38.6 156.2 39.4 152.6 40.1 149 41.1 145.5 43.2 138.2 45.5 130.9 47.3 123.5 49.2 115.6 50.9 111.3 49.6 106.2Z" fill="url(#SVGID_7_)"/><path d="M68.8 99.5C68.7 98.2 68.4 97 68.2 95.8 67.9 94.3 67.7 92.8 67.4 91.3 67.4 91 66.5 87.2 66.6 87.1 63.9 88 61.2 88.6 58.4 88.9 52.3 89.8 46.1 90.5 39.9 90.9 38.7 91 37.4 91 36.2 91.1 35.6 91.1 35 91.2 34.4 91.2 33.8 91.2 33.6 91.2 33.6 91.8 33.5 93.8 33.4 95.8 33.3 97.7 33.2 99.7 32.8 101.7 32.8 103.7L38.8 104.9C42.4 105.8 45.6 107.7 49.1 108.8 49.9 109.1 50.8 109.1 51.6 108.9 53.3 108.5 54.8 107.1 56.2 106.1 57.9 104.8 59.7 103.7 61.6 102.7 63.3 101.6 65.1 100.7 67 99.9 67.5 99.8 68.1 99.7 68.8 99.5 68.8 99.6 68.8 99.6 68.8 99.5Z" fill="#9CAFE6"/><path d="M47.1 26.2C47.4 26.3 47.6 26.4 47.9 26.5 48.4 26.6 48.9 26.7 49.4 26.7 49.9 26.7 50.4 26.5 50.8 26.2 51.1 26 51.3 25.7 51.5 25.4 51.8 25 52.1 24.6 52.3 24.2 52 24.3 51.6 24.3 51.3 24.3L46.8 24.4 46.1 24.4C45.9 24.4 45.5 24.3 45.6 24.6 45.7 24.8 45.9 25 46 25.2 46.3 25.7 46.7 26 47.1 26.2Z" fill="#FFFFFF"/><path d="M46.5 24.2C46.8 24.1 47.1 24 47.5 24 47.7 24 47.9 24 48.1 24L48.4 24.1C48.6 24.2 48.9 24.2 49.1 24.2 49.3 24.1 49.6 24 49.8 23.9 50 23.9 50.2 23.9 50.3 23.9 50.9 23.9 51.4 24.1 52 24.2L52.8 24.3 52.8 24.3C52.8 24.4 52.3 24.5 52.2 24.5 51.9 24.6 51.6 24.6 51.3 24.7L51.1 24.7C50.1 24.8 49 24.9 48 24.9 47.5 24.9 47 24.9 46.5 24.8 46.2 24.8 46 24.8 45.7 24.8 45.4 24.8 45.2 24.7 45 24.5 45 24.5 45.2 24.5 45.2 24.5L45.4 24.5 45.8 24.5C45.9 24.5 46.1 24.5 46.2 24.4 46.3 24.3 46.4 24.2 46.5 24.2Z" fill="#D61945"/><path d="M46.8 26.8C47.1 27.2 47.6 27.4 48 27.6 48.4 27.7 48.8 27.7 49.3 27.7 49.7 27.7 50.2 27.6 50.6 27.4 51 27.2 51.3 26.8 51.6 26.5 51.8 26.2 52 25.8 52.2 25.4 52.4 25 52.5 24.7 52.7 24.3 52.6 24.3 52.4 24.3 52.3 24.4 52.2 24.5 52.1 24.6 52.1 24.7 51.9 25 51.8 25.2 51.6 25.4 51.2 25.9 50.7 26.2 50.2 26.4 49.8 26.5 49.3 26.5 48.9 26.5 48.3 26.5 47.7 26.3 47.1 26 46.6 25.6 46.2 25.2 45.8 24.7 45.7 24.6 45.7 24.5 45.6 24.5 45.5 24.4 45.4 24.4 45.3 24.5 45.6 25.1 46 25.6 46.3 26.2 46.4 26.4 46.6 26.6 46.8 26.8Z" fill="#D61945"/><path d="M48.6 16.5C48.7 17.1 48.7 17.7 48.7 18.2 48.7 18.8 48.6 19.4 48.4 19.9 48.3 20.2 48.3 20.4 48.2 20.7 48.1 21 48 21.2 48 21.5 47.9 22 48.3 22.5 48.8 22.7 48.8 22.7 48.8 22.7 48.8 22.8 48.8 22.8 48.8 22.8 48.7 22.8 48.1 22.7 47.6 22.1 47.7 21.4 47.7 21.1 47.8 20.8 47.9 20.5L48.1 19.7C48.2 19.2 48.3 18.6 48.4 18 48.4 17.7 48.5 17.4 48.5 17.2 48.5 17 48.5 16.6 48.5 16.3L48.5 16.3C48.4 16.5 48.5 16.5 48.6 16.5 48.5 16.5 48.5 16.5 48.6 16.5 48.5 16.5 48.6 16.5 48.6 16.5Z" fill="#BD5353"/><path d="M55.6 15.3 55.6 15.3C55.2 15.2 54.8 15 54.4 15 53.6 14.9 52.9 14.9 52.1 15 51.4 15.1 50.8 15.4 50.3 15.8 50.3 15.8 50.2 15.9 50.2 15.9 50.1 16.4 51.3 16.1 51.5 16.1 52 16 52.6 15.9 53.2 15.9 54.1 15.8 55 15.8 55.9 15.9 56 15.9 56.4 16 56.5 15.9 56.6 15.8 56.3 15.6 56.2 15.5 56 15.4 55.8 15.3 55.6 15.3Z" fill="#A84C4C"/><path d="M41.8 15.3 41.8 15.3C42.2 15.1 42.6 15 43 14.9 43.8 14.8 44.5 14.8 45.3 14.9 46 15 46.6 15.3 47.1 15.7 47.1 15.7 47.2 15.8 47.2 15.8 47.3 16.3 46.2 16 45.9 16 45.3 15.9 44.8 15.8 44.2 15.8 43.3 15.7 42.4 15.7 41.5 15.8 41.4 15.8 41 15.9 40.9 15.8 40.8 15.7 41.1 15.5 41.2 15.4 41.4 15.4 41.6 15.3 41.8 15.3Z" fill="#A84C4C"/><path d="M52 18.3C52.1 18.6 52.3 18.9 52.5 19L52.6 19C53 19 53.3 19 53.7 19 53.8 19 53.8 18.9 53.9 18.8 54.3 18.4 54.3 17.8 53.9 17.3 53.5 16.9 52.9 16.9 52.5 17.2 52.2 17.4 52 17.7 52 18.1 52 18.2 52 18.2 52 18.3 52 18.3 52 18.3 52 18.3Z"/><path d="M56 17.7C55.3 17.6 54.6 17.4 54 17.1L53.9 17.1C53.3 17 52.7 17 52.2 17.2 52 17.3 51.8 17.4 51.6 17.5 51.4 17.6 51.2 17.8 51 18 51 18 51 18 51 18 51 18 51 18 51.1 18 51.4 17.9 51.6 17.8 51.8 17.7 52 17.6 52.3 17.6 52.6 17.5 53.2 17.4 53.8 17.5 54.4 17.6 54.7 17.7 55 17.8 55.3 17.8 55.6 17.9 55.9 17.9 56.2 17.8 56.2 17.8 56.3 17.8 56.3 17.7 56.3 17.6 56.3 17.6 56.2 17.6 56.2 17.6 56.1 17.6 56.1 17.6L56 17.7Z"/><path d="M45.6 18.3C45.5 18.6 45.3 18.9 45.1 19L45 19C44.6 19 44.3 19 43.9 19 43.8 19 43.8 18.9 43.7 18.8 43.3 18.4 43.3 17.8 43.7 17.3 44.1 16.9 44.7 16.9 45.1 17.2 45.4 17.4 45.6 17.7 45.6 18.1 45.6 18.2 45.6 18.2 45.6 18.3L45.6 18.3Z"/><path d="M41.6 17.7C42.3 17.6 43 17.3 43.6 17.1L43.7 17.1C44.3 17 44.9 17 45.4 17.2 45.6 17.3 45.8 17.4 46 17.5 46.2 17.6 46.4 17.8 46.6 18 46.6 18 46.6 18 46.6 18 46.6 18 46.6 18 46.5 18 46.2 17.9 46 17.8 45.8 17.7 45.6 17.6 45.3 17.6 45 17.5 44.4 17.4 43.8 17.5 43.2 17.6 42.9 17.7 42.6 17.8 42.3 17.8 42 17.9 41.7 17.9 41.4 17.8 41.4 17.8 41.3 17.8 41.3 17.7 41.3 17.6 41.3 17.6 41.4 17.6 41.4 17.6 41.5 17.6 41.5 17.6L41.6 17.7Z"/><path d="M48.1 1C47.8 1.1 47.7 1.6 47.5 2 47.3 2.4 47.2 2.8 47.1 3.3 46.9 4.1 46.8 5 46.8 5.9 46.8 6.1 46.8 6.3 46.9 6.6 47 6.9 47 7 47.2 7 47.4 7 47.4 7 47.5 6.8L47.7 6.1C47.9 5.2 48.3 4.3 48.7 3.5 48.7 3.4 48.8 3.4 48.9 3.4 49 3.4 49 3.5 49 3.6 49 4 49 4.5 49 4.9 49 5.1 49 5.3 49.1 5.5L49 5.8 49 6C49 6 49 6.1 49 6.1L49 6.2 49 6.2C49 6.2 49 6.1 49 6L49.2 5.4 49.5 4.1C49.5 4 49.6 3.9 49.7 3.9 49.7 3.9 49.8 3.9 49.8 4 49.9 4 49.9 4.1 49.9 4.2 49.9 4.7 50 5.2 50.1 5.7 50.2 5.9 50.2 6.2 50.3 6.4 50.4 6.6 50.5 6.8 50.6 7L50.3 7C50.6 6.6 50.7 6.2 50.8 5.7 50.9 5.2 50.9 4.7 51 4.2 51 3.2 50.9 2.3 50.7 1.3 50.7 1.2 50.7 1.1 50.8 1.1 50.8 1.1 50.8 1.1 50.8 1.1 50.9 1.1 50.9 1.1 51 1.2 52.2 2.9 52.8 4.9 52.7 6.9 52.7 7 52.6 7 52.6 7 52.6 7 52.6 7 52.6 7 52.6 7 52.5 7 52.5 6.9 52.5 6.9 52.5 6.9 52.5 6.9 52.4 4.9 51.8 3 50.7 1.4L51 1.3C51.3 2.3 51.4 3.3 51.4 4.3 51.4 4.8 51.3 5.3 51.3 5.8 51.3 6.1 51.2 6.3 51.1 6.6 51 6.8 50.9 7 50.7 7.2 50.6 7.3 50.5 7.3 50.4 7.2 50.2 7 50.1 6.8 50 6.5 49.9 6.3 49.9 6 49.8 5.7 49.7 5.2 49.6 4.7 49.6 4.1L50 4.1 49.7 5.4 49.5 6C49.5 6.1 49.5 6.1 49.5 6.2 49.5 6.3 49.4 6.4 49.3 6.4 49.2 6.5 49.1 6.5 49 6.4 48.9 6.3 48.9 6.3 48.8 6.2 48.8 6.1 48.7 6.1 48.7 6L48.7 5.9 48.7 5.6C48.7 5.4 48.6 5.2 48.6 4.9 48.6 4.5 48.6 4 48.6 3.6L48.9 3.7C48.5 4.5 48.2 5.3 48 6.2L47.8 6.9C47.8 7 47.7 7.2 47.6 7.3 47.5 7.4 47.3 7.4 47.1 7.4 47 7.2 46.9 7.1 46.8 7 46.7 6.9 46.7 6.8 46.7 6.6 46.7 6.4 46.6 6.1 46.6 5.9 46.5 5 46.7 4.1 46.9 3.2 47 2.8 47.2 2.3 47.4 1.9 47.5 1.7 47.6 1.5 47.7 1.3 47.8 1.1 48 0.9 48.2 0.8 48.3 0.8 48.3 0.8 48.3 0.9 48.3 0.9 48.3 1 48.2 1L48.1 1Z" fill="#BDA08C"/><path d="M54.2 2.2C54.3 2.2 54.3 2.3 54.3 2.4L54.4 2.6 54.6 3C54.7 3.1 54.7 3.3 54.7 3.4L54.7 3.6C54.7 3.7 54.7 3.8 54.7 3.8 54.7 3.9 54.6 3.9 54.6 3.9 54.6 3.9 54.6 3.9 54.6 3.9L54.6 3.9C54.5 3.9 54.5 3.8 54.5 3.7L54.4 3.5C54.4 3.4 54.3 3.2 54.3 3.1 54.3 3 54.2 2.8 54.2 2.7L54.1 2.5C54.1 2.4 54 2.4 54.1 2.3 54.1 2.2 54.2 2.2 54.2 2.2 54.2 2.2 54.2 2.2 54.2 2.2L54.2 2.2Z" fill="#BDA08C"/><path d="M54.9 4.7C55 4.8 55.1 5 55.1 5.2 55.1 5.4 55.1 5.5 55.2 5.7 55.2 6 55.3 6.4 55.3 6.7 55.3 7 55.3 7.4 55.3 7.7 55.3 7.9 55.3 8.1 55.2 8.2 55.2 8.4 55.1 8.5 54.9 8.7 54.9 8.7 54.8 8.7 54.8 8.7 54.8 8.7 54.8 8.6 54.8 8.6L54.8 8.6C54.8 8.4 54.9 8.3 54.9 8.2 54.9 8 54.9 7.9 54.9 7.7 54.9 7.4 54.9 7 54.9 6.7 54.9 6.4 54.9 6 54.8 5.7L54.7 5.2C54.7 5 54.7 4.9 54.7 4.7 54.7 4.6 54.8 4.6 54.9 4.7 54.9 4.6 54.9 4.6 54.9 4.7 54.9 4.6 54.9 4.7 54.9 4.7Z" fill="#BDA08C"/><path d="M55.3 2.8C55.5 3 55.7 3.3 55.9 3.6 56 3.9 56.2 4.2 56.3 4.5 56.5 5.1 56.6 5.8 56.8 6.4 57 7.1 57 7.7 57 8.4 57 8.7 56.9 9.1 56.8 9.4 56.7 9.7 56.6 10 56.3 10.3 56.3 10.3 56.2 10.3 56.2 10.3 56.2 10.3 56.2 10.2 56.2 10.2 56.5 9.6 56.6 9 56.6 8.4 56.6 7.8 56.5 7.1 56.4 6.5 56.3 5.9 56.2 5.2 56 4.6 55.9 4.3 55.8 4 55.7 3.7 55.6 3.4 55.4 3.2 55.2 2.9 55.2 2.9 55.2 2.8 55.2 2.8 55.2 2.8 55.2 2.8 55.2 2.8 55.2 2.8 55.2 2.8 55.3 2.8Z" fill="#BDA08C"/><path d="M44.9 2C44.6 2.2 44.4 2.4 44.1 2.7 43.9 2.9 43.7 3.2 43.5 3.5 43.1 4.1 42.8 4.7 42.6 5.3 42.4 5.9 42.2 6.6 42.1 7.3 42 7.6 42 8 42 8.3 42 8.6 42 9 41.9 9.3L41.9 9.3C41.9 9.3 41.9 9.4 41.8 9.4 41.8 9.4 41.8 9.4 41.8 9.4 41.8 9.4 41.7 9.4 41.7 9.3 41.6 8.6 41.6 7.9 41.7 7.2 41.8 6.5 42 5.8 42.2 5.2 42.5 4.5 42.8 3.9 43.2 3.3 43.4 3 43.6 2.7 43.9 2.5 44.1 2.2 44.4 2 44.8 1.9 44.8 1.8 44.9 1.9 44.9 2 44.9 1.9 44.9 1.9 44.9 2 44.9 2 44.9 2 44.9 2L44.9 2Z" fill="#BDA08C"/><path d="M40.6 26.1C40.7 26.1 40.8 26.2 40.8 26.2L41 26.3 41.4 26.6C41.5 26.7 41.7 26.8 41.8 26.9 41.9 27 42 27.1 42.1 27.3 42.1 27.4 42.1 27.4 42 27.4 42 27.4 42 27.4 42 27.4L42 27.4C41.8 27.4 41.7 27.2 41.6 27.1L41.2 26.8 40.8 26.5 40.6 26.4C40.5 26.3 40.5 26.3 40.4 26.2 40.4 26.2 40.5 26.1 40.6 26.1L40.6 26.1 40.6 26.1Z" fill="#BDA08C"/><path d="M20.7 148.9C20.7 148.9 23.6 148.9 25.4 148.8 26.9 148.7 28.9 148.4 31.5 147.4 32.9 147.9 34.8 148.4 37.1 148.5 40 148.7 42.4 148.2 44 147.7 44.9 148.4 47.3 150.2 50.9 150.5 54.2 150.8 56.8 149.7 57.8 149.2 58.7 149.7 60.6 150.7 63.1 150.8 66.3 150.9 68.7 149.5 69.5 149 68.6 141.7 68.4 135.9 68.4 132.1 68.4 120.4 70.1 114.2 69.3 102 69 98 68.6 94.7 68.3 92.8 68.3 95.4 67.5 97 66.9 97.8 63 103.2 53.8 99.3 42.7 101.2 41.3 101.4 38.7 102 36.4 100.8 35.1 100.1 32.9 98.5 32.9 98.5 32.9 98.5 32.4 100.5 32.2 101.3 31.6 103.6 31 105.3 30.8 105.9 29.1 111.1 28.9 117.9 25.9 127.1 25.8 127.5 23.6 134.3 22.5 139.7L22.5 139.7C21.6 143.3 21 146.3 20.7 148.9Z" fill="#9CAFE6"/><path d="M68.4 95.9C68.2 95.6 68.1 95.2 67.9 94.9 67.8 94.7 67.8 94.4 67.6 94.3 67.5 94.2 67.4 94.2 67.3 94.3 66.6 94.8 66 95.3 65.4 95.8 65.1 96.1 64.8 96.3 64.4 96.5 64.2 96.6 63.9 96.5 63.8 96.2 63.8 96.2 63.8 96.2 63.8 96.2 63.7 96.5 63.1 97.1 62.8 97.1 62.5 97.1 62.3 96.9 62.4 96.7 62.6 96.1 62.7 95.4 62.7 94.7 62.6 94.8 62.6 95 62.5 95.1 62.5 95.2 62.4 95.2 62.3 95.3 62.2 95.3 62.1 95.3 62.1 95.3 62.1 95.3 62 95.3 62 95.3 61.9 95.1 61.9 94.8 61.9 94.5 62 94 62.1 93.4 62.2 92.9 62.3 92.4 62.5 91.8 62.6 91.2 62.9 90.1 63.4 89 63.9 88 64.2 87.4 64.5 86.9 65 86.6 65.6 86.2 66.2 86.7 66.6 87.2 66.9 86.9 67.3 86.9 67.6 87.1 68.2 87.5 68.3 88.6 68.9 88.9 69.6 89 70.1 89.5 70.3 90.1 70.6 90.8 71 91.6 71.4 92.3 71.8 92.8 72.3 93.2 72.8 93.5 73.3 93.7 73.6 94.2 73.8 94.6 73.9 95.2 73.6 95.4 73.2 95.8 72.8 96.2 72.4 96.4 72 96.7 71.3 97.1 70.5 97.3 69.7 97.2 69.3 96.9 68.7 96.5 68.4 95.9Z" fill="#F5A9A9"/><path d="M64.7 87.3C64.5 87 64.2 86.8 63.9 86.7 63.2 86.8 62.7 87.2 62.4 87.8L61.2 90.1 60.6 91.2C60.5 91.3 60.1 92 60.3 92.1 60.4 92.1 60.4 92.1 60.5 92.1 60.8 92 61.1 91.8 61.4 91.6 61.6 91.5 61.8 91.3 61.9 91.1 62.2 90.7 62.5 90.3 62.8 89.9 63 89.7 63.2 89.4 63.5 89.4 63.6 89.4 63.8 89.4 63.9 89.4 64.3 89.4 64.7 89 64.8 88.6 65 88.2 64.9 87.7 64.7 87.3Z" fill="#F5A9A9"/><path d="M30.2 98.9 30.2 98.9C30.6 98.3 30.8 97.8 31 97.2L31 97.2 31 97.2C31.4 97.4 31.7 97.6 32.1 97.9 32.3 98.1 32.5 98.3 32.7 98.5 33.2 98.9 33.8 99.2 34.4 99.5 34.5 99.5 34.5 99.6 34.6 99.6 34.8 99.6 34.9 99.6 35 99.4 35.3 99.6 35.6 99.8 36 100 36.2 100 36.5 99.8 36.4 99.6 36.3 99.3 36.2 99.1 36.1 98.8 36 98.5 36 98.2 36 98 36.2 98.2 36.4 98.4 36.6 98.4 36.7 98.4 36.7 98.4 36.8 98.4 36.9 98.4 36.9 98.3 36.9 98.2 36.9 97.9 36.9 97.7 36.8 97.4 36.6 96.8 36.4 96.2 36.3 95.6 36.2 95 36 94.5 35.8 93.9 35.4 92.8 34.9 91.7 34.3 90.7 34 90.1 33.6 89.7 33.1 89.3 32.4 88.9 31.8 89.5 31.5 90 31.2 89.7 30.8 89.7 30.5 90 29.9 90.4 29.9 91.5 29.2 91.9 28.5 92.1 28 92.5 27.8 93.2 27.3 94.5 26.8 95.7 26.1 96.8 26 97.1 25.7 97.3 25.4 97.4 25.3 97.4 25.2 97.4 25.2 97.4 25 97.5 24.9 97.7 24.8 98 24.7 98.3 24.6 98.5 24.7 98.7 24.8 98.9 25.1 99.1 25.2 99.1 25.6 99.3 26.1 99.5 26.6 99.7 27 99.8 27.4 99.9 27.8 100 28.6 100.1 29.6 99.6 30.2 98.9Z" fill="#F5A9A9"/><path d="M33.5 90C33.7 89.7 34 89.4 34.3 89.4 35 89.5 35.6 89.9 35.9 90.5L37.2 92.7 37.9 93.8C38.1 94.1 38.4 94.5 38.4 94.8 38.4 94.9 38.4 94.9 38.3 95 38.2 95 38.2 95 38.1 95 38 95 37.8 94.9 37.7 94.8L37.5 94.7 37.1 94.4C36.9 94.2 36.7 94.1 36.5 93.9 36.1 93.6 35.8 93.2 35.5 92.9 35.4 92.7 35.2 92.6 35 92.6 34.8 92.5 34.6 92.7 34.4 92.8 34.2 92.9 33.8 92.5 33.6 92.3 33.2 91.4 33.2 90.6 33.5 90Z" fill="#F5A9A9"/><path d="M38.6 49.3C38.8 50.7 39.5 51.9 40.6 52.8 41.7 53.7 42.9 54.3 44.3 54.5 47 55.1 49.8 54.7 52.2 53.3 53.4 52.6 54.4 51.6 55.2 50.5 56 49.4 56.7 48.2 57.2 46.9 58.2 44.3 58.7 41.6 58.7 38.8 58.7 38.7 58.7 38.7 58.8 38.7 58.8 38.7 58.9 38.7 58.9 38.8 59.1 41.6 58.7 44.4 57.6 47 57.1 48.3 56.4 49.5 55.5 50.7 54.7 51.8 53.6 52.8 52.4 53.6 51.2 54.3 49.8 54.8 48.4 55 47 55.2 45.6 55.1 44.2 54.8 42.8 54.5 41.5 53.9 40.4 53 39.8 52.5 39.4 52 39 51.3 38.7 50.7 38.4 50 38.4 49.3 38.4 49.2 38.4 49.2 38.5 49.2 38.5 49.2 38.5 49.2 38.5 49.2 38.5 49.2 38.6 49.2 38.6 49.3Z" fill="#9CAFE6"/><path d="M62.7 39.5C62.6 40.4 62.5 41.4 62.4 42.3 62.3 43.2 62.3 44.2 62.3 45.1 62.3 46 62.3 47 62.4 47.9 62.5 48.8 62.6 49.8 62.8 50.7 63 51.6 63.4 52.5 63.7 53.3 63.9 53.7 64.1 54.2 64.3 54.6 64.5 55 64.7 55.5 64.8 56 65 56.9 65.1 57.9 64.9 58.9 64.8 59.9 64.4 60.8 63.9 61.6 63.9 61.6 63.8 61.7 63.8 61.6 63.8 61.6 63.7 61.5 63.8 61.5 64.2 60.7 64.5 59.8 64.7 58.9 64.8 58 64.8 57.1 64.5 56.2 64.4 55.8 64.2 55.3 64 54.9 63.8 54.5 63.6 54 63.4 53.6 63 52.7 62.7 51.8 62.5 50.9 62.3 50 62.2 49 62.1 48.1 62 47 62 46.1 62 45.2 62 44.3 62 43.3 62.1 42.4 62.2 41.5 62.3 40.5 62.5 39.6 62.5 39.5 62.6 39.4 62.7 39.5 62.6 39.4 62.6 39.4 62.7 39.5 62.7 39.4 62.7 39.5 62.7 39.5Z" fill="#9CAFE6"/><path d="M33.7 40.6C33.9 41.6 34 42.5 34.1 43.5 34.2 44.5 34.2 45.5 34.2 46.4 34.2 47.3 34.2 48.4 34.1 49.3 34 50.3 33.9 51.3 33.6 52.2 33.3 53.1 33 54.1 32.6 55 32.4 55.5 32.2 55.9 32 56.3 31.8 56.7 31.7 57.2 31.6 57.6 31.4 58.5 31.4 59.5 31.5 60.4 31.7 61.3 32 62.2 32.5 63.1 32.5 63.1 32.5 63.2 32.5 63.2 32.5 63.2 32.4 63.2 32.4 63.2 32.1 62.8 31.8 62.4 31.6 61.9 31.4 61.4 31.3 61 31.2 60.5 31 59.5 31 58.5 31.2 57.5 31.3 57 31.5 56.5 31.7 56.1L32.3 54.8C32.7 53.9 33 53 33.3 52.1 33.5 51.2 33.7 50.2 33.8 49.3 33.9 48.3 33.9 47.4 33.9 46.4 33.9 45.4 33.9 44.5 33.8 43.5 33.7 42.5 33.6 41.6 33.5 40.6 33.5 40.6 33.5 40.5 33.6 40.5 33.6 40.5 33.6 40.5 33.6 40.5 33.6 40.5 33.6 40.5 33.7 40.6 33.7 40.5 33.7 40.6 33.7 40.6Z" fill="#9CAFE6"/><path d="M48.1 86.9C48.1 86.8 48.1 86.7 48.2 86.6 48.2 86.5 48.3 86.5 48.4 86.4 48.5 86.3 48.7 86.2 48.9 86.1 49.1 86 49.3 86 49.4 86.1 49.6 86.2 49.7 86.3 49.7 86.5L49.7 86.5 49.7 86.5 49.7 86.5C49.5 86.3 49.2 86.2 49 86.3 48.9 86.3 48.7 86.4 48.6 86.5 48.5 86.5 48.5 86.6 48.4 86.6 48.4 86.7 48.3 86.7 48.2 86.8L48.2 86.8C48.2 86.8 48.2 86.8 48.1 86.8 48.2 86.9 48.2 86.9 48.1 86.9L48.1 86.9Z" fill="#A84C4C"/><path d="M32.5 163.8C32.6 163.6 32.7 163.5 32.8 163.3L33.2 162.8C33.3 162.6 33.5 162.5 33.7 162.4 33.8 162.4 33.9 162.3 34 162.3L34.2 162.3 34.2 162.3C34.2 162.3 34.2 162.3 34.2 162.4 34.2 162.5 34.3 162.4 34.3 162.4L34.3 162.4C34.3 162.4 34.3 162.4 34.3 162.3L34.3 162.3C34.3 162.3 34.4 162.3 34.3 162.4 34.3 162.4 34.2 162.4 34.2 162.4 34.2 162.4 34.2 162.4 34.1 162.4 34 162.4 34.1 162.3 34.1 162.3 34.1 162.3 34.1 162.3 34.1 162.3 34.1 162.3 34.2 162.3 34.2 162.3 34.2 162.3 34.2 162.4 34.2 162.4 34.2 162.5 34.1 162.5 34.1 162.5L34 162.6C33.9 162.6 33.8 162.7 33.8 162.8 33.7 162.9 33.5 163 33.4 163.2 33.3 163.4 33.1 163.5 33 163.6L32.8 163.8 32.7 163.9C32.7 163.9 32.6 164 32.5 164 32.5 164 32.4 164 32.4 163.9 32.4 163.9 32.4 163.9 32.5 163.8L32.5 163.8 32.5 163.8Z" fill="#A84C4C"/><path d="M29.9 163.6C29.9 163.5 29.9 163.4 29.9 163.3 29.9 163.2 29.9 163.1 29.9 163.1 29.9 162.9 29.8 162.8 29.7 162.7 29.6 162.5 29.6 162.4 29.5 162.2 29.5 162 29.5 161.8 29.5 161.6 29.5 161.6 29.5 161.6 29.6 161.6 29.6 161.6 29.6 161.6 29.6 161.6L29.6 161.6 29.6 161.6C29.6 161.8 29.7 161.9 29.8 162.1 29.9 162.2 30 162.4 30.1 162.5 30.2 162.7 30.2 162.9 30.2 163.1 30.2 163.2 30.2 163.3 30.2 163.4 30.2 163.5 30.2 163.6 30.1 163.7 30 163.6 30 163.6 29.9 163.6 29.9 163.6 29.9 163.6 29.9 163.6L29.9 163.6 29.9 163.6Z" fill="#A84C4C"/><path d="M52.8 159.9C52.8 159.9 52.8 160 52.8 160 52.8 160 52.7 160.1 52.7 160.1 52.7 160.1 52.6 160 52.6 160 52.6 160 52.6 160 52.6 160L52.6 160C52.7 159.7 52.8 159.4 53 159.1 53.2 158.8 53.5 158.6 53.8 158.4L53.8 158.4C53.9 158.4 53.9 158.4 54 158.4 54 158.4 54 158.5 54 158.5 53.9 158.6 53.9 158.7 53.8 158.8 53.8 158.8 53.7 158.8 53.7 158.8 53.7 158.8 53.7 158.8 53.7 158.8 53.7 158.8 53.7 158.8 53.7 158.7 53.7 158.6 53.8 158.5 53.8 158.3L54 158.4C53.8 158.7 53.6 158.9 53.4 159.1 53.2 159.3 53 159.6 52.8 159.9L52.6 159.8C52.7 159.8 52.7 159.8 52.8 159.9 52.8 159.8 52.8 159.8 52.8 159.9 52.9 159.8 52.9 159.8 52.8 159.9L52.8 159.9Z" fill="#A84C4C"/><path d="M49.2 157.9C49.3 158 49.3 158 49.4 158.1 49.4 158.2 49.5 158.2 49.5 158.3 49.6 158.4 49.7 158.6 49.7 158.7 49.8 158.9 49.8 159 49.8 159.2 49.8 159.4 49.8 159.6 49.7 159.7 49.7 159.7 49.6 159.7 49.6 159.7L49.6 159.7 49.6 159.7C49.6 159.5 49.5 159.4 49.5 159.3 49.5 159.2 49.4 159 49.3 158.9 49.2 158.7 49.2 158.6 49.1 158.4 49.1 158.3 49 158.2 49 158.2 49.1 158.1 49.1 158.1 49.2 157.9 49.2 157.9 49.2 157.9 49.2 157.9L49.2 157.9Z" fill="#A84C4C"/><path d="M6.9 218.4C7 218.3 7.1 218.2 7.3 218.2L7.7 218C8 217.9 8.2 217.8 8.5 217.7 8.8 217.6 9 217.6 9.3 217.6 9.6 217.6 9.8 217.5 10.1 217.5 10.1 217.5 10.2 217.5 10.2 217.6 10.2 217.6 10.2 217.6 10.2 217.7 9.9 217.8 9.7 217.9 9.4 218L8.6 218.2 7.8 218.4 7.4 218.5C7.3 218.5 7.1 218.6 7 218.6 6.9 218.5 6.9 218.5 6.9 218.4 6.9 218.4 6.9 218.4 6.9 218.4 6.9 218.4 6.9 218.4 6.9 218.4Z" fill="#A84C4C"/><path d="M37.8 218.7C37.9 218.7 38.1 218.7 38.2 218.7L38.6 218.7C38.8 218.7 39.1 218.8 39.3 218.8 39.5 218.9 39.8 218.9 40 219 40.2 219.1 40.5 219.2 40.7 219.3 40.7 219.3 40.7 219.4 40.7 219.4 40.7 219.4 40.7 219.4 40.6 219.4 40.3 219.4 40.1 219.3 39.9 219.3L39.2 219.1 38.5 218.9 38.2 218.8C38 218.8 37.9 218.8 37.8 218.7 37.7 218.7 37.7 218.7 37.8 218.7 37.8 218.6 37.8 218.6 37.8 218.7 37.8 218.6 37.8 218.7 37.8 218.7Z" fill="#A84C4C"/><path d="M84.4 74.5C84.5 74.4 84.5 74.3 84.6 74.3 84.7 74.2 84.8 74.2 84.9 74.1 85.1 74 85.3 73.9 85.5 73.8 85.7 73.7 85.9 73.7 86.1 73.7 86.3 73.7 86.5 73.7 86.7 73.8 86.7 73.8 86.7 73.8 86.7 73.9L86.7 73.9 86.7 73.9C86.5 73.9 86.3 73.9 86.1 73.9 85.9 73.9 85.7 74 85.5 74.1 85.3 74.2 85.1 74.2 85 74.3L84.7 74.4C84.7 74.5 84.6 74.5 84.4 74.5L84.4 74.5 84.4 74.5 84.4 74.5Z" fill="#A84C4C"/><path d="M10.2 74.8C10.3 74.7 10.4 74.7 10.5 74.7 10.6 74.7 10.7 74.7 10.8 74.7 11 74.7 11.2 74.8 11.4 74.9 11.6 75 11.7 75.2 11.9 75.3 12 75.5 12.1 75.6 12.2 75.8M12.3 75.9C12.3 75.9 12.3 75.9 12.3 75.9 12.2 75.9 12 75.6 11.8 75.5 11.7 75.4 11.5 75.3 11.3 75.2 11.2 75.1 11 75 10.8 75L10.5 75C10.4 75 10.3 75 10.2 75L10.2 75C10.2 75 10.1 75 10.1 74.9 10.1 74.9 10.1 74.8 10.1 74.8L12.3 75.9Z" fill="#A84C4C"/><path d="M49.2 43.7C49.3 43.7 49.5 43.7 49.6 43.6 49.7 43.6 49.9 43.5 50 43.4 50.2 43.2 50.4 43 50.6 42.8 50.8 42.6 51.1 42.4 51.3 42.2 51.6 42 51.9 42 52.2 42.1 52.2 42.1 52.2 42.1 52.2 42.2L52.2 42.2C51.9 42.2 51.6 42.3 51.4 42.5 51.2 42.7 51 42.9 50.8 43.1 50.6 43.3 50.3 43.5 50.1 43.7 50 43.8 49.8 43.8 49.6 43.9 49.5 43.9 49.4 43.9 49.2 43.7M49.2 43.7 49.2 43.7Z" fill="#A84C4C"/><path d="M64.1 54.1C64.1 54 64.1 53.8 64.1 53.7 64.1 53.6 64.2 53.4 64.2 53.3 64.3 53 64.5 52.8 64.7 52.6 64.9 52.4 65.1 52.2 65.4 52.1 65.6 52 65.9 51.9 66.2 51.8L66.2 51.8 66.2 51.8C66 51.9 65.7 52.1 65.5 52.2 65.3 52.4 65.1 52.5 64.9 52.7 64.7 52.9 64.6 53.1 64.5 53.3 64.4 53.4 64.4 53.5 64.3 53.6 64.2 53.8 64.2 53.9 64.1 54.1M64.1 54C64.1 54 64.1 54.1 64.1 54L64.1 54Z" fill="#A84C4C"/><path d="M31.6 56.4C31.6 56.3 31.6 56.2 31.5 56.1 31.5 56 31.4 55.9 31.4 55.8 31.3 55.6 31.2 55.5 31.1 55.3 31 55.1 30.8 55 30.7 54.9 30.6 54.8 30.4 54.6 30.3 54.5M30.2 54.5C30.4 54.6 30.6 54.7 30.7 54.8 30.9 54.9 31 55.1 31.2 55.2 31.3 55.4 31.5 55.6 31.5 55.8 31.5 55.9 31.6 56 31.6 56.1 31.6 56.2 31.6 56.3 31.6 56.4L30.2 54.5Z" fill="#A84C4C"/></g></g></g><path d="M35 101.6C37.1 103.2 39.7 104.1 42.4 104" stroke="#BDA08C" stroke-width="0.25" stroke-miterlimit="10" fill="none"/><path d="M60.3 105.6C61 104.3 62 102.3 63.5 101.8 61.3 102.5 59 103.3 57.3 104.8" stroke="#BDA08C" stroke-width="0.25" stroke-miterlimit="10" fill="none"/><path d="M38.3 116.8C37.3 126.7 36.2 136.8 32.6 146.1" stroke="#BDA08C" stroke-width="0.25" stroke-miterlimit="10" fill="none"/><path d="M47.9 122.9C47.8 130.8 46.6 138.6 44.4 146.2" stroke="#BDA08C" stroke-width="0.25" stroke-miterlimit="10" fill="none"/><path d="M61 116.6C60.8 127.2 60.5 137.8 58.6 148.2" stroke="#BDA08C" stroke-width="0.25" stroke-miterlimit="10" fill="none"/><path d="M32.4 62.4C33.9 64.5 36.7 65.5 39.2 64.9" stroke="#BDA08C" stroke-width="0.25" stroke-miterlimit="10" fill="none"/><path d="M56.7 63.2C59.4 63.7 62.4 62.7 64.3 60.7" stroke="#BDA08C" stroke-width="0.25" stroke-miterlimit="10" fill="none"/><path d="M50.8 60.8C49.5 61.1 48.2 61.5 46.9 62" stroke="#BDA08C" stroke-width="0.25" stroke-miterlimit="10" fill="none"/><path d="M50.5 59.7C49.1 59.3 47.6 59 46.1 59" stroke="#BDA08C" stroke-width="0.25" stroke-miterlimit="10" fill="none"/><path d="M5.4 222.1C6.5 223.7 9 223.1 10.2 222.6 12.5 221.6 13.2 219.3 13.3 218.9 12.9 223.3 12.3 226.5 11.9 228.5 11.7 229.5 11.4 230.8 10.3 231.6 9.2 232.4 7.8 232.3 6.5 232 4.5 231.5 2.5 230.6 1.1 229.1 0.6 228.6 0.2 227.9-1.33227e-15 227.2-0.1 226.7-0.3 225.6 0.8 223.4 2.2 220.8 4.3 219 5.8 218 4.8 219.4 4.7 221.1 5.4 222.1Z" fill="#9CAFE6"/><path d="M36.4 224.4C37.7 225.6 39.6 225.9 41 225.2 41.9 224.7 42.5 223.7 42.9 222.7 43.3 221.7 43.5 220.6 43.8 219.6 44.4 221.7 44.9 223.9 45.3 226.1 45.4 226.9 45.5 227.6 45.4 228.4 45 230.1 43.1 231.1 41.5 231.7 40.3 232.2 39 232.6 37.6 232.6 36.3 232.6 34.9 232.1 34.1 231.1 33.8 230.7 33.2 229.8 33.3 227.4 33.4 225.9 33.7 223.3 35.3 220.2 35.1 220.3 34.6 222.8 36.4 224.4Z" fill="#9CAFE6"/></g></svg>