<svg viewBox="0 0 76.2 223.1" xmlns="http://www.w3.org/2000/svg" xmlns:xlink="http://www.w3.org/1999/xlink" id="Слой_1" overflow="hidden"><g><g id="Слой_2_1_"><g id="Layer_2"><linearGradient x1="17.3084" y1="-28.8067" x2="22.0184" y2="94.8033" gradientUnits="userSpaceOnUse" id="SVGID_1_" gradientTransform="matrix(1 0 0 -1 0 223.323)"><stop offset="0" stop-color="#F5B2A2"/><stop offset="0.21" stop-color="#F1AA9A"/><stop offset="1" stop-color="#E08D7C"/></linearGradient><linearGradient x1="32.1899" y1="173.757" x2="3.6598" y2="75.3071" gradientUnits="userSpaceOnUse" id="SVGID_2_" gradientTransform="matrix(1 0 0 -1 0 223.323)"><stop offset="0" stop-color="#F5B2A2"/><stop offset="1" stop-color="#E08D7C"/></linearGradient><linearGradient x1="27.0274" y1="175.258" x2="-1.4926" y2="76.7978" gradientUnits="userSpaceOnUse" id="SVGID_3_" gradientTransform="matrix(1 0 0 -1 0 223.323)"><stop offset="0" stop-color="#F5B2A2"/><stop offset="1" stop-color="#E08D7C"/></linearGradient><linearGradient x1="41.9833" y1="168.404" x2="43.2833" y2="202.453" gradientUnits="userSpaceOnUse" id="SVGID_4_" gradientTransform="matrix(1 0 0 -1 0 223.323)"><stop offset="0" stop-color="#F5B2A2"/><stop offset="1" stop-color="#E08D7C"/></linearGradient><linearGradient x1="45.6192" y1="-29.3071" x2="50.2992" y2="93.8529" gradientUnits="userSpaceOnUse" id="SVGID_5_" gradientTransform="matrix(1 0 0 -1 0 223.323)"><stop offset="0" stop-color="#F5B2A2"/><stop offset="1" stop-color="#E08D7C"/></linearGradient><linearGradient x1="91.072" y1="189.865" x2="64.462" y2="73.5947" gradientUnits="userSpaceOnUse" id="SVGID_6_" gradientTransform="matrix(1 0 0 -1 0 223.323)"><stop offset="0" stop-color="#F5B2A2"/><stop offset="1" stop-color="#E08D7C"/></linearGradient><linearGradient x1="74.3708" y1="193.687" x2="47.7608" y2="77.4172" gradientUnits="userSpaceOnUse" id="SVGID_7_" gradientTransform="matrix(1 0 0 -1 0 223.323)"><stop offset="0" stop-color="#F5B2A2"/><stop offset="1" stop-color="#E08D7C"/></linearGradient><linearGradient x1="43.5048" y1="167.594" x2="38.5748" y2="103.554" gradientUnits="userSpaceOnUse" id="SVGID_8_" gradientTransform="matrix(1 0 0 -1 0 223.323)"><stop offset="0" stop-color="#F5B2A2"/><stop offset="1" stop-color="#E08D7C"/></linearGradient><path d="M41.9 0.2C45.7-0.5 46 0.7 47.1 0.7 47.7 0.7 48.4 0.8 49 0.9 51.8 1.6 54.1 3.8 55.7 6.2 58 9.6 57.9 14.1 57.2 18.1 56.7 21.1 55.6 23.9 54.2 26.6 50.9 32.4 45.7 36.9 39.4 39.3 38.1 40 37.5 40.1 33.1 41.2 24.4 43.4 23.2 41.9 19.8 43 17.6 43.8 15.9 45.5 13.7 46.4 11.3 47.4 7.2 47.4 6.1 44.4 5.7 43.5 6.2 42.5 7 42.2 7.1 42.2 7.2 42.1 7.2 42.1 7.6 42 8 42.1 8.3 42.5 8.5 42.7 8.3 42.8 8 42.8 7.2 42.6 6.9 42.9 7.1 43.7 7.1 44.1 7.4 44.5 7.8 44.7 9.1 45.2 10.5 45.1 11.7 44.5 13.6 43.2 12.8 40.2 13 38.4 13.5 36 15.1 34 17.3 32.9 22.9 29.8 33.5 30.8 32.3 18.3 32.1 17.4 31.9 16.5 31.5 15.6 31.4 15.2 31.2 14.8 31.1 14.4 30.4 11.6 31 8.6 32.6 6.2 34.8 3.1 38.1 0.9 41.9 0.2Z" fill="#D65779"/><path d="M8.9 42.3C8.7 42 8.3 41.8 7.9 42 7.5 42.2 7.3 42.4 7.1 42.8 6.8 43.6 6.9 44.4 7.4 45.1 7.9 45.7 8.7 46.1 9.5 46.1 10.3 46.1 11.1 45.9 11.8 45.4 12.4 44.9 13 44.2 13.3 43.5 13.6 42.8 13.9 42 14 41.2 14.1 40.4 14.2 39.5 14.3 38.7 14.4 37.9 14.6 37 15 36.3 15.7 34.7 16.8 33.4 18.1 32.3 19.5 31.3 21 30.5 22.6 30.1 23.4 29.9 24.2 29.7 25.1 29.6 25.9 29.5 26.8 29.4 27.6 29.3 28.4 29.2 29.2 28.9 29.9 28.5 30.6 28.1 31.2 27.4 31.4 26.7 31.4 26.7 31.5 26.6 31.5 26.7 31.5 26.7 31.6 26.8 31.5 26.8 31.2 27.6 30.7 28.4 29.9 28.8 29.2 29.3 28.4 29.6 27.5 29.7 26.7 29.8 25.8 29.9 25 30 24.2 30.1 23.4 30.3 22.6 30.5 21 30.9 19.5 31.7 18.2 32.7 16.9 33.7 15.9 35 15.2 36.5 14.9 37.3 14.7 38.1 14.6 38.9 14.5 39.7 14.4 40.6 14.3 41.4 14.2 42.2 13.9 43.1 13.5 43.8 13.1 44.6 12.6 45.3 11.9 45.8 11.2 46.3 10.4 46.6 9.5 46.6 8.6 46.6 7.7 46.2 7.2 45.4 6.7 44.7 6.5 43.7 6.9 42.9 7.1 42.5 7.4 42.1 7.8 42 8.2 41.8 8.7 42 9 42.4 9 42.4 9 42.5 9 42.5 9 42.5 9 42.4 8.9 42.3 8.9 42.3 8.9 42.3 8.9 42.3Z" fill="#BDA08C"/><path d="M22 36.3C22.3 36 22.6 35.8 23 35.6 23.4 35.4 23.7 35.3 24.1 35.2 24.9 35 25.7 34.9 26.5 35 27.3 35 28.1 35 28.8 34.8 29.6 34.7 30.3 34.3 30.8 33.7 30.8 33.7 30.9 33.7 30.9 33.7 30.9 33.7 30.9 33.8 30.9 33.8 30.9 33.8 30.9 33.8 30.9 33.8 30.7 34.1 30.4 34.4 30 34.6 29.6 34.8 29.3 34.9 28.9 35 28.1 35.2 27.3 35.2 26.5 35.2 25.7 35.2 24.9 35.2 24.2 35.4 23.8 35.5 23.5 35.6 23.1 35.8 22.7 36 22.4 36.2 22.1 36.4 22.1 36.4 22 36.4 22 36.4 22 36.4 22 36.3 22 36.3Z" fill="#BDA08C"/><path d="M27 154.4C27.2 153.6 27.4 152.8 27.7 152 28.4 150 29.1 148.1 29.8 146.1 31.2 142.2 32.6 138.2 34 134.2L39.7 118.1C40.6 115.8 41.2 113.3 41.2 110.7 41.2 108.7 40.4 106.8 39 105.5 37.6 104.6 36.1 104 34.4 103.8L29.5 102.8C29 102.7 28.5 102.6 28 102.6 27.3 102.6 26.6 102.7 26 102.7 25.1 102.6 24.3 102.8 23.5 103.1 22.8 103.6 22.3 104.3 22 105.1 21.8 105.5 21.7 105.9 21.6 106.3 21.3 107.4 21 108.6 20.7 109.7 19.2 115.4 18.1 121.1 17 126.9 16.3 130.5 15.7 134.1 15 137.7 14.4 141.1 13.6 144.5 13 147.9 12.7 149.3 12.5 150.8 12.3 152.3 12.2 153.5 12.2 154.8 12.4 156 12.6 160 13.3 164 13.5 167.9 13.6 171.1 14 174.3 14.3 177.5 15.2 188.2 15.9 194.6 15.1 205.4 14.7 210.5 12.9 212.1 9.3 214.2 6.8 215.8 4.1 217.1 1.2 217.9 0.8 217.9 0.5 218.1 0.2 218.4-0.5 219.4 0.9 221.1 2.6 220.8 3.7 220.6 3.3 220.4 4.6 220.9 5.6 221.1 6.6 221.1 7.6 221 10 221 11.4 219.7 14.1 219.6 15.7 219.5 16.4 221.2 21.1 220.7 21.9 220.7 22.7 220.5 23.4 220.1 23.9 219.5 24.3 218.8 24.3 218 24.4 216.2 23.6 214.9 23.4 213.3 23.2 211 23.3 208.6 23.5 206.3 23.6 203.8 24.1 201.3 24.1 198.8 24.2 195.1 24.7 191.4 25.7 187.8 27.2 181.7 29.1 175.5 28.9 169 28.7 166.4 28.3 163.8 27.6 161.3 27.3 160 27.1 158.7 26.9 157.4 26.9 156.3 26.9 155.4 27 154.4Z" fill="url(#SVGID_1_)"/><path d="M13.9 127.5C13.8 126 13.7 124.6 13.4 123.1 13.4 121.4 13.7 119.6 14.4 118 15 116.4 15.7 115.1 15.2 113.4 15.1 113 15 112.7 14.9 112.3 14.8 111.9 14.8 111.6 14.8 111.2 14.7 110.7 14.4 110.2 13.9 109.9 13.6 109.8 13.2 109.8 12.9 109.8 12.3 109.8 11.7 110 11.3 110.4 11 110.9 10.7 111.4 10.6 112 10.4 112.7 10.2 113.3 10 113.9 9.5 115.1 8.8 116.2 8.2 117.4 7.4 119.4 7 121.5 7 123.6 7 125.4 7.3 127.1 7.9 128.8 8 129.3 8.3 129.7 8.6 130.1 8.7 130.1 8.7 130.2 8.8 130.2 9 130.2 9.1 130.1 9.2 130 9.2 129.8 9.2 129.7 9.2 129.5 8.9 128 8.8 126.6 8.8 125.1 8.9 126.2 9.1 127.3 9.4 128.4 9.5 129.4 9.9 130.3 10.4 131.1 10.5 131.2 10.7 131.4 10.9 131.3 11 131.2 11 131.1 11 131 11 130.5 11 130.1 11 129.6 11.1 129.9 11.3 130.2 11.5 130.5 11.6 130.6 11.7 130.7 11.8 130.7 12 130.7 12.1 130.6 12.2 130.5 12.4 130.2 12.4 129.8 12.4 129.5 12.4 128.2 12.2 126.9 12.1 125.6 12.1 125 12.1 124.5 12.2 123.9 12.2 124 12.2 124.2 12.2 124.3 12.3 124.7 12.3 125.2 12.4 125.6 12.5 126.2 12.7 126.8 12.9 127.4 12.9 127.6 13 127.7 13.1 127.8 13.2 127.9 13.4 128 13.6 127.9 13.9 128 13.9 127.7 13.9 127.5Z" fill="url(#SVGID_2_)"/><path d="M23.6 44C22.9 44.5 22.3 45.1 21.8 45.8 20.6 47.5 19.6 49.3 19 51.3 18.3 54.1 17.8 57 17.6 59.9 17.1 64.6 16.7 69.4 16.3 74.2 16.2 75.4 16.3 76.4 16.2 77.6 15.4 79.4 14.7 81.2 13.8 82.9 12.9 84.9 12.2 87 12 89.1 10.9 96.5 11.6 102.2 10.6 113.4 10.5 113.8 10.7 114.2 11 114.5 11.9 115.4 13.3 115.4 14.2 114.5 14.4 114.3 14.5 114.1 14.6 113.9 16.7 109.1 22 89.7 22.1 89.2 22.7 86.8 23.2 84.3 23.4 81.8 23.8 79.9 24 78 24.2 76.1 24.4 74.9 24.5 73.7 24.6 72.5 24.7 71.9 24.7 71.2 24.8 70.6 25.5 64.7 26.5 58.9 27.9 53.1 28.3 51.4 28.2 49.4 29 47.8 29.7 46.4 30.6 45.1 31.3 43.6 31.6 42.9 31.9 42.1 32.1 41.4 32.2 41 32.4 40.5 31.8 40.5 31.3 40.5 30.9 40.7 30.4 40.8 29.1 41.2 27.8 41.7 26.6 42.2 25.5 42.7 24.5 43.3 23.6 44Z" fill="url(#SVGID_3_)"/><path d="M37.9 33.9C38 35.6 37.6 38 36 38.9 35.6 39.1 35.3 39.2 34.9 39.4 33.2 40.2 31.9 41.6 31.3 43.4 30.2 45.7 29.8 48.2 30.1 50.7 30.4 53.2 31.9 55.4 34.1 56.7 35 57.1 35.9 57.4 36.9 57.6 37.5 57.8 38.2 57.9 38.9 57.8 39.6 57.7 40.3 57.4 40.9 57 47 53.6 51.8 48.3 54.5 41.9 54.9 41.1 55 40.2 54.8 39.3 54.4 38.2 53.1 37.8 52.1 37.1 51.5 36.7 51 36.1 50.6 35.5 50.3 35 50.1 34.4 50 33.8 49.4 32.3 49 30.8 48.8 29.2 48.6 27.3 48.5 25.5 48.3 23.6 48.3 23.3 48.2 23 48 22.7 47.6 22.1 46.9 22.3 46.3 22.3 45.4 22.3 44.6 22.4 43.7 22.7 42.8 23.1 41.9 23.6 41.1 24.3 40.2 24.9 39.5 25.6 38.8 26.4 38.3 27 37.9 27.8 37.6 28.5 37.4 29.1 37.3 29.8 37.5 30.5 37.6 31.6 37.8 32.8 37.9 33.9Z" fill="url(#SVGID_4_)"/><path d="M32.2 10.7C31.5 12.3 31.3 14 31.5 15.7 31.6 17.6 31 19.4 31.1 21.3 31.3 24.4 32.6 27.2 34.7 29.4 35.3 30.1 36.1 30.6 37.1 30.8 38.2 30.9 39.3 30.7 40.3 30.3 41.6 29.8 43 29.2 44.3 28.6 44.8 28.4 45.2 28.1 45.6 27.8 46.8 26.9 47.4 25.1 47.9 23.7 47.9 23.6 48 23.5 48.1 23.5 48.2 23.5 48.3 23.5 48.4 23.5 49.4 23.6 50.3 23.2 50.8 22.4 51.3 21.6 51.6 20.7 51.7 19.8 51.8 19.4 51.8 19 51.8 18.6 51.7 18.2 51.4 17.6 51 17.6 50.5 17.6 50.1 17.8 49.8 18.2 49.6 18.5 49.2 18.8 48.9 18.9 48.4 19 47.9 18.8 47.7 18.3 47.5 17.8 47.3 17.4 47.2 16.9 46.9 15.8 46 14.9 44.9 14.5 44.1 14.2 43.4 14.1 42.6 13.9 41.7 13.6 40.9 13.1 40.2 12.6 39.5 12.2 38.8 11.6 38.3 11 37.7 10.4 37.3 9.7 36.9 8.9 36.6 8.3 36.3 7.6 36 7 34.2 7.7 33 9 32.2 10.7L32.2 10.7Z" fill="#ECAA9C"/><path d="M49.2 21.1C49.2 21 49.2 20.9 49.3 20.8L49.4 20.5C49.5 20.3 49.6 20.1 49.7 19.9 49.8 19.7 49.9 19.5 50.1 19.3L50.3 19C50.4 18.9 50.5 18.8 50.6 18.8 50.7 18.8 50.7 18.8 50.7 18.8 50.7 18.8 50.7 18.8 50.7 18.9 50.7 19 50.6 19.1 50.6 19.2L50.4 19.5 50 20C49.9 20.2 49.8 20.4 49.7 20.6L49.6 20.9C49.5 21 49.5 21.1 49.4 21.2 49.4 21.2 49.3 21.2 49.2 21.2 49.2 21.2 49.2 21.1 49.2 21.1Z" fill="#A84C4C"/><path d="M49.7 20C49.7 19.9 49.7 19.9 49.7 20L49.8 19.9C49.9 19.9 49.9 19.8 50 19.8 50.1 19.8 50.1 19.7 50.2 19.7L50.3 19.7C50.3 19.7 50.4 19.7 50.4 19.7 50.4 19.7 50.5 19.8 50.4 19.9L50.4 19.9C50.4 19.9 50.4 20 50.3 20L50.2 20 50 20 50 20 49.9 20C49.9 20 49.9 20 49.7 20L49.7 20C49.8 20 49.8 20 49.7 20Z" fill="#A84C4C"/><path d="M35.3 26C35.7 26.5 36.3 26.8 37 26.7 37.4 26.7 37.8 26.6 38.2 26.4 39.1 26 39.9 25.2 40.2 24.3L37 24.3C36.5 24.3 35.1 24 34.9 24.7 34.7 25.2 35.1 25.6 35.3 26Z" fill="#FFFFFF"/><path d="M36.3 23.9C36.6 23.9 36.9 23.8 37.1 23.8 37.4 23.8 37.7 23.8 38 23.9 38.9 24 39.8 24.1 40.7 24 40.7 24 40.8 24 40.8 24 40.8 24 40.8 24.1 40.8 24.1 40.6 24.3 40.3 24.4 40.1 24.4 39.8 24.4 38.2 24.5 36.8 24.6 36 24.7 35.1 24.7 34.3 24.5L34.2 24.4C34 24.2 33.9 24.1 34 24 34.5 23.8 35 23.7 35.6 23.7 35.8 23.8 36 23.9 36.3 23.9Z" fill="#D61945"/><path d="M40.2 24.2 40.1 24.3C39.9 24.4 39.8 24.6 39.7 24.7 39.4 25 39.1 25.3 38.7 25.5 38.2 25.8 37.6 26.1 37 26.1 36.2 26.3 35.3 25.8 35.1 25.1 35 24.9 35 24.7 34.9 24.5 34.9 24.4 34.8 24.4 34.8 24.4 34.7 24.4 34.7 24.4 34.7 24.5 34.6 24.6 34.6 24.7 34.6 24.8 34.5 25.6 34.8 26.3 35.4 26.8 35.8 27.1 36.2 27.2 36.7 27.3 37.8 27.4 38.8 27 39.5 26.2 39.7 25.9 39.9 25.6 40.1 25.3L40.7 24.3C40.4 24.2 40.3 24.2 40.2 24.2Z" fill="#D61945"/><path d="M36.1 18C36.1 18.2 36.1 18.5 36 18.7 35.9 18.9 35.9 19.2 35.8 19.4L35.4 20.8 35.2 21.5C35 21.8 35 21.8 35.2 22 35.4 22.2 35.6 22.3 35.8 22.4 36 22.5 36.2 22.6 36.5 22.7 36.5 22.7 36.5 22.7 36.5 22.8 36.5 22.8 36.5 22.8 36.5 22.8 36.2 22.8 36 22.8 35.7 22.7 35.5 22.6 35.2 22.5 35 22.3 34.9 22.2 34.8 22.1 34.7 21.9 34.7 21.7 34.7 21.6 34.7 21.4L34.9 20.7 35.4 19.3 35.6 18.6C35.7 18.4 35.9 18.2 36.1 18 36 18 36.1 18 36.1 18 36.1 18 36.1 18 36.1 18 36.1 18 36.1 18 36.1 18Z" fill="#BD5353"/><path d="M38.6 15.3C38.6 15.2 38.7 15.1 38.7 15 38.8 14.9 39 14.8 39.1 14.8 39.4 14.7 39.8 14.6 40.1 14.5 40.4 14.4 40.7 14.4 41 14.4 41.7 14.4 42.4 14.4 43.2 14.5 43.3 14.5 43.4 14.5 43.5 14.5 43.6 14.5 43.8 14.6 43.9 14.6 44.2 14.7 44.4 14.8 44.6 15 44.6 15 44.6 15 44.6 15.1 44.6 15.2 44.5 15.2 44.5 15.2 44.3 15.2 44.1 15.2 44 15.2 43.8 15.2 43.6 15.2 43.5 15.2 43.1 15.2 42.7 15.2 42.3 15.2 41.8 15.3 41.2 15.4 40.7 15.5 40.1 15.6 39.5 15.7 38.9 15.9 38.8 15.9 38.6 16 38.6 15.9 38.5 15.7 38.5 15.5 38.6 15.3Z" fill="#BD5353"/><path d="M35.3 15C35.2 14.9 35 14.8 34.9 14.8L34.2 14.7C33.7 14.6 33.2 14.6 32.7 14.6L32.6 14.6C32.2 14.6 31.9 14.7 31.6 14.9 31.6 14.9 31.5 14.9 31.5 15 31.5 15 31.5 15.1 31.5 15.1L31.5 15.3C31.5 15.3 31.5 15.4 31.5 15.4 31.5 15.4 31.6 15.4 31.6 15.4 32.3 15.2 33 15.2 33.7 15.4L35.1 15.8C35.2 15.8 35.3 15.8 35.3 15.8 35.3 15.8 35.4 15.8 35.4 15.7 35.4 15.5 35.4 15.3 35.4 15.2 35.3 15.1 35.3 15 35.3 15L35.3 15Z" fill="#BD5353"/><path d="M40 17.2C40.2 17.1 40.4 16.9 40.6 16.8 41.2 16.5 41.8 16.3 42.4 16.3 43.1 16.3 43.7 16.6 44.3 17 44.5 17.2 44.8 17.3 45.1 17.4L45.2 17.4C45.3 17.5 45.2 17.5 45.1 17.6 44.7 17.7 44.3 17.4 43.9 17.3 42.1 16.5 40.1 17.9 39.3 17.9 39.3 17.9 39.2 17.9 39.2 17.9 39.2 17.9 39.3 17.8 39.3 17.8 39.5 17.5 39.8 17.4 40 17.2Z"/><path d="M41.9 18.4 42.1 18.4 42.9 18.3 43.2 18.3C43.3 18.3 43.3 18.2 43.4 18.2 43.5 18.1 43.6 18 43.6 17.9 43.7 17.8 43.7 17.6 43.7 17.4 43.7 17.3 43.7 17.2 43.7 17.2 43.7 17.1 43.6 17 43.5 17 43.1 16.6 42.5 16.5 42 16.7 41.8 16.8 41.7 16.9 41.6 17.1 41.5 17.3 41.4 17.6 41.4 17.8 41.4 17.9 41.4 18.1 41.5 18.2 41.6 18.3 41.7 18.3 41.9 18.4Z"/><path d="M35.1 17.3C35.1 17.2 35 17.1 34.9 17 34.5 16.7 34 16.5 33.5 16.7 33.3 16.8 33.2 16.9 33.1 17.1 33 17.3 32.9 17.6 32.9 17.8 32.9 17.9 32.9 18.1 33 18.2 33.1 18.3 33.2 18.3 33.3 18.4L33.5 18.4C33.7 18.4 34 18.5 34.2 18.5 34.4 18.5 34.5 18.5 34.7 18.4 34.8 18.4 34.9 18.3 34.9 18.3 35 18.2 35.1 18.1 35.1 18 35.2 17.9 35.2 17.7 35.2 17.6 35.2 17.5 35.1 17.4 35.1 17.3Z"/><path d="M31.3 17.5C31.6 17.6 32 17.6 32.3 17.5 35.2 16.5 35.3 17.6 35.7 17.6 35.3 16.8 34.4 16.2 33 16.7 32.5 16.9 32 17.1 31.5 17.2 31.4 17.2 31.3 17.1 31.2 17.2 31.1 17.3 31.2 17.5 31.3 17.5Z"/><path d="M55.3 151.2C55.3 149 55.6 146.9 56 144.7 58.5 129.7 63.2 115 63.3 99.8 63.4 98.5 63.1 97.3 62.5 96.2 59.9 92.7 55.3 96.6 52.3 97 48.4 97.5 44.8 99.4 42.3 102.4 38.9 106.3 40.2 109.6 40.7 114.3 42.1 128.1 42.8 141.9 42.9 155.8 42.8 163.6 42.3 171.4 41.5 179.1 41.2 182.1 40.9 185.1 40.7 188 40.5 190.9 40.3 194.1 39.9 197 39.6 199.1 39.1 201.1 38.6 203.1 38.4 204.1 38.1 205.1 37.9 206.2 37.8 207.1 37.6 207.9 37.3 208.8 36.2 211.6 35.6 214.6 35.2 217.5 35.1 218.4 35 219.3 35 220.1 34.9 220.5 34.9 220.9 35 221.3 35.1 221.6 35.3 221.9 35.6 222.1 36.1 222.7 36.8 223 37.5 223.1 38 223.1 38.5 223.1 39 223 40.7 222.8 42.3 222.5 43.9 222 44.9 221.7 46.3 221.3 46.5 220.1 46.6 219.2 46.6 218.3 46.4 217.5 46.1 216.1 45.9 214.6 45.7 213.2 45.6 212.5 45.5 211.7 45.5 211 45.5 210.3 45.6 209.5 45.7 208.8 45.9 207.3 46.2 205.8 46.5 204.3 46.8 202.9 47.2 201.5 47.6 200.2 49.6 194.1 50.6 190.5 51.5 188 52 186.5 52.5 185 52.9 183.5 54.5 178.1 55.5 172.5 56 166.9 56.3 164.1 56.4 161.3 56.2 158.5 56 156 55.3 153.7 55.3 151.2Z" fill="url(#SVGID_5_)"/><path d="M74.9 118.9C74.8 118.7 74.8 118.5 74.7 118.3 74.1 116 72.7 114 72 111.7 71.9 111.2 71.7 110.8 71.5 110.3 71.3 109.9 71.3 109.4 70.9 109.1 70.7 109 70.6 108.9 70.4 108.9 69.7 108.7 68.9 108.8 68.3 109.2 67.6 109.5 67.2 110.2 67.1 110.9 67 112 66.7 113.2 66.4 114.3 66.1 115.2 66 116.2 66 117.2 66.1 118.5 66.4 119.7 66.8 120.9 67.2 122.1 67.3 123.4 67 124.6 66.9 124.8 66.9 125 66.9 125.2 66.9 125.4 67.1 125.6 67.3 125.6 67.4 125.6 67.5 125.6 67.6 125.5 67.9 125.3 68.1 125 68.2 124.6 68.8 122.9 68.5 121.1 68.9 119.3 68.9 119.5 69.4 120.3 69.5 120.5 69.7 120.9 69.9 121.3 70.1 121.8 70.5 122.7 70.8 123.6 71 124.6 71.3 125.5 71.4 126.4 71.6 127.4 71.6 128.3 71.8 129.2 72.1 130 72.2 130.1 72.2 130.1 72.3 130.1 72.7 130 72.8 128.4 72.8 128 72.8 127.5 72.9 127 72.9 126.5 73 127.7 73.1 128.8 73 130 73 130.2 73.1 130.5 73.3 130.5 73.5 130.5 73.5 130.4 73.5 130.3 73.7 130 73.9 129.6 73.9 129.2L73.9 129.2C73.9 129.4 74 129.6 74.2 129.6 74.3 129.6 74.3 129.5 74.4 129.5 74.7 128.9 74.9 128.3 74.9 127.6 75 126.7 75 125.8 75 124.9 75 125.1 75 125.3 75.1 125.4 75.1 125.9 75.2 126.3 75.3 126.8 75.3 126.9 75.3 126.9 75.4 126.9 75.5 127 75.6 126.9 75.7 126.8 76 126.2 76.2 125.4 76.2 124.7 76.2 123.5 76.1 122.2 75.8 121 75.6 120.4 75.3 119.7 74.9 118.9Z" fill="url(#SVGID_6_)"/><path d="M65.4 99.2C65 96.1 65 93 64.7 89.9 64.3 85.7 63.6 81.5 62.8 77.3 62.4 75.2 62 73.1 61.6 71 61.2 69.1 60.7 67.2 60 65.4 59.6 64.1 59.2 62.7 58.7 61.4 58.5 61.9 58.1 62.3 57.5 62.3 57.3 62.3 57.1 62.3 56.9 62.3 56.2 62.2 55.6 62 54.9 61.8 54.7 61.8 54.6 61.7 54.4 61.7 54.2 61.6 54.1 61.5 54 61.3 53.3 60.3 52.9 59.3 52.7 58.1 52.5 57 52.5 55.8 52.5 54.6 52.5 54.4 52.5 54.1 52.6 53.9 52.7 53.8 52.7 53.6 52.8 53.5 52.8 53 52.7 52.5 52.6 52 52.5 51.1 52.4 50.3 52.4 49.4 52.5 48.2 52.8 47 53.1 45.8 53.3 44.7 53.8 43.7 54.3 42.8 54.7 41.9 55.3 41.1 56 40.5 56.7 40.1 57.6 39.9 58.5 40.1 60.2 40.4 61.8 41.2 63 42.5 63.9 43.6 64.7 44.9 65.3 46.2 67.6 50.4 69.1 55 70 59.8 70.1 60.6 70.2 61.5 70.3 62.3 70.6 65.2 70.9 68.2 71 71.1 71 74 71.3 77 71.8 79.9 72 80.7 72.4 81.4 72.6 82.2 72.9 83.2 73.1 84.2 73.3 85.2 73.7 87.2 73.9 89.2 74 91.2 74.1 93.4 74 95.7 73.7 97.9 73.2 102.4 71.5 107.8 72 112.2 72.2 114 72.6 116 70.7 117.1 69.9 117.7 68.8 117.5 68.3 116.8 68.2 116.7 68.2 116.6 68.1 116.5 67.5 115.2 67.2 113.8 67.3 112.3 67.3 110.3 67.1 108.3 66.8 106.3 66.3 104 65.8 101.7 65.4 99.2Z" fill="url(#SVGID_7_)"/><path d="M21.8 84.4C21.5 86.6 21.5 88.9 21.8 91.1 22 92.2 22.2 93.2 22.6 94.2 22.6 94.4 22.7 94.6 22.9 94.7 23.1 94.8 23.2 94.9 23.4 94.9 24.6 95.1 25.9 95.4 27.1 95.5 28.1 95.6 29.2 95.6 30.2 95.6 32.7 95.6 35.2 95.5 37.6 95.1 38.9 94.9 40.3 94.6 41.6 94.3 42.9 94 44.5 93.6 45.9 93.2 49 92.4 52.1 91.3 55 89.9 56.9 89 58.6 87.7 60 86.1 61 84.8 60.8 83.2 60.4 81.7 59.7 78.7 57.7 75.5 57.4 72.1 57.3 70.9 57.5 69.2 56.8 68.2 56.1 67.3 55 66.7 53.9 66.4 53.3 66.2 52.7 66.2 52 66 51.1 65.7 50.3 65.5 49.4 65.3 46.4 64.8 43.4 64.6 40.4 64.6 38.4 64.5 36.4 64.7 34.5 65.3 33.6 65.6 32.6 65.7 31.6 65.7 30.5 65.8 29.5 66 28.4 66.3 26.6 66.8 23.7 67.9 23.4 70 23.3 70.7 23.3 71.4 23.4 72.1 23.4 74.2 23.1 76.3 22.6 78.3 22.4 79.3 22.2 80.2 22.1 81.1 22 82 21.9 83.4 21.8 84.4Z" fill="url(#SVGID_8_)"/><path d="M55.5 60.4C55.3 60.1 55.1 59.8 55 59.4 54.9 59 54.7 58.6 54.6 58.2 54.3 57.2 54 56.1 53.8 55 53.7 54 53.6 53 53.6 52 53.6 50 53.8 48 54.2 46 54.4 44.7 54.8 43.5 55.4 42.4 56.1 41.2 57.1 40.4 58.4 39.9 57.2 39.4 55.8 38.9 54.6 38.4 54.4 38.3 54.3 38.2 54.1 38.2 54 38.2 53.9 38.3 53.8 38.4 52.6 39 51.5 40 50.7 41.1 49.9 42.1 49.2 43.2 48.7 44.3 48.1 45.4 47.7 46.6 47.2 47.7 46.9 48.2 46.6 48.8 46.2 49.2 44.7 51.1 43 52.7 41 54 40.6 54.3 40.2 54.4 39.8 54.6 39.5 54.7 39.1 54.6 38.8 54.7 37.9 54.9 37 55 36.2 54.9 35.6 54.8 35.1 54.7 34.6 54.5 34.1 54.4 33.6 54 33.3 53.6 32.8 53 32.5 52.4 32.2 51.7 32.1 51 32 50.3 32 49.5 32 48 32.1 46.5 32.3 45.1 32.5 44.1 32.8 43.1 33.2 42.2 33.4 41.6 33.7 41 34 40.5 34.3 40.2 34.5 39.8 34.7 39.4 34.6 39.4 33.7 39.8 33.5 39.9 33.1 40.1 32.7 40.2 32.2 40.3 31.8 40.4 31.4 40.5 31 40.6 30.7 40.6 30.3 40.8 30.1 41 29.9 41.3 29.7 41.5 29.6 41.8 29 43.2 28.4 44.6 28 46 27.9 46.5 27.7 46.9 27.6 47.4 27.4 47.8 27.3 48.2 27.1 48.7 26.7 49.6 26.2 50.5 25.7 51.4 25.3 52 24.8 52.6 24.3 53.1 23.7 53.9 23.1 54.7 22.5 55.4 22 55.9 21.6 56.5 21.3 57.1 21.1 57.6 21 58.1 20.9 58.7 20.6 60.1 20.6 61.5 20.9 62.8 21 63.6 21.3 64.5 21.8 65.2 22.3 65.9 23 66.6 23.7 67.1 23.8 67.2 23.8 67.2 23.8 67.3 23.8 67.4 23.8 67.4 23.8 67.5 23.8 67.7 23.6 70.4 23.6 70.4 24.1 70.4 24.7 70.3 25.2 70.2L27 70 30.5 69.7C32.9 69.5 35.2 69.4 37.6 69.2 42.3 68.9 47 68.8 51.7 68.7L53 68.7C54.5 68.8 56 68.8 57.5 68.7 57.9 68.6 57.9 68.3 58 67.9 58.1 67.4 58.2 66.8 58.2 66.3 58.4 64.9 58.5 63.5 58.6 62.1 58.6 62.1 58.6 62 58.6 62 58.4 61.8 58 62 57.9 62 57.7 62 57.4 62 57.2 61.9 56.7 61.7 56.3 61.4 56 61.1 55.8 60.8 55.6 60.6 55.5 60.4Z" fill="#D89CE6"/><path d="M22.2 104.8C23.9 105.1 25.6 105.3 27.3 105.6 29 105.9 30.7 106.2 32.4 106.7 32.9 106.9 33.4 107 33.9 107.2L34.3 107.4C36 108 37.6 108.8 39.3 109.3 39.5 109.4 39.8 109.4 40 109.3 40.2 109.2 40.4 109.1 40.6 108.9 44.5 104.6 49.7 101.6 55 99.4 56.9 98.4 59 97.7 61.1 97.2 61.8 97 62.6 97.1 63.2 97.5 63.2 95.8 63.2 94.1 63 92.5 62.9 91.8 62.8 91.1 62.7 90.4 62.2 88.4 61.7 86.5 60.9 84.6 60.6 84.8 60.4 84.9 60.1 85.1 58.6 86.1 57 86.8 55.3 87.4 53.5 87.9 51.6 88.6 49.8 89.2 46.1 90.4 42.4 91.4 38.7 92.4 35.7 93.1 32.7 93.8 29.6 94.2 28.4 94.4 27.2 94.5 26 94.7 24.9 94.9 23.7 95 22.6 95 22.8 96.9 22.8 98.9 22.6 100.8 22.4 101.9 22.3 103.3 22.2 104.8Z" fill="#D89CE6"/><path d="M29.6 60.9C30.1 60.8 30.6 60.7 31.1 60.6 31.6 60.5 32.1 60.4 32.6 60.4 33.6 60.3 34.6 60.1 35.6 60.1 36.6 60.1 37.6 60 38.6 59.9 39.6 59.9 40.6 59.9 41.6 60 41.6 60 41.7 60 41.7 60.1 41.7 60.1 41.7 60.1 41.7 60.1 41.7 60.1 41.7 60.2 41.6 60.2 40.6 60.2 39.6 60.2 38.6 60.2 37.6 60.2 36.6 60.3 35.6 60.4 34.6 60.5 33.6 60.6 32.6 60.7L31.1 60.9C30.6 60.8 30.1 60.9 29.6 60.9 29.6 61 29.6 61 29.6 61 29.6 61 29.6 60.9 29.6 60.9 29.6 60.9 29.6 60.9 29.6 60.9Z" fill="#BDA08C"/><path d="M36.8 60.7C37.1 60.6 37.3 60.6 37.6 60.6 37.9 60.6 38.1 60.6 38.4 60.5 38.9 60.5 39.5 60.5 40.1 60.5 40.7 60.5 41.2 60.6 41.8 60.7 42.3 60.8 42.9 60.9 43.4 61.1 43.4 61.1 43.4 61.2 43.4 61.2 43.4 61.2 43.3 61.2 43.3 61.2 42.8 61.1 42.2 61 41.7 60.9 41.2 60.8 40.6 60.8 40.1 60.7 39.6 60.7 39 60.7 38.5 60.7L37.7 60.7C37.4 60.8 37.1 60.8 36.8 60.7 36.7 60.8 36.7 60.8 36.7 60.7 36.7 60.7 36.7 60.7 36.8 60.7 36.8 60.7 36.8 60.7 36.8 60.7 36.8 60.7 36.8 60.7 36.8 60.7Z" fill="#BDA08C"/><path d="M34.8 39.5C34.2 40.2 33.8 41 33.5 41.9 33.2 42.8 33 43.7 32.8 44.6 32.4 46.4 32.2 48.2 32.2 50 32.2 50.9 32.4 51.8 32.7 52.6 33.1 53.4 33.8 54 34.6 54.4 35.4 54.8 36.3 54.9 37.2 54.9 38.1 54.8 39 54.6 39.8 54.3 41.5 53.6 43 52.6 44.3 51.3 44.9 50.6 45.5 49.9 46 49.2 46.5 48.4 46.9 47.6 47.3 46.8 48.1 45.1 49 43.5 49.9 41.9 50.4 41.1 51 40.4 51.7 39.7 52.4 39.1 53.2 38.6 54.1 38.3 54.2 38.3 54.2 38.3 54.2 38.4 54.2 38.4 54.2 38.5 54.1 38.5 54.1 38.5 54.1 38.5 54.1 38.5 53.3 38.8 52.5 39.3 51.9 40 51.3 40.6 50.7 41.4 50.2 42.1 49.3 43.7 48.4 45.3 47.6 47 47.2 47.8 46.8 48.7 46.3 49.4 45.8 50.2 45.2 50.9 44.6 51.6 43.3 53 41.7 54 39.9 54.7 39 55 38.1 55.2 37.1 55.3 36.1 55.3 35.2 55.2 34.3 54.8 33.4 54.4 32.7 53.7 32.2 52.9 32 51.9 31.8 51 31.9 50 31.9 48.1 32.1 46.3 32.5 44.5 32.7 43.6 32.9 42.7 33.2 41.8 33.4 41.4 33.5 40.9 33.8 40.5 34 40.1 34.3 39.7 34.6 39.3 34.6 39.3 34.7 39.3 34.7 39.3 34.8 39.4 34.8 39.5 34.8 39.5 34.8 39.5 34.8 39.5 34.8 39.5Z" fill="#D89CE6"/><path d="M58.5 40.1C57.4 40.2 56.5 40.9 56 41.8 55.5 42.7 55.1 43.8 54.8 44.8 54.2 46.9 53.9 49 53.9 51.2 53.9 53.4 54.1 55.5 54.6 57.7 54.8 58.8 55.2 59.8 55.8 60.6 56.1 61 56.5 61.3 57 61.5 57.2 61.6 57.5 61.7 57.7 61.7 57.8 61.7 58 61.7 58.1 61.7 58.3 61.7 58.4 61.7 58.5 61.7 58.6 61.7 58.6 61.8 58.6 61.8 58.6 61.8 58.6 61.9 58.5 61.9L58.5 61.9C58.4 61.9 58.2 61.9 58.1 61.9 58 61.9 57.8 61.9 57.7 61.9 57.4 61.9 57.1 61.8 56.9 61.7 56.4 61.5 55.9 61.1 55.5 60.7 54.8 59.8 54.4 58.8 54.2 57.7 53.7 55.6 53.4 53.4 53.5 51.2 53.6 49 53.9 46.8 54.5 44.7 54.8 43.6 55.2 42.6 55.7 41.6 56 41.1 56.4 40.7 56.9 40.4 57.4 40.1 57.9 39.9 58.5 39.9 58.6 39.9 58.6 39.9 58.6 40 58.5 40.1 58.5 40.1 58.5 40.1Z" fill="#D89CE6"/><path d="M24.6 67.5C24 67.3 23.4 67 22.9 66.5 22.4 66.1 21.9 65.6 21.6 65 19.9 62.1 20 58.6 22 55.9 22.4 55.4 22.8 54.9 23.2 54.4 24 53.5 24.8 52.5 25.5 51.4 26.1 50.3 26.7 49.2 27.2 48 27.7 46.8 28.1 45.6 28.5 44.4 28.8 43.2 29.4 42 30.2 41 30.2 41 30.3 41 30.3 41 30.3 41 30.3 41.1 30.3 41.1 30.3 41.1 30.3 41.1 30.3 41.1 29.6 42.1 29.1 43.3 28.7 44.5 28.3 45.7 27.9 46.9 27.4 48.1 26.9 49.3 26.3 50.4 25.7 51.6 25 52.7 24.3 53.7 23.4 54.7 23 55.2 22.6 55.7 22.2 56.2 21.8 56.7 21.5 57.2 21.3 57.8 20.8 58.9 20.6 60.2 20.7 61.5 20.8 62.7 21.2 64 21.8 65 22.1 65.5 22.6 66 23.1 66.4 23.5 66.8 24.1 67.2 24.6 67.4L24.6 67.4C24.7 67.3 24.7 67.4 24.6 67.5 24.6 67.5 24.6 67.5 24.6 67.5L24.6 67.5Z" fill="#D89CE6"/><path d="M23.3 73.5C23.7 73.5 24.1 73.5 24.4 73.5 24.8 73.5 25.2 73.5 25.5 73.5 26.3 73.4 27.2 73.4 28 73.3 30 73.2 32 72.9 34 72.9L35.8 72.9C38.2 72.8 40.5 72.8 42.9 72.8 45.3 72.8 47.6 72.7 49.9 72.6 52.2 72.5 54.1 72.5 56.3 72.5L57.5 72.5C57.5 72.5 57.5 71.6 57.5 71.3 57.5 70.2 57.7 69 57.9 67.9 56.7 68 55.6 68.1 54.4 68.1L50.8 68.3C48.4 68.4 46 68.5 43.6 68.5 38.9 68.6 34.3 68.7 29.6 69L29 69C28.2 69 27.5 69.1 26.7 69.2 25.6 69.3 24.8 69.4 23.5 69.5 23.5 70.9 23.4 72.2 23.3 73.5Z" fill="#D89CE6"/><path d="M8.6 118.8C8.7 119.5 8.8 120.2 8.7 120.9 8.7 121.6 8.6 122.2 8.4 122.9L8.3 123.4C8.2 123.5 8.2 123.7 8.2 123.9 8.2 124 8.3 124.1 8.4 124.2 8.5 124.3 8.6 124.3 8.7 124.2 9 124 9.2 123.8 9.4 123.5 9.6 123.2 9.8 123 9.9 122.7 10.1 122.1 10.3 121.4 10.3 120.7 10.3 120.4 10.4 120 10.5 119.7 10.7 119.4 10.8 119.1 11.1 118.8 11.6 118.3 12 117.8 12.4 117.2 12.7 116.6 12.9 116 12.9 115.3L12.9 115.3C12.9 115.3 12.9 115.3 13 115.3 13 116 12.9 116.7 12.6 117.3 12.3 117.9 11.9 118.5 11.4 119 11.2 119.3 11 119.5 10.9 119.8 10.8 120.1 10.8 120.5 10.8 120.8 10.7 121.5 10.6 122.2 10.3 122.8 10 123.5 9.6 124 9 124.4 8.9 124.4 8.8 124.5 8.7 124.5 8.6 124.5 8.5 124.5 8.4 124.4 8.3 124.3 8.2 124.3 8.2 124.2 8 124.1 8 124 8 123.9 8 123.7 8 123.5 8.1 123.3L8.2 122.8C8.3 122.1 8.4 121.5 8.5 120.8 8.6 120.1 8.5 119.5 8.5 118.8L8.5 118.8 8.6 118.8Z" fill="#BD5353"/><path d="M39.9 109.5C40 109.7 40.1 110 40.1 110.2 40.2 110.5 40.2 110.7 40.3 111 40.4 111.5 40.5 112 40.6 112.5 40.7 113 40.7 113.5 40.8 114 40.9 114.5 40.9 115 40.9 115.6 40.9 115.6 40.9 115.7 40.8 115.7 40.8 115.7 40.8 115.7 40.7 115.7 40.6 115.2 40.5 114.7 40.4 114.2L40.2 112.7 40 111 39.9 110.2C39.9 109.9 39.8 109.7 39.8 109.4 39.8 109.4 39.9 109.4 39.9 109.5 39.9 109.4 39.9 109.4 39.9 109.5 39.9 109.5 39.9 109.5 39.9 109.5Z" fill="#A84C4C"/><path d="M41 42.3C41.2 42.3 41.3 42.3 41.5 42.3 41.7 42.3 41.8 42.2 42 42.1 42.1 42 42.3 41.9 42.4 41.8 42.5 41.7 42.6 41.6 42.7 41.4 42.7 41.4 42.7 41.3 42.8 41.3 42.8 41.2 42.9 41.2 43 41.2 43.1 41.1 43.2 41.1 43.3 41.1L43.9 41C44.3 41 44.6 40.9 45 40.9 45 40.9 45.1 41 45 41 45 41 45 41 45 41 44.7 41.1 44.3 41.2 43.9 41.2L43.4 41.3 43 41.5C42.9 41.5 43 41.5 42.9 41.6 42.8 41.8 42.7 41.9 42.5 42.1 42.3 42.2 42.2 42.3 42 42.4 41.8 42.5 41.6 42.5 41.4 42.5L41.1 42.5C41 42.5 40.9 42.5 40.8 42.4 40.8 42.4 40.8 42.3 40.8 42.3 40.8 42.3 40.8 42.3 40.8 42.3L41 42.3 41 42.3Z" fill="#A84C4C" opacity="0.8"/><path d="M56.8 57.3C56.9 57.4 57.1 57.6 57.1 57.8 57.2 58 57.3 58.1 57.4 58.3 57.6 58.6 57.8 59 58 59.4 58.2 59.8 58.3 60.1 58.5 60.5 58.7 60.9 58.8 61.2 58.9 61.6 58.9 61.6 58.9 61.7 58.9 61.7 58.9 61.7 58.9 61.7 58.8 61.7 58.6 61.4 58.4 61 58.3 60.6L57.8 59.5 57.3 58.4 57 58C56.9 57.8 56.8 57.6 56.8 57.3 56.7 57.4 56.7 57.4 56.8 57.3 56.7 57.3 56.8 57.3 56.8 57.3Z" fill="#A84C4C"/><path d="M68.1 76.3C68.2 76.3 68.2 76.4 68.3 76.4L68.5 76.5C68.6 76.6 68.7 76.7 68.8 76.8 68.9 76.9 68.9 77 69 77.1 69.1 77.2 69.1 77.3 69.1 77.5 69.1 77.5 69.1 77.6 69 77.6L69 77.6C68.9 77.5 68.8 77.4 68.7 77.3L68.4 77C68.3 76.9 68.3 76.8 68.2 76.7L68.1 76.5C68.1 76.5 68 76.5 68.1 76.3 68 76.3 68.1 76.3 68.1 76.3L68.1 76.3Z" fill="#A84C4C"/><path d="M18.4 79.2C18.5 79.2 18.5 79.3 18.6 79.4 18.7 79.5 18.7 79.5 18.8 79.6 18.9 79.7 19 79.9 19.1 80 19.2 80.1 19.3 80.3 19.4 80.4 19.5 80.6 19.5 80.7 19.6 80.9 19.6 80.9 19.6 81 19.6 81L19.5 81C19.4 80.9 19.2 80.8 19.1 80.6L18.8 80.2C18.7 80.1 18.6 79.9 18.5 79.8L18.4 79.6C18.3 79.4 18.3 79.4 18.4 79.2 18.3 79.2 18.3 79.2 18.4 79.2L18.4 79.2Z" fill="#A84C4C"/><path d="M23.5 73.7C23.5 74.4 23.4 75.1 23.3 75.9 23.2 76.6 23.1 77.3 23 78 22.9 78.7 22.7 79.4 22.6 80.1 22.5 80.8 22.3 81.5 22.2 82.2 22.1 82.9 22 83.6 21.9 84.3 21.8 85 21.7 85.7 21.7 86.4 21.6 87.8 21.7 89.3 21.9 90.7M21.9 90.8 21.9 90.8C21.5 89.4 21.4 87.9 21.5 86.5 21.6 85.1 21.7 83.6 21.9 82.2 22.1 80.8 22.5 79.4 22.8 78 23.1 76.6 23.3 75.2 23.4 73.7 23.4 73.7 23.4 73.7 23.5 73.7L21.9 90.8Z" fill="#A84C4C"/><path d="M48.2 155C48.2 154.9 48.2 154.7 48.2 154.6 48.2 154.5 48.3 154.3 48.3 154.2 48.4 153.9 48.5 153.7 48.6 153.5 48.7 153.3 48.9 153 49 152.8 49.2 152.6 49.3 152.4 49.5 152.2 49.5 152.2 49.6 152.2 49.6 152.2 49.6 152.2 49.6 152.3 49.6 152.3 49.5 152.5 49.3 152.7 49.2 153 49.1 153.3 49 153.4 48.9 153.7 48.8 154 48.7 154.1 48.6 154.4L48.4 154.8C48.4 154.9 48.3 155 48.2 155.2 48.3 155.1 48.2 155.1 48.2 155 48.2 155.1 48.2 155 48.2 155L48.2 155Z" fill="#A84C4C"/><path d="M45.1 152.7C45.2 152.7 45.2 152.8 45.3 152.8L45.4 152.9C45.5 153 45.5 153.1 45.6 153.2 45.6 153.3 45.7 153.4 45.7 153.6 45.7 153.7 45.7 153.9 45.7 154 45.7 154 45.6 154 45.6 154L45.6 154C45.5 153.9 45.5 153.8 45.5 153.7L45.4 153.4C45.4 153.3 45.3 153.2 45.3 153.1 45.3 153 45.3 153 45.3 152.9 45.3 152.8 45.1 152.9 45.1 152.7L45.1 152.7C45.2 152.8 45.1 152.8 45.1 152.7Z" fill="#A84C4C"/><path d="M16 153.6C16 153.5 16 153.5 16.1 153.4 16.1 153.3 16.2 153.3 16.2 153.3 16.3 153.2 16.4 153.1 16.5 153 16.6 152.9 16.7 152.9 16.8 152.8 16.9 152.7 17 152.7 17.2 152.7 17.2 152.7 17.3 152.7 17.3 152.7 17.3 152.7 17.3 152.7 17.3 152.7L17.3 152.7C17.2 152.8 17.1 152.9 17 153 16.9 153.1 16.8 153.2 16.7 153.2 16.6 153.3 16.5 153.3 16.4 153.4L16.3 153.5C16.3 153.5 16.2 153.6 16.1 153.6 16.1 153.7 16 153.7 16 153.6 16 153.6 16 153.6 16 153.6L16 153.6Z" fill="#A84C4C"/><path d="M18.9 213C18.9 213 18.9 213.1 18.9 213 18.8 213.1 18.8 213.1 18.8 213.1 18.8 213.1 18.8 213 18.8 212.9 18.8 212.9 18.8 212.8 18.9 212.8L19 212.6C19.1 212.5 19.2 212.4 19.3 212.3 19.5 212.1 19.7 212 19.9 211.8 20.1 211.7 20.2 211.5 20.2 211.3 20.2 211 20.2 210.8 20.3 210.5 20.3 210.5 20.4 210.5 20.4 210.5 20.4 210.5 20.4 210.5 20.4 210.6 20.4 210.9 20.5 211.1 20.5 211.4 20.5 211.6 20.5 211.7 20.4 211.8 20.3 212 20.2 212.1 20.1 212.2 19.9 212.4 19.6 212.5 19.4 212.6L19.1 212.8 18.9 213C18.9 213 18.9 213.1 18.9 213 18.8 213 18.9 213.1 18.9 213L18.9 213C18.9 213 18.9 213 18.9 213 18.9 213.1 18.9 213 18.9 213 18.9 213 18.9 213 18.9 213Z" fill="#A84C4C"/><path d="M39.7 211.4C39.8 211.4 40 211.3 40.1 211.3L40.5 211.3C40.8 211.3 41 211.4 41.3 211.4 41.5 211.5 41.8 211.6 42 211.7 42.2 211.8 42.4 211.9 42.6 212.1 42.6 212.1 42.6 212.2 42.6 212.2 42.6 212.2 42.6 212.2 42.6 212.2 42.6 212.2 42.6 212.2 42.5 212.2 42.2 212.1 42 212.1 41.8 212L41.1 211.8C40.9 211.7 40.6 211.7 40.4 211.6L40.1 211.5C40 211.6 39.8 211.6 39.7 211.4 39.7 211.5 39.7 211.5 39.7 211.4L39.7 211.4Z" fill="#A84C4C"/><path d="M37.8 30.8C38.2 30.7 38.6 30.6 39 30.5 39.4 30.4 39.8 30.3 40.2 30.1 41 29.8 41.7 29.5 42.5 29.2 43.3 28.9 44 28.6 44.8 28.2 45.5 27.9 46.2 27.4 46.7 26.8 46.7 26.8 46.7 26.7 46.8 26.7 46.8 26.7 46.9 26.7 46.9 26.8 46.9 26.8 46.9 26.8 46.9 26.8 46.4 27.5 45.8 28.1 45 28.4 44.3 28.8 43.5 29.1 42.7 29.5 41.9 29.8 41.2 30.1 40.4 30.4 40 30.5 39.6 30.6 39.2 30.7 38.8 30.8 38.4 30.8 38 30.8 37.7 30.9 37.7 30.9 37.8 30.8 37.7 30.8 37.7 30.8 37.8 30.8Z" fill="#BD5353" opacity="0.6"/><path d="M40.7 4C40.6 4 40.5 4 40.4 4L40.5 3.9C40.5 4.2 40.5 4.5 40.5 4.8 40.5 5.1 40.6 5.4 40.7 5.7 40.9 6.3 41.2 6.8 41.6 7.3 42 7.8 42.4 8.2 42.8 8.6 43.2 9 43.7 9.4 44.1 9.9 45 10.6 46 11.3 47 12 47.5 12.3 48 12.6 48.6 12.8 49.1 13 49.8 13 50.3 12.9L50.2 13.1C49.9 12.5 49.4 12 48.9 11.6 48.4 11.1 47.9 10.7 47.4 10.2 46.4 9.2 45.5 8.1 44.7 7 44.6 6.9 44.6 6.9 44.7 6.8 44.7 6.8 44.7 6.8 44.7 6.8 44.8 6.8 44.8 6.8 44.9 6.8 46.2 7.9 47.6 8.8 49.1 9.6L48.9 9.8C47.8 7.8 46.5 5.9 45 4.1 44.9 4 44.9 4 45 3.9 45 3.9 45 3.9 45 3.9 45 3.9 45.1 3.9 45.2 3.9 48.5 5.4 51.1 8.1 52.5 11.4 53 12.5 53.2 13.7 53.1 14.9 53.1 14.9 53.1 15 53.1 15 53.1 15 53 15 53 14.9 53 13.7 52.8 12.6 52.3 11.5 51.8 10.4 51.2 9.4 50.5 8.5 49.1 6.6 47.2 5.1 45.1 4.1L45.2 4C46.7 5.8 48 7.7 49.1 9.7 49.1 9.8 49.1 9.9 49 9.9 49 9.9 49 9.9 49 9.9 49 9.9 48.9 9.9 48.9 9.9 47.4 9.1 45.9 8.1 44.6 7L44.8 6.8C45.6 7.9 46.5 9 47.4 10 47.9 10.5 48.4 11 48.9 11.4 49.2 11.6 49.4 11.8 49.7 12.1 50 12.3 50.2 12.7 50.3 13 50.3 13.1 50.3 13.1 50.2 13.2L50.2 13.2C49.6 13.4 48.9 13.3 48.3 13.1 47.7 12.9 47.2 12.6 46.7 12.2 45.7 11.5 44.7 10.8 43.8 10 43.3 9.6 42.9 9.2 42.5 8.7 42.1 8.3 41.7 7.8 41.3 7.3 40.9 6.8 40.6 6.3 40.4 5.7 40.2 5.1 40.1 4.5 40.3 3.9L40.3 3.9C40.3 3.9 40.3 3.8 40.4 3.8 40.6 3.8 40.7 3.8 40.8 3.9 40.8 3.9 40.8 4 40.8 4 40.7 4.1 40.7 4.1 40.7 4 40.7 4 40.7 4 40.7 4Z" fill="#BDA08C"/><path d="M46 0.9C44.7 0.6 43.4 0.7 42.1 1.2 40.9 1.7 39.7 2.4 38.6 3.2 38.1 3.6 37.6 4 37.1 4.4 36.6 4.9 36.3 5.4 36.2 6.1 36.1 6.8 36.1 7.4 36.4 8 36.6 8.6 36.9 9.2 37.3 9.7 38.1 10.8 39 11.7 40.2 12.4 40.8 12.8 41.3 13.1 42 13.3 42.6 13.5 43.3 13.7 43.9 13.8 44.6 13.9 45.2 14.2 45.8 14.6 46.4 15 46.8 15.5 47.1 16.1 47.3 16.4 47.4 16.8 47.5 17.1 47.6 17.4 47.7 17.7 47.8 18 47.9 18.3 48.1 18.5 48.4 18.7 48.7 18.9 49 18.9 49.3 18.7 49.3 18.7 49.4 18.7 49.4 18.7 49.4 18.7 49.4 18.7 49.4 18.7 49.4 18.7 49.4 18.8 49.4 18.8 49.4 18.8 49.4 18.8 49.4 18.8 49.1 19 48.7 19 48.4 18.9 48.1 18.7 47.8 18.5 47.7 18.1 47.5 17.5 47.3 16.8 47 16.2 46.7 15.6 46.3 15.1 45.7 14.8 45.2 14.4 44.6 14.2 43.9 14 43.2 13.9 42.6 13.7 41.9 13.5 41.3 13.3 40.6 13 40.1 12.6 38.9 11.9 37.9 10.9 37.1 9.8 36.7 9.2 36.4 8.6 36.1 8 35.9 7.4 35.8 6.7 36 6 36.2 5.3 36.5 4.7 37 4.2 37.5 3.7 38 3.3 38.6 2.9 39.7 2.1 40.9 1.4 42.1 0.9 43.4 0.4 44.8 0.3 46.1 0.7 46.1 0.7 46.1 0.8 46 0.9 46.1 0.8 46.1 0.9 46 0.9Z" fill="#BDA08C"/><path d="M11.1 46.4C11.7 46.5 12.3 46.5 12.9 46.4 13.5 46.3 14.1 46 14.5 45.7 15.5 44.9 16.2 43.9 16.7 42.8 17.2 41.7 17.5 40.5 18.1 39.3 18.4 38.7 18.7 38.2 19.2 37.7 19.6 37.2 20.2 36.9 20.8 36.7 20.8 36.7 20.9 36.7 20.9 36.7 20.9 36.7 20.9 36.8 20.9 36.8 19.8 37.3 18.9 38.2 18.4 39.4 17.8 40.6 17.5 41.8 17.1 43 16.6 44.2 15.8 45.2 14.8 46 14.3 46.4 13.7 46.6 13.1 46.8 12.5 46.9 11.8 46.9 11.2 46.7 11.1 46.6 11.1 46.6 11.1 46.4 11.1 46.5 11.1 46.5 11.1 46.4Z" fill="#BDA08C"/><path d="M52.9 3.4C53.6 3.7 54.2 4.1 54.7 4.6 55.2 5.1 55.7 5.7 56 6.3 56.7 7.5 57.3 8.8 57.7 10.2 57.9 10.9 58 11.6 58.1 12.3 58.2 13 58.2 13.7 58.2 14.4 58.2 15.8 58 17.2 57.7 18.6 57.5 20 57.1 21.4 56.7 22.7 56.3 24 55.7 25.4 55.1 26.6 53.9 29.2 51.9 31.3 49.4 32.8 49.4 32.8 49.3 32.8 49.3 32.8 49.3 32.8 49.3 32.8 49.3 32.8 49.3 32.8 49.3 32.7 49.3 32.7 51.6 31.2 53.5 29.1 54.8 26.6 56 24.1 56.9 21.4 57.4 18.7 57.7 17.3 57.8 15.9 57.9 14.5 57.9 13.8 57.9 13.1 57.8 12.4 57.7 11.7 57.6 11.1 57.4 10.4 57 9.1 56.4 7.8 55.7 6.6 55 5.4 54 4.4 52.8 3.8 52.8 3.8 52.8 3.7 52.8 3.7 52.8 3.7 52.8 3.7 52.8 3.7 52.8 3.5 52.8 3.5 52.9 3.4 52.9 3.4 52.9 3.4 52.9 3.4Z" fill="#BDA08C"/><path d="M17.3 44C17.6 43.7 17.9 43.3 18.2 43 18.5 42.7 18.7 42.3 19 41.9 19.5 41.2 20 40.4 20.5 39.7 21.1 39 21.7 38.4 22.5 37.9 23.3 37.4 24.2 37.1 25.1 37.2 25.1 37.2 25.2 37.2 25.2 37.3 25.2 37.3 25.2 37.3 25.2 37.3 25.2 37.3 25.2 37.4 25.1 37.4 24.2 37.4 23.4 37.7 22.6 38.2 21.9 38.7 21.2 39.3 20.7 40 20.1 40.7 19.6 41.4 19.1 42.2 18.8 42.6 18.6 42.9 18.3 43.3 18 43.7 17.7 44 17.4 44.3 17.4 44.3 17.3 44.3 17.3 44.3 17.2 44.1 17.2 44.1 17.3 44 17.2 44 17.2 44 17.3 44Z" fill="#BDA08C"/><path d="M54.6 9C54.8 9.3 54.9 9.7 55.1 10.1L55.3 10.7 55.5 11.3C55.7 12 55.8 12.8 55.9 13.6 56 14.4 55.9 15.1 55.8 15.9 55.7 16.7 55.5 17.4 55.2 18.2 55.2 18.2 55.1 18.2 55.1 18.2 55.1 18.2 55.1 18.2 55.1 18.2 55.1 18.2 55.1 18.1 55.1 18.1 55.3 17.4 55.4 16.6 55.5 15.9 55.6 15.2 55.6 14.4 55.6 13.6 55.6 12.8 55.5 12.1 55.3 11.4L55 10.7 54.8 10.2 54.6 9.7C54.5 9.5 54.5 9.4 54.4 9.2L54.4 9.2C54.4 9.2 54.4 9.1 54.4 9.1 54.5 9 54.5 9 54.6 9 54.5 9 54.6 9 54.6 9Z" fill="#BDA08C"/><path d="M54.5 19.6C54.5 19.7 54.5 19.9 54.4 20 54.4 20.1 54.3 20.3 54.3 20.4 54.3 20.5 54.1 21 54 21.2 53.9 21.5 53.7 21.7 53.6 22 53.5 22.2 53.3 22.5 53.1 22.7 53.1 22.7 53 22.7 53 22.7 53 22.7 53 22.7 53 22.6 53.1 22.3 53.2 22.1 53.4 21.9 53.5 21.7 53.7 21.4 53.8 21.2 53.9 21 54 20.7 54.1 20.4L54.3 20C54.3 19.9 54.4 19.7 54.5 19.6 54.4 19.5 54.5 19.5 54.5 19.6 54.5 19.6 54.5 19.6 54.5 19.6Z" fill="#BDA08C"/><path d="M56.5 69.3C62.1 82.6 64.9 97.1 64.3 111.5 64.2 114.4 63.9 117.3 64 120.3 64.1 124.3 64.6 128.6 65.2 132.6 62.3 133.9 58.9 132.5 55.7 132.2 52.6 131.9 49.4 132.7 46.2 132.5 44.1 132.4 42 131.9 40 131.6 35.7 131.1 31.4 131.6 27.1 131.5 22.8 131.4 18.2 130.7 14.8 128.1 17.4 115.9 19.1 103.5 20.7 91.1 21.8 82.4 23 73.7 24.1 65 31.9 66.7 39.3 67.7 47.2 68.8 50.3 69.3 53.4 69.8 56.5 69.3Z" fill="#D89CE6"/><path d="M31.7 33C31.7 32.9 31.8 32.9 31.9 32.8L32.1 32.6C32.2 32.5 32.3 32.4 32.4 32.2 32.5 32.1 32.6 31.9 32.6 31.8 32.7 31.7 32.8 31.5 32.9 31.4L32.9 31.4C32.9 31.4 33 31.4 33 31.4 33 31.4 33 31.4 33 31.4 33 31.6 33 31.7 32.9 31.9 32.8 32.1 32.7 32.2 32.6 32.3 32.5 32.4 32.4 32.6 32.3 32.7L32 33C31.9 33 31.9 33.1 31.8 33.1 31.7 33.1 31.7 33.1 31.7 33L31.7 33 31.7 33Z" fill="#BDA08C"/><path d="M39.3 66.2C39.8 66.5 40.3 66.6 40.9 66.6 41.5 66.7 42 66.7 42.6 66.7 43.7 66.7 44.9 66.6 46 66.4 47.1 66.2 48.2 65.8 49.1 65.2 49.6 64.9 50 64.6 50.4 64.2 50.8 63.8 51 63.3 51.2 62.8 51.2 62.8 51.3 62.8 51.3 62.8 51.3 62.8 51.3 62.9 51.3 62.9 51.2 63.5 50.9 64 50.5 64.5 50.1 64.9 49.7 65.3 49.2 65.6 48.2 66.2 47.1 66.5 46 66.8 44.9 67 43.7 67.1 42.6 67.1 42 67.1 41.5 67 40.9 66.9 40.6 66.9 40.3 66.8 40.1 66.8 39.8 66.7 39.5 66.6 39.3 66.4 39.2 66.3 39.2 66.3 39.3 66.2 39.2 66.3 39.2 66.3 39.3 66.2 39.2 66.2 39.3 66.2 39.3 66.2Z" fill="#BDA08C"/><path d="M24.3 67.2C24.5 67.2 24.6 67.3 24.8 67.3L25.3 67.4C25.6 67.5 26 67.5 26.3 67.6 27 67.7 27.6 67.7 28.3 67.7 28.3 67.7 28.3 67.7 28.3 67.7 28.3 67.7 28.3 67.7 28.3 67.8 28 67.9 27.6 67.9 27.3 68 26.6 68 25.9 67.9 25.2 67.7 25 67.6 24.9 67.6 24.7 67.5 24.6 67.4 24.4 67.3 24.3 67.2 24.3 67.2 24.3 67.2 24.3 67.2 24.3 67.1 24.3 67.2 24.3 67.2Z" fill="#BDA08C"/></g></g></g><path d="M51.5 72.6C53.4 72.7 55.4 72.4 57.2 71.7 56.3 72.7 55.2 73.8 53.8 74.2" stroke="#BDA08C" stroke-width="0.25" stroke-miterlimit="10" fill="none"/><path d="M22.6 78.5C21.6 82.7 21.8 87.1 23.3 91.1" stroke="#BDA08C" stroke-width="0.25" stroke-miterlimit="10" fill="none"/><path d="M23.9 219.3C23.1 220.5 21.5 221 20.1 221 18.9 221 17.7 220.9 16.6 220.5 15.9 220.3 15.2 220 14.5 219.9 13.9 219.9 13.3 220 12.8 220.1 9.8 220.8 6.8 221.6 3.8 221.5 2 221.5-0.1 220.8-0.4 219-0.4 218.7-0.4 218.4-0.2 218.2-0.1 218 0.2 217.9 0.4 217.8 2.6 216.9 4.9 216.1 7.1 215.2 7.3 216 8.2 216.2 9 216.3 12.5 216.6 16.1 216.4 19.5 215.7 20.5 215.5 23.1 214.3 23.9 214.9 24.9 215.6 24.4 218.5 23.9 219.3Z" fill="#D89CE6"/><path d="M37 218C38.5 219.3 40.5 218.9 41.9 218.6 42.5 218.5 43.1 218.3 43.7 217.9 44.5 217.3 45 216.4 45.2 215.5 45.4 214.6 45.4 213.6 45.5 212.6 47 215.7 47.3 218.6 46.5 220.1 46.2 220.7 45.7 221.1 45.7 221.1 45.3 221.5 44.7 222 42.9 222.3 41.9 222.5 40.8 222.7 39.8 222.9 38.4 223.2 36.9 223.4 35.7 222.6 34.9 222 34.5 221 34.4 220 34.4 219.4 34.3 218.8 34.7 217 34.9 216 35.3 214.7 35.8 213.2 35.4 215.1 35.8 217 37 218Z" fill="#D89CE6"/></svg>